<svg width="94" height="65" viewBox="0 0 94 65" fill="none" xmlns="http://www.w3.org/2000/svg">
<path fill-rule="evenodd" clip-rule="evenodd" d="M10 0.731445C4.47715 0.731445 0 5.2086 0 10.7315V54.2685C0 59.7913 4.47715 64.2685 10 64.2685H84C89.5229 64.2685 94 59.7913 94 54.2685V10.7314C94 5.2086 89.5229 0.731445 84 0.731445H10ZM43.5185 21.0092C43.5185 19.9047 44.4139 19.0092 45.5185 19.0092H48.4815C49.5861 19.0092 50.4815 19.9047 50.4815 21.0092V29.4537H58.9259C60.0305 29.4537 60.9259 30.3491 60.9259 31.4537V34.4166C60.9259 35.5212 60.0305 36.4166 58.9259 36.4166H50.4815V44.8611C50.4815 45.9656 49.5861 46.8611 48.4815 46.8611H45.5185C44.4139 46.8611 43.5185 45.9656 43.5185 44.8611V36.4166H35.0741C33.9695 36.4166 33.0741 35.5212 33.0741 34.4166V31.4537C33.0741 30.3491 33.9695 29.4537 35.0741 29.4537H43.5185V21.0092Z" fill="#002033" fill-opacity="0.2"/>
</svg>
