<svg width="16" height="17" viewBox="0 0 16 17" fill="none" xmlns="http://www.w3.org/2000/svg">
<path d="M8.71567 13.2158L13.7157 8.2158C13.8089 8.12256 13.8829 8.01187 13.9333 7.89005C13.9838 7.76823 14.0098 7.63766 14.0098 7.5058C14.0098 7.2395 13.904 6.9841 13.7157 6.7958C13.6224 6.70256 13.5117 6.6286 13.3899 6.57814C13.2681 6.52768 13.1375 6.50171 13.0057 6.50171C12.7394 6.50171 12.484 6.60749 12.2957 6.7958L8.00567 11.0958L3.71567 6.7958C3.62271 6.70207 3.51211 6.62768 3.39025 6.57691C3.26839 6.52614 3.13769 6.5 3.00567 6.5C2.87366 6.5 2.74296 6.52614 2.6211 6.57691C2.49924 6.62768 2.38864 6.70207 2.29568 6.7958C2.20195 6.88876 2.12755 6.99936 2.07678 7.12122C2.02601 7.24308 1.99988 7.37379 1.99988 7.5058C1.99988 7.63781 2.02601 7.76852 2.07678 7.89038C2.12755 8.01223 2.20195 8.12284 2.29568 8.2158L7.29567 13.2158C7.38864 13.3095 7.49924 13.3839 7.6211 13.4347C7.74296 13.4855 7.87366 13.5116 8.00567 13.5116C8.13769 13.5116 8.26839 13.4855 8.39025 13.4347C8.51211 13.3839 8.62271 13.3095 8.71567 13.2158Z" fill="#939393"/>
</svg>
