<svg width="16" height="16" viewBox="0 0 16 16" fill="none" xmlns="http://www.w3.org/2000/svg">
<path d="M13.3333 7.33333C13.1565 7.33333 12.987 7.40357 12.8619 7.5286C12.7369 7.65362 12.6667 7.82319 12.6667 8V12C12.6667 12.1768 12.5964 12.3464 12.4714 12.4714C12.3464 12.5964 12.1768 12.6667 12 12.6667H4C3.82319 12.6667 3.65362 12.5964 3.5286 12.4714C3.40357 12.3464 3.33333 12.1768 3.33333 12V4C3.33333 3.82319 3.40357 3.65362 3.5286 3.5286C3.65362 3.40357 3.82319 3.33333 4 3.33333H8C8.17681 3.33333 8.34638 3.2631 8.4714 3.13807C8.59643 3.01305 8.66667 2.84348 8.66667 2.66667C8.66667 2.48986 8.59643 2.32029 8.4714 2.19526C8.34638 2.07024 8.17681 2 8 2H4C3.46957 2 2.96086 2.21071 2.58579 2.58579C2.21071 2.96086 2 3.46957 2 4V12C2 12.5304 2.21071 13.0391 2.58579 13.4142C2.96086 13.7893 3.46957 14 4 14H12C12.5304 14 13.0391 13.7893 13.4142 13.4142C13.7893 13.0391 14 12.5304 14 12V8C14 7.82319 13.9298 7.65362 13.8047 7.5286C13.6797 7.40357 13.5101 7.33333 13.3333 7.33333Z" fill="black"/>
<path d="M10.6663 3.33333H11.7196L7.5263 7.52C7.46381 7.58198 7.41422 7.65571 7.38037 7.73695C7.34653 7.81819 7.3291 7.90533 7.3291 7.99333C7.3291 8.08134 7.34653 8.16848 7.38037 8.24972C7.41422 8.33096 7.46381 8.40469 7.5263 8.46667C7.58828 8.52915 7.66201 8.57875 7.74325 8.61259C7.82449 8.64644 7.91163 8.66387 7.99963 8.66387C8.08764 8.66387 8.17478 8.64644 8.25602 8.61259C8.33726 8.57875 8.41099 8.52915 8.47297 8.46667L12.6663 4.28V5.33333C12.6663 5.51014 12.7365 5.67971 12.8616 5.80474C12.9866 5.92976 13.1562 6 13.333 6C13.5098 6 13.6793 5.92976 13.8044 5.80474C13.9294 5.67971 13.9996 5.51014 13.9996 5.33333V2.66667C13.9996 2.48986 13.9294 2.32029 13.8044 2.19526C13.6793 2.07024 13.5098 2 13.333 2H10.6663C10.4895 2 10.3199 2.07024 10.1949 2.19526C10.0699 2.32029 9.99963 2.48986 9.99963 2.66667C9.99963 2.84348 10.0699 3.01305 10.1949 3.13807C10.3199 3.2631 10.4895 3.33333 10.6663 3.33333Z" fill="black"/>
</svg>
