<svg width="363" height="336" viewBox="0 0 363 336" fill="none" xmlns="http://www.w3.org/2000/svg">
<path d="M199.316 182.805H250.292L207.15 142.447H154.295V190.502L199.316 232.961V182.805Z" fill="#EE7913"/>
<path d="M362.608 288.326L271.61 202.913H220.361V253.198L307.563 335.716H362.608V288.326Z" fill="url(#paint0_linear_2562_48740)"/>
<path d="M220.35 203.122H271.664L250.053 182.882H198.986V233.19L220.35 253.363V203.122Z" fill="#F0E64A"/>
<path d="M206.401 265.849C198.68 267.537 190.652 268.454 182.369 268.454C123.131 268.454 72.7511 222.167 72.7511 162.154C72.7511 102.14 122.577 56.8733 182.369 56.8733C242.162 56.8733 289.773 102.138 289.773 162.154C289.773 171.914 288.493 181.306 286.127 190.202L340.956 242.292C355.092 218.757 363 191.393 363 161.753C363 69.2564 285.317 0 181.261 0C77.6812 0 0 68.8017 0 161.753C0 255.159 77.6835 325.329 181.261 325.329C208 325.329 232.989 320.656 255.374 312.151L206.401 265.849Z" fill="url(#paint1_linear_2562_48740)"/>
<path d="M154.295 142.447L362.612 335.716V288.399L271.751 203.125L250.2 182.899L207.1 142.447H154.295Z" fill="white" fill-opacity="0.172549"/>
<defs>
<linearGradient id="paint0_linear_2562_48740" x1="292.599" y1="340.295" x2="287.771" y2="5.9476" gradientUnits="userSpaceOnUse">
<stop stop-color="#589632"/>
<stop offset="1" stop-color="#93B023"/>
</linearGradient>
<linearGradient id="paint1_linear_2562_48740" x1="184.371" y1="340.97" x2="179.579" y2="9.38221" gradientUnits="userSpaceOnUse">
<stop stop-color="#589632"/>
<stop offset="1" stop-color="#93B023"/>
</linearGradient>
</defs>
</svg>
