<?xml version="1.0" encoding="UTF-8" standalone="no"?>
<!-- Generator: Adobe Illustrator 16.0.0, SVG Export Plug-In . SVG Version: 6.00 Build 0)  -->

<svg
   version="1.1"
   id="Layer_1"
   x="0px"
   y="0px"
   width="336"
   height="336"
   viewBox="0 0 134.4 134.4"
   enable-background="new 0 0 128 128"
   xml:space="preserve"
   sodipodi:docname="logosign.svg"
   inkscape:version="1.1.2 (0a00cf5339, 2022-02-04)"
   xmlns:inkscape="http://www.inkscape.org/namespaces/inkscape"
   xmlns:sodipodi="http://sodipodi.sourceforge.net/DTD/sodipodi-0.dtd"
   xmlns="http://www.w3.org/2000/svg"
   xmlns:svg="http://www.w3.org/2000/svg"><defs
   id="defs1165" /><sodipodi:namedview
   id="namedview1163"
   pagecolor="#ffffff"
   bordercolor="#666666"
   borderopacity="1.0"
   inkscape:pageshadow="2"
   inkscape:pageopacity="0.0"
   inkscape:pagecheckerboard="0"
   showgrid="false"
   inkscape:zoom="0.6484375"
   inkscape:cx="26.216867"
   inkscape:cy="-209.73494"
   inkscape:window-width="3440"
   inkscape:window-height="1384"
   inkscape:window-x="0"
   inkscape:window-y="0"
   inkscape:window-maximized="1"
   inkscape:current-layer="Layer_1" />
<polygon
   fill="#ee7913"
   points="71.697,54.625 52.613,54.625 52.613,72.746 68.613,88.548 68.613,69.625 86.891,69.625 "
   id="polygon1142"
   transform="translate(3.9590361,3.4722892)" />
<linearGradient
   id="SVGID_1_"
   gradientUnits="userSpaceOnUse"
   x1="402.52441"
   y1="-220.87061"
   x2="400.64789"
   y2="-97.502296"
   gradientTransform="matrix(1,0,0,-1,-300.5195,-92.5547)">
	<stop
   offset="0"
   style="stop-color:#589632"
   id="stop1144" />
	<stop
   offset="1"
   style="stop-color:#93B023"
   id="stop1146" />
</linearGradient>
<polygon
   fill="url(#SVGID_1_)"
   points="76.613,77.625 76.613,96.033 107.143,126.625 126.613,126.625 126.613,109.057 94.488,77.625 "
   id="polygon1149"
   style="fill:url(#SVGID_1_)"
   transform="translate(3.9590361,3.4722892)" />
<polygon
   fill="#f0e64a"
   points="86.891,69.625 68.613,69.625 68.613,88.548 76.613,96.033 76.613,77.625 94.488,77.625 "
   id="polygon1151"
   transform="translate(3.9590361,3.4722892)" />
<linearGradient
   id="SVGID_2_"
   gradientUnits="userSpaceOnUse"
   x1="365.46191"
   y1="-221.14549"
   x2="363.59229"
   y2="-98.226997"
   gradientTransform="matrix(1,0,0,-1,-296.56046,-89.082411)">
	<stop
   offset="0"
   style="stop-color:#589632"
   id="stop1153" />
	<stop
   offset="1"
   style="stop-color:#93B023"
   id="stop1155" />
</linearGradient>
<path
   fill="url(#SVGID_2_)"
   d="m 72.882036,105.02429 c -1.165,0.242 -1.769,0.157 -4.685,0.157 -20.866,0 -38.612,-17.158001 -38.612,-39.406001 0,-22.248 17.551,-39.027 38.612,-39.027 21.061,0 37.833004,16.78 37.833004,39.027 0,3.619 -0.451,7.099 -1.284,10.398 l 19.313,19.311 c 4.979,-8.726 7.765,-18.869 7.765,-29.857 0,-34.289 -27.363,-59.9629998 -64.016004,-59.9629998 -36.486,-10e-4 -63.8489999,25.5039998 -63.8489999,59.9619998 0,34.625001 27.3629999,60.638001 63.8479999,60.638001 9.417,0 16.069,-1.469 23.042,-3.761 z"
   id="path1158"
   style="fill:url(#SVGID_2_)" />
<polygon
   opacity="0.15"
   fill="#ffffff"
   enable-background="new    "
   points="126.613,109.057 126.613,126.625 53.083,54.625 71.697,54.625 "
   id="polygon1160"
   transform="translate(3.9590361,3.4722892)" />
</svg>
