<svg width="71" height="54" viewBox="0 0 71 54" fill="none" xmlns="http://www.w3.org/2000/svg">
<g opacity="0.7">
<rect x="28" y="1" width="16" height="30" rx="8" stroke="white" stroke-width="2"/>
<rect x="35" y="7" width="2" height="6" rx="1" fill="white"/>
<path d="M3.9558 40.54C5.0478 40.54 6.1158 40.888 6.8958 41.404L6.3078 42.652C5.3958 42.1 4.4838 41.872 3.8478 41.872C3.0198 41.872 2.4798 42.184 2.4798 42.748C2.4798 44.584 7.0158 43.6 7.0038 46.624C7.0038 48.124 5.6838 49.048 3.8358 49.048C2.5158 49.048 1.2678 48.508 0.403797 47.716L1.0158 46.492C1.8798 47.284 2.9598 47.716 3.8598 47.716C4.8438 47.716 5.4318 47.344 5.4318 46.696C5.4318 44.824 0.895797 45.868 0.895797 42.88C0.895797 41.44 2.1318 40.54 3.9558 40.54ZM11.1926 42.568C12.3446 42.568 13.2446 42.94 13.8326 43.612L13.0766 44.5C12.6326 44.044 12.0206 43.768 11.2526 43.78C10.1486 43.78 9.35664 44.608 9.35664 45.82C9.35664 47.032 10.1486 47.86 11.2526 47.86C12.0566 47.86 12.7046 47.596 13.1366 47.092L13.9046 47.86C13.3286 48.616 12.4046 49.048 11.1926 49.048C9.29664 49.048 7.97664 47.74 7.97664 45.82C7.97664 43.888 9.29664 42.568 11.1926 42.568ZM16.7301 42.616V43.888C17.1621 43.024 17.9301 42.568 18.9381 42.568V43.888C17.6541 43.816 16.8381 44.572 16.7301 45.664V49H15.3501V42.616H16.7301ZM22.8087 42.568C24.7767 42.568 26.1327 43.876 26.1327 45.808C26.1327 47.728 24.7767 49.048 22.8087 49.048C20.8287 49.048 19.4727 47.728 19.4727 45.808C19.4727 43.876 20.8287 42.568 22.8087 42.568ZM22.8087 43.756C21.6567 43.756 20.8527 44.596 20.8527 45.82C20.8527 47.056 21.6567 47.896 22.8087 47.896C23.9487 47.896 24.7527 47.056 24.7527 45.82C24.7527 44.596 23.9487 43.756 22.8087 43.756ZM29.0127 49H27.6327V40.096H29.0127V49ZM32.5518 49H31.1718V40.096H32.5518V49ZM43.8286 40.096V49H42.4486V47.908C41.9926 48.652 41.2246 49.06 40.2046 49.06C38.3686 49.06 37.1446 47.728 37.1446 45.784C37.1446 43.864 38.3806 42.556 40.1806 42.556C41.2126 42.556 41.9806 42.976 42.4486 43.72V40.096H43.8286ZM40.4926 47.908C41.6446 47.908 42.4486 47.044 42.4486 45.832C42.4486 44.596 41.6446 43.732 40.4926 43.732C39.3406 43.732 38.5366 44.608 38.5246 45.832C38.5366 47.044 39.3286 47.908 40.4926 47.908ZM48.6603 42.568C50.6283 42.568 51.9843 43.876 51.9843 45.808C51.9843 47.728 50.6283 49.048 48.6603 49.048C46.6803 49.048 45.3243 47.728 45.3243 45.808C45.3243 43.876 46.6803 42.568 48.6603 42.568ZM48.6603 43.756C47.5083 43.756 46.7043 44.596 46.7043 45.82C46.7043 47.056 47.5083 47.896 48.6603 47.896C49.8003 47.896 50.6043 47.056 50.6043 45.82C50.6043 44.596 49.8003 43.756 48.6603 43.756ZM60.6179 49H59.1899L57.5699 44.272L55.9499 49H54.5339L52.1819 42.616H53.5979L55.2539 47.632L56.8619 42.616H58.2899L59.9099 47.632L61.5419 42.616H62.9459L60.6179 49ZM67.7032 42.568C69.1912 42.568 70.0792 43.504 70.0792 45.028V49H68.6992V45.412C68.6992 44.452 68.1232 43.864 67.1632 43.864C66.1072 43.876 65.4472 44.608 65.3512 45.604V49H63.9712V42.616H65.3512V43.84C65.8072 42.952 66.6232 42.568 67.7032 42.568Z" fill="white"/>
</g>
</svg>
