<?xml version="1.0" encoding="UTF-8" standalone="no"?>
<!-- Created with Inkscape (http://www.inkscape.org/) -->

<svg
   version="1.1"
   id="svg18"
   width="704.88187"
   height="379.7745"
   viewBox="0 0 704.88187 379.7745"
   xmlns="http://www.w3.org/2000/svg"
   xmlns:svg="http://www.w3.org/2000/svg">
  <defs
     id="defs22" />
  <g
     id="g26"
     transform="matrix(1.3333333,0,0,-1.3333333,0,379.77333)">
    <g
       id="g28"
       transform="scale(0.1)">
      <path
         d="m 2757.67,1162.4 c -41.66,0.06 -63.04,13.66 -63.55,40.42 0,12.14 0,45.76 68.1,51.78 12.15,0.16 49.19,2.24 76.89,3.89 v -66.36 c -15.86,-13.09 -42.84,-28.85 -81.44,-29.73"
         style="fill:#000000;fill-opacity:1;fill-rule:nonzero;stroke:none"
         id="path40" />
      <path
         d="m 2868.37,1289.61 c -14.4,-0.96 -93.12,-5.75 -107.51,-5.75 -57.6,-4.81 -96,-29.77 -96,-81.59 0.97,-49.93 43.2,-69.13 93.12,-69.13 46.07,0.97 84.47,20.16 110.39,46.08 z m -58.51,-62.11 v -20.46 c -12.44,-7.75 -29.85,-14.8 -52.5,-15.38 -22.69,0.09 -32.15,5.7 -33.34,7.02 -0.01,0.02 -0.54,1.2 -0.64,4.27 0.03,7.32 1.23,18.79 40.41,22.43 9.22,0.17 27.29,1.07 46.07,2.12"
         style="fill:#000000;fill-opacity:1;fill-rule:nonzero;stroke:none"
         id="path42" />
      <path
         d="m 2213.66,1169.12 c -26.65,0 -49.26,9.54 -67.21,28.37 -26.58,27.88 -40.42,73.55 -37.96,125.29 3.26,72.28 25.81,158.36 114.77,158.36 32.79,0 57.63,-5.03 75.38,-10.84 v -275.71 c -18.78,-13.44 -43.55,-25.47 -84.98,-25.47"
         style="fill:#000000;fill-opacity:1;fill-rule:nonzero;stroke:none"
         id="path44" />
      <path
         d="m 2223.26,1510.39 c -96,0 -139.19,-79.66 -143.99,-186.22 -4.8,-100.79 46.07,-184.3 134.39,-184.3 61.44,0 94.07,24 114.23,40.32 v 310.04 c -24.96,11.53 -59.51,20.16 -104.63,20.16 m 0,-58.5 c 18.22,0 33.51,-1.69 46.12,-4.18 V 1210.7 c -12.83,-6.77 -30.32,-12.32 -55.72,-12.32 -18.59,0 -33.65,6.31 -46.03,19.3 -20.79,21.8 -31.97,60.57 -29.91,103.86 2,44.31 11.4,79.59 27.2,102.01 13.78,19.59 31.78,28.34 58.34,28.34"
         style="fill:#000000;fill-opacity:1;fill-rule:nonzero;stroke:none"
         id="path46" />
      <path
         d="m 3718.61,1162.4 c -41.66,0.06 -63.04,13.66 -63.55,40.42 0,12.14 0,45.76 68.1,51.78 12.15,0.16 49.19,2.24 76.89,3.89 v -66.36 c -15.86,-13.09 -42.84,-28.85 -81.44,-29.73"
         style="fill:#000000;fill-opacity:1;fill-rule:nonzero;stroke:none"
         id="path48" />
      <path
         d="m 3829.31,1289.61 c -14.4,-0.96 -93.12,-5.75 -107.51,-5.75 -57.6,-4.81 -96,-29.77 -96,-81.59 0.97,-49.93 43.2,-69.13 93.12,-69.13 46.07,0.97 84.47,20.16 110.39,46.08 z m -58.51,-62.11 v -20.46 c -12.44,-7.75 -29.85,-14.8 -52.5,-15.38 -22.69,0.09 -32.15,5.7 -33.34,7.02 -0.01,0.02 -0.54,1.2 -0.64,4.27 0.03,7.32 1.23,18.79 40.41,22.43 9.22,0.17 27.29,1.07 46.07,2.12"
         style="fill:#000000;fill-opacity:1;fill-rule:nonzero;stroke:none"
         id="path50" />
      <path
         d="m 3126.16,1219.54 c 0,-125.26 69.48,-194.13 200.93,-199.15 l 1.12,-0.02 c 10.13,0 62.61,0.35 100.26,7.2 l 25.86,4.7 -10.88,149.09 -30.57,-3.83 c -18.92,-2.36 -41.22,-4.78 -63.17,-4.78 -8.03,0 -15.74,0.33 -22.93,0.98 -26.49,3.75 -36.51,11.26 -36.51,71.73 v 232.8 h 146.87 v 146.83 h -146.87 v 119.99 h -164.11 v -128.82 l -77.75,-8.64 v -129.36 h 77.75 z m -909.94,416.1 c -194.91,-2.15 -267.71,-161.99 -270.83,-310.86 -1.68,-96.86 27.48,-180.75 82.1,-236.32 46.24,-47.05 107.96,-71.93 178.49,-71.93 32.66,0 64.58,5.92 92.66,16.79 v -7.19 h 163.14 v 789.98 h -163.14 v -190.66 c -26.19,6.2 -56.62,10.2 -82.09,10.2 h -0.17 z m 534.52,-239.05 c -142.62,-7.93 -225.07,-83.13 -220.7,-201.18 2.95,-82.56 59.43,-179.02 208.91,-179.02 3.39,0 6.82,0.05 10.31,0.16 50.72,0.8 92.42,14.61 128.78,43.05 28.66,-24.68 73.35,-36.73 139.4,-38.26 l 26.58,-0.62 17.15,143.52 -28.77,3.68 c -31.52,4.05 -36.34,8.61 -36.87,34.93 l 0.01,220.19 c 0,27.84 0,79.66 -30.26,126.47 -36.98,57.18 -105.48,86.18 -203.59,86.18 l -6.99,-0.05 c -56.67,-0.93 -109,-7.99 -169.77,-22.92 l -26.2,-6.43 23.47,-145.54 29.5,5.53 c 62.78,11.77 111.02,17.74 143.4,17.74 68.37,0 78.86,-8.07 80.19,-61.7 l 0.06,-2.53 0.28,-1.38 c 0.14,-2.07 0.33,-7.4 0.46,-17.48 z m 960.93,0 c -142.61,-7.93 -225.07,-83.13 -220.7,-201.18 2.96,-82.56 59.44,-179.02 208.92,-179.02 3.38,0 6.82,0.05 10.31,0.16 50.72,0.8 92.42,14.61 128.77,43.05 28.66,-24.68 73.36,-36.73 139.41,-38.26 l 26.57,-0.62 17.16,143.52 -28.77,3.68 c -31.52,4.05 -36.34,8.61 -36.87,34.93 l 0.01,220.19 c 0,27.84 0,79.66 -30.27,126.47 -36.97,57.18 -105.47,86.18 -203.59,86.18 l -6.98,-0.05 c -56.68,-0.93 -109.01,-7.99 -169.77,-22.92 l -26.2,-6.43 23.47,-145.54 29.5,5.53 c 62.77,11.77 111.02,17.74 143.4,17.74 68.37,0 78.86,-8.07 80.18,-61.7 l 0.07,-2.53 0.28,-1.38 c 0.14,-2.07 0.33,-7.4 0.45,-17.48 z M 1880.69,2106.81 H 4551.88 V 741.46 H 1880.69 Z"
         style="fill:#000000;fill-opacity:1;fill-rule:nonzero;stroke:none"
         id="path52" />
      <path
         d="m 2606.31,1495.04 -14.4,89.27 c 54.72,13.44 104.63,21.12 163.19,22.08 2.22,0.03 4.42,0.05 6.59,0.05 204.6,0 204.59,-133.05 204.59,-183.4 v -220.78 c 0.96,-48 24.96,-58.55 62.4,-63.35 l -10.56,-88.32 c -82.55,1.92 -119.99,21.12 -137.27,50.88 -32.64,-33.6 -72,-54.72 -132.47,-55.68 -3.19,-0.1 -6.33,-0.14 -9.43,-0.14 -121.13,0 -176.87,72.23 -179.68,150.85 -4.8,129.59 106.56,166.07 192.95,170.87 l 113.27,5.76 c 0,6.72 0,45.11 -0.96,49.91 -1.92,77.76 -35.51,90.24 -109.43,90.24 -36.48,0 -87.35,-6.72 -148.79,-18.24 m 960.94,0 -14.4,89.27 c 54.71,13.44 104.63,21.12 163.19,22.08 2.21,0.03 4.42,0.05 6.58,0.05 204.61,0 204.6,-133.05 204.6,-183.4 v -220.78 c 0.96,-48 24.96,-58.55 62.4,-63.35 l -10.56,-88.32 c -82.55,1.92 -120,21.12 -137.27,50.88 -32.64,-33.6 -72,-54.72 -132.47,-55.68 -3.19,-0.1 -6.34,-0.14 -9.44,-0.14 -121.12,0 -176.86,72.23 -179.67,150.85 -4.8,129.59 106.55,166.07 192.95,170.87 l 113.27,5.76 c 0,6.72 0,45.11 -0.96,49.91 -1.92,77.76 -35.52,90.24 -109.43,90.24 -36.48,0 -87.36,-6.72 -148.79,-18.24 m -489.59,12.48 v 73.91 l 77.76,8.64 v 125.75 h 105.59 v -119.99 h 146.87 v -88.31 h -146.87 v -262.06 c 0,-54.72 6.72,-93.12 62.39,-100.8 8.71,-0.81 17.49,-1.17 26.31,-1.17 22.29,0 44.79,2.26 66.81,5.02 l 6.72,-92.16 c -31.68,-5.76 -76.8,-6.72 -95.04,-6.72 -125.75,4.8 -172.78,69.12 -172.78,169.91 v 287.98 z m -749.76,77.75 v 201.59 h 104.63 V 1055.39 H 2327.9 v 26.88 c -30.72,-23.04 -74.88,-36.48 -121.92,-36.48 -142.07,0 -234.22,112.32 -231.34,278.38 2.88,137.27 68.15,280.3 241.9,282.22 40.32,0 89.28,-10.56 111.36,-21.12 m 2253.23,550.8 H 1851.42 V 712.199 h 2729.71 z m -1484.22,-493.63 -25.71,-2.85 -52.05,-5.79 v -142.28 c -4.72,23.48 -13.39,49.26 -29.3,73.88 -42.72,66.06 -119.48,99.55 -228.16,99.55 -2.44,0 -4.9,-0.02 -7.55,-0.05 -58.87,-0.97 -113.21,-8.3 -176.18,-23.76 l -52.41,-12.87 8.6,-53.27 14.4,-89.28 9.55,-59.25 58.99,11.06 c 61,11.44 107.43,17.24 138.01,17.24 32.79,0 43.52,-3.08 46.8,-4.58 0.87,-1.98 2.97,-7.98 3.83,-21.51 l -56.76,-2.89 c -158.04,-8.78 -253.13,-97.47 -248.17,-231.38 3.68,-103.17 78.75,-207.281 238.15,-207.281 3.55,0 7.14,0.059 10.78,0.172 49.6,0.847 91.5,12.609 128.5,36.469 42.47,-25.7 96.4,-30.7 138.53,-31.672 l 53.15,-1.239 6.31,52.791 10.56,88.31 6.88,57.61 -57.54,7.37 c -5.03,0.65 -8.6,1.29 -11.1,1.84 -0.1,1.15 -0.18,2.53 -0.23,4.14 v 220.13 c 0,6.99 0,15.82 -0.5,25.95 h 72.62 v -229.46 c 0,-141.63 81.34,-222.739 229.06,-228.38 l 1.12,-0.051 h 1.11 c 14.86,0 66.39,0.559 105.51,7.68 l 51.71,9.401 -3.82,52.42 -4.38,60.02 c 29.6,-73.79 101.95,-133.501 222.66,-133.501 3.55,0 7.15,0.059 10.79,0.172 49.6,0.847 91.5,12.609 128.5,36.469 42.47,-25.7 96.4,-30.7 138.53,-31.672 l 53.15,-1.239 6.31,52.791 10.56,88.31 6.88,57.61 -57.54,7.37 c -5.04,0.65 -8.6,1.29 -11.1,1.84 -0.1,1.15 -0.19,2.53 -0.23,4.14 v 220.13 c 0,28.66 0,88.29 -34.95,142.35 -42.71,66.06 -119.47,99.55 -228.16,99.55 -2.43,0 -4.89,-0.02 -7.55,-0.05 -58.86,-0.97 -113.2,-8.3 -176.18,-23.76 l -52.4,-12.87 8.59,-53.27 14.4,-89.28 9.56,-59.25 58.99,11.06 c 60.99,11.44 107.43,17.24 138.01,17.24 32.78,0 43.52,-3.08 46.8,-4.58 0.87,-1.98 2.97,-7.98 3.83,-21.51 l -56.76,-2.89 c -150.55,-8.36 -243.99,-89.25 -248.21,-212.66 l -52.45,-6.56 c -18.02,-2.26 -39.19,-4.56 -59.54,-4.56 -6.84,0 -13.38,0.26 -19.45,0.78 -3.64,0.57 -5.84,1.24 -7.01,1.68 -1.45,3.56 -3.73,13.54 -3.73,40.99 V 1449 h 146.87 v 205.34 h -146.87 v 120 h -222.61 v -131.9 m -827.52,18.32 c -18.06,2.64 -36.29,4.14 -52.85,4.14 h -0.64 c -98.29,-1.09 -178.44,-40.71 -231.82,-114.6 -53.81,-74.5 -66.65,-163.42 -67.95,-225.11 -1.81,-104.67 30.33,-196.02 90.49,-257.24 51.87,-52.77 120.8,-80.673 199.36,-80.673 26.23,0 51.68,3.293 75.48,9.602 h 209.58 V 1845.37 H 2269.39 V 1660.76 M 4522.62,770.711 H 1909.94 V 2077.55 h 2612.68"
         style="fill:#000000;fill-opacity:1;fill-rule:nonzero;stroke:none"
         id="path54" />
      <path
         d="m 1181.23,1048.18 22.98,-5.04 c 117.11,-25.71 158.47,-27.57 212.66,-27.57 166.47,0 274.04,123.4 274.04,314.36 0,188.61 -98.2,305.76 -256.27,305.76 -1.91,0 -3.85,-0.01 -5.8,-0.04 -28.63,-0.69 -58.13,-6.06 -85.43,-15.29 v 196.72 h -162.18 z m -437.3,1058.63 h 1008.2 V 741.46 H 743.93 Z"
         style="fill:#000000;fill-opacity:1;fill-rule:nonzero;stroke:none"
         id="path56" />
      <path
         d="m 1416.86,1044.83 c -49.91,0 -88.31,0.96 -206.38,26.88 v 716.11 h 103.68 v -212.15 c 32.64,18.24 74.86,29.76 115.18,30.72 1.77,0.03 3.55,0.05 5.3,0.05 161.27,0.01 227.02,-130.27 227.02,-276.51 0,-146.87 -71.05,-285.1 -244.8,-285.1 m 364.53,1091.24 H 714.66 V 712.199 H 1781.39 Z M 1416.86,986.32 c 99.21,0 180.28,38.38 234.46,111 45.04,60.37 68.84,140.81 68.84,232.61 0,90.46 -22.14,169.06 -64.05,227.28 -50.72,70.49 -127.31,107.75 -221.47,107.74 -2.09,0 -4.21,-0.02 -6.69,-0.06 -18.29,-0.44 -36.93,-2.63 -55.29,-6.4 v 187.84 h -220.68 v -821.68 l 45.95,-10.09 c 120,-26.341 162.77,-28.24 218.93,-28.24 M 1722.88,770.711 H 773.18 V 2077.56 h 949.7"
         style="fill:#000000;fill-opacity:1;fill-rule:nonzero;stroke:none"
         id="path58" />
      <path
         d="m 1415.91,1166.24 c -28.07,0 -43.43,1.19 -72.5,4.97 v 293.15 c 26.29,11.85 53.22,18.7 74.42,18.7 51.9,0 113.77,-26.57 113.77,-153.13 0,-135.29 -62.91,-163.69 -115.69,-163.69"
         style="fill:#000000;fill-opacity:1;fill-rule:nonzero;stroke:none"
         id="path60" />
      <path
         d="m 1417.83,1512.32 c -35.52,0 -74.87,-14.4 -103.67,-29.76 v -336.93 c 48.95,-6.72 65.27,-8.65 101.75,-8.65 105.59,0 144.95,88.32 144.95,192.95 0,94.07 -36.48,182.39 -143.03,182.39 m 0,-58.51 c 20.9,0 84.52,0 84.52,-123.88 0,-134.44 -65.06,-134.44 -86.44,-134.44 -17.13,0 -28.66,0.38 -43.24,1.78 v 247.34 c 16.57,5.86 32.51,9.2 45.16,9.2"
         style="fill:#000000;fill-opacity:1;fill-rule:nonzero;stroke:none"
         id="path62" />
    </g>
  </g>
</svg>
