<?xml version="1.0" encoding="UTF-8"?> <svg xmlns="http://www.w3.org/2000/svg" width="92" height="197" viewBox="0 0 92 197" fill="none"><path d="M8.96652 138.614C8.31747 137.705 7.79823 137.056 7.01937 136.537C6.50013 136.147 5.85108 136.018 5.20203 136.018H1.95678C1.56735 136.018 1.17792 136.407 1.17792 136.796V163.148C1.17792 163.537 1.56735 163.927 1.95678 163.927H4.94241C5.98089 163.927 6.75975 163.537 7.14918 163.018C7.53861 162.629 7.79823 162.109 8.18766 161.59C8.57709 160.941 8.96652 160.162 9.35595 159.124C9.74538 158.085 10.005 156.787 10.1348 155.1C10.2646 153.542 10.3944 151.725 10.3944 149.648C10.3944 147.311 10.2646 145.104 10.005 143.287C10.005 141.599 9.61557 140.042 8.96652 138.614ZM4.03374 161.331V138.873H4.68279C5.07222 138.873 5.33184 139.003 5.59146 139.263C6.24051 139.782 6.75975 140.821 7.01937 142.378C7.4088 144.066 7.53861 146.532 7.66842 149.777C7.53861 152.114 7.4088 153.931 7.27899 155.1C7.14918 156.138 6.88956 157.436 6.37032 158.605C5.72127 160.292 5.33184 160.681 5.33184 160.811C5.20203 160.941 4.94241 161.071 4.42317 161.331H4.03374Z" fill="black"></path><path d="M18.183 164.057H25.9716C26.2312 164.057 26.361 163.927 26.6207 163.797C26.7505 163.667 26.8803 163.407 26.8803 163.148V161.85C26.8803 161.46 26.4908 161.071 26.1014 161.071H20.5196V151.076H25.4524C25.8418 151.076 26.2312 150.686 26.2312 150.297V148.999C26.2312 148.609 25.8418 148.22 25.4524 148.22H20.5196V138.873H25.8418C26.2312 138.873 26.6207 138.484 26.6207 138.095V136.926C26.6207 136.667 26.4909 136.537 26.361 136.277C26.2312 136.018 25.9716 136.018 25.8418 136.018H18.3128C17.9234 136.018 17.534 136.407 17.534 136.796V163.148C17.2743 163.667 17.6638 164.057 18.183 164.057Z" fill="black"></path><path d="M33.89 164.057H38.0439C38.8228 164.057 39.6017 163.927 40.2507 163.537C40.8998 163.148 41.419 162.629 41.6786 161.98C42.068 161.331 42.3277 160.422 42.5873 159.254C42.8469 158.085 42.9767 156.917 42.9767 155.619C42.9767 154.061 42.8469 152.633 42.4575 151.335C42.1979 150.426 41.8084 149.648 41.2892 149.128C41.6786 148.479 41.9382 147.83 42.1979 147.051C42.4575 146.013 42.5873 144.845 42.5873 143.676C42.5873 142.378 42.4575 141.21 42.068 140.042C41.6786 138.744 41.2892 137.835 40.6401 137.186C39.9911 136.537 39.2122 136.147 38.0439 136.018H33.89C33.5006 136.018 33.1112 136.407 33.1112 136.796V163.278C32.9813 163.667 33.3708 164.057 33.89 164.057ZM39.8613 155.878C39.8613 156.917 39.7315 157.955 39.6017 158.605C39.342 159.383 39.0824 160.032 38.8228 160.552C38.5632 160.941 38.3036 161.201 37.9141 161.331H35.967V150.556H37.9141C38.4334 150.556 38.8228 150.686 38.9526 150.946C39.2122 151.205 39.4718 151.595 39.7315 152.633C39.7315 153.542 39.8613 154.71 39.8613 155.878ZM39.2122 146.273C39.0824 146.922 38.8228 147.441 38.5632 147.7C38.4334 147.83 38.3036 147.96 37.6545 147.96H35.967V138.614H37.3949C38.3036 138.744 38.693 139.003 38.8228 139.133C38.9526 139.263 39.2122 139.652 39.342 140.561C39.4718 141.34 39.6017 142.248 39.6017 143.417C39.4718 144.585 39.342 145.494 39.2122 146.273Z" fill="black"></path><path d="M58.0347 161.071H52.4529V151.076H57.3856C57.7751 151.076 58.1645 150.686 58.1645 150.297V148.999C58.1645 148.609 57.7751 148.22 57.3856 148.22H52.4529V138.873H57.7751C58.1645 138.873 58.5539 138.484 58.5539 138.095V136.926C58.5539 136.667 58.4241 136.537 58.2943 136.277C58.1645 136.147 57.9049 136.018 57.7751 136.018H50.2461C49.8567 136.018 49.4672 136.407 49.4672 136.796V163.148C49.4672 163.537 49.8567 163.927 50.2461 163.927H58.0347C58.2943 163.927 58.4241 163.797 58.6837 163.667C58.8135 163.537 58.9434 163.278 58.9434 163.018V161.72C58.8135 161.46 58.4241 161.071 58.0347 161.071Z" fill="black"></path><path d="M66.3425 164.057H74.1311C74.3908 164.057 74.5206 163.927 74.7802 163.797C75.0398 163.667 75.0398 163.408 75.0398 163.148V161.85C75.0398 161.46 74.6504 161.071 74.261 161.071H68.6791V151.076H73.6119C74.0013 151.076 74.3908 150.686 74.3908 150.297V148.999C74.3908 148.609 74.0013 148.22 73.6119 148.22H68.6791V138.873H74.0013C74.3908 138.873 74.7802 138.484 74.7802 138.095V136.926C74.7802 136.667 74.6504 136.537 74.5206 136.407C74.3908 136.277 74.1311 136.147 74.0013 136.147H66.4724C66.0829 136.147 65.6935 136.537 65.6935 136.926V163.278C65.5637 163.667 65.9531 164.057 66.3425 164.057Z" fill="black"></path><path d="M82.4389 164.056H83.737C84.1265 164.056 84.5159 163.667 84.5159 163.278V152.374H85.165C85.2948 152.374 85.4246 152.374 85.4246 152.374C85.4246 152.374 85.5544 152.503 85.6842 152.763C85.814 152.893 85.9438 153.412 86.2034 154.321C86.463 155.1 86.7227 156.398 87.1121 157.955L88.4102 163.537C88.54 163.927 88.7996 164.186 89.1891 164.186H90.7468C91.0064 164.186 91.266 164.056 91.3958 163.927C91.5256 163.667 91.6554 163.537 91.5256 163.278L89.9679 155.749C89.5785 154.321 89.3189 153.152 88.9294 152.114C88.7996 151.854 88.6698 151.595 88.54 151.335C89.3189 150.816 89.8381 150.037 90.2275 148.869C90.7468 147.441 90.8766 145.883 90.8766 143.806C90.8766 142.248 90.7468 140.95 90.4872 139.652C90.2275 138.224 89.7083 137.316 89.1891 136.796C88.54 136.147 87.7612 135.888 86.5929 135.888H82.3091C81.9197 135.888 81.5303 136.277 81.5303 136.667V163.148C81.6601 163.667 81.9197 164.056 82.4389 164.056ZM88.0208 143.806C87.891 145.104 87.7611 146.143 87.6313 147.051C87.5015 147.83 87.2419 148.479 86.9823 148.999C86.9823 149.128 86.7227 149.388 86.0736 149.518H84.5159V138.224H85.814C86.7227 138.354 87.3717 138.744 87.5015 139.522C87.891 140.691 88.0208 142.119 88.0208 143.806Z" fill="black"></path><path d="M25.5821 191.965C25.9716 190.927 26.2312 189.629 26.361 187.941C26.4908 186.384 26.6206 184.566 26.6206 182.489C26.6206 180.153 26.4908 177.946 26.2312 176.129C25.9716 174.182 25.5821 172.624 24.9331 171.326C24.284 170.417 23.7648 169.768 22.9859 169.249C22.4667 168.859 21.8177 168.729 21.1686 168.729H17.9234C17.5339 168.729 17.1445 169.119 17.1445 169.508V195.99C17.1445 196.379 17.5339 196.768 17.9234 196.768H21.1686C22.2071 196.768 22.986 196.379 23.3754 195.86C23.7648 195.47 24.0244 194.951 24.4139 194.432C24.9331 193.783 25.3225 193.004 25.5821 191.965ZM20.1301 194.042V171.585H20.7792C21.1686 171.585 21.4282 171.715 21.8177 171.975C22.4667 172.494 22.986 173.532 23.2456 175.09C23.635 176.778 23.7648 179.244 23.8946 182.489C23.7648 184.826 23.635 186.643 23.5052 187.812C23.3754 188.85 23.1158 190.148 22.5965 191.316C21.9475 193.134 21.558 193.523 21.558 193.523C21.4282 193.653 21.1686 193.783 20.6494 194.042H20.1301Z" fill="black"></path><path d="M41.8084 171.585C42.1978 171.585 42.5873 171.196 42.5873 170.806V169.638C42.5873 169.379 42.4575 169.249 42.3277 168.989C42.1978 168.859 41.9382 168.729 41.8084 168.729H34.2794C33.89 168.729 33.5006 169.119 33.5006 169.508V195.99C33.5006 196.379 33.89 196.768 34.2794 196.768H42.068C42.3277 196.768 42.4575 196.639 42.7171 196.509C42.8469 196.379 42.9767 196.119 42.9767 195.86V194.562C42.9767 194.172 42.5873 193.783 42.1978 193.783H36.616V183.787H41.5488C41.9382 183.787 42.3277 183.398 42.3277 183.009V181.71C42.3277 181.321 41.9382 180.932 41.5488 180.932H36.616V171.585H41.8084Z" fill="black"></path><path d="M58.0347 168.729H56.3471C55.9577 168.729 55.5683 168.989 55.5683 169.379L54.2702 177.427L52.7124 187.812L49.9864 169.379C49.9864 168.989 49.597 168.729 49.2076 168.729H47.6499C47.3902 168.729 47.1306 168.859 47.0008 168.989C46.871 169.119 46.7412 169.379 46.871 169.638L51.1547 196.119C51.1547 196.509 51.5442 196.768 51.9336 196.768H53.4913C53.8807 196.768 54.2702 196.509 54.2702 196.119L58.9433 169.638C58.9433 169.379 58.9433 169.119 58.8135 168.989C58.4241 168.729 58.2943 168.729 58.0347 168.729Z" fill="black"></path><path d="M75.0398 193.134V172.104C75.0398 171.326 74.91 170.547 74.5205 169.898C74.2609 169.378 73.6119 168.729 72.184 168.6H68.8089C67.5108 168.729 66.7319 169.378 66.4723 169.898C66.0829 170.547 65.8233 171.326 65.8233 172.234V193.134C65.8233 193.913 66.0829 194.691 66.4723 195.47C66.8618 195.99 67.5108 196.768 68.9387 196.768H71.9243C72.833 196.768 73.6119 196.379 74.2609 195.6C74.7802 194.951 75.0398 194.172 75.0398 193.134ZM71.5349 171.585C71.9243 171.585 72.0542 171.715 72.0542 171.715C72.184 171.975 72.3138 172.364 72.3138 173.143V192.485C72.3138 193.264 72.184 193.653 72.0542 193.913C72.0542 193.913 71.9243 194.042 71.5349 194.042H69.8474C69.1983 194.042 69.0685 193.913 68.9387 193.913C68.8089 193.653 68.6791 193.264 68.6791 192.614V173.143C68.6791 172.624 68.8089 172.234 68.9387 171.845C69.0685 171.585 69.0685 171.585 69.1983 171.585H71.5349Z" fill="black"></path><path d="M90.4872 195.47C90.8766 194.821 91.1362 194.042 91.1362 193.134V183.268C91.1362 180.931 89.4487 180.802 89.0593 180.802H85.4246C85.0352 180.802 84.7755 180.802 84.7755 180.023V172.883C84.7755 172.364 84.9054 171.845 85.0352 171.585C85.165 171.326 85.165 171.326 85.2948 171.326H87.6314C88.0208 171.326 88.1506 171.455 88.1506 171.455C88.2804 171.715 88.4102 172.104 88.4102 172.883V177.686C88.4102 178.076 88.7997 178.465 89.1891 178.465H90.3574C90.7468 178.465 91.1362 178.076 91.1362 177.686V171.975C91.1362 171.196 91.0064 170.417 90.617 169.768C90.2276 168.989 89.4487 168.6 88.54 168.47H84.7755C83.4774 168.6 82.6986 169.249 82.439 169.768C82.0495 170.417 81.7899 171.196 81.7899 172.104V180.542C81.7899 183.398 83.6073 183.657 84.3861 183.657H87.5016C87.6314 183.657 87.891 183.657 88.0208 183.787C88.1506 183.917 88.1506 184.177 88.1506 184.436V192.225C88.1506 192.744 88.0208 193.134 87.891 193.393C87.891 193.523 87.6314 193.653 86.9823 193.653H85.2948C84.9054 193.653 84.7755 193.523 84.7755 193.523C84.6457 193.393 84.5159 193.004 84.5159 192.095V187.292C84.5159 186.903 84.1265 186.513 83.7371 186.513H82.5688C82.1793 186.513 81.7899 186.903 81.7899 187.292V193.004C81.7899 193.783 82.0495 194.562 82.439 195.211C82.9582 195.989 83.6073 196.379 84.3861 196.379H88.0208C89.4487 196.768 90.0978 196.119 90.4872 195.47Z" fill="black"></path><path d="M2.21639 196.898C2.08658 196.898 1.82696 196.898 1.69715 196.768C1.0481 196.508 0.788477 195.729 1.17791 195.21L5.33183 186.513L3.90392 183.527C3.51449 182.748 -0.509623 175.609 1.82696 171.715C2.73563 170.287 4.16354 169.508 6.37031 169.378C6.37031 169.378 6.50012 169.378 6.62993 169.378H7.01935C7.14916 169.378 7.14917 169.378 7.27898 169.378C9.35593 169.508 10.9137 170.287 11.6925 171.715C14.0291 175.609 10.005 182.878 9.48574 183.657L8.05783 186.643L12.2118 195.34C12.4714 195.989 12.2118 196.638 11.6925 196.898C11.0435 197.157 10.3944 196.898 10.1348 196.378L6.88954 189.369L3.6443 196.378C2.99525 196.638 2.60582 196.898 2.21639 196.898ZM6.50011 171.585C4.42316 171.585 3.90392 172.493 3.6443 172.753C2.3462 175.09 4.81258 180.542 5.85106 182.229L6.50011 183.527L7.14916 182.229C8.70688 179.503 10.5242 174.7 9.35593 172.623C9.22612 172.493 8.70688 171.715 6.50011 171.585Z" fill="#E7D900"></path><path fill-rule="evenodd" clip-rule="evenodd" d="M79.5831 110.704C78.0254 110.964 76.5975 111.613 75.1696 111.613C72.833 111.743 70.4964 111.224 68.1598 111.873C65.304 112.522 62.3184 115.248 59.4626 116.805C56.4769 118.493 52.5826 120.57 49.597 117.065C50.7653 113.301 53.6211 109.796 54.0106 104.603C54.4 101.098 52.9721 97.4637 53.3615 94.0886C53.6211 91.3626 55.8279 88.377 55.4385 85.651C55.1788 83.4442 52.9721 81.6269 51.674 80.199C49.9864 78.5115 48.0393 77.3432 47.9095 74.747C50.8951 73.1892 54.2702 75.396 57.5154 75.2662C58.8135 75.2662 59.9818 74.2277 61.2799 74.3575C62.1886 74.3575 63.3569 75.1364 64.3953 75.2662C65.6935 75.5258 67.6406 75.396 69.3281 75.5258C71.1455 75.5258 73.3522 75.9153 74.5205 75.7854C76.4677 75.396 77.1167 73.3191 79.1937 73.9681C79.9725 73.3191 79.9725 72.2806 80.8812 71.3719C82.6986 69.5546 88.4102 67.4776 87.2419 63.4535C86.7227 61.766 84.3861 62.1554 83.4774 60.3381C84.1265 56.4438 85.4246 53.4581 86.5929 50.2129C87.7611 46.8378 89.1891 42.9435 88.4102 38.6598C88.0208 36.3232 86.3332 33.8568 84.9053 32.2991C82.3091 29.5731 78.4148 28.5346 76.4677 25.6788C75.6888 24.5105 74.6503 21.9143 74.1311 19.8373C73.482 17.2411 73.6119 14.6449 72.0541 13.7363C70.6262 12.9574 69.7176 13.6065 68.5493 13.7363C65.1742 14.1257 62.9674 13.0872 61.929 9.97179C61.2799 8.02464 62.3184 4.9092 61.0203 2.44281C59.4626 -0.283197 53.3615 -0.542817 50.2461 0.755283C44.145 3.22167 39.342 9.32274 35.4477 13.6065C34.0198 15.1642 32.5919 16.8517 30.7746 18.02C27.0101 20.6162 21.2984 21.6547 15.9762 22.6932C10.7838 23.7316 6.11068 25.0297 3.12505 28.275C1.69714 29.8327 0.139418 32.5587 0.528848 34.8953C0.788468 36.5828 2.73562 38.53 4.03372 40.0877C5.33182 41.6454 6.88954 43.0733 8.31745 44.5012C11.0435 47.3571 15.0676 51.511 14.6781 55.0159C14.4185 56.8332 12.8608 58.2611 11.1733 59.9486C9.87517 61.2467 7.40878 63.4535 7.6684 65.141C7.92802 66.8286 11.6925 68.3863 13.7695 69.4248C16.106 70.4632 18.7022 71.7613 21.2984 72.2806C26.361 73.1892 32.0727 71.8911 35.8372 73.4489C37.0054 72.9296 37.1353 70.7229 39.342 70.8527C42.8469 71.1123 42.4575 78.3816 40.2507 80.4586C42.1978 86.1702 45.7027 91.2328 44.5344 97.8531C44.145 100.06 41.9382 101.877 41.6786 103.954C41.419 106.421 42.3277 108.887 42.8469 110.964C43.3661 113.171 44.0152 115.248 44.6642 117.325C43.4959 118.233 41.419 120.57 38.3035 120.829C36.8756 120.959 35.3179 120.44 33.6304 120.18C31.6832 119.791 29.8659 119.921 28.9572 119.272C27.6591 118.233 28.438 116.416 27.2697 115.248C18.7022 114.469 10.3944 116.027 1.95676 114.988C1.95676 117.714 1.95676 120.44 1.95676 123.166C1.95676 124.464 1.95676 125.632 1.95676 126.931V128.099H90.7468V126.671C90.7468 125.503 90.7468 124.334 90.7468 123.166C90.7468 118.753 90.7468 114.209 90.7468 109.796C86.7227 110.315 83.088 110.055 79.5831 110.704Z" fill="black"></path></svg> 
