<?xml version="1.0" encoding="UTF-8" standalone="no"?>
<!DOCTYPE svg PUBLIC "-//W3C//DTD SVG 1.1//EN" "http://www.w3.org/Graphics/SVG/1.1/DTD/svg11.dtd">
<svg width="100%" height="100%" viewBox="0 0 767 407" version="1.1" xmlns="http://www.w3.org/2000/svg" xmlns:xlink="http://www.w3.org/1999/xlink" xml:space="preserve" xmlns:serif="http://www.serif.com/" style="fill-rule:evenodd;clip-rule:evenodd;stroke-linejoin:round;stroke-miterlimit:2;">
    <g transform="matrix(1,0,0,1,-22.7533,-174.452)">
        <g transform="matrix(4.16667,0,0,4.16667,0,0)">
            <g transform="matrix(1,0,0,1,75.0976,65.2883)">
                <path d="M0,-15.706L-27.37,-15.706C-29.2,-15.706 -30.684,-14.223 -30.684,-12.393C-30.684,-10.563 -29.2,-9.08 -27.37,-9.08L0,-9.08C2.388,-9.08 4.33,-7.137 4.33,-4.749C4.33,-2.517 2.626,-0.696 0.454,-0.465L6.708,-0.465C7.803,-0.465 8.861,-0.301 9.859,0C10.555,-1.439 10.957,-3.046 10.957,-4.749C10.957,-10.791 6.042,-15.706 0,-15.706" style="fill:rgb(235,89,67);fill-rule:nonzero;"/>
            </g>
        </g>
        <g transform="matrix(4.16667,0,0,4.16667,0,0)">
            <g transform="matrix(1,0,0,1,15.0068,100.078)">
                <path d="M0,14.977C3.014,14.977 5.349,14.659 5.349,12.232C5.349,9.341 2.116,9.173 -1.029,9.173L-3.255,9.173L-3.255,14.977L0,14.977ZM-1.467,5.138C1.314,5.138 4.081,4.837 4.081,2.512C4.081,0.524 2.078,0.02 -0.769,0.02L-3.255,0.02L-3.255,5.138L-1.467,5.138ZM1.13,-4.138C5.913,-4.138 8.869,-1.979 8.869,1.775C8.869,4.532 7.641,6.259 5.149,6.956C8.072,7.456 10.198,9.082 10.198,12.538C10.198,16.956 7.109,19.115 2.026,19.115L-8.044,19.115L-8.044,-4.138L1.13,-4.138Z" style="fill:rgb(26,26,24);fill-rule:nonzero;"/>
            </g>
        </g>
        <g transform="matrix(4.16667,0,0,4.16667,0,0)">
            <g transform="matrix(1,0,0,1,34.6572,106.683)">
                <path d="M0,1.765C3.246,1.765 5.414,1.393 5.414,-2.426C5.414,-6.147 2.715,-6.734 0,-6.734L-1.96,-6.734L-1.96,1.765L0,1.765ZM1.69,5.766L1.162,5.776L-1.96,5.776L-1.96,12.509L-6.71,12.509L-6.71,-10.744L0.697,-10.744C6.677,-10.744 10.165,-7.683 10.165,-2.401C10.165,1.172 8.587,3.413 6.305,4.626L10.829,12.509L5.548,12.509L1.69,5.766Z" style="fill:rgb(26,26,24);fill-rule:nonzero;"/>
            </g>
        </g>
        <g transform="matrix(4.16667,0,0,4.16667,0,0)">
            <g transform="matrix(1,0,0,1,52.998,109.903)">
                <path d="M0,-4.675L11.096,-4.675L11.096,-0.461L0,-0.461L0,4.871L12.025,4.871L12.025,9.289L-4.75,9.289L-4.75,-13.964L12.025,-13.964L12.025,-9.546L0,-9.546L0,-4.675Z" style="fill:rgb(26,26,24);fill-rule:nonzero;"/>
            </g>
        </g>
        <g transform="matrix(4.16667,0,0,4.16667,0,0)">
            <g transform="matrix(1,0,0,1,0,28.79)">
                <rect x="68.648" y="67.149" width="4.75" height="23.253" style="fill:rgb(26,26,24);"/>
            </g>
        </g>
        <g transform="matrix(4.16667,0,0,4.16667,0,0)">
            <g transform="matrix(1,0,0,1,87.9423,114.978)">
                <path d="M0,-14.825L0,4.214L-4.751,4.214L-4.751,-14.825L-11.383,-14.825L-11.383,-19.039L6.665,-19.039L6.665,-14.825L0,-14.825Z" style="fill:rgb(26,26,24);fill-rule:nonzero;"/>
            </g>
        </g>
        <g transform="matrix(4.16667,0,0,4.16667,0,0)">
            <g transform="matrix(1,0,0,1,105.617,100.078)">
                <path d="M0,14.977C3.013,14.977 5.348,14.659 5.348,12.232C5.348,9.341 2.116,9.173 -1.03,9.173L-3.256,9.173L-3.256,14.977L0,14.977ZM-1.468,5.138C1.313,5.138 4.08,4.837 4.08,2.512C4.08,0.524 2.077,0.02 -0.77,0.02L-3.256,0.02L-3.256,5.138L-1.468,5.138ZM1.129,-4.138C5.913,-4.138 8.869,-1.979 8.869,1.775C8.869,4.532 7.64,6.259 5.148,6.956C8.072,7.456 10.198,9.082 10.198,12.538C10.198,16.956 7.108,19.115 2.026,19.115L-8.045,19.115L-8.045,-4.138L1.129,-4.138Z" style="fill:rgb(26,26,24);fill-rule:nonzero;"/>
            </g>
        </g>
        <g transform="matrix(4.16667,0,0,4.16667,0,0)">
            <g transform="matrix(1,0,0,1,129.505,109.581)">
                <path d="M0,-4.693L-2.908,1.779L2.903,1.779L0,-4.693ZM-4.619,5.585L-6.429,9.612L-11.536,9.612L0,-14.305L11.536,9.612L6.416,9.612L4.61,5.585L-4.619,5.585Z" style="fill:rgb(26,26,24);fill-rule:nonzero;"/>
            </g>
        </g>
        <g transform="matrix(4.16667,0,0,4.16667,0,0)">
            <g transform="matrix(1,0,0,1,149.38,109.182)">
                <path d="M0,-3.233L0,10.01L-4.75,10.01L-4.75,-14.111L9.843,0.08L9.843,-13.243L14.594,-13.243L14.594,10.878L0,-3.233Z" style="fill:rgb(26,26,24);fill-rule:nonzero;"/>
            </g>
        </g>
        <g transform="matrix(4.16667,0,0,4.16667,0,0)">
            <g transform="matrix(1,0,0,1,177.428,100.382)">
                <path d="M0,14.367C3.811,14.367 7.139,12.93 7.139,7.218C7.139,1.471 3.811,0.001 0,0.001L-3.189,0.001L-3.189,14.367L0,14.367ZM0,-4.443C7.973,-4.443 11.991,0.673 11.991,7.218C11.991,15.023 6.743,18.81 0,18.81L-7.978,18.81L-7.978,-4.443L0,-4.443Z" style="fill:rgb(26,26,24);fill-rule:nonzero;"/>
            </g>
        </g>
        <g transform="matrix(4.16667,0,0,4.16667,0,0)">
            <g transform="matrix(1,0,0,1,7.4248,133.243)">
                <path d="M0,0C0,2.794 1.365,4.437 3.811,4.437C6.255,4.437 7.62,2.794 7.62,0C7.62,-2.822 6.255,-4.437 3.811,-4.437C1.365,-4.437 0,-2.822 0,0M9.583,0C9.583,3.978 6.961,6.204 3.811,6.204C0.594,6.204 -1.964,3.943 -1.964,0C-1.964,-3.281 0.017,-6.204 3.811,-6.204C7.604,-6.204 9.583,-3.281 9.583,0" style="fill:rgb(26,26,24);fill-rule:nonzero;"/>
            </g>
        </g>
        <g transform="matrix(4.16667,0,0,4.16667,0,0)">
            <g transform="matrix(1,0,0,1,23.1601,129.038)">
                <path d="M0,8.41C1.633,8.41 2.655,8.036 2.655,6.737C2.655,5.259 1.187,4.898 -0.512,4.898L-2.096,4.898L-2.096,8.41L0,8.41ZM-0.749,3.172C0.769,3.172 2.005,2.743 2.005,1.553C2.005,0.465 1.147,0.003 -0.403,0.003L-2.096,0.003L-2.096,3.172L-0.749,3.172ZM0.082,-1.744C2.457,-1.744 3.925,-0.64 3.925,1.281C3.925,2.692 3.315,3.576 2.078,3.932C3.529,4.187 4.585,5.02 4.585,6.789C4.585,9.05 3.051,10.154 0.527,10.154L-4.016,10.154L-4.016,-1.744L0.082,-1.744Z" style="fill:rgb(26,26,24);fill-rule:nonzero;"/>
            </g>
        </g>
        <g transform="matrix(4.16667,0,0,4.16667,0,0)">
            <g transform="matrix(1,0,0,1,31.5957,134.263)">
                <path d="M0,-2.041L5.509,-2.041L5.509,-0.307L0,-0.307L0,3.161L5.971,3.161L5.971,4.929L-1.881,4.929L-1.881,-6.97L5.971,-6.97L5.971,-5.202L0,-5.202L0,-2.041Z" style="fill:rgb(26,26,24);fill-rule:nonzero;"/>
            </g>
        </g>
        <g transform="matrix(4.16667,0,0,4.16667,0,0)">
            <g transform="matrix(1,0,0,1,42.4892,132.58)">
                <path d="M0,1.326C2.227,1.326 3.167,0.84 3.167,-1.115C3.167,-3.019 1.963,-3.587 0,-3.587L-0.974,-3.587L-0.974,1.326L0,1.326ZM1.226,2.996C1.012,3.016 0.795,3.025 0.577,3.025L-0.974,3.025L-0.974,6.612L-2.854,6.612L-2.854,-5.286L0.346,-5.286C3.315,-5.286 5.047,-3.791 5.047,-1.088C5.047,0.767 4.24,1.894 3.08,2.488L5.377,6.612L3.232,6.612L1.226,2.996Z" style="fill:rgb(26,26,24);fill-rule:nonzero;"/>
            </g>
        </g>
        <g transform="matrix(4.16667,0,0,4.16667,0,0)">
            <g transform="matrix(1,0,0,1,57.708,138.377)">
                <path d="M0,-13.616C0,-13.014 -0.455,-12.528 -1.043,-12.528C-1.623,-12.528 -2.102,-13.014 -2.102,-13.616C-2.102,-14.218 -1.623,-14.687 -1.043,-14.687C-0.455,-14.687 0,-14.218 0,-13.616M-3.465,-13.616C-3.465,-13.014 -3.92,-12.528 -4.504,-12.528C-5.091,-12.528 -5.566,-13.014 -5.566,-13.616C-5.566,-14.218 -5.091,-14.687 -4.504,-14.687C-3.92,-14.687 -3.465,-14.218 -3.465,-13.616M-6.553,-5.134C-6.553,-2.34 -5.187,-0.697 -2.742,-0.697C-0.297,-0.697 1.068,-2.34 1.068,-5.134C1.068,-7.956 -0.297,-9.57 -2.742,-9.57C-5.187,-9.57 -6.553,-7.956 -6.553,-5.134M3.031,-5.134C3.031,-1.156 0.409,1.071 -2.742,1.071C-5.959,1.071 -8.516,-1.19 -8.516,-5.134C-8.516,-8.415 -6.536,-11.338 -2.742,-11.338C1.052,-11.338 3.031,-8.415 3.031,-5.134" style="fill:rgb(26,26,24);fill-rule:nonzero;"/>
            </g>
        </g>
        <g transform="matrix(4.16667,0,0,4.16667,0,0)">
            <g transform="matrix(1,0,0,1,68.9599,137.894)">
                <path d="M0,-8.493C-1.692,-9.459 -4.754,-9.826 -4.754,-7.643C-4.754,-6.691 -3.566,-6.256 -2.561,-5.899C-0.268,-5.097 1.102,-4.25 1.102,-2.193C1.102,2.89 -5.546,1.802 -6.816,0.305L-5.958,-1.228C-4.127,0.251 -0.796,0.387 -0.796,-2.112C-0.796,-3.302 -2.069,-3.825 -3.253,-4.261C-5.348,-5.043 -6.651,-5.722 -6.651,-7.575C-6.651,-11.298 -2.297,-11.383 0.64,-10.108L0,-8.493Z" style="fill:rgb(26,26,24);fill-rule:nonzero;"/>
            </g>
        </g>
        <g transform="matrix(4.16667,0,0,4.16667,0,0)">
            <g transform="matrix(1,0,0,1,76.6699,137.459)">
                <path d="M0,-8.432L0,1.733L-1.88,1.733L-1.88,-8.432L-5.344,-8.432L-5.344,-10.165L3.48,-10.165L3.48,-8.432L0,-8.432Z" style="fill:rgb(26,26,24);fill-rule:nonzero;"/>
            </g>
        </g>
        <g transform="matrix(4.16667,0,0,4.16667,0,0)">
            <g transform="matrix(1,0,0,1,83.8525,134.263)">
                <path d="M0,-2.041L5.509,-2.041L5.509,-0.307L0,-0.307L0,3.161L5.971,3.161L5.971,4.929L-1.881,4.929L-1.881,-6.97L5.971,-6.97L5.971,-5.202L0,-5.202L0,-2.041Z" style="fill:rgb(26,26,24);fill-rule:nonzero;"/>
            </g>
        </g>
        <g transform="matrix(4.16667,0,0,4.16667,0,0)">
            <g transform="matrix(1,0,0,1,94.746,132.58)">
                <path d="M0,1.326C2.227,1.326 3.167,0.84 3.167,-1.115C3.167,-3.019 1.963,-3.587 0,-3.587L-0.974,-3.587L-0.974,1.326L0,1.326ZM1.226,2.996C1.012,3.016 0.795,3.025 0.577,3.025L-0.974,3.025L-0.974,6.612L-2.854,6.612L-2.854,-5.286L0.346,-5.286C3.315,-5.286 5.047,-3.791 5.047,-1.088C5.047,0.767 4.24,1.894 3.08,2.488L5.377,6.612L3.232,6.612L1.226,2.996Z" style="fill:rgb(26,26,24);fill-rule:nonzero;"/>
            </g>
        </g>
        <g transform="matrix(4.16667,0,0,4.16667,0,0)">
            <g transform="matrix(1,0,0,1,104.772,132.58)">
                <path d="M0,1.326C2.227,1.326 3.167,0.84 3.167,-1.115C3.167,-3.019 1.963,-3.587 0,-3.587L-0.974,-3.587L-0.974,1.326L0,1.326ZM1.226,2.996C1.013,3.016 0.796,3.025 0.577,3.025L-0.974,3.025L-0.974,6.612L-2.854,6.612L-2.854,-5.286L0.347,-5.286C3.315,-5.286 5.048,-3.791 5.048,-1.088C5.048,0.767 4.241,1.894 3.081,2.488L5.377,6.612L3.233,6.612L1.226,2.996Z" style="fill:rgb(26,26,24);fill-rule:nonzero;"/>
            </g>
        </g>
        <g transform="matrix(4.16667,0,0,4.16667,0,0)">
            <g transform="matrix(1,0,0,1,113.832,134.263)">
                <path d="M0,-2.041L5.509,-2.041L5.509,-0.307L0,-0.307L0,3.161L5.971,3.161L5.971,4.929L-1.881,4.929L-1.881,-6.97L5.971,-6.97L5.971,-5.202L0,-5.202L0,-2.041Z" style="fill:rgb(26,26,24);fill-rule:nonzero;"/>
            </g>
        </g>
        <g transform="matrix(4.16667,0,0,4.16667,0,0)">
            <g transform="matrix(1,0,0,1,0,80.145)">
                <rect x="121.983" y="47.149" width="1.881" height="11.898" style="fill:rgb(26,26,24);"/>
            </g>
        </g>
        <g transform="matrix(4.16667,0,0,4.16667,0,0)">
            <g transform="matrix(1,0,0,1,136.465,129.469)">
                <path d="M0,7.547C-1.139,9.162 -2.937,9.978 -4.734,9.978C-8.693,9.978 -10.343,6.969 -10.343,3.774C-10.343,-0.153 -8.066,-2.431 -4.734,-2.431C-2.903,-2.431 -1.105,-1.632 0,-0.034L-1.426,1.159C-2.095,0.125 -3.487,-0.633 -4.718,-0.633C-7.215,-0.633 -8.356,1.109 -8.356,3.774C-8.356,6.422 -7.198,8.18 -4.718,8.18C-3.55,8.18 -2.095,7.387 -1.426,6.388L0,7.547Z" style="fill:rgb(26,26,24);fill-rule:nonzero;"/>
            </g>
        </g>
        <g transform="matrix(4.16667,0,0,4.16667,0,0)">
            <g transform="matrix(1,0,0,1,147.847,127.294)">
                <path d="M0,11.898L-1.881,11.898L-1.881,6.798L-7.687,6.798L-7.687,11.898L-9.567,11.898L-9.567,0L-7.687,0L-7.687,5.068L-1.881,5.068L-1.881,0L0,0L0,11.898Z" style="fill:rgb(26,26,24);fill-rule:nonzero;"/>
            </g>
        </g>
        <g transform="matrix(4.16667,0,0,4.16667,0,0)">
            <g transform="matrix(1,0,0,1,90.5234,57.6455)">
                <path d="M0,-15.777L-51.35,-15.777C-53.18,-15.777 -54.663,-14.294 -54.663,-12.464C-54.663,-10.633 -53.18,-9.151 -51.35,-9.151L0,-9.151C2.388,-9.151 4.33,-7.208 4.33,-4.82C4.33,-2.589 2.629,-0.769 0.459,-0.536L6.387,-0.536C7.576,-0.536 8.731,-0.342 9.825,0C10.543,-1.457 10.957,-3.089 10.957,-4.82C10.957,-10.861 6.042,-15.777 0,-15.777" style="fill:rgb(99,99,98);fill-rule:nonzero;"/>
            </g>
        </g>
        <g transform="matrix(4.16667,0,0,4.16667,0,0)">
            <g transform="matrix(1,0,0,1,96.9099,79.0237)">
                <path d="M0,-21.914L-10.235,-21.914C-9.912,-20.826 -9.732,-19.677 -9.732,-18.485C-9.732,-17.377 -9.895,-16.308 -10.175,-15.288L0.171,-15.288C2.203,-15.288 4.074,-13.954 4.534,-11.974C5.185,-9.173 3.044,-6.55 0.322,-6.55L-45.151,-6.408C-46.512,-6.404 -47.812,-5.591 -48.216,-4.291C-48.379,-3.768 -48.415,-3.189 -48.287,-2.587C-47.958,-1.041 -46.489,0 -44.908,0L0.321,0C6.711,0 11.842,-5.499 11.229,-12.014C10.694,-17.691 5.702,-21.914 0,-21.914M-38.38,-15.288L-21.716,-15.288C-19.777,-15.347 -18.263,-17.124 -18.673,-19.15C-18.978,-20.659 -20.388,-21.692 -21.928,-21.692L-38.622,-21.692C-39.985,-21.692 -41.285,-20.879 -41.689,-19.576C-41.851,-19.054 -41.886,-18.475 -41.758,-17.874C-41.429,-16.328 -39.961,-15.288 -38.38,-15.288" style="fill:rgb(156,156,156);fill-rule:nonzero;"/>
            </g>
        </g>
        <g transform="matrix(4.16667,0,0,4.16667,0,0)">
            <g transform="matrix(1,0,0,1,31.5214,71.4497)">
                <path d="M0,8.661C-1.83,8.661 -3.313,10.144 -3.313,11.974C-3.313,13.805 -1.83,15.288 0,15.288L50.284,15.288C54.788,15.288 58.658,12.553 60.341,8.661L0,8.661ZM9.506,0L60.346,0.001C58.664,-3.893 54.789,-6.627 50.284,-6.627L9.506,-6.627C7.676,-6.627 6.192,-5.143 6.192,-3.313C6.192,-1.483 7.676,0 9.506,0" style="fill:rgb(229,30,32);fill-rule:nonzero;"/>
            </g>
        </g>
    </g>
</svg>