<?xml version="1.0" encoding="UTF-8"?>
<svg  viewBox="0 0 219 54" version="1.1" xmlns="http://www.w3.org/2000/svg" xmlns:xlink="http://www.w3.org/1999/xlink">
    <title>Logo FH - centreret</title>
    <g id="♋️-Symbols" stroke="none" stroke-width="1" fill="none" fill-rule="evenodd">
        <g id="UI/Logo/logo-redigeret---centreret-tekst" fill-rule="nonzero">
            <g id="Logo-FH---centreret">
                <g id="Txt" transform="translate(45.000000, 9.000000)">
                    <g id="Helsingør" transform="translate(0.000000, 18.264151)" fill="#7D9AAA">
                        <path d="M107.647799,15.7735849 C107.786164,15.6352201 107.786164,15.6352201 107.786164,15.4968553 L107.786164,1.52201258 C107.777427,1.41538535 107.727858,1.31624873 107.647799,1.24528302 L104.742138,1.24528302 C104.733402,1.35191025 104.683833,1.45104687 104.603774,1.52201258 L104.603774,10.9308176 L92.2893082,1.24528302 L89.5220126,1.24528302 C89.4419528,1.31624873 89.3923845,1.41538535 89.3836478,1.52201258 L89.3836478,15.4968553 C89.3836478,15.6352201 89.3836478,15.6352201 89.5220126,15.7735849 C89.6603774,15.9119497 89.6603774,15.9119497 89.7987421,15.9119497 L92.427673,15.9119497 C92.427673,15.7735849 92.5660377,15.7735849 92.5660377,15.6352201 L92.5660377,5.53459119 L105.849057,15.7735849 C105.849057,15.9119497 105.987421,15.9119497 106.125786,15.9119497 L107.371069,15.9119497 C107.509434,15.9119497 107.647799,15.9119497 107.647799,15.7735849" id="Path"></path>
                        <path d="M36.2515723,1.10691824 L21.7232704,1.10691824 C21.6432107,1.17788395 21.5936424,1.27702057 21.5849057,1.3836478 L21.5849057,15.4968553 C21.5849057,15.6352201 21.5849057,15.6352201 21.7232704,15.7735849 L36.6666667,15.7735849 C36.6666667,15.6352201 36.8050314,15.6352201 36.8050314,15.4968553 L36.8050314,13.1446541 L25.0440252,13.1446541 L25.0440252,9.54716981 L35.9748428,9.54716981 C36.1132075,9.54716981 36.1132075,9.40880503 36.1132075,9.27044025 L36.1132075,7.05660377 C36.1132075,6.91823899 36.1132075,6.91823899 35.9748428,6.77987421 L25.0440252,6.77987421 L25.0440252,4.01257862 L36.6666667,4.01257862 L36.6666667,1.52201258 C36.5866069,1.45104687 36.5370386,1.35191025 36.5283019,1.24528302 L36.2515723,1.10691824 Z" id="Path"></path>
                        <path d="M72.5031447,6.64150943 L64.3396226,6.64150943 C63.2327044,6.50314465 63.0943396,6.36477987 63.0943396,5.81132075 L63.0943396,4.8427673 C63.0943396,4.28930818 63.2327044,4.1509434 64.3396226,4.01257862 L76.3773585,4.01257862 C76.5157233,4.01257862 76.5157233,3.87421384 76.5157233,3.73584906 L76.5157233,1.52201258 C76.5069866,1.41538535 76.4574182,1.31624873 76.3773585,1.24528302 L64.3396226,1.24528302 C63.0479689,1.18264425 61.7751577,1.57427846 60.7421384,2.35220126 C59.9566855,3.04794747 59.5462689,4.07398897 59.6352201,5.11949686 L59.6352201,5.81132075 C59.5462689,6.85682864 59.9566855,7.88287014 60.7421384,8.57861635 C61.7751577,9.35653915 63.0479689,9.74817336 64.3396226,9.68553459 L72.5031447,9.68553459 C73.6100629,9.68553459 73.7484277,9.96226415 73.8867925,10.5157233 L73.8867925,12.3144654 C73.7484277,12.8679245 73.6100629,13.0062893 72.5031447,13.1446541 L60.4654088,13.1446541 C60.327044,13.1446541 60.1886792,13.1446541 60.1886792,13.2830189 C60.1886792,13.4213836 60.0503145,13.4213836 60.0503145,13.5597484 L60.0503145,15.6352201 C60.0503145,15.7735849 60.0503145,15.7735849 60.1886792,15.9119497 C60.327044,16.0503145 60.327044,16.0503145 60.4654088,16.0503145 L72.5031447,16.0503145 C73.8400585,16.133978 75.1634514,15.7418616 76.2389937,14.9433962 C77.0244466,14.24765 77.4348632,13.2216085 77.3459119,12.1761006 L77.3459119,10.3773585 C77.4348632,9.33185061 77.0244466,8.3058091 76.2389937,7.61006289 C75.1451741,6.86052759 73.8233524,6.51783307 72.5031447,6.64150943 Z" id="Path"></path>
                        <path d="M17.0188679,1.10691824 L14.1132075,1.10691824 C14.1044708,1.21354547 14.0549025,1.31268209 13.9748428,1.3836478 L13.9748428,6.50314465 L3.59748428,6.50314465 L3.59748428,1.52201258 C3.51742452,1.45104687 3.46785621,1.35191025 3.4591195,1.24528302 L0.13836478,1.24528302 C0.129628065,1.35191025 0.0800597565,1.45104687 -1.97353245e-12,1.52201258 L-1.97353245e-12,15.4968553 C-1.97353245e-12,15.6352201 0.13836478,15.6352201 0.13836478,15.7735849 L3.4591195,15.7735849 C3.4591195,15.6352201 3.59748428,15.6352201 3.59748428,15.4968553 L3.59748428,9.54716981 L13.9748428,9.54716981 L13.9748428,15.4968553 C13.9748428,15.6352201 14.1132075,15.6352201 14.1132075,15.7735849 L17.4339623,15.7735849 C17.4339623,15.6352201 17.572327,15.6352201 17.572327,15.4968553 L17.572327,1.52201258 C17.4922673,1.45104687 17.442699,1.35191025 17.4339623,1.24528302 L17.0188679,1.10691824 Z" id="Path"></path>
                        <path d="M173.09434,5.94968553 L173.09434,4.98113208 C173.127604,3.91613947 172.668202,2.89524477 171.849057,2.21383648 C170.827573,1.41357961 169.546241,1.01932381 168.251572,1.10691824 L156.213836,1.10691824 C156.133777,1.17788395 156.084208,1.27702057 156.075472,1.3836478 L156.075472,15.4968553 C156.075472,15.6352201 156.075472,15.6352201 156.213836,15.7735849 C156.352201,15.9119497 156.352201,15.9119497 156.490566,15.9119497 L159.396226,15.9119497 C159.534591,15.7735849 159.534591,15.7735849 159.534591,15.6352201 L159.534591,9.68553459 L166.176101,9.68553459 L169.220126,15.6352201 L169.63522,15.9119497 L172.402516,15.9119497 L172.81761,15.6352201 C172.877176,15.5826877 172.9113,15.5070945 172.9113,15.427673 C172.9113,15.3482514 172.877176,15.2726582 172.81761,15.2201258 L169.91195,9.54716981 C171.735147,9.33542788 173.106594,7.78509591 173.09434,5.94968553 Z M169.496855,5.94968553 C169.496855,6.50314465 169.358491,6.64150943 168.251572,6.77987421 L159.534591,6.77987421 L159.534591,4.01257862 L168.251572,4.01257862 C169.358491,4.1509434 169.496855,4.28930818 169.496855,4.8427673 L169.496855,5.94968553 Z" id="Shape"></path>
                        <path d="M150.540881,1.93710692 L151.786164,0.691823899 C151.887342,0.578337658 151.93738,0.42822592 151.924528,0.27672956 L151.509434,-1.77635684e-15 L147.91195,-1.77635684e-15 L146.805031,0.968553459 L138.08805,0.968553459 C136.791836,0.867326745 135.505664,1.26307184 134.490566,2.0754717 C133.671421,2.75687999 133.212018,3.77777469 133.245283,4.8427673 L133.245283,12.0377358 C133.253828,13.0544766 133.70927,14.0159655 134.490566,14.6666667 C134.490566,14.8195002 134.614462,14.9433962 134.767296,14.9433962 L133.522013,16.1886792 C133.420834,16.3021655 133.370796,16.4522772 133.383648,16.6037736 C133.522013,16.8805031 133.660377,16.8805031 133.798742,16.8805031 L137.396226,16.8805031 L138.503145,15.7735849 L147.220126,15.7735849 C148.55704,15.8572485 149.880433,15.465132 150.955975,14.6666667 C151.658141,13.9712565 152.05616,13.0259599 152.062893,12.0377358 L152.062893,4.98113208 C152.077696,3.94800023 151.679199,2.9517575 150.955975,2.21383648 L150.540881,1.93710692 Z M148.603774,12.1761006 C148.465409,12.4528302 148.465409,12.591195 148.327044,12.7295597 C147.99788,12.9394837 147.609353,13.0366155 147.220126,13.0062893 L138.08805,13.0062893 C137.70047,13.0192702 137.317006,12.9234041 136.981132,12.7295597 C136.842767,12.591195 136.842767,12.4528302 136.842767,12.1761006 L136.842767,4.8427673 C136.842767,4.56603774 136.842767,4.42767296 136.981132,4.28930818 C137.317006,4.09546385 137.70047,3.99959771 138.08805,4.01257862 L147.220126,4.01257862 C147.609353,3.98225244 147.99788,4.07938421 148.327044,4.28930818 C148.465409,4.42767296 148.465409,4.56603774 148.603774,4.8427673 L148.603774,12.1761006 Z" id="Shape"></path>
                        <path d="M84.4025157,1.10691824 L81.4968553,1.10691824 C81.4881186,1.21354547 81.4385503,1.31268209 81.3584906,1.3836478 L81.3584906,15.4968553 C81.3584906,15.6352201 81.4968553,15.6352201 81.4968553,15.7735849 L84.8176101,15.7735849 C84.8176101,15.6352201 84.9559748,15.6352201 84.9559748,15.4968553 L84.9559748,1.52201258 C84.8759151,1.45104687 84.8263468,1.35191025 84.8176101,1.24528302 L84.4025157,1.10691824 Z" id="Path"></path>
                        <path d="M129.09434,7.33333333 L124.251572,7.33333333 C124.150393,7.44681957 124.100356,7.59693131 124.113208,7.74842767 L124.113208,9.68553459 C124.100356,9.83703095 124.150393,9.98714269 124.251572,10.1006289 L125.63522,10.1006289 L125.63522,12.4528302 C125.63522,12.591195 125.63522,12.591195 125.358491,12.7295597 L123.836478,13.0062893 L117.610063,13.0062893 L116.08805,12.7295597 C115.811321,12.591195 115.811321,12.591195 115.811321,12.4528302 L115.811321,4.56603774 C115.811321,4.42767296 115.811321,4.42767296 116.08805,4.28930818 L117.610063,4.01257862 L128.81761,4.01257862 C128.955975,4.01257862 128.955975,3.87421384 128.955975,3.73584906 L128.955975,1.52201258 C128.947238,1.41538535 128.89767,1.31624873 128.81761,1.24528302 L117.610063,1.24528302 C116.268009,1.17507737 114.931297,1.46151557 113.735849,2.0754717 C112.774364,2.59569444 112.186236,3.61155143 112.213836,4.70440252 L112.213836,12.4528302 C112.186236,13.5456813 112.774364,14.5615383 113.735849,15.081761 C114.931297,15.6957171 116.268009,15.9821553 117.610063,15.9119497 L123.836478,15.9119497 C125.178532,15.9821553 126.515244,15.6957171 127.710692,15.081761 C128.670295,14.5750165 129.219922,13.5307252 129.09434,12.4528302 L129.09434,7.33333333" id="Path"></path>
                        <path d="M55.4842767,13.0062893 L44.2767296,13.0062893 L44.2767296,1.24528302 L40.9559748,1.24528302 C40.8759151,1.31624873 40.8263468,1.41538535 40.8176101,1.52201258 L40.8176101,15.4968553 C40.8176101,15.6352201 40.8176101,15.6352201 40.9559748,15.7735849 L55.8993711,15.7735849 L55.8993711,13.1446541 L55.4842767,13.0062893 Z" id="Path"></path>
                    </g>
                    <g id="Forsyning" transform="translate(0.138365, 0.000000)" fill="#44697D">
                        <path d="M152.062893,14.8050314 L152.062893,0.553459119 C152.054156,0.446831888 152.004588,0.34769527 151.924528,0.27672956 C151.924528,0.13836478 151.786164,0.13836478 151.647799,0.13836478 L149.018868,0.13836478 L149.018868,9.82389937 L136.704403,0.13836478 C136.704403,9.76996262e-15 136.566038,9.76996262e-15 136.427673,9.76996262e-15 L134.213836,9.76996262e-15 C134.075472,9.76996262e-15 133.937107,9.76996262e-15 133.937107,0.13836478 C133.857047,0.20933049 133.807479,0.308467108 133.798742,0.41509434 L133.798742,14.8050314 L136.704403,14.8050314 L136.704403,4.56603774 L149.987421,14.8050314 L151.786164,14.8050314" id="Path"></path>
                        <path d="M122.72956,14.8050314 L122.72956,0.553459119 C122.720823,0.446831888 122.671255,0.34769527 122.591195,0.27672956 C122.591195,0.13836478 122.45283,0.13836478 122.314465,0.13836478 L119.685535,0.13836478 L119.685535,9.82389937 L107.371069,0.13836478 L104.465409,0.13836478 L104.465409,14.8050314 L107.371069,14.8050314 L107.371069,4.56603774 L120.654088,14.8050314 L122.45283,14.8050314" id="Path"></path>
                        <path d="M172.679245,6.36477987 L167.836478,6.36477987 L167.836478,9.13207547 L169.220126,9.13207547 L169.220126,11.3459119 C169.220126,11.4842767 169.358491,11.4842767 168.943396,11.6226415 L167.421384,11.8993711 L161.333333,11.8993711 L159.672956,11.6226415 L159.396226,11.3459119 L159.396226,3.59748428 C159.396226,3.4591195 159.396226,3.4591195 159.672956,3.32075472 L161.333333,3.04402516 L172.402516,3.04402516 C172.540881,3.04402516 172.540881,2.90566038 172.540881,2.7672956 L172.540881,0.553459119 C172.532144,0.446831888 172.482575,0.34769527 172.402516,0.27672956 C172.402516,0.13836478 172.264151,0.13836478 172.125786,0.13836478 L161.333333,0.13836478 C159.946025,0.0567390244 158.561778,0.343134754 157.320755,0.968553459 C156.412559,1.52502811 155.881621,2.53380886 155.937107,3.59748428 L155.937107,11.4842767 C155.881621,12.5479521 156.412559,13.5567329 157.320755,14.1132075 C158.561778,14.7386263 159.946025,15.025022 161.333333,14.9433962 L167.421384,14.9433962 C168.7645,15.027387 170.104829,14.7401735 171.295597,14.1132075 C172.257083,13.5929848 172.84521,12.5771278 172.81761,11.4842767 L172.81761,6.36477987" id="Path"></path>
                        <path d="M14.6666667,0.13836478 L2.71782596e-13,0.13836478 L2.71782596e-13,14.8050314 L3.32075472,14.8050314 L3.32075472,9.27044025 L13.9748428,9.27044025 C14.0760217,9.15695401 14.126059,9.00684227 14.1132075,8.85534591 L14.1132075,6.77987421 C14.126059,6.62837785 14.0760217,6.47826612 13.9748428,6.36477987 L3.4591195,6.36477987 L3.4591195,3.04402516 L14.9433962,3.04402516 L14.9433962,0.27672956 L14.6666667,0.13836478 Z" id="Path"></path>
                        <path d="M32.1006289,0.13836478 L22.9685535,0.13836478 C21.6723392,0.0371380658 20.3861676,0.432883159 19.3710692,1.24528302 C18.5519242,1.92669131 18.0925216,2.94758601 18.1257862,4.01257862 L18.1257862,11.0691824 C18.0925216,12.134175 18.5519242,13.1550697 19.3710692,13.836478 C20.3861676,14.6488778 21.6723392,15.0446229 22.9685535,14.9433962 L32.1006289,14.9433962 C33.3968432,15.0446229 34.6830148,14.6488778 35.6981132,13.836478 C36.5172582,13.1550697 36.9766608,12.134175 36.9433962,11.0691824 L36.9433962,4.01257862 C36.9766608,2.94758601 36.5172582,1.92669131 35.6981132,1.24528302 C34.6830148,0.432883159 33.3968432,0.0371380658 32.1006289,0.13836478 L32.1006289,0.13836478 Z M33.3459119,11.2075472 C33.3459119,11.7610063 33.2075472,11.8993711 32.1006289,12.0377358 L22.9685535,12.0377358 C21.8616352,11.8993711 21.7232704,11.7610063 21.7232704,11.2075472 L21.7232704,3.87421384 C21.7232704,3.32075472 21.8616352,3.18238994 22.9685535,3.04402516 L32.1006289,3.04402516 C33.2075472,3.18238994 33.3459119,3.32075472 33.3459119,3.87421384 L33.3459119,11.2075472 Z" id="Shape"></path>
                        <path d="M52.3018868,0.13836478 L40.1257862,0.13836478 L40.1257862,14.8050314 L43.4465409,14.8050314 L43.4465409,8.71698113 L49.9496855,8.71698113 L53.1320755,14.6666667 L53.5471698,14.9433962 L56.3144654,14.9433962 L56.7295597,14.6666667 L56.7295597,14.2515723 L53.8238994,8.57861635 C56.0377358,8.16352201 57.1446541,6.77987421 57.0062893,4.98113208 L57.0062893,4.01257862 C57.0952406,2.96707073 56.684824,1.94102923 55.8993711,1.24528302 C54.8663517,0.467360222 53.5935405,0.075726007 52.3018868,0.13836478 Z M53.5471698,4.98113208 C53.5471698,5.53459119 53.408805,5.67295597 52.3018868,5.81132075 L43.5849057,5.81132075 L43.5849057,3.04402516 L52.3018868,3.04402516 C53.408805,3.18238994 53.5471698,3.32075472 53.5471698,3.87421384 L53.5471698,4.98113208 Z" id="Shape"></path>
                        <path d="M129.647799,0.13836478 L127.018868,0.13836478 C126.880503,0.13836478 126.742138,0.13836478 126.742138,0.27672956 C126.662079,0.34769527 126.61251,0.446831888 126.603774,0.553459119 L126.603774,14.8050314 L129.786164,14.8050314 L129.786164,0.553459119 C129.777427,0.446831888 129.727858,0.34769527 129.647799,0.27672956 C129.924528,0.13836478 129.786164,0.13836478 129.647799,0.13836478 Z" id="Path"></path>
                        <path d="M72.3647799,5.67295597 L64.2012579,5.67295597 C63.0943396,5.53459119 62.9559748,5.39622642 62.9559748,4.8427673 L62.9559748,3.87421384 C62.9559748,3.32075472 63.0943396,3.18238994 64.2012579,3.04402516 L76.2389937,3.04402516 C76.3773585,3.04402516 76.3773585,2.90566038 76.3773585,2.7672956 L76.3773585,0.553459119 C76.3686218,0.446831888 76.3190535,0.34769527 76.2389937,0.27672956 C76.2389937,0.13836478 76.1006289,0.13836478 75.9622642,0.13836478 L64.2012579,0.13836478 C62.9096042,0.075726007 61.636793,0.467360222 60.6037736,1.24528302 C59.8183207,1.94102923 59.4079041,2.96707073 59.4968553,4.01257862 L59.4968553,4.70440252 C59.4079041,5.7499104 59.8183207,6.77595191 60.6037736,7.47169811 C61.636793,8.24962091 62.9096042,8.64125513 64.2012579,8.57861635 L72.3647799,8.57861635 C73.4716981,8.57861635 73.6100629,8.85534591 73.7484277,9.40880503 L73.7484277,11.2075472 C73.6100629,11.7610063 73.4716981,11.8993711 72.3647799,12.0377358 L60.0503145,12.0377358 C59.9119497,12.0377358 59.9119497,12.1761006 59.9119497,12.3144654 L59.9119497,14.6666667 L72.2264151,14.6666667 C73.5633289,14.7503302 74.8867218,14.3582138 75.9622642,13.5597484 C76.7477171,12.8640022 77.1581337,11.8379607 77.0691824,10.7924528 L77.0691824,9.40880503 C77.1581337,8.36329715 76.7477171,7.33725564 75.9622642,6.64150943 C74.9063322,5.9228752 73.6387829,5.58161193 72.3647799,5.67295597 Z" id="Path"></path>
                        <path d="M100.72956,0.13836478 L97.1320755,0.13836478 L90.6289308,6.36477987 L84.1257862,0.27672956 L80.3899371,0.27672956 L79.9748428,0.553459119 C79.9541381,0.748497869 80.0031558,0.944568596 80.1132075,1.10691824 L88.8301887,9.13207547 L88.8301887,14.9433962 L92.1509434,14.9433962 L92.1509434,8.99371069 L101.144654,0.968553459 C101.285589,0.810983285 101.285589,0.572664514 101.144654,0.41509434 C101.144654,0.27672956 101.006289,0.13836478 100.72956,0.13836478 Z" id="Path"></path>
                    </g>
                </g>
                <g id="3-Ikoner" fill="#7D9AAA">
                    <path d="M22.2983624,15.7445181 L29.0999942,15.9964304 L28.2183012,14.6109128 L9.45083564,15.3666496 C9.34967626,15.6050564 9.30650931,15.8640581 9.3248795,16.1223865 L22.6762308,16.6262111 L22.2983624,15.7445181 Z" id="Path"></path>
                    <path d="M20.7868887,12.7215706 L9.57679179,13.2253952 C9.59516197,13.4837236 9.55199502,13.7427253 9.45083564,13.9811321 L21.6685817,14.4849566 C21.4258752,13.8729294 21.1308866,13.2829521 20.7868887,12.7215706 L20.7868887,12.7215706 Z" id="Path"></path>
                    <polygon id="Path" points="19.6532834 10.5803162 9.70274793 11.0841407 9.70274793 11.8398776 20.6609325 12.3437022"></polygon>
                    <path d="M6.42788817,12.5956145 L0.885817804,12.8475268 C0.885817804,13.099439 0.759861659,13.3513513 0.759861659,13.6032636 L7.43553733,13.8551759 C7.17135244,13.3826674 6.8308803,12.9570772 6.42788817,12.5956145 L6.42788817,12.5956145 Z" id="Path"></path>
                    <path d="M1.51559853,7.68332482 C1.38964238,8.31310555 1.38964238,8.81693013 1.26368624,9.3207547 L3.53089684,9.3207547 L1.51559853,7.68332482 Z" id="Path"></path>
                    <path d="M4.538546,10.45436 L1.13773009,10.7062723 C1.13773009,10.9581846 1.01177395,11.2100969 1.01177395,11.4620092 L5.6721513,11.4620092 L4.538546,10.45436 Z" id="Path"></path>
                    <path d="M18.3937219,8.56501784 L9.95466022,8.94288627 C9.95466022,9.19479856 9.82870407,9.44671085 9.82870407,9.69862314 L19.4013711,10.0764916 L18.3937219,8.56501784 Z" id="Path"></path>
                    <path d="M10.9623094,3.23410422e-15 C10.9623094,0.377868434 10.8363532,0.755736868 10.8363532,1.25956145 L12.4737831,1.25956145 L10.9623094,3.23410422e-15 Z" id="Path"></path>
                    <path d="M17.0082043,6.54971952 L10.2065725,6.80163181 C10.1054131,7.04003859 10.0622462,7.29904031 10.0806164,7.55736868 L18.0158535,7.93523711 L17.0082043,6.54971952 Z" id="Path"></path>
                    <path d="M25.1953537,10.45436 L21.920494,10.45436 C21.9493706,10.7540957 21.9061854,11.0563922 21.7945378,11.336053 L26.2030029,11.336053 L25.1953537,10.45436 Z" id="Path"></path>
                    <path d="M26.8327836,12.5956145 L21.6685817,12.5956145 C21.6974584,12.8953502 21.6542731,13.1976467 21.5426255,13.4773075 L27.7144766,13.8551759 C27.4507839,13.4149683 27.1561442,12.9940545 26.8327836,12.5956145 L26.8327836,12.5956145 Z" id="Path"></path>
                    <polygon id="Path" points="15.3707744 4.40846506 10.3325287 4.66037735 10.3325287 5.41611422 16.3784236 5.66802651"></polygon>
                    <polygon id="Path" points="13.6073884 2.39316675 10.5844409 2.39316675 10.5844409 3.27485976 14.6150376 3.27485976"></polygon>
                    <path d="M22.2983624,7.68332482 C22.1724063,8.31310555 22.1724063,8.81693013 22.0464501,9.3207547 L24.1877046,9.3207547 C23.6188197,8.70840412 22.985353,8.15939961 22.2983624,7.68332482 L22.2983624,7.68332482 Z" id="Path"></path>
                    <path d="M1.51559853,39.9280979 L5.92406359,37.9127995 L1.01177395,38.4166241 C1.09848664,38.9439818 1.2685541,39.4541841 1.51559853,39.9280979 L1.51559853,39.9280979 Z" id="Path"></path>
                    <path d="M14.111213,35.6455889 L0.633905515,36.2753697 C0.633905515,36.5272819 0.759861659,37.2830188 0.759861659,37.2830188 C0.759861659,37.2830188 22.1724063,36.5272819 22.1724063,39.0464048 L23.4319677,37.1570627 C23.4319677,37.1570627 30.9893364,35.8975012 30.7374241,38.1647118 L32.1229417,35.7715451 L13.7333446,36.5272819 L14.111213,35.6455889 Z" id="Path"></path>
                    <path d="M10.7103971,39.9280979 C11.6275465,39.360252 12.4376205,38.635449 13.1035638,37.7868434 L9.95466022,37.7868434 C11.0882655,38.4166241 10.7103971,39.9280979 10.7103971,39.9280979 Z" id="Path"></path>
                    <polygon id="Path" points="8.06531805 14.6109128 0.633905515 14.9887812 0.633905515 15.7445181 9.07296721 16.1223865"></polygon>
                    <path d="M14.8669499,31.36308 L0.130080936,31.9928607 L0.130080936,32.7485976 L9.45083564,33.126466 L9.45083564,33.126466 L24.565573,33.7562468 C24.666205,33.4673669 24.7503118,33.1729931 24.8174853,32.8745538 L32.8786785,33.2524222 C33.0237099,32.67498 33.1081371,32.0839894 33.1305908,31.4890362 L14.7409937,32.1188169 C14.7409937,31.8669046 14.8669499,31.6149923 14.8669499,31.36308 Z" id="Path"></path>
                    <path d="M14.7409937,30.1035186 L14.7409937,29.2218256 L0.0041247913,29.8516063 C-0.0142453935,30.1099347 0.0289215597,30.3689364 0.130080936,30.6073432 L9.19892335,30.9852116 L9.19892335,30.9852116 L25.0693976,31.7409485 L25.0693976,30.7332993 L33.256547,31.1111677 L33.256547,29.3477817 L14.7409937,30.1035186 Z" id="Path"></path>
                    <path d="M14.6150376,33.5043345 L0.256037081,34.1341152 C0.357196457,34.372522 0.40036341,34.6315237 0.381993225,34.8898521 L9.70274793,35.2677205 L9.70274793,35.2677205 L23.8098361,35.8975012 L24.1877046,35.0158082 L32.2488978,35.3936766 C32.4743988,34.8238727 32.643157,34.233219 32.7527224,33.6302906 L14.4890814,34.2600713 C14.4890814,34.0081591 14.6150376,33.7562468 14.6150376,33.5043345 Z" id="Path"></path>
                    <polygon id="Path" points="9.19892335 20.2789393 24.1877046 21.0346762 23.8098361 20.027027 31.2412487 20.4048954 30.4855118 18.7674656 11.2142217 19.5232024 10.8363532 18.7674656 0.256037081 19.2712901 0.256037081 19.9010709 9.19892335 20.2789393"></polygon>
                    <path d="M9.07296721,22.4201937 L24.6915291,23.1759306 C24.6243556,22.8774912 24.5402488,22.5831174 24.4396169,22.2942376 L31.9969855,22.5461499 L31.493161,20.90872 L12.347827,21.6644569 L11.9699585,20.7827639 L0.130080936,21.4125446 L0.130080936,22.0423253 L9.07296721,22.4201937 Z" id="Path"></path>
                    <path d="M9.19892335,18.263641 L23.4319677,18.8934217 C23.4067614,18.5455203 23.3215328,18.2046061 23.1800554,17.8857725 L30.2335995,18.263641 L29.4778626,16.7521672 L10.0806164,17.5079041 C9.8660792,17.2432001 9.69592559,16.9454313 9.57679179,16.6262111 L0.50794937,17.1300357 C0.50794937,17.381948 0.381993225,17.5079041 0.381993225,17.7598164 L9.19892335,18.263641 L9.19892335,18.263641 Z" id="Path"></path>
                    <path d="M9.07296721,26.7027027 L25.1953537,27.4584395 L25.1953537,26.5767465 L33.0046347,26.8286588 C32.9742335,26.2344481 32.8899163,25.6442274 32.7527224,25.0652728 L13.9852568,25.8210097 C13.8593007,25.5690974 13.8593007,25.3171851 13.7333446,25.0652728 L0.0041247913,25.5690974 L0.0041247913,26.3248342 L9.07296721,26.7027027 L9.07296721,26.7027027 Z" id="Path"></path>
                    <path d="M9.07296721,28.8439571 L25.1953537,29.599694 L25.1953537,28.718001 L33.256547,28.9699133 C33.256547,28.4660887 33.1305908,27.836308 33.1305908,27.2065272 L14.4890814,27.9622641 C14.3857619,27.6804434 14.3428483,27.3800485 14.3631253,27.0805711 L0.00412479129,27.7103518 L0.00412479129,28.4660887 L9.07296721,28.8439571 L9.07296721,28.8439571 Z" id="Path"></path>
                    <path d="M9.07296721,24.5614482 L25.0693976,25.3171851 C24.9753788,25.033101 24.932727,24.734538 24.9434414,24.4354921 L32.6267663,24.6874044 C32.5006328,24.0884599 32.3322707,23.4991926 32.1229417,22.9240183 C32.1229417,22.9240183 24.6915291,23.3018868 24.6915291,23.1759306 L13.22952,23.6797552 C13.1035638,23.4278429 13.1035638,23.1759306 12.9776077,22.9240183 L0.130080936,23.4278429 C0.130080936,23.6797552 0.00412479129,23.9316675 0.00412479129,24.1835798 L9.07296721,24.5614482 L9.07296721,24.5614482 Z" id="Path"></path>
                </g>
                <path d="M25.172626,49.0086478 L14.9336323,49.0086478 C8.84558197,49.8388365 3.86444989,51.2224843 4.00281467,52.3294025 C4.14117945,53.4363208 6.49338071,53.4363208 9.95250021,53.4363208 L15.0719971,53.1595912 C17.5849012,52.8919109 20.0798085,52.476093 22.5436952,51.9143082 C26.8330034,51.2224843 30.5688524,50.5306604 30.5688524,49.7004717 C30.5688524,48.870283 27.663192,49.0086478 25.172626,49.0086478" id="Path" fill="#7D9AAA" opacity="0.5"></path>
            </g>
        </g>
    </g>
</svg>
