<?xml version="1.0" encoding="UTF-8" standalone="no"?>
<svg
   xmlns:dc="http://purl.org/dc/elements/1.1/"
   xmlns:cc="http://creativecommons.org/ns#"
   xmlns:rdf="http://www.w3.org/1999/02/22-rdf-syntax-ns#"
   xmlns:svg="http://www.w3.org/2000/svg"
   xmlns="http://www.w3.org/2000/svg"
   xmlns:sodipodi="http://sodipodi.sourceforge.net/DTD/sodipodi-0.dtd"
   xmlns:inkscape="http://www.inkscape.org/namespaces/inkscape"
   id="logo-header"
   viewBox="0 0 192 70"
   width="100%"
   height="100%"
   version="1.1"
   sodipodi:docname="GIS_logo_new.svg"
   inkscape:version="0.92.3 (2405546, 2018-03-11)">
  <metadata
     id="metadata871">
    <rdf:RDF>
      <cc:Work
         rdf:about="">
        <dc:format>image/svg+xml</dc:format>
        <dc:type
           rdf:resource="http://purl.org/dc/dcmitype/StillImage" />
        <dc:title></dc:title>
      </cc:Work>
    </rdf:RDF>
  </metadata>
  <defs
     id="defs869" />
  <sodipodi:namedview
     pagecolor="#ffffff"
     bordercolor="#666666"
     borderopacity="1"
     objecttolerance="10"
     gridtolerance="10"
     guidetolerance="10"
     inkscape:pageopacity="0"
     inkscape:pageshadow="2"
     inkscape:window-width="3000"
     inkscape:window-height="1875"
     id="namedview867"
     showgrid="false"
     inkscape:zoom="12.166667"
     inkscape:cx="96.945205"
     inkscape:cy="35"
     inkscape:window-x="-13"
     inkscape:window-y="-13"
     inkscape:window-maximized="1"
     inkscape:current-layer="logo-header" />
  <path
     d="M185.674 52.632v-8.287h1.633l3.424 6.885h.049v-6.885h1.121v8.287h-1.633l-3.424-6.922h-.049v6.922h-1.121zM174.838 44.345h-1.158v8.287h1.158v-8.287zM163.935 44.345h-1.158v8.287h1.158v-8.287zM147.63 52.632v-8.287h5.497v1.036h-4.339v2.51h3.778v1.036h-3.778v2.669h4.339v1.036h-5.497zM140.039 52.632v-8.287h3.12c.439 0 .817.049 1.146.146.329.098.609.256.828.45.22.208.378.452.476.744.097.305.146.646.146 1.036 0 .366-.049.695-.134.987a1.89 1.89 0 01-.463.768c-.159.17-.354.305-.561.402-.219.11-.487.183-.816.22l2.047 3.534H144.5l-1.938-3.498h-1.365v3.498h-1.158zm1.158-4.485h2.389c.304 0 .548-.097.706-.28.159-.183.244-.415.244-.67v-.915c0-.28-.085-.511-.256-.67-.17-.158-.402-.231-.694-.231h-2.389v2.766zM132.7 52.632v-8.287h3.132c.5 0 .902.049 1.207.134a1.811 1.811 0 011.255 1.304c.085.329.134.694.134 1.084 0 .378-.049.744-.158 1.073-.11.341-.293.634-.524.865-.464.451-1.085.67-1.902.67h-1.986v3.157H132.7zm1.158-4.192h2.425c.28 0 .5-.098.67-.269a.947.947 0 00.256-.682v-1.206c0-.28-.085-.5-.243-.659-.159-.17-.39-.243-.683-.243h-2.425v3.059zM113.544 45.38v-1.035h6.105v1.036h-2.474v7.25h-1.157v-7.25h-2.474zM102.846 52.632l2.864-8.287h1.292l2.876 8.287h-1.219l-.683-2.048h-3.253l-.683 2.048h-1.194zm2.181-2.998h2.645l-1.292-3.997h-.049l-1.304 3.997zM96.175 45.38v-1.035h6.106v1.036h-2.474v7.25h-1.158v-7.25h-2.474zM88.572 52.632l2.864-8.287h1.292l2.876 8.287h-1.219l-.682-2.048h-3.254l-.682 2.048h-1.195zm2.182-2.998h2.644l-1.291-3.997h-.05l-1.303 3.997zM81.233 52.632v-8.287h2.681c1.256 0 2.157.341 2.718 1.023.56.695.84 1.731.84 3.12 0 1.39-.28 2.425-.84 3.12-.56.683-1.462 1.024-2.718 1.024h-2.68zm1.158-1.036h1.523c.78 0 1.353-.159 1.73-.488.366-.329.55-.792.55-1.401V47.27c0-.61-.184-1.073-.55-1.402-.377-.329-.95-.487-1.73-.487h-1.523v6.215zM176.699 48.49c0-.647.073-1.244.207-1.768.147-.536.354-.987.646-1.365a2.689 2.689 0 011.097-.877c.451-.207.987-.317 1.609-.317.621 0 1.157.11 1.608.317.451.195.817.5 1.097.877.293.378.512.83.646 1.365.134.524.207 1.121.207 1.767a7.28 7.28 0 01-.207 1.78 3.572 3.572 0 01-.646 1.352c-.28.378-.646.67-1.097.89-.451.207-.987.305-1.608.305-.622 0-1.158-.098-1.609-.305a2.931 2.931 0 01-1.097-.89c-.292-.365-.499-.828-.646-1.352a7.28 7.28 0 01-.207-1.78zm1.28 1.279c0 .317.061.597.17.853.122.244.281.463.488.634.219.182.451.317.731.414a3.02 3.02 0 001.779 0 2.16 2.16 0 00.732-.414c.207-.17.365-.39.487-.634.11-.256.171-.536.171-.853v-2.56c0-.316-.061-.596-.171-.84a1.97 1.97 0 00-1.219-1.048 2.665 2.665 0 00-.889-.146c-.317 0-.61.048-.89.146a1.972 1.972 0 00-1.219 1.048 2.04 2.04 0 00-.17.84v2.56zM165.626 50.22h1.158c.061.56.28.963.658 1.206.378.256.841.378 1.389.378.281 0 .537-.024.768-.085.232-.061.439-.146.609-.256a1.39 1.39 0 00.427-.415c.097-.17.146-.365.146-.584 0-.366-.097-.634-.292-.841-.207-.207-.524-.366-.963-.488l-1.621-.45c-.682-.196-1.182-.476-1.511-.854-.329-.365-.487-.865-.487-1.474 0-.317.06-.597.195-.866.134-.268.329-.5.584-.694a2.87 2.87 0 01.902-.463c.341-.11.731-.17 1.158-.17.402 0 .768.048 1.121.145.341.086.646.232.902.439.268.195.487.451.646.756.17.304.28.67.317 1.096h-1.158c-.024-.28-.085-.511-.195-.694a1.465 1.465 0 00-.427-.439 1.418 1.418 0 00-.56-.22 2.687 2.687 0 00-.646-.072c-.524 0-.938.11-1.243.316a.999.999 0 00-.463.866c0 .39.11.67.317.865.207.183.548.341 1.011.475l1.329.366c.353.097.67.207.95.341.293.134.524.292.719.475.183.195.329.415.427.67.097.244.146.549.146.89 0 .366-.085.695-.256.987-.158.293-.39.536-.658.744a3.09 3.09 0 01-.987.475c-.378.122-.768.17-1.182.17a4.68 4.68 0 01-1.182-.146 3.04 3.04 0 01-1-.475 2.418 2.418 0 01-.719-.804 2.69 2.69 0 01-.329-1.17zM154.583 48.563c0-.67.073-1.28.207-1.829.146-.536.353-.999.633-1.389.281-.378.646-.67 1.073-.877.426-.207.938-.305 1.511-.305.39 0 .768.061 1.109.183a2.586 2.586 0 011.548 1.304c.158.305.243.658.268 1.048h-1.158c-.061-.488-.244-.865-.573-1.121-.329-.268-.755-.402-1.304-.402-.292 0-.56.048-.816.158a1.894 1.894 0 00-.646.414c-.183.183-.317.39-.427.646a2.176 2.176 0 00-.146.817v2.559c0 .292.049.56.159.816a2.092 2.092 0 001.133 1.072c.256.098.524.147.816.147.549 0 1-.122 1.341-.366.341-.255.536-.658.597-1.218h1.158c-.025.39-.122.743-.293 1.06a2.408 2.408 0 01-.658.829 3.25 3.25 0 01-.95.524 3.754 3.754 0 01-1.182.183c-.549 0-1.036-.098-1.463-.305a2.682 2.682 0 01-1.06-.853c-.28-.378-.5-.817-.646-1.34-.158-.525-.231-1.11-.231-1.755zM120.631 48.49c0-.647.073-1.244.207-1.768.146-.536.353-.987.646-1.365.28-.377.646-.682 1.097-.877.451-.207.987-.317 1.608-.317.622 0 1.158.11 1.609.317.451.195.816.5 1.097.877.292.378.512.83.646 1.365.134.524.207 1.121.207 1.767a7.28 7.28 0 01-.207 1.78 3.587 3.587 0 01-.646 1.352c-.281.378-.646.67-1.097.89-.451.207-.987.305-1.609.305-.621 0-1.157-.098-1.608-.305a2.923 2.923 0 01-1.097-.89c-.293-.365-.5-.828-.646-1.352a7.28 7.28 0 01-.207-1.78zm1.279 1.279c0 .317.061.597.171.853.122.244.28.463.487.634.22.182.451.317.732.414a3.014 3.014 0 001.779 0c.28-.097.524-.232.731-.414.207-.17.366-.39.488-.634.109-.256.17-.536.17-.853v-2.56a2.04 2.04 0 00-.17-.84 1.972 1.972 0 00-1.219-1.048 2.671 2.671 0 00-.89-.146c-.317 0-.609.048-.889.146-.281.085-.512.22-.732.402a1.97 1.97 0 00-.487.646c-.11.244-.171.524-.171.84v2.56zM155.737 37.93V17.62h8.273c2.151 0 3.764.508 4.809 1.524 1.045 1.045 1.553 2.598 1.553 4.749 0 1.613-.388 2.897-1.135 3.882-.776.986-1.852 1.643-3.225 2.031l4.659 8.124h-4.301l-4.271-7.795h-2.479v7.795h-3.883zm3.883-10.99h4.898c1.225 0 1.822-.688 1.822-2.032v-2.09c0-.687-.149-1.165-.388-1.464-.269-.299-.747-.448-1.434-.448h-4.898v6.033zM137.495 37.93V17.62h8.273c2.151 0 3.764.508 4.809 1.554 1.045 1.045 1.553 2.718 1.553 4.958 0 2.15-.567 3.763-1.732 4.868-1.165 1.105-2.688 1.643-4.6 1.643h-4.42v7.287h-3.883zm3.883-10.573h4.809c.686 0 1.164-.179 1.463-.508.299-.328.448-.836.448-1.523v-2.509c0-.686-.149-1.164-.418-1.463-.269-.299-.777-.448-1.493-.448h-4.809v6.451zM106.394 17.62h-3.882v20.31h3.882V17.62zM173.803 27.778c0-3.465.777-6.123 2.36-7.915 1.583-1.792 3.793-2.688 6.69-2.688 2.897 0 5.107.896 6.69 2.688 1.583 1.792 2.36 4.45 2.36 7.915 0 3.494-.777 6.123-2.36 7.915-1.583 1.792-3.793 2.688-6.69 2.688-2.897 0-5.107-.896-6.69-2.688-1.583-1.792-2.36-4.42-2.36-7.915zm4.182 3.136c0 .687.119 1.284.388 1.792s.627.956 1.045 1.314a4.66 4.66 0 001.524.806c.597.18 1.224.27 1.911.27s1.314-.09 1.912-.27a4.664 4.664 0 001.523-.806c.448-.358.776-.806 1.045-1.314.269-.508.388-1.105.388-1.792v-6.272c0-.687-.119-1.284-.388-1.792s-.597-.956-1.045-1.314a4.664 4.664 0 00-1.523-.807 6.577 6.577 0 00-1.912-.268c-.687 0-1.314.09-1.911.268a4.66 4.66 0 00-1.524.807 4.522 4.522 0 00-1.045 1.314c-.269.508-.388 1.105-.388 1.792v6.272zM110.179 31.87h3.883c.149 1.194.597 2.03 1.374 2.568.746.508 1.732.747 2.927.747 1.135 0 2.09-.239 2.867-.687.776-.478 1.165-1.165 1.165-2.06 0-.718-.209-1.285-.657-1.733-.448-.418-1.135-.747-2.061-.986l-3.973-1.045c-1.672-.448-2.897-1.165-3.703-2.15-.836-.986-1.225-2.24-1.225-3.734 0-.806.18-1.553.538-2.27.329-.687.836-1.254 1.464-1.762.627-.508 1.403-.896 2.329-1.165a10.944 10.944 0 013.076-.418c1.046 0 2.002.12 2.868.359.896.239 1.672.597 2.329 1.105a5.922 5.922 0 011.613 1.911c.418.777.687 1.703.777 2.748h-3.883a3.708 3.708 0 00-.418-1.404 3.237 3.237 0 00-.866-.926c-.329-.209-.717-.388-1.135-.448a6.861 6.861 0 00-1.344-.15c-1.076 0-1.912.21-2.539.658-.627.418-.926.986-.926 1.732 0 .777.239 1.374.717 1.792.478.389 1.195.717 2.18.986l3.465.896c1.732.478 3.046 1.165 3.912 2.09.896.897 1.344 2.21 1.344 3.883 0 .926-.179 1.762-.567 2.51a5.424 5.424 0 01-1.613 1.88c-.687.508-1.523.897-2.479 1.166-.985.298-2.031.418-3.196.418-1.135 0-2.18-.12-3.166-.359-.955-.239-1.792-.597-2.538-1.135a5.835 5.835 0 01-1.762-2.03c-.448-.807-.687-1.822-.777-2.987zM81.228 27.838c0-1.613.179-3.077.537-4.39.359-1.315.896-2.42 1.613-3.346.747-.926 1.672-1.672 2.778-2.15 1.105-.508 2.419-.777 3.942-.777 1.075 0 2.06.15 2.987.448.896.299 1.672.717 2.36 1.314a6.342 6.342 0 011.582 2.061c.418.806.657 1.703.717 2.688H93.86c-.209-2.15-1.583-3.226-4.032-3.226-1.314 0-2.39.389-3.196 1.136-.836.776-1.224 1.791-1.224 3.046v6.212c0 .627.12 1.195.328 1.703.24.507.538.955.956 1.344.388.388.866.657 1.404.866a4.866 4.866 0 001.762.328c1.314 0 2.36-.328 3.136-.985.806-.657 1.195-1.703 1.195-3.107v-.866h-4.182v-3.285h8.064v11.08h-3.614l-.09-1.851c-1.044 1.523-2.657 2.3-4.867 2.3-1.374 0-2.569-.27-3.614-.777a7.62 7.62 0 01-2.569-2.21c-.717-.926-1.224-2.031-1.553-3.345-.358-1.284-.537-2.688-.537-4.211z"
     id="path844" />
  <path
     d="M35 70c19.33 0 35-15.67 35-35S54.33 0 35 0 0 15.67 0 35s15.67 35 35 35z"
     fill="#BF4444"
     id="path846" />
  <path
     d="M70.002 35.003c0-2.844-.34-5.639-.997-8.288L45.38 10.21h-6.344l-.948 5.542-8.701 1.896 7.607 11.885-21.88 11.18.855 1.847-2.035 1.162L48.71 67.208c12.517-5.323 21.292-17.743 21.292-32.205z"
     fill="#A83A3A"
     id="path848" />
  <path
     d="M35.098 55.784L14.864 43.19l-.936.538 21.17 13.174 21.365-13.028-.948-.535-20.417 12.445z"
     fill="#BDBDBD"
     id="path850" />
  <path
     d="M35.241 53.252L15.116 40.71l-1.118.632 21.17 13.174 21.365-13.028-1.02-.583L35.24 53.252z"
     fill="#E0E1E0"
     id="path852" />
  <path
     d="M35.363 26.835L13.998 38.867l21.17 13.173 21.365-13.028-21.17-12.177zm-.049 18.278c-6.733 0-12.177-2.528-12.177-5.639 0-3.11 5.444-5.638 12.177-5.638s12.177 2.528 12.177 5.638c0 3.112-5.468 5.64-12.177 5.64z"
     fill="#F5F6F6"
     id="path854" />
  <path
     d="M34.93 44.94c8.092 0 14.653-6.56 14.653-14.653s-6.56-14.653-14.654-14.653c-8.092 0-14.653 6.56-14.653 14.653S26.836 44.94 34.93 44.94z"
     fill="#fff"
     id="path856" />
  <path
     d="M47.752 36.334c-.462.219-.243.584-.68.851-.414.243-.244.34-.39.924-.121.583.049.923.34.462.292-.462 1.216-2.48.73-2.237zM24.888 19.575c.228.146.321.309.02.42-.137.051-.315.06-.506.058a14.7 14.7 0 00-2.486 3.445c.058.501.148.874.002 1.237-.243.584-.559 1.653-.291 2.358.243.73.632 2.285.972 2.334.34.048-.243-1.677.073-1.142.34.558.34 1.36.923 1.92.584.559 1.386.486 2.018 1.02.632.56 1.264 1.362 1.847 1.265 0 0-.048.413-.34 1.142-.292.73-.34 1.555.049 2.066.389.51.753 1.264 1.093 1.653.34.389.584 2.407.511 3.427-.054.758.187 2.197.742 3.098.24.095.482.184.727.267a1.822 1.822 0 01-.254-.448c-.218-.633.17-2.115.681-2.334.51-.219.972-1.045 1.361-1.653.39-.584 1.362-.851 1.653-1.556.292-.73.17-1.556.34-1.945s.633-1.215-.388-1.726c-1.021-.51-1.435-.243-1.483-.729-.049-.462-.292-.972-1.021-1.19-.73-.22-1.361-.633-2.164-.706-.802-.097-.972.535-1.385.195-.413-.34-.754-.68-.924-1.094-.17-.413-.68-.17-.632-.413.049-.243.73-.972-.049-.73-.753.244-1.434.171-1.385-.51.049-.68.972-.923 1.361-1.02.389-.073.68.389 1.143.68.462.292.048-.413.291-.923s1.216-.462 1.362-1.191c.121-.73-.05-1.313.729-1.386.753-.072 1.556.049 1.653-.34.073-.389-.875.121-.924-.34-.048-.462.851-1.094 1.094-.632.243.462.875.51.972.34.073-.17 0-.462-.291-1.191-.292-.73-.584-.51-.851-1.313-.243-.802-.68.049-1.094-.389-.413-.413-.924-1.312-1.02-.558-.074.753-.074 1.19-.463 1.774-.389.583-.559.121-.875-.243-.34-.389-1.094-.753-.85-1.094.243-.34.51-1.215.875-.972.388.243.972.243.874-.17-.072-.413 0-.583.17-.802.17-.22.754-.584.754.17 0 .753-.072.972.511 1.045.583.073 1.264.121 1.215-.243-.048-.389.17-.292 0-.924-.17-.632-.68-.68-1.215-.972-.56-.292-.851-.753-1.313-.583-.462.17-.51.34-.559.802-.049.462-.292.632-.462.413-.17-.22.049-.875-.583-.462s-.875 1.142-1.216.632c-.132-.199-.084-.453-.029-.667-.333.263-.654.54-.963.83z"
     fill="#BF4444"
     id="path858" />
  <path
     d="M27.31 29.454c-.267.437-.121.462.17.559.292.073-.121.583.22.632.34.048 1.093.242 1.312 0 .218-.243-.34-.146-.73-.438-.388-.291-.777-1.07-.972-.753zM27.46 18.127c.413-.413.68-.924.972-.73.292.22.802.147 1.021.147.219-.024.243-.656.85-.56.584.073.39-.12 1.022-.461.437-.236 1.223-.588 1.198-.725a14.563 14.563 0 00-5.605 2.182c.045.32.193.496.542.147zM31.954 16.403c-.51.437-1.264 1.045-.68 1.045.583 0 .874-.316 1.19.097.317.413.195 1.045.195 1.337 0 .291-.17.972.243 1.823.413.85.462 1.385.875.85.413-.558 1.434-1.604 1.945-1.677.51-.072 1.02-.291 1.264-.729.243-.413 0-.826.413-1.142.413-.316.34-.68.462-1.142.122-.462 1.264-.462.753-.73-.51-.243-1.434-.413-2.528-.291-1.045.146-3.208-.243-4.132.559zM49.166 29.232c.127.102.263.2.394.276a14.594 14.594 0 00-3.436-8.703c-.42.277-1.06.216-.969-.104.073-.34.632-.244-.291-.876-.924-.632-1.095-1.19-1.824-.389-.73.803-.875 1.483-1.313 1.678-.413.218-.753.875-.291 1.045.462.17.51 0 .875.34.389.34.875.243.972.049.073-.22.17-.875.219-1.143.048-.243.462-1.093.438-.413-.049.68.583.68.17 1.142-.414.462-.17.851-1.021.924-.851.073-.875-.413-1.361-.17-.462.243-.414.413-.584.68-.17.243-1.046.754-1.046.754s-.729-.243-.389.219c.34.461.633 1.02.34 1.045-.291.048-1.093-.413-1.093.073 0 .51-.122 1.044.219 1.19.243.098.389.292.607.268a.98.98 0 00-.437.34c-.34.438-.121 1.191-.802 1.434-.68.243-.68.56-.802 1.094-.122.56 0 1.944.17 2.066.17.122.462 1.19 1.19 1.094.73-.073 1.484-.122 1.727 0 .243.121.68-.267.802.705s.413 1.094.584 1.604c.17.51-.073 1.556 0 2.188.072.632.68 1.726.68 2.285 0 .56.632.802.973.584.34-.22 1.045-.633 1.361-1.313.292-.68.292-1.021.753-1.896.462-.876.341-1.532.56-2.188.218-.68.729-1.143 1.41-1.896.705-.754.559-1.191 0-1.143-.56.049-.949-.51-1.24-1.19-.292-.681-.632-2.358-.389-1.824.243.56.753 2.067 1.264 2.334.51.243 1.434-.437 1.653-.68.219-.243.122-.973-.413-1.264-.56-.292-.22-.56.34-.219zm-3.5-1.798c-.05.34.12.875-.803.68-.924-.218-.924-.729-1.313-.34-.389.389-.85.73-1.385.122-.56-.584-.462-.754-.754-.803-.218-.024-.924-.194-1.507-.024.048-.024.097-.073.145-.121.414-.389.341-.51.803-.924.462-.413.802-.802 1.143-.413.34.39 1.045.462.802.875-.243.413-.073.68.219.413.291-.243.729-.413.413-.753-.292-.34-.584-1.216-.17-.632.413.583.559.875.802 1.215.243.34.51.559.583.34.073-.218-.048-.68.073-.753.122-.073 0 .729.39.753.413.049.607.024.558.365zm.972-1.459c-.292-.17-.851 0-1.532.219-.68.219-.146-.462.17-.924.268-.413.122.122.73.17.607.05.948.705.632.535zm1.482 1.313c-.121.121-.34-.584-.461-.924-.122-.34-.122-.924.243-1.24.438-.413.243.535.243 1.046-.025.486.097.996-.025 1.118z"
     fill="#BF4444"
     id="path860" />
  <path
     d="M39.975 22.138c-.267.073-.461.584-.34.851.122.243-.121-.121-.462.073-.34.219-.85.802-.388.85.461.05.389-.34.802-.17.413.17.875.122.875-.291s-.073-1.434-.487-1.313zM37.228 20.215c-.243.024-.34.68.22.753.558.073 1.53-.121 1.166-.462-.365-.34-.802-.389-1.386-.291z"
     fill="#BF4444"
     id="path862" />
  <path
     d="M42.146 8.728a5.31 5.31 0 00-5.299 5.299c0 1.337.487 2.552 1.313 3.476l3.986 7.267 3.986-7.243a5.238 5.238 0 001.313-3.5 5.295 5.295 0 00-5.299-5.299zm0 7.584a2.282 2.282 0 01-2.285-2.285 2.282 2.282 0 012.285-2.285 2.282 2.282 0 012.285 2.285 2.282 2.282 0 01-2.285 2.285z"
     fill="#fff"
     stroke="#EF4523"
     stroke-width=".001"
     stroke-miterlimit="10"
     id="path864" />
</svg>
