<svg xmlns="http://www.w3.org/2000/svg" viewBox="0 0 1208 371.97"><defs><style>.cls-1{fill:#9adbf9;}.cls-2{fill:#fab926;}.cls-3{fill:none;}.cls-4{fill:#ffd022;}.cls-5{fill:#f6ac26;}.cls-6{fill:#e59425;}.cls-7{fill:#fedd45;}.cls-8{fill:#fec574;}.cls-9{fill:#ef3947;}.cls-10{fill:#fbb926;}</style></defs><g id="Layer_2" data-name="Layer 2"><g id="Layer_1-2" data-name="Layer 1"><path class="cls-1" d="M690.39,231.48c2.43,1.26,3.84,2.94,4.24,5s-.44,5.81-2.1,11.23a119,119,0,0,0-3.92,15.87c-.38,3.25,0,5.6,1.21,7.05,1.79,2.17,6.83,2.29,15.1.45s20.59-5.88,37-12.11q12.08-4.83,22.94-8.6,10.9-3.54,13.79-4.11c1.53-.24,3.87-.65,7.05-1.24-.79.74-2.05,1.94-3.78,3.55a50.18,50.18,0,0,1-7,5.66c-3.25,2-6.89,4.12-10.95,6.46q-11.36,6.48-25.25,12.7a204.32,204.32,0,0,1-24.17,9.27c-7.4,2.24-12.91,3.51-16.51,3.86-.14,0-.33,0-.63,0a23.09,23.09,0,0,1-9.92-1.57c-5.13-1.9-8.57-4.86-10.33-8.83s-1.92-9.63-.51-16.68q.86-3.61,1.72-6.6c.76-1.83,1-3,.88-3.4s-1.8.46-4.9,2.57-6.52,4.4-10.67,7.29q-21.34,14.81-34.31,18.85t-17.27-1.75a8.14,8.14,0,0,1-1.88-3.85l0-.21a16.37,16.37,0,0,1,1.2-5.11c1.07-3.26,3.51-6.74,7.35-10.44A64,64,0,0,1,632,247.07a31.46,31.46,0,0,1,8.59-3.41,135.66,135.66,0,0,1,13.52-1.59c6.8-.52,11.42-1.13,13.9-1.82a42.06,42.06,0,0,0,10-4.72,46.87,46.87,0,0,1,6.5-3.53,9.81,9.81,0,0,1,3.51-1l.21,0a2.79,2.79,0,0,1,1,.14A5.64,5.64,0,0,0,690.39,231.48ZM651,250a92.61,92.61,0,0,0-13.57,4.52A37.28,37.28,0,0,0,626,262.06q-6,5.78-5.87,7.43a1.37,1.37,0,0,0,.88.6,1,1,0,0,0,.63.16c2.22-.28,7-2.41,14.29-6.45A200.75,200.75,0,0,0,654.13,253c2-1.39,3-2.34,3-2.9s-1-.77-2.52-.67a5.1,5.1,0,0,0-1.47.28A10.6,10.6,0,0,0,651,250Z"/><circle class="cls-2" cx="174.12" cy="197.86" r="174.12" transform="translate(-88.91 181.07) rotate(-45)"/><path class="cls-3" d="M329.24,120.39c.12.24.24.48.35.72C329.48,120.87,329.36,120.63,329.24,120.39Z"/><path class="cls-3" d="M328.17,118.3c.2.37.38.72.56,1.08C328.55,119,328.36,118.67,328.17,118.3Z"/><path class="cls-3" d="M326.12,114.58l.1.18Z"/><path class="cls-3" d="M329.38,136.52c.28.69.55,1.38.79,2.07-.11-.33-.2-.66-.33-1S329.53,136.89,329.38,136.52Z"/><path class="cls-3" d="M333.53,129c1.37,3.24,2.64,6.56,3.74,9.88-.19-.67-.39-1.33-.61-2-.75-2-1.62-4.22-2.67-6.86Z"/><path class="cls-3" d="M324.91,112.57l.24.4Z"/><path class="cls-3" d="M329.34,124.22a172.62,172.62,0,0,1-9.21-17.15A142.15,142.15,0,0,0,329.34,124.22Z"/><path class="cls-3" d="M327.19,116.47l.36.66Z"/><path class="cls-3" d="M330.31,122.65l.12.26Z"/><path class="cls-3" d="M316.79,119.15a54.09,54.09,0,0,1,4.46,8.88A47.84,47.84,0,0,0,316.79,119.15Z"/><path class="cls-3" d="M314.54,117s0,0,0,0l.17.08A.91.91,0,0,0,314.54,117Z"/><path class="cls-3" d="M316.3,118.52c.16.19.32.4.49.63C316.66,119,316.49,118.75,316.3,118.52Z"/><path class="cls-3" d="M332,127.37c.06-.16.1-.29-.2-1.2,0-.12-.1-.27-.15-.4A3.88,3.88,0,0,1,332,127.37Z"/><path class="cls-3" d="M315.77,117.92Z"/><path class="cls-3" d="M329.88,125l.19.27Z"/><path class="cls-3" d="M321.1,105.38c.38.57.8,1.21,1.26,1.94C321.89,106.58,321.48,106,321.1,105.38Z"/><path class="cls-3" d="M331.07,141.58c-.21-.81-.45-1.6-.7-2.4C330.62,140,330.86,140.78,331.07,141.58Z"/><path class="cls-3" d="M315.07,117.29l.12.09Z"/><path class="cls-3" d="M331.64,143.86c-.11-.5-.24-1-.36-1.5Z"/><path class="cls-3" d="M328.8,135.13C326,128.39,322.34,122,320,115,322.25,122,325.85,128.44,328.8,135.13Z"/><path class="cls-3" d="M336.83,163a2.32,2.32,0,0,1-.14-.23Z"/><path class="cls-3" d="M335.91,161.2c-.13-.3-.26-.63-.4-1C335.6,160.46,335.75,160.82,335.91,161.2Z"/><path class="cls-3" d="M336.27,162c-.12-.24-.23-.49-.35-.77C336,161.46,336.14,161.71,336.27,162Z"/><path class="cls-3" d="M319.07,112.16c-.18-.6-.35-1.17-.51-1.72C318.74,111,318.9,111.61,319.07,112.16Z"/><path class="cls-3" d="M319.19,102.72c.19.23.39.5.61.79C319.58,103.21,319.37,103,319.19,102.72Z"/><path class="cls-3" d="M320.05,103.86c.23.32.49.7.76,1.1C320.54,104.55,320.28,104.18,320.05,103.86Z"/><path class="cls-3" d="M318.39,109.85c-.54-2-.92-3.52-1.18-4.68C317.52,106.63,317.94,108.26,318.39,109.85Z"/><path class="cls-3" d="M318.47,101.86c.16.17.34.38.53.62C318.8,102.24,318.63,102,318.47,101.86Z"/><path class="cls-3" d="M316.85,101a2.17,2.17,0,0,0,0,.38A2,2,0,0,1,317,101Z"/><path class="cls-3" d="M317.4,100.92l-.08,0a3.12,3.12,0,0,1,1.07.83A5.65,5.65,0,0,0,317.4,100.92Z"/><path class="cls-3" d="M298.07,180.46c.13.52.25,1,.34,1.56C298.32,181.5,298.2,181,298.07,180.46Z"/><path class="cls-3" d="M294.94,198l-.21-.27Z"/><path class="cls-3" d="M296,198.65a1,1,0,0,1-.24,0A1,1,0,0,0,296,198.65Z"/><path class="cls-3" d="M295.24,198.35a3.44,3.44,0,0,1-.27-.27A3.42,3.42,0,0,0,295.24,198.35Z"/><path class="cls-3" d="M295.45,198.51a.41.41,0,0,1-.11-.07A.41.41,0,0,0,295.45,198.51Z"/><path class="cls-3" d="M298.49,182.42c.1.58.19,1.17.26,1.75C298.68,183.59,298.59,183,298.49,182.42Z"/><path class="cls-3" d="M296.42,198.52l.09-.1a1.12,1.12,0,0,1-.33.19Z"/><path class="cls-3" d="M298.74,192.2c0,.29-.08.58-.12.85C298.66,192.78,298.7,192.49,298.74,192.2Z"/><path class="cls-3" d="M284.08,176.75l0,0S284.07,176.74,284.08,176.75Z"/><path class="cls-3" d="M284.82,178.88c.11.25.25.47.37.71q-.36-.75-.66-1.53C284.64,178.33,284.7,178.61,284.82,178.88Z"/><path class="cls-3" d="M286.59,182.11c-.24-.39-.47-.79-.7-1.18C286.12,181.32,286.35,181.72,286.59,182.11Z"/><path class="cls-3" d="M294.07,196.62c-.85-1.66-1.51-3.41-2.21-5.13C292.56,193.22,293.21,195,294.07,196.62Z"/><path class="cls-3" d="M337.24,163.64a3.71,3.71,0,0,0,.28.3,3.88,3.88,0,0,1-.38-.46Z"/><path class="cls-3" d="M288.79,185.51l-1.28-2C287.94,184.2,288.37,184.85,288.79,185.51Z"/><path class="cls-3" d="M291.33,190.21c-.13-.3-.27-.6-.41-.89C291.06,189.61,291.2,189.91,291.33,190.21Z"/><path class="cls-3" d="M326.66,149.91a2,2,0,0,0,.5-.71,7.48,7.48,0,0,0-.09-2.53C327.23,148.21,327.13,149.37,326.66,149.91Z"/><path class="cls-3" d="M312.16,105.84c.21.31.42.63.61,1C312.58,106.47,312.37,106.15,312.16,105.84Z"/><path class="cls-3" d="M312.94,107.06c.13.22.25.44.37.66C313.19,107.5,313.07,107.28,312.94,107.06Z"/><path class="cls-3" d="M313.65,108.33l.2.39Z"/><path class="cls-3" d="M312.8,119.64a33.14,33.14,0,0,0-.24,6.27A60,60,0,0,1,312.8,119.64Z"/><path class="cls-3" d="M316.52,139.69c2.46,4,6.22,9.5,8.67,10.41C322.91,149.08,319.06,143.73,316.52,139.69Z"/><path class="cls-3" d="M311.39,104.78c.25.32.5.66.74,1C311.89,105.45,311.64,105.1,311.39,104.78Z"/><path class="cls-3" d="M310.33,105.36c-.07-.17-.14-.32-.2-.48C310.2,105,310.25,105.19,310.33,105.36Z"/><path class="cls-3" d="M290.44,168.48l.3.14Z"/><path class="cls-3" d="M291.23,168.9a3.87,3.87,0,0,1,.43.27A3.87,3.87,0,0,0,291.23,168.9Z"/><path class="cls-3" d="M296.59,175.93c.28.65.53,1.31.75,2C297.11,177.24,296.87,176.58,296.59,175.93Z"/><path class="cls-3" d="M297.51,178.45c.16.5.31,1,.44,1.49C297.81,179.44,297.67,179,297.51,178.45Z"/><path class="cls-3" d="M289.47,168.17a4.12,4.12,0,0,1,.47.13A4.77,4.77,0,0,0,289.47,168.17Z"/><path class="cls-3" d="M314.61,111.36l0,0c.23-.06,0-.84-.47-1.91C314.61,110.39,314.82,111.15,314.61,111.36Z"/><path class="cls-3" d="M309.84,104.17a4.94,4.94,0,0,1-.13-.48A4.94,4.94,0,0,0,309.84,104.17Z"/><path class="cls-3" d="M120.63,40.75a22.42,22.42,0,0,1-4.6,2.74A19.83,19.83,0,0,0,120.63,40.75Z"/><path class="cls-3" d="M94.42,45.65l0,0Z"/><path class="cls-3" d="M75.57,57.76c-.68.59-1.36,1.2-2,1.82C74.2,59,74.91,58.33,75.57,57.76Z"/><path class="cls-3" d="M54.6,78.2c-1.77,1.86-3.13,3.32-3.86,4.12C52.06,80.89,53.32,79.55,54.6,78.2Z"/><path class="cls-3" d="M114.68,44l.23-.08c-.25.09-.5.16-.73.22Z"/><path class="cls-3" d="M115.92,43.54c-.28.12-.54.21-.81.3C115.37,43.75,115.63,43.66,115.92,43.54Z"/><path class="cls-3" d="M50.89,80.86c0,.22,0,.48-.08.73,0-.25.06-.51.08-.73Z"/><path class="cls-3" d="M97,44.69c-.3.1-.61.2-.92.32Z"/><path class="cls-3" d="M122.49,36.42a2.37,2.37,0,0,0-.69-.89c-1.34-1.13-3.16-1.08-4.63-1.89a.9.9,0,0,0-.1.09C119.64,34.6,121.73,35.31,122.49,36.42Z"/><path class="cls-3" d="M75.83,57.54a83.08,83.08,0,0,1,10.85-8.08c.76-.45,1.54-.88,2.32-1.3-1.49.78-3,1.63-4.37,2.54A83.9,83.9,0,0,0,75.83,57.54Z"/><path class="cls-3" d="M108.14,75.75c.07.07.15.11.22.18a.87.87,0,0,1-.16-.54A2.08,2.08,0,0,0,108.14,75.75Z"/><path class="cls-3" d="M109.91,76.82c-.31-.16-.67-.34-1.1-.54A4.47,4.47,0,0,0,109.91,76.82Z"/><path class="cls-3" d="M283.77,172.71a.13.13,0,0,0,0-.06A.13.13,0,0,1,283.77,172.71Z"/><path class="cls-3" d="M110,43.89c.71.89,2.8.55,4,.28C111.27,44.8,110,43.91,110,43.89Z"/><path class="cls-3" d="M97.73,44.45c5.24-1.69,9.83-2.2,11.72-1C107.55,42.21,103,42.73,97.73,44.45Z"/><path class="cls-3" d="M117.89,33.15l.06,0h0Z"/><path class="cls-3" d="M194.69,26.17c-.76-.12-1.58-.23-2.46-.34C193.11,25.94,193.93,26.05,194.69,26.17Z"/><path class="cls-3" d="M214.72,31.69l-.59-.2Z"/><path class="cls-3" d="M189.94,25.61l-.37,0Z"/><path class="cls-3" d="M224.47,34.83l-6.17-2Z"/><path class="cls-3" d="M160.57,25l-1.51,0Z"/><path class="cls-3" d="M237.42,39l-5.34-1.73Z"/><path class="cls-3" d="M339.71,161.51c0-.4.07-.83.1-1.31a31.62,31.62,0,0,1-.5,3.16A8.31,8.31,0,0,0,339.71,161.51Z"/><path class="cls-3" d="M172.63,23.78c-1.86,0-3.27,0-4.42.07h-.05C169.38,23.82,170.82,23.8,172.63,23.78Z"/><path class="cls-3" d="M174.17,23.76h0Z"/><path class="cls-3" d="M160.48,24.27l-6.15.63-2.67.33C154.62,24.88,157.87,24.53,160.48,24.27Z"/><path class="cls-3" d="M257.36,45.45h0c.49.22,1,.43,1.47.67h0C258.35,45.88,257.85,45.67,257.36,45.45Z"/><path class="cls-3" d="M122.37,38.73A9,9,0,0,1,121,40.46,5.78,5.78,0,0,0,122.37,38.73Z"/><path class="cls-3" d="M148.52,25.63c1.54-.22,5.38-.45,10.3-.59-4.35.12-7.79.3-9.51.49Z"/><path class="cls-3" d="M253.32,43.71c.27.1.52.23.78.33h0C253.84,43.94,253.59,43.81,253.32,43.71Z"/><path class="cls-3" d="M91.76,57.66l.08.15A1.09,1.09,0,0,0,91.76,57.66Z"/><path class="cls-3" d="M91.4,60.07a58.89,58.89,0,0,1-6.28,7.69C88.85,63.82,90.61,61.5,91.4,60.07Z"/><path class="cls-3" d="M113.58,66.82a4.38,4.38,0,0,0,.36-.65A6.77,6.77,0,0,1,113.58,66.82Z"/><path class="cls-3" d="M82.3,61.47l.19-.15Z"/><path class="cls-3" d="M83.55,60.55c.23-.16.46-.32.7-.47C84,60.23,83.78,60.39,83.55,60.55Z"/><path class="cls-3" d="M87.56,58.44h0Z"/><path class="cls-3" d="M85.76,59.23l.21-.1Z"/><path class="cls-3" d="M90.6,57.65h0Z"/><path class="cls-3" d="M62.83,84.71c-2.23,2.18-4.44,4.25-6.52,6.13q2.09-1.75,4-3.67Z"/><path class="cls-3" d="M79.86,64.22s-.06.07-.08.11c-2,4-6.16,9.15-11,14.27,7.8-8.15,9.49-11,10.47-13.23C79.46,65,79.64,64.62,79.86,64.22Z"/><path class="cls-3" d="M14.77,148.32c-.87-5,1.2-15.31,7.71-26C14.76,133.11,13.66,141.94,14.77,148.32Z"/><path class="cls-3" d="M69.63,107.2l-.14.23Z"/><path class="cls-3" d="M68.67,111.18a2.55,2.55,0,0,0,.13.39A2.23,2.23,0,0,1,68.67,111.18Z"/><path class="cls-3" d="M68.57,110.81a4,4,0,0,1,.1-1.34,7.21,7.21,0,0,1,.5-1.41A4.79,4.79,0,0,0,68.57,110.81Z"/><path class="cls-3" d="M83,94.17c-1.11.94-2.38,2-3.83,3.19C80.76,96.09,82,95.06,83,94.17Z"/><path class="cls-3" d="M130.54,65.19A13.79,13.79,0,0,1,127.92,64,13.41,13.41,0,0,0,130.54,65.19Z"/><path class="cls-3" d="M124.65,76.12l4,1.54.08,0c-1-.39-2-.79-3-1.23C125.31,76.31,125,76.23,124.65,76.12Z"/><path class="cls-3" d="M27.62,105.7c.05-.09.11-.17.16-.27,0,.06-.07.1-.1.16A.6.6,0,0,1,27.62,105.7Z"/><path class="cls-3" d="M112.91,61.44c0-.09.1-.19.14-.28l-.12.21c-1,1.89,1.85,2.95,1,4.8C114.77,64.34,112.33,63.22,112.91,61.44Z"/><path class="cls-3" d="M114,59.81a11.39,11.39,0,0,1,1-.92A10.87,10.87,0,0,0,114,59.81Z"/><path class="cls-3" d="M111.57,69.5c-1.37,1.54-2.77,3.06-3.25,5.14a19.46,19.46,0,0,1,3.05-4.9Z"/><path class="cls-3" d="M126.22,61.22A2.82,2.82,0,0,0,127.86,64a5,5,0,0,1-1-.81A2.28,2.28,0,0,1,126.22,61.22Z"/><path class="cls-3" d="M126.3,60.7s0,.06,0,.1a7.28,7.28,0,0,1,1.44-2.54A5.43,5.43,0,0,0,126.3,60.7Z"/><path class="cls-3" d="M27.5,105.93c-.35.65-.78,1.45-1.23,2.4C26.66,107.51,27.08,106.7,27.5,105.93Z"/><path class="cls-3" d="M22.4,119l.31-.59c1.53-3.17,2-6.73,3.47-9.92a35.84,35.84,0,0,0-1.68,4.23C23.27,116.63,22.78,118.14,22.4,119Z"/><path class="cls-3" d="M32.66,97.68c-.2.33-.42.66-.64,1C32.29,98.28,32.5,97.94,32.66,97.68Z"/><path class="cls-3" d="M130.75,65.27h0c2.75,1,4.33,1.5,5.45,2a27.69,27.69,0,0,0-4.22-1.6Z"/><path class="cls-3" d="M139.1,69.27l.55.54c-.15-.15-.34-.35-.5-.5A.1.1,0,0,0,139.1,69.27Z"/><path class="cls-3" d="M33,97.19a.3.3,0,0,0,0,.08A.3.3,0,0,1,33,97.19Z"/><path class="cls-3" d="M98.49,348.1H98.4l.34,0Z"/><path class="cls-3" d="M240,354.46l-.09,0H240Z"/><path class="cls-3" d="M227.09,284.59l-1.18-1.35C226.31,283.71,226.7,284.16,227.09,284.59Z"/><path class="cls-3" d="M261.7,286.2c-.26.27-.53.54-.83.81C261.18,286.74,261.45,286.46,261.7,286.2Z"/><path class="cls-3" d="M232.08,353.44c-.53-.78-.85-2.1-1.42-4.55,0,0,0,0,0-.05a1.31,1.31,0,0,1,0,.37A4.77,4.77,0,0,0,232.08,353.44Z"/><path class="cls-3" d="M235.74,354.75l-.15,0Z"/><path class="cls-3" d="M230.22,348.32a1,1,0,0,0-.6-.05A1.79,1.79,0,0,1,230.22,348.32Z"/><path class="cls-3" d="M217,271.63c.07.11.14.19.21.29a48,48,0,0,1-2.92-5A25,25,0,0,0,217,271.63Z"/><path class="cls-3" d="M260.44,287.37c-.26.22-.55.42-.84.63C259.9,287.79,260.19,287.58,260.44,287.37Z"/><path class="cls-3" d="M257.81,242.64a4.88,4.88,0,0,0,.42.77A5.28,5.28,0,0,1,257.81,242.64Z"/><path class="cls-3" d="M270.31,253.17c.15.23.31.45.45.7C270.61,253.63,270.47,253.39,270.31,253.17Z"/><path class="cls-3" d="M271.61,255.61c-.12-.31-.25-.6-.39-.89.08.18.17.35.24.51S271.55,255.45,271.61,255.61Z"/><path class="cls-3" d="M231.49,232.37h0Z"/><path class="cls-3" d="M240.57,225.28a3.61,3.61,0,0,1,.46-.17Z"/><path class="cls-3" d="M214.38,231.48l0,0Z"/><path class="cls-3" d="M249.67,342.51a.88.88,0,0,0,0-.14c-.33-.88-4.6.05-7.45,1.27.65-.26,1.39-.53,2.34-.82C248.33,341.74,249.48,341.94,249.67,342.51Z"/><path class="cls-3" d="M92.9,348.8a4.36,4.36,0,0,1-1,0c.2,0,.39.08.59.08S92.77,348.8,92.9,348.8Z"/><path class="cls-3" d="M267.83,250.55a35.21,35.21,0,0,0-5-3.29,13.9,13.9,0,0,1-4.43-3.61c.07.1.11.21.19.31C260.94,247,264.82,248.25,267.83,250.55Z"/><path class="cls-3" d="M214.73,366.49c1.63-.36,3.55-.87,5.64-1.47-2.61.73-5,1.33-7,1.74Z"/><path class="cls-3" d="M208.66,367.37a3.5,3.5,0,0,1-.79-.08A2.91,2.91,0,0,0,208.66,367.37Z"/><path class="cls-3" d="M239.72,345.23h0a1.74,1.74,0,0,1,.28-.34A1.59,1.59,0,0,0,239.72,345.23Z"/><path class="cls-3" d="M239.57,346.91l0-.13Z"/><path class="cls-3" d="M239.6,347c.25.91,1.23,1.66,4.19.79a10.53,10.53,0,0,0,4.46-2.67C245.55,347.9,240.26,349.3,239.6,347Z"/><path class="cls-3" d="M251.51,352.69c-.45.29-1,.6-1.52.9C250.55,353.28,251.07,353,251.51,352.69Z"/><path class="cls-3" d="M197.3,361l.26-.21Z"/><path class="cls-3" d="M240.56,354.34c3-.64,5.87-2.13,8.89-2.84C246.43,352.17,243.56,353.58,240.56,354.34Z"/><path class="cls-3" d="M218.77,354.9c4-1.53,6.85-5,10.84-6.63C225.52,349.69,222.8,353.37,218.77,354.9Z"/><path class="cls-3" d="M230.4,348.41l0,0Z"/><path class="cls-3" d="M198.75,360.06a7.08,7.08,0,0,1,.68-.32A6.86,6.86,0,0,0,198.75,360.06Z"/><path class="cls-3" d="M198,360.48l.26-.16Z"/><path class="cls-3" d="M250,351.39c.35-.07.71-.13,1.07-.17C250.73,351.26,250.37,351.32,250,351.39Z"/><path class="cls-3" d="M314.73,244.24l.15-.05Z"/><path class="cls-3" d="M315.06,244.19h0Z"/><path class="cls-3" d="M326.79,216.84c-.61.43-1.22.89-1.8,1.38Q325.92,217.46,326.79,216.84Z"/><path class="cls-3" d="M315.34,244.31l0,0Z"/><path class="cls-3" d="M259.22,227.51a4.25,4.25,0,0,0-3.05-2.75,3.13,3.13,0,0,1,.52.21A5.6,5.6,0,0,1,259.22,227.51Z"/><path class="cls-3" d="M314.36,244.46a1.21,1.21,0,0,1,.2-.14A1.21,1.21,0,0,0,314.36,244.46Z"/><path class="cls-3" d="M314,244.75a.76.76,0,0,0-.11.14,4.11,4.11,0,0,1,.29-.3C314.14,244.65,314.08,244.68,314,244.75Z"/><path class="cls-3" d="M315.56,244.56l0,0Z"/><path class="cls-3" d="M332.13,214.07c.33-.11.67-.25,1-.34l-.11,0Z"/><path class="cls-3" d="M309.06,253.09c-.82-.44-.38-5.38,1.61-11.71C308.63,247.63,308.09,252.57,309.06,253.09Z"/><path class="cls-3" d="M315.89,245.27s0,0,0,0S315.89,245.29,315.89,245.27Z"/><path class="cls-3" d="M309.53,252.81a5.3,5.3,0,0,1-.47.28l.35-.14Z"/><path class="cls-3" d="M315.74,244.9v0Z"/><path class="cls-3" d="M324.14,219c-.19.17-.38.33-.56.51Z"/><path class="cls-3" d="M230.91,232.41a6.37,6.37,0,0,1-1-.07A4.48,4.48,0,0,0,230.91,232.41Z"/><path class="cls-3" d="M217.05,229.4c-.07,0-.15,0-.22,0a3.67,3.67,0,0,0-2.15,1.63A4.53,4.53,0,0,1,217.05,229.4Z"/><path class="cls-3" d="M223.58,230.24a10.06,10.06,0,0,0-6.37-.87A21.81,21.81,0,0,1,223.58,230.24Z"/><path class="cls-3" d="M289.43,186.55q.48.76.9,1.56c-.1-.19-.18-.39-.29-.57C289.85,187.2,289.63,186.88,289.43,186.55Z"/><path class="cls-3" d="M234.42,230.86l-.19.16.06,0Z"/><path class="cls-3" d="M256,224.7c-2.13-.69-5.7-1-11.88-.17a24.63,24.63,0,0,0-2.58.44C244.28,224.36,252.72,223.67,256,224.7Z"/><path class="cls-3" d="M334.53,213.4c-.27,0-.53.12-.8.19Z"/><path class="cls-3" d="M344.38,211.46a9.46,9.46,0,0,1-1.45.67A6.79,6.79,0,0,0,344.38,211.46Z"/><path class="cls-3" d="M328.46,215.78c-.28.16-.56.33-.83.51C327.91,216.1,328.18,215.94,328.46,215.78Z"/><path class="cls-3" d="M233.62,290.31c5.31,3.19,11.17,2.87,21.58-.21a17,17,0,0,0,3.78-1.69C257.35,289.19,243.55,295.39,233.62,290.31Z"/><path class="cls-3" d="M329.83,215l-.18.08Z"/><path class="cls-3" d="M347.12,207.47s0,.06,0,.08S347.12,207.5,347.12,207.47Z"/><path class="cls-3" d="M263.38,283.84a5.78,5.78,0,0,0,.09-6A6.48,6.48,0,0,1,263.38,283.84Z"/><path class="cls-3" d="M272,256.92c.06.26.11.55.16.85C272.13,257.48,272.07,257.2,272,256.92Z"/><path class="cls-3" d="M146.81,150.35c0,.12,0,.23,0,.35C146.78,150.58,146.81,150.46,146.81,150.35Z"/><path class="cls-3" d="M146.73,149.35a3.56,3.56,0,0,1,.05.47C146.76,149.66,146.76,149.48,146.73,149.35Z"/><path class="cls-3" d="M141.14,144.7c-.22-.29-.45-.57-.7-.84a2.36,2.36,0,0,0-1.05-.61A4.6,4.6,0,0,1,141.14,144.7Z"/><path class="cls-3" d="M48.45,231.07a1.57,1.57,0,0,0-.62.26.67.67,0,0,0-.21.28A1.44,1.44,0,0,1,48.45,231.07Z"/><path class="cls-3" d="M139,143.18h0Z"/><path class="cls-3" d="M60.05,188c.61.49,1.22,1,1.88,1.42C61.28,189,60.67,188.46,60.05,188Z"/><path class="cls-3" d="M143.07,146.92c.82.65,2,.55,2.81,1.14C145.05,147.43,143.89,147.55,143.07,146.92Z"/><path class="cls-3" d="M146.26,148.37a2.17,2.17,0,0,1,.38.74A3.2,3.2,0,0,0,146.26,148.37Z"/><path class="cls-3" d="M132.51,188.83l.21.36A3.82,3.82,0,0,1,132.51,188.83Z"/><path class="cls-3" d="M195.51,173.32c.62.27,1.23.53,1.88.86C196.75,173.85,196.13,173.57,195.51,173.32Z"/><path class="cls-3" d="M62.89,189.92a4,4,0,0,1-.36-.18c.09,0,.17.11.26.15Z"/><path class="cls-3" d="M63.56,190.07a2.11,2.11,0,0,1-.57-.13A2.2,2.2,0,0,0,63.56,190.07Z"/><path class="cls-3" d="M64.25,190a2.68,2.68,0,0,0,.61-.29A3.05,3.05,0,0,1,64.25,190Z"/><path class="cls-3" d="M63.64,190.07a1.81,1.81,0,0,0,.54-.07A2,2,0,0,1,63.64,190.07Z"/><path class="cls-3" d="M51.65,231.72a6.24,6.24,0,0,0-2-.71l-.52,0a6.16,6.16,0,0,1,2.75.88A1.7,1.7,0,0,0,51.65,231.72Z"/><path class="cls-3" d="M56.18,240.73a1.13,1.13,0,0,1-.22.11A.76.76,0,0,0,56.18,240.73Z"/><path class="cls-3" d="M56.39,240.55l0,0Z"/><path class="cls-3" d="M55.8,240.88h0Z"/><path class="cls-3" d="M289.27,168.13a4.43,4.43,0,0,0-5,2.85,3.18,3.18,0,0,0-.09.33,6,6,0,0,1,1.74-2.43A4.68,4.68,0,0,1,289.27,168.13Z"/><path class="cls-3" d="M296,174.73a14.28,14.28,0,0,0-4.26-5.47A15.68,15.68,0,0,1,296,174.73Z"/><path class="cls-3" d="M54.57,240.82h0Z"/><path class="cls-3" d="M48.52,231.05A3.14,3.14,0,0,1,49,231,3.93,3.93,0,0,0,48.52,231.05Z"/><path class="cls-3" d="M47.55,232.73c0,.16.09.31.12.46a10.67,10.67,0,0,1-.11-1.19C47.56,232.18,47.55,232.4,47.55,232.73Z"/><path class="cls-3" d="M48.13,235l-.05-.17C48.1,234.87,48.11,234.93,48.13,235Z"/><path class="cls-3" d="M85.76,277.25A19.69,19.69,0,0,0,86,274.7,19.5,19.5,0,0,1,85.76,277.25Z"/><path class="cls-3" d="M52.05,239.88l.05,0-.06,0Z"/><path class="cls-3" d="M53.46,240.53l0,0Z"/><path class="cls-3" d="M49.1,236.94c-.06-.09-.09-.18-.14-.27Z"/><path class="cls-3" d="M77.07,252.32c-.78-1-1.6-2-2.45-3C75.48,250.34,76.31,251.34,77.07,252.32Z"/><path class="cls-3" d="M90.63,348.48l.64.18Z"/><path class="cls-3" d="M44,222.84a14.87,14.87,0,0,1,1-2.87,12.56,12.56,0,0,0-1.75,2.37c.95.66,1.84,1.32,2.76,2Z"/><path class="cls-3" d="M99.26,348.24l.67.15Z"/><path class="cls-3" d="M132.27,188.19a7.58,7.58,0,0,1,1.91-7.28,4.46,4.46,0,0,0-.43.33A6.49,6.49,0,0,0,132.27,188.19Z"/><path class="cls-3" d="M154.24,176.18a4.4,4.4,0,0,0,.72-3.13,6.9,6.9,0,0,0-.61-2.23A7.35,7.35,0,0,1,154.24,176.18Z"/><path class="cls-3" d="M77.18,252.46q9.15,11.86,8.88,21.76C86.28,267,82.71,259.6,77.18,252.46Z"/><path class="cls-3" d="M123.44,360.94c.66.19,1.27.34,1.84.47C124.61,361.25,124,361.1,123.44,360.94Z"/><path class="cls-3" d="M100.57,348.55l.83.24Z"/><path class="cls-3" d="M125.58,361.48c1.33.29,2.3.43,2.6.47C127.24,361.81,126.38,361.65,125.58,361.48Z"/><path class="cls-3" d="M105.17,350.29a24.82,24.82,0,0,0-3-1.25c4.2,1.51,7.65,4.28,11.24,6.83A56.25,56.25,0,0,0,105.17,350.29Z"/><path class="cls-3" d="M121.65,360.39l1.34.42C122.5,360.67,122,360.52,121.65,360.39Z"/><path class="cls-3" d="M121.5,360.34l-.32-.11.1,0Z"/><path class="cls-3" d="M73.82,248.41c-.65-.72-1.3-1.45-2-2.17C72.52,247,73.19,247.7,73.82,248.41Z"/><path class="cls-3" d="M298.81,191.71a31.48,31.48,0,0,0,0-7.38A32,32,0,0,1,298.81,191.71Z"/><path class="cls-4" d="M44.69,296.92C20.6,273.41,18.57,242.3,29.51,242.7c6.53.24,24.67,18.6,34,29.12a29.92,29.92,0,0,1,5,6,6.35,6.35,0,0,1,.62.92c3.57,6.85,17.52,12.77,17.65,12.81.79.25,1.83.59,2.62.83,8.91,2.67,18.26,1.39,27.27,3.15,11.61,2.27,19.92,11.75,31.37,14.39a37.2,37.2,0,0,0,17.48-.18c34.24-8.69,26.15-45.12,23.11-58.83-4.95-22.31,7-26.3,26.85-32.92,15-5,54.71-18.26,63.87,14.61.77,2.77,2.82,10.13,8.82,6.67a15.75,15.75,0,0,0,1.93-1.28c12.26-10.09,14.93-26.28,24.28-38.22,7.85-10,20.55-14.67,28-25.11,2.66-3.71,2.89-5.37,1.62-11.83-3.25-13.28-4.27-17.46-7.48-26,.22.7.42,1.36.61,2,.31.93.63,1.86.91,2.78a46.74,46.74,0,0,1,1.63,18.53c0,.48-.07.91-.1,1.31a8.31,8.31,0,0,1-.4,1.85c-.05.2-.08.34-.08.34-.2.41-.76,1.21-1.71.24a3.71,3.71,0,0,1-.28-.3l-.1-.16c-.1-.14-.2-.29-.31-.47l-.14-.23a8.35,8.35,0,0,1-.42-.8c-.13-.27-.24-.52-.35-.77h0c-.16-.38-.31-.74-.4-1-2-5.26-2.66-10.88-3.87-16.35l-.36-1.5-.21-.78c-.21-.8-.45-1.6-.7-2.4-.07-.19-.13-.39-.2-.59-.24-.69-.51-1.38-.79-2.07-.18-.47-.39-.93-.58-1.39-2.95-6.69-6.55-13.1-8.82-20.09-.29-.85-.61-1.87-.91-2.88-.17-.55-.33-1.12-.51-1.72-.05-.18-.11-.37-.16-.54v-.05c-.45-1.59-.87-3.22-1.18-4.68-.51-2.31-.54-3.22-.39-3.75a2.17,2.17,0,0,1,0-.38l.13,0,.09-.15.25.08.08,0a5.65,5.65,0,0,1,1,.85.34.34,0,0,0,.08.09c.16.17.33.38.53.62l.19.24c.18.23.39.49.61.79l.25.35c.23.32.49.69.76,1.1l.29.42c.38.57.79,1.2,1.26,1.94s1.13,1.85,1.73,2.86c-2-3.45-4.14-7-6.77-10.73h0c-4.41-6-10.57-13.75-15.4-19.39l-.48-.49c-.39.58-1.17,1.25-1.32,1.93-4.73,20.91,9.08,39,9,59.17,0,6.24-3.43,5.8-8.16,5.19-14-1.81-23.28,13.95-23.59,40.14-29.39-5.52-44.67-12.41-64-21.13-24.2-10.91-36.54-15.83-52.59-8.6,1.82-15.34-4.63-36.27-23.47-21.62-12,9.34-16.66,25.61-30.94,32.8-21.8,11-48.1-3.21-69.07,12.38-7,5.21-11.66,13.55-20.93,15.77-9.76,2.33-14.65-9.39-12.18-29.15.86-6.86,2.85-15.29,3.51-18.06C4.23,162,2.92,167,1,185.67L.9,187.84c0,1.86,5.81,32.84,14.69,63.56,2.21,4.41,4.42,8.81,6.39,13.33a45.15,45.15,0,0,1,2.66,7.78c.65,3.06.3,4.69-.4,5.38,4.68,12.53,9.81,23.26,15.14,29.55C52.54,323,52.54,323,133.92,344.62,108.06,321.46,69.82,321.45,44.69,296.92Zm271.08-179a6.62,6.62,0,0,1,.53.6c.19.23.36.45.49.63a47.84,47.84,0,0,1,4.46,8.88c2.67,6.31,5.36,14.15,5.82,18.64a7.48,7.48,0,0,1,.09,2.53,2,2,0,0,1-.5.71.94.94,0,0,1-.78.37,1.77,1.77,0,0,1-.69-.18c-2.45-.91-6.21-6.38-8.67-10.41a38.58,38.58,0,0,1-2.45-4.29,26.89,26.89,0,0,1-1.51-9.49,33.14,33.14,0,0,1,.24-6.27c0-.19,0-.33,0-.37.15-.93.43-2.72,1.66-2.3,0,0,0,0,0,0a.91.91,0,0,1,.13.08,2.49,2.49,0,0,1,.4.24l.12.09a5.47,5.47,0,0,1,.58.54Zm-5.17-14.06a11,11,0,0,1,.79.92c.25.32.5.67.74,1l0,0c.21.31.42.63.61,1,.06.09.12.17.17.26s.25.44.37.66.24.41.34.61l.2.39c.11.24.23.47.32.68.48,1.07.7,1.85.47,1.91l0,0c-.63,0-3-3.35-4.28-6-.08-.17-.13-.32-.2-.48s-.21-.48-.29-.71a4.94,4.94,0,0,1-.13-.48,4,4,0,0,1-.12-.43,1.27,1.27,0,0,1,0-.28A4.13,4.13,0,0,1,310.6,103.86ZM284.25,171a4.43,4.43,0,0,1,5-2.85l.2,0a4.77,4.77,0,0,1,.47.13l.5.18.3.14.49.28a3.87,3.87,0,0,1,.43.27l.12.09a14.28,14.28,0,0,1,4.26,5.47c.2.41.39.82.55,1.2h0c.28.65.52,1.31.75,2,.06.19.11.37.17.55.16.5.3,1,.44,1.49l.12.52c.13.52.25,1,.34,1.56,0,.13,0,.26.08.4.1.58.19,1.17.26,1.75a.88.88,0,0,1,0,.16,31.48,31.48,0,0,1,0,7.38c0,.17-.05.33-.07.49s-.08.58-.12.85c-.46,2.73-1.26,4.7-2.11,5.37l-.09.1-.24.09-.19,0a1,1,0,0,1-.24,0s-.08,0-.12,0a.94.94,0,0,1-.18-.12.41.41,0,0,1-.11-.07l-.1-.09a3.42,3.42,0,0,1-.27-.27l0-.05-.21-.27-.27-.41-.39-.73c-.86-1.66-1.51-3.4-2.21-5.13-.17-.43-.35-.86-.53-1.28s-.27-.6-.41-.89-.38-.81-.59-1.21-.58-1.05-.9-1.56c-.21-.35-.42-.7-.64-1-.42-.66-.85-1.31-1.28-2-.32-.48-.61-1-.92-1.44s-.47-.79-.7-1.18-.48-.89-.7-1.34c-.12-.24-.26-.46-.37-.71s-.18-.55-.29-.82-.18-.37-.24-.57-.15-.49-.21-.74c0,0,0,0,0,0a9.9,9.9,0,0,1-.29-4,.13.13,0,0,0,0-.06,6.21,6.21,0,0,1,.38-1.34A3.18,3.18,0,0,1,284.25,171ZM56.91,239.23a2.9,2.9,0,0,1-.52,1.32l0,0-.16.13a.76.76,0,0,1-.22.11l-.12,0h-.08a2.94,2.94,0,0,1-1.19-.06H54.5L54,240.7l-.56-.17,0,0a6.73,6.73,0,0,1-1.33-.61l-.05,0h0a8.61,8.61,0,0,1-2.88-2.82s0-.07-.06-.11l-.14-.27a10.47,10.47,0,0,1-.83-1.69s0-.11-.05-.17a8.94,8.94,0,0,1-.41-1.62c0-.15-.09-.3-.12-.46,0-.33,0-.55,0-.73s0-.22,0-.29l.07-.1a.67.67,0,0,1,.21-.28,1.57,1.57,0,0,1,.62-.26l.07,0A3.93,3.93,0,0,1,49,231h.12l.52,0a6.24,6.24,0,0,1,2,.71,1.7,1.7,0,0,1,.22.15l.28.13c1,.64,2,1.46,3,2.08l0,0,0,0,0,0,0,0,0,0,0,0,0,0,0,0C57.73,235.55,57.11,238.32,56.91,239.23Zm81.39-95.9a1.54,1.54,0,0,1,.69-.15h.32s.05,0,.08.05a2.36,2.36,0,0,1,1.05.61c.25.27.48.55.7.84a13.2,13.2,0,0,0,1.93,2.22c.82.63,2,.51,2.81,1.14l.07,0a2.06,2.06,0,0,1,.31.28,3.2,3.2,0,0,1,.38.74,2.34,2.34,0,0,1,.09.24c0,.13,0,.31.05.47a3.14,3.14,0,0,1,0,.53c0,.11,0,.23,0,.35a6.44,6.44,0,0,1-.27,1.21c-1.59,4.59-5.16,3.11-6.68,2.47l.61.79C131.69,151.47,136.74,144,138.3,143.33ZM58.56,186.92A9.81,9.81,0,0,1,60.05,188c.62.48,1.23,1,1.88,1.42a5.82,5.82,0,0,0,.6.34,4,4,0,0,0,.36.18l.1,0a2.11,2.11,0,0,0,.57.13.21.21,0,0,0,.08,0,2,2,0,0,0,.54-.07l.07,0a3.05,3.05,0,0,0,.61-.29,6,6,0,0,1-.77,2.26h0c-1.4,2.29-4.86,3.93-8.6,4.07-4.3.16-10.15-1.68-10.61-3.35C43.9,189.12,51.72,183.18,58.56,186.92ZM45.06,220c4.92-10.62,19.39-7.61,25.88-16,4.8-6.19-1.46-14.26,3.47-20.43a13.48,13.48,0,0,1,3.91-3.62c.35-.21,62.25-18.48,65.45-18.13,6.12,1.26,9.45,5.31,10.58,9a6.9,6.9,0,0,1,.61,2.23,4.4,4.4,0,0,1-.72,3.13,3.12,3.12,0,0,1-.75,1c-5.72,4.72-13.56-.82-19.31,3.74a7.58,7.58,0,0,0-1.91,7.28c.08.21.14.44.24.64a3.82,3.82,0,0,0,.21.36,5.68,5.68,0,0,0,4.4,2.71c4.32.49,19.32,1.15,30.6-11,3.29-3.56,13.06-14,27.79-7.56.62.25,1.24.53,1.88.86-6,3.93-9.9,6.58-16.84,11.34,4.29,8.22,12.41,5.8,30.38-.44-7.54,21.55,26,11,38.61,7.1,8.79-2.75,13.63-.74,14.37,6a6.35,6.35,0,0,1-1,4.59c-1.72,1.35-3,1.58-6.28-.61-2.69-1.81-7.2-4.85-14-3.3-7,1.61-12.44,7.12-19.8,7.77-1.6.14-3,.26-7.29.31-7.25.08-13,.14-19.6,4.67-14.41,9.84-22.3,32.9-10.59,54.45,13.32,24.5-35.37,23.12-36.24,22.41-3.62-2.95-4.54-8.4-9.41-10.2-5.63-2.08-12.38-.51-16.84.52-30,7-39,9.06-37.1-1.52A19.5,19.5,0,0,0,86,274.7c0-.16,0-.32,0-.48q.27-9.87-8.88-21.76a1.71,1.71,0,0,1-.11-.14c-.76-1-1.59-2-2.45-3-.27-.3-.53-.61-.8-.92-.63-.71-1.3-1.44-2-2.17-7.6-8.07-17.13-15.61-25.77-21.92-.92-.66-1.81-1.32-2.76-2A12.56,12.56,0,0,1,45.06,220Z"/><path class="cls-4" d="M334,130c1.05,2.64,1.92,4.87,2.67,6.86a126.33,126.33,0,0,0-12.31-26.24A169,169,0,0,1,333.53,129Z"/><path class="cls-4" d="M110,36.09l7.88-2.94C115.18,34,113.41,34.72,110,36.09Z"/><path class="cls-4" d="M199.24,25.58c1.81.29,4.22.71,8,1.35C203.8,26.26,202.48,26,199.24,25.58Z"/><path class="cls-4" d="M258.84,46.12c-.49-.24-1-.45-1.47-.67C257.86,45.67,258.35,45.88,258.84,46.12Z"/><path class="cls-4" d="M154.33,24.9l6.15-.63C158.64,24.4,156.48,24.64,154.33,24.9Z"/><path class="cls-4" d="M183.56,24c1.75.11,4.09.29,7.73.58C188,24.25,186.77,24.14,183.56,24Z"/><path class="cls-4" d="M233.45,34.26c2.1.81,4.87,1.92,9.27,3.68C238.69,36.21,236.88,35.46,233.45,34.26Z"/><path class="cls-4" d="M253.14,42.9c2.35,1.26,5.34,2.93,10.18,5.65C258.87,45.91,256.58,44.61,253.14,42.9Z"/><path class="cls-4" d="M215.68,28.82c1.92.5,4.48,1.21,8.51,2.32C220.53,30,219,29.59,215.68,28.82Z"/><polygon class="cls-4" points="42.37 84.5 42.47 84.39 42.48 84.39 42.37 84.5"/><path class="cls-4" d="M58.88,67.73C61,66,63.77,63.64,68.11,60A110.29,110.29,0,0,0,58.88,67.73Z"/><path class="cls-4" d="M78.69,52.5c2.7-1.73,5.93-3.67,11.21-6.84C84.69,48.64,82.16,50.14,78.69,52.5Z"/><path class="cls-4" d="M118,33.1l-.07,0h0Z"/><path class="cls-4" d="M99.93,40.51c2.35-1.08,5.33-2.37,10-4.42C105.43,37.94,103.45,38.76,99.93,40.51Z"/><path class="cls-4" d="M258.84,46.12c1.53.76,3,1.56,4.49,2.44h0c-1.46-.87-3-1.67-4.49-2.43Z"/><path class="cls-4" d="M254.1,44h0c1.11.44,2.19.91,3.27,1.41h0C256.29,45,255.21,44.48,254.1,44Z"/><polygon class="cls-4" points="117.91 33.13 117.91 33.13 117.91 33.13 117.91 33.13"/><path class="cls-4" d="M173.57,23.77h.6l1.69,0c-3.3,0-4.49,0-7.65.11,1.15,0,2.56-.05,4.42-.07Z"/><path class="cls-4" d="M168.21,23.85l-2.43.07,2.38-.07Z"/><path class="cls-4" d="M39.19,92.08a15.07,15.07,0,0,0,3.31-1.83h0c.1-.07,10.84-8.17,28.9-26C77.2,58.56,89.27,46.65,100.73,46c20.66-1.19,27.62-1.59,31.37-4.1,3.51-3.71-3.11-6.53-4-10.07.18-.23,34.84-17.16,99.09,7.56a73.84,73.84,0,0,1,16.16,1.5c-.34-.08-.66-.18-1-.24l-5-1.61-5.34-1.73-7.61-2.47-6.17-2-3.58-1.15-.59-.2c-13.82-4.42-15.17-4.63-19.44-5.32-.76-.12-1.58-.23-2.46-.34-.72-.08-1.5-.15-2.29-.22l-.37,0c-8.32-.71-20.11-.77-29-.57l-1.51,0h-.24c-4.92.14-8.76.37-10.3.59l.47-.07.3,0,2.37-.3,2.67-.33c-4.56.48-5.68.67-9.61,1.34-10.58,2.09-11,2.18-16.65,3.74-5,1.52-7.89,2.4-10.12,3.14l-.06,0a2.19,2.19,0,0,0-.72.49c1.47.81,3.29.76,4.63,1.89a2.37,2.37,0,0,1,.69.89,2,2,0,0,1-.12,2.31A5.78,5.78,0,0,1,121,40.46l-.18.19-.15.1a19.83,19.83,0,0,1-4.6,2.74l-.11,0c-.29.12-.55.21-.81.3l-.2.07-.23.08-.5.14-.21,0c-1.17.27-3.26.61-4-.28a2.31,2.31,0,0,0-.55-.47c-1.89-1.17-6.48-.66-11.72,1l-.7.24-.92.32c-.56.2-1.12.41-1.69.64l0,0c-1.79.72-3.6,1.56-5.38,2.49-.78.42-1.56.85-2.32,1.3a83.08,83.08,0,0,0-10.85,8.08l-.26.22c-.66.57-1.37,1.21-2,1.82-7,6.33-14.38,13.83-18.92,18.62-1.28,1.35-2.54,2.69-3.86,4.12,0-.22,0-.47.07-.73s.06-.51.08-.73c0-.45.06-.86.08-1.24.11-2.62-.24-3.39-.36-3.66l-.33,0c-1.35,1.39-2.84,3-4.6,4.82L42.47,84.4C38.94,90.32,38.94,90.32,39.19,92.08Z"/><path class="cls-4" d="M249.06,42.31c-.58-.18-1.16-.36-1.75-.51C247.9,42,248.48,42.13,249.06,42.31Z"/><path class="cls-4" d="M149.29,25.53l-.77.1.79-.1Z"/><path class="cls-4" d="M50.05,76.12l.18-.18h0Z"/><path class="cls-4" d="M252.35,43.39c.59.21,1.17.42,1.75.65-.26-.1-.51-.23-.78-.33S252.67,43.5,252.35,43.39Z"/><path class="cls-5" d="M310.12,283.68c-29.54,10-29.54,10-33.15,9.09-6.23-1.63-13.1-6.52-10.49-20.54,13.24-5.67,12.12-18.36,12.1-18.49a15,15,0,0,0-.87-3.75c-2.93-6.46-12.61-5.82-14.3-13.59-1.21-5.54,2.64-11.16-.27-16.68a10.82,10.82,0,0,0-4.43-3.67c-4.17-1.81-7.91-.48-10.38.4-15.82,6.56-15.82,6.56-20.07,7.06-15.13,1.77-19.2,2.25-23.18,10.53a20,20,0,0,0-1.21,3.54c-3.69,14.83,4.2,28.62,3.86,43.15-.5,20.66-23.24,29.24-26.32,48.48-.39,2.43-1.08,10.57,6.3,13.3,4.65,1.72,10.69-.07,12.67-.66a81.57,81.57,0,0,0,11-4.62,495.24,495.24,0,0,1,58.52-23.71c12.67-4.16,15.3-4.2,19.57-3.24,2.71.6,4.5,1,7.34-.17,6.08-2.5,14.26-11.46,18.24-20C319.21,281.22,314.69,282.13,310.12,283.68Zm-51.84-10.34c1.42.77,4,2.16,5.19,4.46a5.78,5.78,0,0,1-.09,6,10.11,10.11,0,0,1-1.68,2.36c-.25.26-.52.54-.83.81l-.43.36c-.25.21-.54.42-.84.63s-.27.21-.43.31l-.19.1a17,17,0,0,1-3.78,1.69c-10.41,3.08-16.27,3.4-21.58.21a15.25,15.25,0,0,1-4.39-3.32c-.75-.83-1.45-1.62-2.14-2.4-.39-.43-.78-.88-1.18-1.35a110,110,0,0,1-8.75-11.32c-.07-.1-.14-.18-.21-.29a25,25,0,0,1-2.71-4.73,25.4,25.4,0,0,1-2.33-6.66c-2.85-13.57-.74-24.36,2.47-28.76l0,0c.09-.12.17-.26.26-.37a3.67,3.67,0,0,1,2.15-1.63c.07,0,.15,0,.22,0l.06,0h.1a10.06,10.06,0,0,1,6.37.87,32.5,32.5,0,0,1,4.28,1.43,10.45,10.45,0,0,0,2.07.67,6.37,6.37,0,0,0,1,.07,3.77,3.77,0,0,0,.58,0h.08a6,6,0,0,0,2.66-1.34l.19-.16c2.09-1.81,3.41-4.52,6.15-5.58l.46-.17a1,1,0,0,1,.16-.06l.35-.08a24.63,24.63,0,0,1,2.58-.44c6.18-.8,9.75-.52,11.88.17l.17.06a4.25,4.25,0,0,1,3.05,2.75c2,4.26-3.4,10.34-1.41,15.13a5.28,5.28,0,0,0,.42.77l.14.24a13.9,13.9,0,0,0,4.43,3.61,35.21,35.21,0,0,1,5,3.29,11.26,11.26,0,0,1,2.48,2.62c.16.22.3.46.45.7s.16.22.22.36.15.32.24.49.27.58.39.89a9.77,9.77,0,0,1,.4,1.31c.06.28.12.56.16.85a10.58,10.58,0,0,1,.16,2,12.16,12.16,0,0,1-.61,3.51c-.78,2.08-2,2.4-6.4,2.54-6.34.22-9.59,1.64-9.65,4.21C255.63,271.91,257,272.67,258.28,273.34Z"/><path class="cls-5" d="M171.64,368.8a10.07,10.07,0,0,1-5.85-3.4c-1.54-1.54-4.4-4.4-17.12-6.16-8.84-1.23-17.93-.26-26.61-3-12.45-3.91-21.17-14.46-33.39-18.79-5.91-1.83-7.16-1.53-12.44-.27-1.13.27-1.13.27-9-2.38,2.08,2.37,13.83,9.88,17.7,12.35l5,2.82a10.93,10.93,0,0,1-3.11-2.34,2.29,2.29,0,0,1,.36-.07,13.24,13.24,0,0,1,3.44.91l.64.18a5.16,5.16,0,0,0,.67.1,4.36,4.36,0,0,0,1,0c1.65-.12,3.19-.93,4.88-.78l.62.08h.09l.25,0,.52.09.67.15.64.16.83.24.5.15.24.1a24.82,24.82,0,0,1,3,1.25,56.25,56.25,0,0,1,8.21,5.58,32.62,32.62,0,0,0,7.8,4.36l.32.11.15.05c.39.13.85.28,1.34.42l.45.13c.56.16,1.17.31,1.84.47l.3.07c.8.17,1.66.33,2.6.47,3.36.46,6.77.19,10.14.62h.06c3.23.59,5,1.37,5.4,2.31-.11.24-.11.24-1.18,1.16l.17.54c1.16.53,1.63.67,4.38,1,3.32.46,4.16.89,4.5,1.48-2.6,1.5-24.05-3.4-30.32-5.39-2-.71-4.52-1.55-6.81-2.37,3.65,1.41,5.29,1.92,9.52,3.22,11.12,3.07,11.12,3.07,17,4.21,10.57,1.81,10.57,1.81,15.95,2.35,10.28.79,10.28.79,15.43.84,10.26-.12,10.26-.12,15.38-.52l.55-.05h0a20.81,20.81,0,0,0,4.22-.71l-.36-.7C185.38,369.06,178.44,370.13,171.64,368.8Z"/><path class="cls-5" d="M105.52,357.77l2.72,1.09c-4.44-1.9-10.36-4.62-14.87-7A125.32,125.32,0,0,0,105.52,357.77Z"/><path class="cls-6" d="M265.32,265.85c4.41-.14,5.62-.46,6.4-2.54a12.16,12.16,0,0,0,.61-3.51,10.58,10.58,0,0,0-.16-2c-.05-.3-.1-.59-.16-.85a9.77,9.77,0,0,0-.4-1.31c-.06-.16-.12-.32-.15-.38s-.16-.33-.24-.51-.17-.35-.24-.49-.16-.23-.22-.36-.3-.47-.45-.7a11.26,11.26,0,0,0-2.48-2.62c-3-2.3-6.89-3.54-9.27-6.59-.08-.1-.12-.21-.19-.31l-.14-.24a4.88,4.88,0,0,1-.42-.77c-2-4.79,3.39-10.87,1.41-15.13a5.6,5.6,0,0,0-2.53-2.54,3.13,3.13,0,0,0-.52-.21l-.17-.06c-3.28-1-11.72-.34-14.46.27l-.35.08a1,1,0,0,0-.16.06,3.61,3.61,0,0,0-.46.17c-2.74,1.06-4.06,3.77-6.15,5.58l-.13.12-.06,0a6,6,0,0,1-2.66,1.34h-.08a3.77,3.77,0,0,1-.58,0,4.48,4.48,0,0,1-1-.07,10.45,10.45,0,0,1-2.07-.67,32.5,32.5,0,0,0-4.28-1.43,21.81,21.81,0,0,0-6.37-.87h-.1l-.06,0a4.53,4.53,0,0,0-2.37,1.66c-.09.11-.17.25-.26.37l0,0c-3.21,4.4-5.32,15.19-2.47,28.76a25.4,25.4,0,0,0,2.33,6.66,48,48,0,0,0,2.92,5,110,110,0,0,0,8.75,11.32l1.18,1.35c.69.78,1.39,1.57,2.14,2.4a15.25,15.25,0,0,0,4.39,3.32c9.93,5.08,23.73-1.12,25.36-1.9l.18-.09c.17-.11.29-.22.44-.32s.58-.41.84-.63l.43-.36c.3-.27.57-.54.83-.81a10.11,10.11,0,0,0,1.68-2.36,6.48,6.48,0,0,0,.09-6c-1.23-2.3-3.77-3.69-5.19-4.46-1.24-.67-2.65-1.43-2.61-3.28C255.73,267.49,259,266.07,265.32,265.85Z"/><path class="cls-6" d="M151.65,369.11c-.34-.59-1.18-1-4.5-1.48-2.75-.37-3.22-.51-4.38-1l-.17-.54c1.07-.92,1.07-.92,1.18-1.16-.36-.94-2.17-1.72-5.39-2.31h-.07c-3.37-.43-6.78-.16-10.14-.62-.3,0-1.27-.18-2.6-.47l-.3-.07c-.57-.13-1.18-.28-1.84-.47l-.45-.13-1.34-.42-.15-.05-.22-.07-.1,0a32.62,32.62,0,0,1-7.8-4.36c-3.59-2.55-7-5.32-11.24-6.83l-.24-.1-.5-.15-.83-.24-.64-.16-.67-.15-.52-.09-.34,0-.62-.08c-1.69-.15-3.23.66-4.88.78-.13,0-.25,0-.37,0s-.39-.06-.59-.08a5.16,5.16,0,0,1-.67-.1l-.64-.18a13.24,13.24,0,0,0-3.44-.91,2.29,2.29,0,0,0-.36.07A10.93,10.93,0,0,0,89.94,350c1,.58,2.14,1.22,3.43,1.9,4.51,2.36,10.43,5.08,14.87,7,1.39.6,2.65,1.13,3.66,1.53.8.31,1.7.63,2.62,1,2.29.82,4.79,1.66,6.81,2.37C127.6,365.71,149.05,370.61,151.65,369.11Z"/><path class="cls-5" d="M24.64,272.51A45.15,45.15,0,0,0,22,264.73c-2-4.52-4.18-8.92-6.39-13.33-2.07-4.14-4.13-8.28-6-12.53-2.06-4.73-3.63-9.66-5.77-14.36a6.56,6.56,0,0,0-.53-.93l-.32.07c-.32,2.55,1.35,10.45,1.69,12,2,7.64,5,17.72,7.59,25.19C12.35,261,19,276.11,22.37,278a1.5,1.5,0,0,0,1.87-.15C24.94,277.2,25.29,275.57,24.64,272.51Z"/><path class="cls-5" d="M63.55,271.82a40.68,40.68,0,0,0-8.07-5.74c-.38-.19-.87-.46-1.26-.65-18-9-19.48,5.81-16.29,15.32,2.88,8.61,11.71,20.46,21,24.61.48.21,1.14.48,1.64.67,8.8,3.19,18,5.07,26.84,8.06,22.51,7.6,22.51,7.6,25.91,9,7.82,3.21,14.89,8.07,23.11,10.39,6.06,1.71,12.29.65,13.88-2.37h0c2.5-4.75-4.3-10.29-11.29-15.09-2.71-1.86-8.29-5.6-15.16-9.71-16-9.55-23.88-7.89-29.12-6.79-4.14.87-8.42,1.77-13.41-.66-6.1-3-7.9-8.84-9.35-13.55a28.74,28.74,0,0,0-8.38-13.49Z"/><path class="cls-5" d="M127.72,58.26a7.28,7.28,0,0,0-1.44,2.54,3.27,3.27,0,0,0-.06.42,2.28,2.28,0,0,0,.61,2,5,5,0,0,0,1,.81l.06,0a13.79,13.79,0,0,0,2.62,1.16l.21.08,1.26.41a27.69,27.69,0,0,1,4.22,1.6,8.78,8.78,0,0,1,2.87,2,.1.1,0,0,1,.05,0c.16.15.35.35.5.5.49-.92.81-1.7.14-2.49-.65-.61-1.3-.81-4.07-1.45-2.22-.52-4.22-1.12-4.31-2.69-.06-1.06.53-2,.45-3.07a1.74,1.74,0,0,0-.77-1.24,9.84,9.84,0,0,0-2.82-1.2Z"/><path class="cls-5" d="M18.05,127C4.51,152.36,6.13,170.43,6.16,170.59c.17,1,.7,4.17,2.79,4.55a6.88,6.88,0,0,0,1.5.09l15.56-1c9.26-3.64,11-16.1,21.42-18.35,2.4-.51,5,.21,7.15,1A142.75,142.75,0,0,0,78.14,163c14.32,2.54,27.85,4.93,39.57-18.79,3.41-6.91,4.2-15.81-11.41-19-15.41-3.11-11-8.51-10.85-8.74,9.25-10.94,6.06-14.6,3.33-15.81-6.6-2.92-8.38-3.71-4.42-9.1,2.26-3.08,6.61-6.15,11.37-8,7.62-3,16-2.86,23.64-5.65l-.26-.1-.41-.15-.08,0-4-1.54c-4.41-1.4-7.06.93-10.54,1.5-2.13.35-2.51.06-4.2-.8a4.47,4.47,0,0,1-1.1-.54l-.2-.1a.67.67,0,0,1-.25-.25c-.07-.07-.15-.11-.22-.18a2.08,2.08,0,0,1,.06-.36,2.16,2.16,0,0,1,.12-.75c.48-2.08,1.88-3.6,3.25-5.14,1-1.3,1.64-2.1,2-2.68a6.77,6.77,0,0,0,.36-.65c.84-1.85-2-2.91-1-4.8l.12-.21a4.17,4.17,0,0,1,.85-1.24l.14-.11a10.87,10.87,0,0,1,1-.92c.49-.39,1-.77,1.51-1.12l1.75-1.24c-14.53.28-14.53.28-16.53-.85-1.49-.85.36-3.36,1.46-4.87.89-1.21.89-1.21,1-2.26-4-3.55-14.71,4.72-18.22,7.43-1.89,1.47-4.34,3.51-6.12,5.1C69.52,70.37,62.18,82.53,51.59,91.67,45,97.39,43.34,97.12,42,96.9c-2.3-.38-5.94.46-13.64,10.4,10-17.25,10-17.25,10.2-17.72-.61.39-2.14,2-5.86,7.35.17-.19.31-.35.44-.47.06.13.06.22-.22.73a.3.3,0,0,0,0,.08l-.08.13c-.05.1-.12.18-.18.28-.16.26-.37.6-.64,1-1.42,2.25-3,4.43-4.24,6.76-.05.1-.11.18-.16.27a2.53,2.53,0,0,1-.12.23c-.42.77-.84,1.58-1.23,2.4,0,.07-.06.11-.09.18-1.5,3.19-1.94,6.75-3.47,9.92l-.31.59a6.68,6.68,0,0,1-.81,1.37h0A8,8,0,0,1,20,122l-.16-.07c0-.54.41-1.59,1.33-3.72,2.23-5.12,2.09-5.47,2-5.6A5.4,5.4,0,0,0,22,114.2c-5.67,10.59-6.61,12.63-10.25,22l-.07.19c2.28-3.22,3-7.37,6.11-10.11Zm4.43-4.77a67.35,67.35,0,0,1,6.2-8.63c7.84-9.23,18.52-15.08,27.63-22.8,2.08-1.88,4.29-4,6.52-6.13s4.3-4.34,6-6.11c4.79-5.12,9-10.25,11-14.27,0,0,.06-.07.08-.11a7.3,7.3,0,0,1,1.65-2.11c.25-.23.52-.43.79-.64l.19-.15c.35-.27.7-.53,1.06-.77s.46-.32.7-.47c.5-.31,1-.59,1.51-.85l.21-.1c.55-.26,1.07-.49,1.59-.69h0a11.86,11.86,0,0,1,3-.78h.08a4.75,4.75,0,0,1,1.08,0,1.09,1.09,0,0,1,.08.15c.38.65.36.74-.08,1.71-.09.15-.25.37-.36.55-.79,1.43-2.55,3.75-6.28,7.69-4.53,4.78-16.55,17.46-4.82,18.38,10,.79,11.21.89,2.74,8-1,.89-2.28,1.92-3.83,3.19-4.84,4-8,7.28-9.58,9.84l-.14.23c-.13.22-.22.42-.32.63a7.21,7.21,0,0,0-.5,1.41,4,4,0,0,0-.1,1.34,6.87,6.87,0,0,0,.23.76c.76,1.57,3.14,2.46,7.15,2.71,23.47,1.47,5.81,30.37,5.6,30.66-3.87,5.45-9.24,9-14,9.23-7.93.4-10.71-9.24-18.35-9.4C42.55,144.63,37,147,30,150c-3.57,1.53-8,3.44-10.9,3.12-1.06-.12-3.56-.39-4.33-4.84C13.66,141.94,14.76,133.11,22.48,122.27Z"/><path class="cls-5" d="M24.49,109.59l3.12-4.91C26.65,106.17,25.62,107.79,24.49,109.59Z"/><path class="cls-5" d="M334.52,242a15.91,15.91,0,0,0-2.95,8c-.23,4.27,1.9,8.19,1.87,12.43a2.42,2.42,0,0,1-.41,1.4c-3.55,4.14-15.91,28.35-18.2,35a3.29,3.29,0,0,0,0,.83,14.68,14.68,0,0,0,1.24-1.59c2.45-3.51,5.41-8.38,7.71-12,8.5-14.63,12.53-26.29,16.42-37.56h0c1.67-5.28,3.15-12.53,4.4-17.92C342.4,235.48,337.54,237.93,334.52,242Z"/><path class="cls-5" d="M238.28,49.87c.12,3.21,3,4.81,4.32,7.28,1.63,3,3.08,6,4.65,9,2,3.83,4.32,8.17,3.05,11.35-2.68,6.72-10.58,4.3-14.74,8.43-1.92,1.91-.65,5.1-2.77,6.94a4.71,4.71,0,0,1-.65.4c-3.74,2.24-8.28.38-12.07,2.34-3.42,2-6.31,4.79-9.88,6.54-15.71,7.71-15.71,7.71-17.23,9.13-5.49,5.16-9.71,15.37-10.53,19.64s-.11,7,2.13,8.18c11.23,5.76,22.43-12.39,33.13-1,3.52,3.74,5.58,8.73,10.1,11.6.87.56.87.56,14.34,3.93,6,1.49,7.33,3.29,7.94,10.68.26,3.12.5,6.07,2.35,7.5,2.86,2.2,7.19-.68,7.68-1,12.08-8.38,6.27-23.67,13.16-34.05,3.73-5.64,11.37-6.9,14.63-13.06a11.18,11.18,0,0,0,1.09-7.37c-1.29-8.68-7.89-14.76-11-22.53-2.66-6.57-1.86-13.88-4.31-20.5a20.23,20.23,0,0,0-2.25-4.5C262.8,56.55,245.13,50.32,242,49.59,239.51,49,239,49.38,238.28,49.87Z"/><path class="cls-7" d="M46.07,224.32c8.64,6.31,18.17,13.85,25.77,21.92.68.72,1.33,1.45,2,2.17.27.31.53.62.8.92.85,1,1.67,2,2.45,3a1.71,1.71,0,0,0,.11.14c5.53,7.14,9.1,14.54,8.88,21.76,0,.16,0,.32,0,.48a19.69,19.69,0,0,1-.28,2.55c-1.94,10.58,7.11,8.48,37.1,1.52,4.46-1,11.21-2.6,16.84-.52,4.87,1.8,5.79,7.25,9.41,10.2.87.71,49.56,2.09,36.24-22.41-11.71-21.55-3.82-44.61,10.59-54.45,6.62-4.53,12.35-4.59,19.6-4.67,4.3,0,5.69-.17,7.29-.31,7.36-.65,12.82-6.16,19.8-7.77,6.77-1.55,11.28,1.49,14,3.3,3.25,2.19,4.56,2,6.28.61a6.35,6.35,0,0,0,1-4.59c-.74-6.72-5.58-8.73-14.37-6-12.62,3.95-46.15,14.45-38.61-7.1-18,6.24-26.09,8.66-30.38.44,6.94-4.76,10.87-7.41,16.84-11.34-.65-.33-1.26-.59-1.88-.86-14.73-6.47-24.5,4-27.79,7.56-11.28,12.17-26.28,11.51-30.6,11a5.68,5.68,0,0,1-4.4-2.71l-.21-.36c-.1-.2-.16-.43-.24-.64a6.49,6.49,0,0,1,1.48-6.95,4.46,4.46,0,0,1,.43-.33c5.75-4.56,13.59,1,19.31-3.74a3.12,3.12,0,0,0,.75-1,7.35,7.35,0,0,0,.11-5.36c-1.13-3.71-4.46-7.76-10.58-9-3.2-.35-65.1,17.92-65.45,18.13a13.48,13.48,0,0,0-3.91,3.62c-4.93,6.17,1.33,14.24-3.47,20.43-6.49,8.38-21,5.37-25.88,16a14.87,14.87,0,0,0-1,2.87Z"/><path class="cls-2" d="M140.43,155.17l-.61-.79c1.52.64,5.09,2.12,6.68-2.47a6.44,6.44,0,0,0,.27-1.21c0-.12,0-.23,0-.35a3.14,3.14,0,0,0,0-.53,3.56,3.56,0,0,0-.05-.47,2.34,2.34,0,0,0-.09-.24,2.17,2.17,0,0,0-.38-.74,2.06,2.06,0,0,0-.31-.28l-.07,0c-.85-.59-2-.49-2.81-1.14a13.2,13.2,0,0,1-1.93-2.22,4.6,4.6,0,0,0-1.75-1.45s0,0-.08-.05H139a1.54,1.54,0,0,0-.69.15C136.74,144,131.69,151.47,140.43,155.17Z"/><path class="cls-2" d="M55.49,196c3.74-.14,7.2-1.78,8.6-4.07h0a6,6,0,0,0,.77-2.26,2.68,2.68,0,0,1-.61.29l-.07,0a1.81,1.81,0,0,1-.54.07.21.21,0,0,1-.08,0,2.2,2.2,0,0,1-.57-.13l-.1,0-.1,0c-.09,0-.17-.1-.26-.15a5.82,5.82,0,0,1-.6-.34c-.66-.43-1.27-.93-1.88-1.42a9.81,9.81,0,0,0-1.49-1.06c-6.84-3.74-14.66,2.2-13.68,5.75C45.34,194.34,51.19,196.18,55.49,196Z"/><path class="cls-7" d="M321.1,105.38l-.29-.42c-.27-.4-.53-.78-.76-1.1l-.25-.35c-.22-.29-.42-.56-.61-.79l-.19-.24c-.19-.24-.37-.45-.53-.62a.34.34,0,0,1-.08-.09,3.12,3.12,0,0,0-1.07-.83l-.25-.08L317,101a2,2,0,0,0-.16.41c-.15.53-.12,1.44.39,3.75.26,1.16.64,2.67,1.18,4.68v.05c.05.17.11.36.16.54.16.55.33,1.12.51,1.72.3,1,.62,2,.91,2.88,2.36,6.95,6,13.35,8.82,20.09.19.46.4.92.58,1.39s.32.72.46,1.09.22.65.33,1,.13.4.2.59c.25.8.49,1.59.7,2.4l.21.78c.12.5.25,1,.36,1.5,1.21,5.47,1.83,11.09,3.87,16.35.14.36.27.69.4,1h0c.12.28.23.53.35.77a8.35,8.35,0,0,0,.42.8,2.32,2.32,0,0,0,.14.23c.11.18.21.33.31.47a3.88,3.88,0,0,0,.38.46c1,1,1.51.17,1.71-.23,0,0,0-.15.08-.35a31.62,31.62,0,0,0,.5-3.16,46.74,46.74,0,0,0-1.63-18.53c-.28-.92-.6-1.85-.91-2.78-1.1-3.32-2.37-6.64-3.74-9.88a169,169,0,0,0-9.18-18.39c-.09-.15-.18-.29-.26-.44-.6-1-1.19-2-1.73-2.86C321.9,106.59,321.48,106,321.1,105.38Zm8.24,18.84a142.15,142.15,0,0,1-9.21-17.15l-.2-.46c-.16-.44-.15-.5-.11-.62.58,0,2.72,3,4,4.9.36.55.71,1.11,1.07,1.68l.24.4c.33.53.65,1.07,1,1.61l.1.18c.33.57.65,1.14,1,1.71l.36.66.62,1.17c.19.37.38.72.56,1.08s.35.68.51,1,.24.48.35.72c.26.53.5,1,.72,1.54l.12.26c.51,1.13.91,2.1,1.17,2.86,0,.13.11.28.15.4.3.91.26,1,.2,1.2-.4-.11-1.06-.89-1.88-2.07l-.19-.27Z"/><path class="cls-4" d="M336.48,221.33c-11.22,2.68-11.22,2.68-14.26,28.84-2,1.32-4.16,1.69-6.17-4.43l-.15-.42s0,0,0,0-.09-.24-.14-.35h0a2.56,2.56,0,0,0-.16-.33h0a1.68,1.68,0,0,0-.19-.24l0,0a.52.52,0,0,0-.19-.11h-.27l-.15.05-.17.08a1.21,1.21,0,0,0-.2.14.91.91,0,0,0-.16.13,4.11,4.11,0,0,0-.29.3c-2.08,2.27-1.31,6.24-4.38,7.92l-.12.14-.35.14c-1-.52-.43-5.46,1.61-11.71,2.09-6.61,5.87-14.72,11.75-20.86.4-.39.77-.7,1.16-1.05.18-.18.37-.34.56-.51s.57-.52.85-.74c.58-.49,1.19-.95,1.8-1.38.29-.2.56-.37.84-.55s.55-.35.83-.51.8-.47,1.19-.67l.18-.08a19.39,19.39,0,0,1,2.3-1l.9-.32.11,0c.2-.06.4-.09.59-.14s.53-.14.8-.19a40.47,40.47,0,0,1,4.88-.66,15.05,15.05,0,0,0,3.52-.61,9.46,9.46,0,0,0,1.45-.67,6.32,6.32,0,0,0,2.73-3.91s0-.05,0-.08a4,4,0,0,0,.09-.52c.26-3.37.44-6.69.44-9.59l-.12-6.22V192c-.71,13.56-3.7,12.78-9.14,11.38-3.27-.85-10.07-2.62-17.5,5.69-9.84,12.09-8.83,28.69-17.18,41.4-4.57,7-9.11,8.61-12.11,9.71-3.72,1.36-7.24,2.65-9.83,6.46-.21.32-.51.73-.68,1.06-2.1,4.16-6.49,12.8,3.63,12.73a21.32,21.32,0,0,0,7.29-1.62c1.06-.45,2.42-1.16,3.46-1.66,7.47-3.57,11.55-10.92,17.76-15.89,3.92-3.15,4.45-1.08,5,1.31.44,1.73.94,3.69,2.55,2.43s4.91-5.5,6.2-17.69c1.61-15.15,8-24.32,18.93-27.24l.38-3.57C345.13,219.11,342.48,219.9,336.48,221.33Z"/><path class="cls-7" d="M281.92,334.28l.21-.17-.28.22Z"/><path class="cls-7" d="M253.09,347.18c-.11-2.81,4.36-5.59,1.41-8.12-1.6-1.38-3.64-1.69-10.31.47C231.13,344.29,219.9,353,206.46,357c-10.9,3.19-23.44-.58-33.07,7.89,0,.31.05.72.08,1,4.4,2.18,9.49,1.65,17.44.6,9.72-1.28,13.65-1.35,12.79,1.58,2.58,1.54,40.89-5.14,76.44-32.39l1.71-1.35C269.32,344.13,253.29,352.14,253.09,347.18Zm-13.37-1.95a1.59,1.59,0,0,1,.28-.33,6.58,6.58,0,0,1,2.2-1.26c2.85-1.22,7.12-2.15,7.45-1.27a.88.88,0,0,1,0,.14c.13.38-.18.93-.43,1.36a6.22,6.22,0,0,1-1,1.27,10.53,10.53,0,0,1-4.46,2.67c-3,.87-3.94.12-4.19-.79h0s0-.06,0-.1l0-.13a1.94,1.94,0,0,1,.18-1.54Zm11.79,7.46c-.44.29-1,.59-1.52.9-6.71,3.86-19.71,8.62-29.62,11.43-2.09.6-4,1.11-5.64,1.47l-1.34.27a23.39,23.39,0,0,1-4.73.61,2.91,2.91,0,0,1-.79-.08c.35-3,.35-3-2.88-4.06a33.72,33.72,0,0,0-7-1.25c-.89-.08-.89-.08-1.15-.43a2.15,2.15,0,0,1,.44-.53l.26-.21c.14-.11.29-.22.46-.33l.26-.16.47-.26a6.86,6.86,0,0,1,.68-.32c6.21-2.52,13.08-2.46,19.34-4.84,4-1.53,6.75-5.21,10.84-6.63a1,1,0,0,1,.61.05.51.51,0,0,1,.18.09l0,0a.65.65,0,0,1,.22.41s0,0,0,.05c.57,2.45.89,3.77,1.42,4.55a5.94,5.94,0,0,0,3.51,1.29l.15,0a18.44,18.44,0,0,0,4.16-.27l.09,0c.19,0,.38-.08.57-.12,3-.76,5.87-2.17,8.89-2.84l.57-.11c.35-.07.71-.13,1.07-.17a10.72,10.72,0,0,1,2-.08C252.77,351.86,252.77,351.86,251.51,352.69Z"/><path class="cls-5" d="M283.77,172.71a9.9,9.9,0,0,0,.29,4l0,0c.06.25.13.5.21.74s.17.37.24.57q.3.78.66,1.53c.22.45.45.9.7,1.34s.46.79.7,1.18.6,1,.92,1.44l1.28,2c.22.34.43.69.64,1s.42.65.61,1c.11.18.19.38.29.57.21.4.41.8.59,1.21s.28.59.41.89.36.85.53,1.28c.7,1.72,1.36,3.47,2.21,5.13l.39.73.27.41.21.27,0,.05a3.44,3.44,0,0,0,.27.27l.1.09a.41.41,0,0,0,.11.07.94.94,0,0,0,.18.12s.08,0,.12,0a1,1,0,0,0,.24,0l.19,0a1.12,1.12,0,0,0,.33-.19c.85-.67,1.65-2.64,2.11-5.37,0-.27.08-.56.12-.85s.05-.32.07-.49a32,32,0,0,0,0-7.38.88.88,0,0,0,0-.16c-.07-.58-.16-1.17-.26-1.75,0-.14-.05-.27-.08-.4-.09-.52-.21-1-.34-1.56l-.12-.52c-.13-.5-.28-1-.44-1.49-.06-.18-.11-.36-.17-.55-.22-.66-.47-1.32-.75-2h0c-.16-.38-.35-.79-.55-1.2a15.68,15.68,0,0,0-4.26-5.47l-.12-.09a3.87,3.87,0,0,0-.43-.27l-.49-.28-.3-.14-.5-.18a4.12,4.12,0,0,0-.47-.13l-.2,0a4.68,4.68,0,0,0-3.37.75,6,6,0,0,0-1.74,2.43,6.21,6.21,0,0,0-.38,1.34A.13.13,0,0,1,283.77,172.71Z"/><path class="cls-2" d="M315.19,117.38l-.12-.09a2.49,2.49,0,0,0-.4-.24l-.17-.08c-1.23-.42-1.51,1.37-1.66,2.3,0,0,0,.18,0,.37a60,60,0,0,0-.24,6.27,26.89,26.89,0,0,0,1.51,9.49,38.58,38.58,0,0,0,2.45,4.29c2.54,4,6.39,9.39,8.67,10.41a1.77,1.77,0,0,0,.69.18.94.94,0,0,0,.78-.37c.47-.54.57-1.7.41-3.24-.46-4.49-3.15-12.33-5.82-18.64a54.09,54.09,0,0,0-4.46-8.88c-.17-.23-.33-.44-.49-.63a6.62,6.62,0,0,0-.53-.6h0A5.47,5.47,0,0,0,315.19,117.38Z"/><path class="cls-8" d="M239.54,346.78l0,.13s0,.06,0,.1h0c.66,2.28,6,.88,8.65-1.88a6.22,6.22,0,0,0,1-1.27c.25-.43.56-1,.43-1.36-.19-.57-1.34-.77-5.13.31-.95.29-1.69.56-2.34.82a6.58,6.58,0,0,0-2.2,1.26,1.74,1.74,0,0,0-.28.34A1.94,1.94,0,0,0,239.54,346.78Z"/><path class="cls-8" d="M250,351.39l-.57.11c-3,.71-5.85,2.2-8.89,2.84-.19,0-.38.09-.57.12h-.09a18.44,18.44,0,0,1-4.16.27l-.15,0a5.94,5.94,0,0,1-3.51-1.29,4.77,4.77,0,0,1-1.4-4.23,1.31,1.31,0,0,0,0-.37.65.65,0,0,0-.22-.41h0a.5.5,0,0,0-.19-.1,1.82,1.82,0,0,0-.61-.05c-4,1.59-6.81,5.1-10.84,6.63-6.26,2.38-13.13,2.32-19.34,4.84a7.08,7.08,0,0,0-.68.32l-.47.26-.26.16c-.17.11-.32.22-.46.33l-.26.21a2.15,2.15,0,0,0-.44.53c.26.35.26.35,1.15.43a33.72,33.72,0,0,1,7,1.25c3.23,1.08,3.23,1.08,2.88,4.06a3.5,3.5,0,0,0,.79.08,23.39,23.39,0,0,0,4.73-.61c2-.41,4.37-1,7-1.74,9.91-2.81,22.91-7.57,29.62-11.43.54-.3,1.07-.61,1.52-.9,1.26-.83,1.26-.83,1.55-1.55a10.72,10.72,0,0,0-2,.08C250.73,351.26,250.37,351.32,250,351.39Z"/><path class="cls-8" d="M332,127.37a3.88,3.88,0,0,0-.35-1.6c-.26-.76-.66-1.73-1.17-2.86l-.12-.26c-.22-.49-.46-1-.72-1.54-.11-.24-.23-.48-.35-.72s-.33-.67-.51-1-.36-.71-.56-1.08l-.62-1.17-.36-.66c-.32-.57-.64-1.14-1-1.71l-.1-.18c-.32-.54-.64-1.08-1-1.61l-.24-.4c-.36-.57-.71-1.13-1.07-1.68-1.3-2-3.44-4.87-4-4.9,0,.12-.05.18.11.62l.2.46a172.62,172.62,0,0,0,9.21,17.15l.54.81.19.27C330.89,126.48,331.55,127.26,332,127.37Z"/><path class="cls-6" d="M21.21,118.25c-.92,2.13-1.35,3.18-1.33,3.72L20,122a8,8,0,0,0,1.55-1.65h0A6.68,6.68,0,0,0,22.4,119c.38-.88.87-2.39,2.1-6.28a35.84,35.84,0,0,1,1.68-4.23c0-.07.06-.11.09-.18.45-1,.88-1.75,1.23-2.4a2.53,2.53,0,0,0,.12-.23.6.6,0,0,0,.06-.11c0-.06.07-.1.1-.16,1.29-2.33,2.82-4.51,4.24-6.76.22-.33.44-.66.64-1,.06-.1.13-.18.18-.28l.08-.13a.3.3,0,0,1,0-.08c.28-.51.28-.6.22-.73-.13.12-.27.28-.44.47-.35.42-.82,1.06-1.64,2.26l-3.49,5.49-3.12,4.91-3.27,5.83-.27.51A19.15,19.15,0,0,0,22,114.2a5.4,5.4,0,0,1,1.23-1.55C23.3,112.78,23.44,113.13,21.21,118.25Z"/><path class="cls-6" d="M170.29,31.43a8.69,8.69,0,0,0-3.7.42c-1.56.48-2.86,1.52-4.38,2.07,0,0-2.39.83-3.18,0a3.61,3.61,0,0,0-2.61-.66c-.13,0-11,2.56-6.64,6.39,1.72,1.5,6.59.88,8.74-2.43a3.89,3.89,0,0,1,2-1.69c4.19-1.43,5.4,4,9,3.94,2.1-.28,3.45-2.4,5.7-2.31a8.23,8.23,0,0,1,4.48,1.77c1,.71,2.14,1.22,3.17.08,3.47-3.82-1.4-3.89-11.05-3.68C172.75,31.76,172.75,31.76,170.29,31.43Z"/><path class="cls-2" d="M309.71,103.69a4.94,4.94,0,0,0,.13.48c.08.23.18.47.29.71s.13.31.2.48c1.25,2.65,3.65,6,4.28,6,.21-.21,0-1-.44-2-.09-.21-.21-.44-.32-.68l-.2-.39c-.1-.2-.22-.41-.34-.61s-.24-.44-.37-.66-.11-.17-.17-.26c-.19-.33-.4-.65-.61-1l0,0c-.24-.36-.49-.7-.74-1a11,11,0,0,0-.79-.92,4.13,4.13,0,0,0-1-.88,1.27,1.27,0,0,0,0,.28A4,4,0,0,0,309.71,103.69Z"/><path class="cls-6" d="M114,59.81l-.14.11a4.17,4.17,0,0,0-.85,1.24c0,.09-.11.19-.14.28-.58,1.78,1.86,2.9,1,4.73a4.38,4.38,0,0,1-.36.65c-.37.58-1,1.38-2,2.68l-.2.24a19.46,19.46,0,0,0-3.05,4.9,2.16,2.16,0,0,0-.12.75.87.87,0,0,0,.16.54.67.67,0,0,0,.25.25l.2.1c.43.2.79.38,1.1.54,1.69.86,2.07,1.15,4.2.8,3.48-.57,6.13-2.9,10.54-1.5.33.11.66.19,1,.34,1,.44,2,.84,3,1.23l.41.15c15.91,6,31.52,6.33,37.65,6.46h0c1.52,0,3.54,0,5.05,0-6.26-4.22-13.81-1.83-20.47-4-3.2-1-3.2-1-11.67-10.49h0l-.55-.54a8.78,8.78,0,0,0-2.87-2c-1.12-.5-2.7-1-5.45-2h0l-.21-.08A13.41,13.41,0,0,1,127.92,64l-.06,0a2.82,2.82,0,0,1-1.64-2.77,3.27,3.27,0,0,1,.06-.42s0-.06,0-.1a5.43,5.43,0,0,1,1.42-2.44l.55-.59c.84-.84,2.1-2,4.1-3.92A51.2,51.2,0,0,0,136.29,49c3.12-3.74,8.1-2.61,11.9-4.54.34-.26.34-.26,1.56-3.09-5.64-1.22-5.64-1.22-25.91,9.28A11.84,11.84,0,0,0,121.73,52c-.86.81-.69,2.14-1.51,3a24.64,24.64,0,0,1-3.63,2.79c-.52.35-1,.73-1.51,1.12A11.39,11.39,0,0,0,114,59.81Z"/><path class="cls-6" d="M14.77,148.32c.77,4.45,3.27,4.72,4.33,4.84,2.89.32,7.33-1.59,10.9-3.12,7-3,12.55-5.41,19.2-5.27,7.64.16,10.42,9.8,18.35,9.4,4.76-.24,10.13-3.78,14-9.23.21-.29,17.87-29.19-5.6-30.66-4-.25-6.39-1.14-7.15-2.71a2.55,2.55,0,0,1-.13-.39,2.24,2.24,0,0,1-.1-.37,4.79,4.79,0,0,1,.6-2.75c.1-.21.19-.41.32-.63l.14-.23c1.55-2.56,4.74-5.82,9.58-9.84,1.45-1.2,2.72-2.25,3.83-3.19,8.47-7.14,7.31-7.24-2.74-8-11.73-.92.29-13.6,4.82-18.38a58.89,58.89,0,0,0,6.28-7.69c.11-.18.27-.4.36-.55.44-1,.46-1.06.08-1.71l-.08-.15a4.75,4.75,0,0,0-1.08,0H90.6a11.86,11.86,0,0,0-3,.78h0c-.53.2-1,.43-1.6.69l-.21.1c-.5.26-1,.54-1.51.85-.24.15-.47.31-.7.47s-.71.5-1.06.77l-.19.15c-.27.21-.54.41-.79.64a7.3,7.3,0,0,0-1.65,2.11c-.22.4-.4.79-.56,1.15-1,2.24-2.67,5.08-10.47,13.23-1.7,1.77-3.67,3.79-6,6.11l-2.48,2.46q-2,1.92-4,3.67c-9.11,7.72-19.79,13.57-27.63,22.8a67.35,67.35,0,0,0-6.2,8.63C16,133,13.9,143.35,14.77,148.32Z"/><path class="cls-7" d="M55.48,234.25l0,0,0,0,0,0,0,0,0,0,0,0,0,0,0,0c-1.07-.62-2-1.44-3-2.08l-.28-.13a6.16,6.16,0,0,0-2.75-.88H49a3.14,3.14,0,0,0-.48.06l-.07,0a1.44,1.44,0,0,0-.83.54l-.06.1a2.8,2.8,0,0,0,0,.29,10.67,10.67,0,0,0,.11,1.19,8.94,8.94,0,0,0,.41,1.62l.05.17a10.47,10.47,0,0,0,.83,1.69c0,.09.08.18.14.27s0,.07.06.11A8.61,8.61,0,0,0,52,239.87l.06,0a6.73,6.73,0,0,0,1.33.61l0,0,.56.17.48.11h.07a2.94,2.94,0,0,0,1.19.06h.08l.12,0a1.13,1.13,0,0,0,.22-.11l.16-.13,0,0a2.9,2.9,0,0,0,.52-1.32C57.11,238.32,57.73,235.55,55.48,234.25Z"/><path class="cls-7" d="M347.12,207.47s0,.06,0,.08a6.32,6.32,0,0,1-2.73,3.91,6.79,6.79,0,0,1-1.45.67,15.05,15.05,0,0,1-3.52.61,40.47,40.47,0,0,0-4.88.66l-.8.19c-.19,0-.39.08-.59.14s-.68.23-1,.34a19.39,19.39,0,0,0-2.3,1l-.18.08c-.39.2-.79.43-1.19.67s-.55.32-.83.51-.55.35-.84.55q-.87.61-1.8,1.38c-.28.22-.57.49-.85.74l-.56.51c-.39.35-.76.66-1.16,1.05-5.88,6.14-9.66,14.25-11.75,20.86-2,6.33-2.43,11.27-1.61,11.71a5.3,5.3,0,0,0,.47-.28c3.07-1.68,2.3-5.65,4.38-7.92a.76.76,0,0,1,.11-.14c.06-.07.12-.1.18-.16a.91.91,0,0,1,.16-.13,1.21,1.21,0,0,1,.2-.14l.17-.08.15-.05h.27a.52.52,0,0,1,.19.11l0,0a1.41,1.41,0,0,1,.18.23l0,0a3.17,3.17,0,0,1,.16.32v0c.05.11.09.23.14.35s0,0,0,0l.15.42c2,6.12,4.15,5.75,6.17,4.43,3-26.16,3-26.16,14.26-28.84,6-1.43,8.65-2.22,9.85-4.88a7.46,7.46,0,0,0,.49-1.45l.68-9.75a11.33,11.33,0,0,1-.29,1.7A4,4,0,0,1,347.12,207.47Z"/><path class="cls-5" d="M221.91,49.36c.87-.48,2.48-1.37-16.32-7-1.12.29-13.23-5.82-20.16-2.32l-.83.46a4.18,4.18,0,0,1,2,.25c1.08.46,1.86,1.39,2.92,1.87,2.83.68,5.82,0,8.61,1,.15.05.15.05.75.65l.87-.25c1.84,1.67,4.7,2,6,4.43a1.5,1.5,0,0,1,.19,1.37c-.48.88-1.51,1.22-2,2.06.19.5.46.6,3.25,1.27,4.19,1,7.49,1.79,11.67,9.9A23.92,23.92,0,0,1,212.78,61c-2.5-1.56-4.14-4.09-6.55-5.74.34.37,1.35,1.51.78,2.72-.68,1.42-2.62,1.26-3.34,2.64-.1.54.43,1,1.57,1.84,2.26,1.67,2.45,2,2.44,2.57-1.23,1-3-.4-4.12,1,.52,2.5,10.55,4,10.65,4a4.33,4.33,0,0,1,3.28,1.79c.16.27.37.9-1.1,1-7.81.58-8.82,2.7-8.94,3.34-.33,1.68,4.83,8.28,8.74,6,0,0,3.94-2.75,5.22-4.5,1.66-2.25,1.35-3.87.78-6.81-.5-2.6-.5-2.6,2.56-5,.36-.27,1.45-1.11,1.23-2.26-.36-2-1.9-3.42-2.49-5.3-.26-.85-.39-1.74-.61-2.6A7.19,7.19,0,0,0,220,51.3a1.91,1.91,0,0,1-.55-.58C219.28,49.42,221.1,49.81,221.91,49.36Z"/><path class="cls-7" d="M51,79.62c0,.38,0,.79-.08,1.24h0c0,.22,0,.48-.08.73s-.05.51-.07.73c.73-.8,2.09-2.26,3.86-4.12,4.54-4.79,11.87-12.29,18.92-18.62.69-.62,1.37-1.23,2-1.82l.26-.22a83.9,83.9,0,0,1,8.8-6.84c1.4-.91,2.88-1.76,4.37-2.54,1.78-.93,3.59-1.77,5.38-2.49l0,0c.57-.23,1.13-.44,1.69-.64.31-.12.62-.22.92-.32l.7-.24c5.27-1.72,9.82-2.24,11.72-1a2.31,2.31,0,0,1,.55.47s1.27.91,4,.28l.21,0c.23-.06.48-.13.73-.22l.2-.07c.27-.09.53-.18.81-.3l.11,0a22.42,22.42,0,0,0,4.6-2.74l.15-.1.18-.19a9,9,0,0,0,1.41-1.73,2,2,0,0,0,.12-2.31c-.76-1.11-2.85-1.82-5.42-2.69a.9.9,0,0,1,.1-.09,2.19,2.19,0,0,1,.72-.49l0,0h0l-.06,0L110,36.09c-4.72,2-7.7,3.34-10,4.42-3.51,1.61-5.63,2.73-10,5.15-5.28,3.17-8.51,5.11-11.21,6.84-3.38,2.17-5.92,4-10.58,7.53C63.77,63.64,61,66,58.88,67.73a111.74,111.74,0,0,0-8.83,8.39l.18-.18h.05l.33,0C50.73,76.23,51.08,77,51,79.62Z"/><path class="cls-7" d="M149,25.56l-.47.07.77-.1Z"/><path class="cls-7" d="M149.29,25.53h0c1.72-.19,5.16-.37,9.51-.49h.24l1.51,0c8.89-.2,20.68-.14,29,.57l.37,0c.79.07,1.57.14,2.29.22.88.11,1.7.22,2.46.34,4.27.69,5.62.9,19.44,5.32l.59.2,3.58,1.15,6.17,2,7.61,2.47L237.42,39l5,1.61c.35.06.67.16,1,.24,1.33.27,2.64.57,3.93.92.59.15,1.17.33,1.75.51,1.11.33,2.21.69,3.29,1.08.32.11.66.2,1,.32s.52.23.78.33c1.11.44,2.19.91,3.26,1.41.49.22,1,.43,1.48.67,1.53.76,3,1.56,4.49,2.43h0c-4.84-2.72-7.83-4.39-10.18-5.65-3.58-1.92-5.65-2.86-10.42-5-4.4-1.76-7.17-2.87-9.27-3.68-3.47-1.34-5.12-1.85-9.26-3.12-4-1.11-6.59-1.82-8.51-2.32-3.36-.89-4.72-1.16-8.44-1.89s-6.19-1.06-8-1.35c-3.25-.52-4.49-.65-8-1-3.64-.29-6-.47-7.73-.58-3.18-.22-4.37-.24-7.7-.27l-1.69,0h-1.54c-1.81,0-3.25,0-4.47.07l-2.38.07c-1.86.07-3.3.17-5.3.35-2.61.26-5.86.61-8.82,1Z"/><path class="cls-5" d="M146,74.35a7.87,7.87,0,0,0,2.26,2.4c3,2.3,8.28,3.12,15.6,2.45,1.75,2.11,7.65,3.54,12.56.88,2.59-1.41,3.86,1.49,4.84,4.32,15.05-8,14.74-15.06,14.65-15.85-.17-1.59-.17-1.59-3-5.71-.49-.71-.49-.71.71-2.27-.2-.65-.46-1-4.66-2.54-1.78-.66-1.94-.8-2.26-1.08.13-1.14.13-1.14-.53-1.57-1.42-1-3.23-1-4.67-1.91,0-2.93,3.31-2.53,4.54-4.26.45-.2.9-.43,1.35-.62-5.86-4.51-5.86-4.51-8-5l-.41-.08c-1.86-.31-2.16-.19-5,1-.94.39-1.37.21-2.55-.74a10,10,0,0,0-5.7-2.48,29.76,29.76,0,0,0-7.71.5c-5.5,1.09-7.12,3.46-5.88,5.23,3.54,5.09,10.06,4.23,14.61,7.3-5,1.38-17.19-.85-15.5-7-7.54-2.44-10.51-.16-7.15,3.26.33.34,3.62,3.38,16.35,6.08,3,.65,3.64.78,4.28,1.35a1.93,1.93,0,0,1-.37,2.09c-1.35-2.16-24.6-5.83-28-1.71-3,3.6,5.67,3.39,8.31,5.39,1.12.85.95,2.09.61,4.55C144.87,71.69,145.45,73.46,146,74.35Z"/><path class="cls-9" d="M394.23,176q-12.93-11.91-12.92-32.36c0-1.54.16-4.18.51-7.93l9.73-79.06Q394.36,32.9,411,18.84t41.2-14.08q22.26,0,35.43,12t13.16,32.48c0,1.87-.16,4.51-.51,7.93l-1,8.45c-.52,2.55-2,3.83-4.35,3.83H455.74a3.05,3.05,0,0,1-3.31-3.83l1.27-9a12.35,12.35,0,0,0-1.27-7.81A5.68,5.68,0,0,0,447.32,46a7.89,7.89,0,0,0-6.15,2.92,13.76,13.76,0,0,0-3.07,7.81L428.38,136c-.33,3.25.08,5.85,1.27,7.81a5.72,5.72,0,0,0,5.14,2.94,7.49,7.49,0,0,0,6-2.94,14.3,14.3,0,0,0,3-7.81l1.55-12.53c.32-1-.11-1.53-1.3-1.53H442.2a3.05,3.05,0,0,1-3.33-3.85l3.58-29.41a4.48,4.48,0,0,1,1.4-2.82,3.94,3.94,0,0,1,2.7-1h46.56a3.38,3.38,0,0,1,2.68,1,3.43,3.43,0,0,1,.64,2.82l-5.88,47.07q-2.81,23.81-19.58,38t-41.32,14.2Q407.15,187.93,394.23,176Z"/><path class="cls-9" d="M531.46,175.52q-13.05-12.39-13-33.63c0-1.71.16-4.62.49-8.7l9.21-73.67Q531.21,34.44,548,19.6T589.78,4.76q22.51,0,35.7,12.41t13.17,33.65c0,1.69-.17,4.6-.52,8.7l-8.94,73.67q-3.09,25.08-20,39.9t-41.94,14.84Q544.5,187.93,531.46,175.52Zm47.44-31.84a16,16,0,0,0,3.46-8.45l9.46-77.77c.35-3.57-.08-6.39-1.27-8.43A6,6,0,0,0,584.92,46,8.59,8.59,0,0,0,578.14,49a14.48,14.48,0,0,0-3.2,8.43l-9.45,77.77a11.14,11.14,0,0,0-.27,2.83,9.74,9.74,0,0,0,1.91,6.39,6.52,6.52,0,0,0,5.26,2.3A8.36,8.36,0,0,0,578.9,143.68Z"/><path class="cls-9" d="M653.34,184.86a3.36,3.36,0,0,1-.64-2.8l21-171.41a4.38,4.38,0,0,1,1.42-2.82,3.89,3.89,0,0,1,2.68-1h39.4a3.08,3.08,0,0,1,2.42,1,3.44,3.44,0,0,1,.66,2.82L704.12,143.17c-.17,1,.27,1.52,1.3,1.52h48.35a3.06,3.06,0,0,1,3.31,3.86L753,182.06c-.49,2.55-2,3.83-4.35,3.83H655.77A3,3,0,0,1,653.34,184.86Z"/><path class="cls-9" d="M782.31,184.86a3.32,3.32,0,0,1-.64-2.8l21-171.41a4.38,4.38,0,0,1,1.42-2.82,3.89,3.89,0,0,1,2.68-1h48.86q22.75,0,36.19,11.91t13.44,31.84q0,2.33-.52,7.42l-9.46,76.75a56.73,56.73,0,0,1-10.09,26.73A55.57,55.57,0,0,1,863.4,179.5a68.24,68.24,0,0,1-29.8,6.39H784.74A3,3,0,0,1,782.31,184.86Zm52.08-40.17,3.31-.24a10.55,10.55,0,0,0,7.3-3.84,18.73,18.73,0,0,0,4.22-9.21L857.65,61l.27-2.8c0-3.26-.78-5.77-2.31-7.56A7.65,7.65,0,0,0,849.47,48h-3.32a1.36,1.36,0,0,0-1.54,1.54l-11.52,93.63C832.92,144.2,833.36,144.69,834.39,144.69Z"/><path class="cls-9" d="M1034.56,47a4.2,4.2,0,0,1-3,1H984.29a1.36,1.36,0,0,0-1.54,1.54l-3.07,24.55c-.17,1,.26,1.54,1.27,1.54h24.57a3.38,3.38,0,0,1,2.68,1,3.43,3.43,0,0,1,.64,2.83L1004.76,113c-.52,2.55-2,3.83-4.35,3.83H975.84a1.36,1.36,0,0,0-1.54,1.55l-3.07,24.81c-.17,1,.26,1.52,1.3,1.52h47.31a3.37,3.37,0,0,1,2.68,1,3.31,3.31,0,0,1,.64,2.83l-4.08,33.51a4.56,4.56,0,0,1-1.4,2.8,4.22,4.22,0,0,1-2.95,1H922.88a3,3,0,0,1-2.43-1,3.32,3.32,0,0,1-.64-2.8l21-171.41a4.38,4.38,0,0,1,1.42-2.82,3.89,3.89,0,0,1,2.68-1h91.83a3.42,3.42,0,0,1,2.7,1,3.4,3.4,0,0,1,.64,2.82L1036,44.16A4.46,4.46,0,0,1,1034.56,47Z"/><path class="cls-9" d="M1048.84,184.86a3.36,3.36,0,0,1-.64-2.8l21-171.41a4.38,4.38,0,0,1,1.42-2.82,3.89,3.89,0,0,1,2.68-1H1117c2,0,3.24,1.11,3.57,3.34l9.48,78c.16.68.45,1,.88,1s.73-.35.91-1l9.19-77.51a4.63,4.63,0,0,1,1.42-2.82,4.31,4.31,0,0,1,3-1h38.62a3.37,3.37,0,0,1,2.68,1,3.3,3.3,0,0,1,.64,2.82l-21.23,171.41a4.72,4.72,0,0,1-1.27,2.8,3.76,3.76,0,0,1-2.83,1H1117.8c-2,0-3.24-1.11-3.59-3.32L1105,104c0-.51-.25-.72-.77-.64a1.23,1.23,0,0,0-1,.89l-8.94,77.78a4.47,4.47,0,0,1-1.42,2.8,3.8,3.8,0,0,1-2.68,1h-38.89A3,3,0,0,1,1048.84,184.86Z"/><path class="cls-1" d="M414.77,171.28q-12.91-11.91-12.92-32.36,0-2.31.52-7.93l9.73-79.06q2.81-23.79,19.43-37.85T472.73,0Q495,0,508.15,12t13.17,32.47c0,1.88-.16,4.52-.51,7.94l-1,8.45c-.52,2.55-2,3.83-4.35,3.83H476.29A3.05,3.05,0,0,1,473,60.9l1.28-9q.53-4.84-1.28-7.81a5.66,5.66,0,0,0-5.11-2.92,7.89,7.89,0,0,0-6.14,2.92,13.76,13.76,0,0,0-3.07,7.81l-9.73,79.31c-.33,3.25.09,5.85,1.28,7.81a5.71,5.71,0,0,0,5.13,2.94,7.52,7.52,0,0,0,6-2.94,14.3,14.3,0,0,0,2.95-7.81l1.54-12.53c.33-1-.1-1.53-1.3-1.53h-1.77a3.06,3.06,0,0,1-3.34-3.85L463,83.92a4.46,4.46,0,0,1,1.4-2.83,3.92,3.92,0,0,1,2.7-1h46.55A3,3,0,0,1,517,83.92L511.1,131q-2.82,23.81-19.58,38t-41.32,14.2Q427.7,183.17,414.77,171.28Z"/><path class="cls-1" d="M552,170.76q-13-12.39-13-33.63c0-1.71.17-4.62.5-8.7l9.21-73.67q3.09-25.08,19.82-39.92T610.35,0Q632.85,0,646,12.41t13.17,33.65c0,1.69-.16,4.6-.51,8.7l-9,73.67q-3.09,25.08-20,39.9t-41.93,14.84Q565.06,183.17,552,170.76Zm47.44-31.84a16,16,0,0,0,3.46-8.45l9.46-77.77c.35-3.57-.08-6.39-1.28-8.43a6,6,0,0,0-5.62-3.07,8.59,8.59,0,0,0-6.78,3.07,14.42,14.42,0,0,0-3.2,8.43l-9.46,77.77a11.62,11.62,0,0,0-.27,2.83,9.64,9.64,0,0,0,1.92,6.38A6.5,6.5,0,0,0,593,142,8.36,8.36,0,0,0,599.47,138.92Z"/><path class="cls-1" d="M673.93,180.1a3.32,3.32,0,0,1-.64-2.8l21-171.41a4.38,4.38,0,0,1,1.42-2.82,3.89,3.89,0,0,1,2.68-1h39.4a3,3,0,0,1,2.41,1,3.37,3.37,0,0,1,.66,2.82L724.71,138.41c-.17,1,.26,1.52,1.3,1.52h48.34a3.06,3.06,0,0,1,3.32,3.86l-4.1,33.51c-.49,2.55-2,3.83-4.35,3.83H676.36A3,3,0,0,1,673.93,180.1Z"/><path class="cls-1" d="M802.85,180.1a3.36,3.36,0,0,1-.63-2.8l21-171.41a4.34,4.34,0,0,1,1.42-2.82,3.89,3.89,0,0,1,2.68-1h48.86Q898.92,2,912.35,14t13.43,31.84c0,1.55-.16,4-.51,7.42L915.81,130a56.63,56.63,0,0,1-10.1,26.73A55.54,55.54,0,0,1,884,174.74a68.27,68.27,0,0,1-29.8,6.39H805.29A3.06,3.06,0,0,1,802.85,180.1Zm52.08-40.17,3.32-.25a10.51,10.51,0,0,0,7.3-3.83,18.73,18.73,0,0,0,4.22-9.21l8.43-70.36.27-2.8c0-3.26-.79-5.77-2.31-7.56A7.68,7.68,0,0,0,870,43.24H866.7a1.37,1.37,0,0,0-1.55,1.54l-11.52,93.63C853.47,139.44,853.9,139.93,854.93,139.93Z"/><path class="cls-1" d="M1055.1,42.21a4.17,4.17,0,0,1-2.94,1h-47.32a1.37,1.37,0,0,0-1.55,1.54l-3.07,24.55c-.16,1,.27,1.54,1.28,1.54h24.57a3.38,3.38,0,0,1,2.68,1,3.43,3.43,0,0,1,.63,2.83l-4.08,33.51c-.51,2.55-2,3.83-4.34,3.83H996.39a1.37,1.37,0,0,0-1.55,1.54l-3.07,24.82c-.16,1,.27,1.52,1.3,1.52h47.32a3.39,3.39,0,0,1,2.68,1,3.35,3.35,0,0,1,.64,2.83l-4.08,33.51a4.56,4.56,0,0,1-1.4,2.8,4.25,4.25,0,0,1-3,1H943.43a3.06,3.06,0,0,1-2.44-1,3.36,3.36,0,0,1-.63-2.8l21-171.41a4.39,4.39,0,0,1,1.43-2.82,3.89,3.89,0,0,1,2.68-1h91.83a3.43,3.43,0,0,1,2.7,1,3.4,3.4,0,0,1,.64,2.82l-4.1,33.51A4.42,4.42,0,0,1,1055.1,42.21Z"/><path class="cls-1" d="M1069.41,180.1a3.32,3.32,0,0,1-.64-2.8l21-171.41a4.38,4.38,0,0,1,1.42-2.82,3.89,3.89,0,0,1,2.68-1h43.75c2,0,3.24,1.11,3.57,3.34l9.48,78c.16.68.45,1,.88,1s.72-.35.91-1l9.19-77.51a4.63,4.63,0,0,1,1.42-2.82,4.27,4.27,0,0,1,3-1h38.62a3.39,3.39,0,0,1,2.68,1,3.33,3.33,0,0,1,.64,2.82L1186.71,177.3a4.73,4.73,0,0,1-1.28,2.8,3.75,3.75,0,0,1-2.82,1h-44.25q-3.06,0-3.58-3.32l-9.22-78.54c0-.51-.24-.72-.76-.64a1.23,1.23,0,0,0-1,.89l-8.94,77.78a4.47,4.47,0,0,1-1.42,2.8,3.82,3.82,0,0,1-2.68,1h-38.89A3,3,0,0,1,1069.41,180.1Z"/><path class="cls-10" d="M404.49,173.67q-12.92-11.91-12.92-32.36c0-1.54.16-4.18.51-7.93l9.73-79.06q2.82-23.79,19.44-37.85T462.44,2.39q22.26,0,35.43,12T511,46.91q0,2.81-.52,7.93l-1,8.45q-.76,3.83-4.35,3.83H466a3.37,3.37,0,0,1-2.68-1,3.32,3.32,0,0,1-.64-2.8l1.28-9a12.35,12.35,0,0,0-1.28-7.81,5.68,5.68,0,0,0-5.11-2.92,7.89,7.89,0,0,0-6.14,2.92,13.76,13.76,0,0,0-3.07,7.81l-9.73,79.31c-.33,3.25.08,5.85,1.28,7.81a5.69,5.69,0,0,0,5.13,2.94,7.52,7.52,0,0,0,6-2.94,14.37,14.37,0,0,0,2.94-7.81l1.55-12.53c.33-1-.1-1.53-1.3-1.53h-1.77a3.42,3.42,0,0,1-2.7-1,3.37,3.37,0,0,1-.64-2.82l3.58-29.41a4.44,4.44,0,0,1,1.41-2.82,3.92,3.92,0,0,1,2.7-1h46.55a3,3,0,0,1,3.32,3.83l-5.87,47.07q-2.82,23.81-19.58,38t-41.32,14.2Q417.41,185.56,404.49,173.67Z"/><path class="cls-10" d="M541.76,173.15q-13-12.39-13-33.63c0-1.71.16-4.62.49-8.7l9.22-73.67q3.09-25.08,19.82-39.92T600.09,2.39q22.5,0,35.69,12.41T649,48.45c0,1.69-.17,4.6-.52,8.7l-8.94,73.67q-3.09,25.08-20,39.9t-41.94,14.84Q554.79,185.56,541.76,173.15Zm47.45-31.84a16.07,16.07,0,0,0,3.46-8.45l9.46-77.77c.35-3.57-.09-6.39-1.28-8.43a6,6,0,0,0-5.63-3.07,8.61,8.61,0,0,0-6.78,3.07,14.48,14.48,0,0,0-3.19,8.43l-9.46,77.77a11.14,11.14,0,0,0-.27,2.83,9.69,9.69,0,0,0,1.92,6.39,6.51,6.51,0,0,0,5.25,2.3A8.38,8.38,0,0,0,589.21,141.31Z"/><path class="cls-10" d="M663.64,182.49a3.39,3.39,0,0,1-.64-2.8L684,8.28a4.39,4.39,0,0,1,1.43-2.82,3.89,3.89,0,0,1,2.68-1h39.4a3.06,3.06,0,0,1,2.41,1,3.41,3.41,0,0,1,.66,2.82L714.42,140.8c-.16,1,.27,1.52,1.3,1.52h48.35a3.06,3.06,0,0,1,3.32,3.86l-4.1,33.51c-.5,2.55-2,3.83-4.35,3.83H666.08A3.06,3.06,0,0,1,663.64,182.49Z"/><path class="cls-10" d="M792.57,182.49a3.36,3.36,0,0,1-.64-2.8l21-171.41a4.43,4.43,0,0,1,1.42-2.82,3.91,3.91,0,0,1,2.68-1h48.87q22.74,0,36.18,11.91T915.5,48.18c0,1.55-.16,4-.51,7.42l-9.46,76.75a56.84,56.84,0,0,1-10.1,26.73,55.61,55.61,0,0,1-21.76,18,68.3,68.3,0,0,1-29.8,6.39H795A3,3,0,0,1,792.57,182.49Zm52.08-40.17,3.32-.24a10.53,10.53,0,0,0,7.29-3.84,18.65,18.65,0,0,0,4.23-9.21l8.43-70.36.26-2.8c0-3.26-.78-5.77-2.3-7.56a7.69,7.69,0,0,0-6.15-2.68h-3.31a1.37,1.37,0,0,0-1.55,1.54L843.35,140.8C843.19,141.83,843.62,142.32,844.65,142.32Z"/><path class="cls-10" d="M1044.82,44.6a4.18,4.18,0,0,1-3,1H994.56A1.37,1.37,0,0,0,993,47.17l-3.07,24.55c-.17,1,.27,1.54,1.28,1.54h24.56a3.36,3.36,0,0,1,2.68,1,3.4,3.4,0,0,1,.64,2.83L1015,110.61c-.52,2.55-2,3.83-4.35,3.83H986.11a1.37,1.37,0,0,0-1.55,1.55l-3.07,24.81c-.16,1,.27,1.52,1.3,1.52h47.32a3.35,3.35,0,0,1,2.67,1,3.31,3.31,0,0,1,.64,2.83l-4.08,33.51a4.5,4.5,0,0,1-1.4,2.8,4.22,4.22,0,0,1-3,1H933.14a3,3,0,0,1-2.43-1,3.36,3.36,0,0,1-.64-2.8l21-171.41a4.43,4.43,0,0,1,1.42-2.82,3.91,3.91,0,0,1,2.68-1H1047a3.4,3.4,0,0,1,2.7,1,3.37,3.37,0,0,1,.64,2.82l-4.1,33.51A4.41,4.41,0,0,1,1044.82,44.6Z"/><path class="cls-10" d="M1059.12,182.49a3.36,3.36,0,0,1-.64-2.8l21-171.41a4.39,4.39,0,0,1,1.43-2.82,3.87,3.87,0,0,1,2.67-1h43.76q3.06,0,3.56,3.34l9.48,78c.17.68.45,1,.89,1s.72-.35.9-1l9.2-77.51a4.58,4.58,0,0,1,1.42-2.82,4.27,4.27,0,0,1,2.94-1h38.63a3.35,3.35,0,0,1,2.67,1,3.3,3.3,0,0,1,.64,2.82l-21.22,171.41a4.78,4.78,0,0,1-1.28,2.8,3.75,3.75,0,0,1-2.82,1h-44.25q-3.06,0-3.59-3.32l-9.21-78.54c0-.51-.25-.72-.76-.64a1.21,1.21,0,0,0-1,.89l-9,77.78a4.43,4.43,0,0,1-1.42,2.8,3.8,3.8,0,0,1-2.68,1h-38.89A3,3,0,0,1,1059.12,182.49Z"/><path class="cls-1" d="M469.52,150c.05.67-.57,3.3-1.87,7.83s-3.08,9.65-5,15.35q-8.3,24.09-7.76,25.93c.33,1.25,4.46-2.37,12.33-10.9q20.55-22.09,36.63-30.49t27.83-3.44c6.43,2.85,10.2,7.51,11.25,14a24.12,24.12,0,0,1,.37,2.91q.48,9-4.84,22a47.26,47.26,0,0,1-5,8.64,121.62,121.62,0,0,1-7.82,10.47,237,237,0,0,1-18.49,20.91,131.39,131.39,0,0,1-17.56,15.41A154.82,154.82,0,0,1,467.33,261a88.44,88.44,0,0,1-19.92,6.57,61.48,61.48,0,0,0-7.45,1.67,17.89,17.89,0,0,0-4.3,1.7q-.8.92-4.52,12.58-3.56,11.73-7.92,27.22-7.67,27.84-10.93,36.61c-1.7,4.42-3.05,6.65-4,6.71a1.12,1.12,0,0,1-.87-.56c-.44-.55-.66-1.85-.62-4-.12-2.21-.15-5-.07-8.35.37-6.17,1-13.5,1.93-22.09s2.28-16.71,3.66-24.47c.85-4.79,1.74-9.64,2.76-14.58s1.53-8.39,1.7-10.36a54.21,54.21,0,0,1-17.47-2.16c-6.36-1.62-9.64-4-9.83-7.18,0-.56,1.4-1.15,4.29-1.7s6.52-1.14,10.81-1.68a67.22,67.22,0,0,0,12-1.7c2.62-.57,4.18-1.4,4.69-2.55.35-.73,1.57-4.06,3.6-10s4.25-12.77,6.62-20.44q2.68-8.09,5.94-17.07c2.05-5.82,4.18-11.6,6.38-17.29,4-10.71,7.66-20,11-28.06s5.65-12.28,6.6-12.89a4.44,4.44,0,0,1,1.22-.69c.27,0,.57,0,.82-.05l.42,0a7,7,0,0,1,3.83,1A3.58,3.58,0,0,1,469.52,150Zm44.32,18.24q-11.28,4-25.84,16.71a173.53,173.53,0,0,0-25.59,28.83c-1.82,2.59-3.55,5.28-5.2,8s-3.26,5.49-4.79,8.22a119.79,119.79,0,0,0-6.56,13.53c-1.11,2.87-1.61,4.87-1.55,6a1.61,1.61,0,0,0,.26.8,3.62,3.62,0,0,0,2.08.3,24.29,24.29,0,0,0,4.37-.84,146.25,146.25,0,0,0,14.51-6.07,126.08,126.08,0,0,0,29.86-19.86,142.36,142.36,0,0,0,23.48-25.56A71.48,71.48,0,0,0,526.48,185,25.51,25.51,0,0,0,529,173.52a12.4,12.4,0,0,0-1.62-6.22c-.88-1-2.3-1.52-4.25-1.41l-.63,0a13.57,13.57,0,0,0-3.71.83C517.41,167.12,515.77,167.61,513.84,168.28Z"/><path class="cls-1" d="M609,152.53a75.74,75.74,0,0,1-3.93,12.35c-1.82,4.58-4,9.36-6.5,14.39a292,292,0,0,1-17.39,29.61,269.64,269.64,0,0,1-21.84,28.64c-7,8-11.79,14.06-14.49,18a46.51,46.51,0,0,0-5.61,12.22c-2.45,8.39-3.8,14.58-4,18.64-.35,4.07.35,6.34,2,6.76.87.25,3.79-.89,8.82-3.38,5-2.68,11-6.13,17.84-10.42q20.61-13.05,34.71-19.28T621.13,254c2.93.13,4.41.45,4.45,1s-.89,1.58-2.36,2.63a63,63,0,0,1-5.46,3.45c-2.3,1.37-4,2.45-5,3.19-4.44,2.77-10.17,6.43-17.18,11-6.85,4.56-12.9,8.64-18.15,12.3s-10.4,7.13-15.51,10.48-8.68,5.57-10.72,6.66a34.68,34.68,0,0,1-13.79,4.11l-.63,0c-4.59.11-8.14-1-10.65-3.39S522,299,521.66,293.58A58.62,58.62,0,0,1,523,279.5q3.75-19.25,18-51.83a469.43,469.43,0,0,1,22.23-44.57q11.24-19.87,20.63-31.25a73.07,73.07,0,0,1,9.5-9.76c2.82-2.23,5.33-3.43,7.55-3.55q5.64-.3,7.7,3.12C609.86,144,610,147.59,609,152.53Zm-49.08,58.16c-2.23,4.88-4.16,9.32-5.73,13.29s-2.37,6.43-2.32,7.26a.55.55,0,0,0,.64.58c1,0,3.36-2.4,7.15-7.08A257.6,257.6,0,0,0,575.93,201q3.47-5.43,6.7-11.26c2.15-3.87,4.18-7.71,6-11.42,3.4-6.87,6.06-12.9,8-18,1.19-3.57,1.76-6,1.7-7.21,0-.54-.19-.9-.49-1h-.21l-.41,0c-1,0-2.25.9-3.83,2.53a46.33,46.33,0,0,0-5.71,6.8,220.46,220.46,0,0,0-13.47,21Q566.87,195.65,559.93,210.69Z"/><path class="cls-9" d="M475.08,145.86c0,.69-.59,3.3-1.87,7.85s-3.1,9.65-5,15.33c-5.51,16.06-8.1,24.73-7.74,26s4.46-2.39,12.34-10.94q20.54-22.06,36.6-30.49c10.7-5.6,20-6.77,27.84-3.42q9.68,4.28,11.24,14a20,20,0,0,1,.37,2.91q.51,9-4.83,22a48.14,48.14,0,0,1-5,8.64,124.15,124.15,0,0,1-7.79,10.47,245,245,0,0,1-18.5,20.91q-10.32,10.41-17.56,15.41a158.23,158.23,0,0,1-22.34,12.33A90,90,0,0,1,453,263.41a62,62,0,0,0-7.43,1.67,20.12,20.12,0,0,0-4.32,1.7c-.53.61-2,4.8-4.52,12.58-2.35,7.84-5,16.87-7.89,27.22q-7.68,27.85-10.94,36.61c-1.72,4.42-3.07,6.65-4,6.71-.29,0-.56-.17-.87-.56s-.66-1.85-.64-4-.15-5-.05-8.36c.37-6.16,1-13.49,1.93-22.08s2.26-16.71,3.64-24.47c.87-4.79,1.77-9.64,2.76-14.6s1.54-8.37,1.72-10.32a56.12,56.12,0,0,1-17.49-2.16c-6.36-1.62-9.64-4-9.81-7.22,0-.54,1.4-1.13,4.3-1.7s6.49-1.12,10.78-1.66a69.29,69.29,0,0,0,12.05-1.7q3.9-.82,4.67-2.55.56-1.1,3.62-10.06c2-6,4.24-12.78,6.6-20.43,1.8-5.41,3.77-11.11,6-17.09q3.06-8.7,6.36-17.3,6-16,11-28c3.45-8,5.65-12.32,6.6-12.92a5.46,5.46,0,0,1,1.2-.71l.84,0,.42,0a6.94,6.94,0,0,1,3.83,1A3.72,3.72,0,0,1,475.08,145.86Zm44.32,18.26c-7.54,2.62-16.13,8.17-25.86,16.69A174.77,174.77,0,0,0,468,209.63c-1.8,2.62-3.55,5.29-5.2,8s-3.26,5.51-4.78,8.2a125,125,0,0,0-6.55,13.57c-1.11,2.85-1.63,4.85-1.57,6a1.61,1.61,0,0,0,.26.8,3.71,3.71,0,0,0,2.11.3,23,23,0,0,0,4.34-.86,147,147,0,0,0,14.51-6,126.6,126.6,0,0,0,29.86-19.88,143.65,143.65,0,0,0,23.51-25.56,74.59,74.59,0,0,0,7.61-13.4,25.62,25.62,0,0,0,2.5-11.44,12.37,12.37,0,0,0-1.61-6.18,4.89,4.89,0,0,0-4.25-1.43l-.63,0a15.06,15.06,0,0,0-3.73.81C523,162.91,521.31,163.45,519.4,164.12Z"/><path class="cls-9" d="M614.53,148.34a74.51,74.51,0,0,1-3.91,12.34q-2.76,6.85-6.54,14.4a285.73,285.73,0,0,1-17.39,29.64,268.64,268.64,0,0,1-21.83,28.64q-10.41,12-14.48,17.95a46.22,46.22,0,0,0-5.61,12.22c-2.45,8.37-3.8,14.58-4,18.63-.34,4.06.34,6.37,2,6.79.87.25,3.79-.89,8.8-3.4q7.54-4,17.85-10.41,20.63-13.06,34.72-19.29c9.39-4.17,16.86-6.17,22.44-6.06,2.94.11,4.42.45,4.46,1-.1.72-.89,1.61-2.34,2.64s-3.32,2.22-5.48,3.46-4,2.45-5,3.2q-6.66,4.16-17.18,11-10.27,6.85-18.13,12.33c-5.25,3.61-10.42,7.12-15.54,10.48s-8.67,5.56-10.71,6.64a34.64,34.64,0,0,1-13.8,4.13l-.62,0q-6.88.17-10.65-3.38c-2.65-2.49-4.14-6.47-4.42-11.89a57.1,57.1,0,0,1,1.31-14.1q3.74-19.27,18-51.86a473.1,473.1,0,0,1,22.22-44.52q11.24-19.87,20.63-31.3a73.26,73.26,0,0,1,9.52-9.73c2.8-2.25,5.31-3.44,7.53-3.55,3.77-.21,6.33.84,7.7,3.12S615.5,143.4,614.53,148.34Zm-49.08,58.19q-3.35,7.29-5.73,13.29c-1.61,4-2.37,6.4-2.32,7.24,0,.4.22.61.64.57,1,0,3.36-2.39,7.15-7.07a259,259,0,0,0,16.26-23.71c2.32-3.64,4.54-7.38,6.7-11.24s4.18-7.71,6.05-11.43c3.4-6.88,6.06-12.92,8-18,1.18-3.57,1.77-6,1.69-7.21,0-.57-.19-.9-.49-1h-.18c-.17,0-.3,0-.44,0-1,.06-2.25.91-3.84,2.53a45.54,45.54,0,0,0-5.67,6.79,210.58,210.58,0,0,0-13.5,21Q572.39,191.48,565.45,206.53Z"/><path class="cls-1" d="M775.38,277.61c-.89-.79-1.4-2.64-1.58-5.57a43.49,43.49,0,0,1,.12-5.46A132.19,132.19,0,0,1,776,247.64a105.24,105.24,0,0,1,3.44-13.78c1.3-4,2.57-6,3.83-6.09,1.53-.07,2.44,1.06,2.7,3.44.14,2.22-.08,8.35-.63,18.46-.14,2.64-.4,6.63-.81,12q6.66-7.9,19.85-23.28,17.45-20.65,25.27-26.93,5.21-4.26,9.59-4.5a8.45,8.45,0,0,1,3.36.42c2.15.87,3.53,1.9,4.15,3.12.63,1.37,1,3.76,1.24,7.26a66.4,66.4,0,0,1-.32,9.2,88.88,88.88,0,0,1-1.52,10.35q-2.31,11-1.95,17.49c.38,4.41,1.58,7,3.55,7.53q7.56.41,20.39-5.93,12.81-6.59,26.29-12.35a134.28,134.28,0,0,1,14.38-5.19,43.75,43.75,0,0,1,13-2q-1.94,2-15,9.2-12.79,7.19-28.79,16.27Q863,270.41,853.37,273q-9.93,2.47-15.41-2.48a16,16,0,0,1-5.23-11c-.53-4.57,0-11.87,1.73-21.84.6-4,1-7.39,1.31-10.36s.16-4.57-.3-5-4.22,2.9-10.92,10.23-15.88,18.27-27.9,32.72q-7.44,9.21-12.72,12.22a9.77,9.77,0,0,1-4.31,1.5A5.68,5.68,0,0,1,775.38,277.61Z"/><path class="cls-1" d="M960.33,229.23c-1.68,2.47-5.1,4.69-10.32,6.64A73.4,73.4,0,0,1,932.69,240a21.31,21.31,0,0,0-7.44,1.67,8.06,8.06,0,0,0-3.56,4c-1.75,3.6-2.42,6.54-2,8.89a9.09,9.09,0,0,0,4.31,6q9.45,4.34,24.38,2t40.73-16.26q12.6-6.78,22-10.84c6.24-2.89,9.53-4.32,9.8-4.33s.3.27.47.81a4.92,4.92,0,0,1,.28,1.47c0,.14,0,.29,0,.39,0,2.25-3,5.81-9,10.77a153.14,153.14,0,0,1-21.15,14.78q-6.71,3.93-13.62,7.44a135.6,135.6,0,0,1-13.27,5.55,82.54,82.54,0,0,1-21.94,4.58l-2.49.13c-7.53,0-13.39-.94-17.53-2.77a24,24,0,0,1-9.16-6.83,20.07,20.07,0,0,1-4.74-9.56c0-.44,0-.92-.08-1.46a20.54,20.54,0,0,1,.9-6.77,36.65,36.65,0,0,1,3.89-9,60.79,60.79,0,0,1,13.56-16,46.31,46.31,0,0,1,17.85-10,28.74,28.74,0,0,1,3.71-.84l2.07-.11,1.47-.08c4.77.16,8.06,1.71,9.9,4.67Q964.79,222.94,960.33,229.23Zm-19.22-3.32a37,37,0,0,0-6.45,4.76c-.92.77-1.38,1.34-1.36,1.76,0,.27.32.47.87.56l.62,0c.84-.05,2.15-.17,4-.42a31.25,31.25,0,0,0,8.79-3.63,12.23,12.23,0,0,0,3.38-3.33,3.81,3.81,0,0,0,.55-1.5c0-.42-.38-.67-1.08-.75l-.65,0a27.72,27.72,0,0,0-2.89.37A18,18,0,0,0,941.11,225.91Z"/><path class="cls-1" d="M1094.75,152.09a52.17,52.17,0,0,1-4.44,6.51,89.18,89.18,0,0,1-5.69,7,174.91,174.91,0,0,1-12.26,12.8,110.68,110.68,0,0,1-11.18,9.82c-5.1,3.8-9,6.87-11.62,9.24s-3.74,3.89-3.68,5l7.91-.45a76.77,76.77,0,0,1,9.63-.32q7.29-.39,13.79-.14c4.32.19,6.33,1,6,2.38.06,1-1.63,2.06-5,3.22a106.3,106.3,0,0,1-14,3.48c-3.44.77-7.09,1.53-11,2.31-4,.63-7.86,1.39-11.59,2.31-1,2.44-2.52,6.09-4.62,10.92-.85,2.15-1.71,4.5-2.55,7.05-.68,2.68-1.28,5.44-1.82,8.29a93.74,93.74,0,0,0-2.12,14.52c-.31,4.63-.15,7.54.47,8.78a9.11,9.11,0,0,0,3.38,4.2q1.93,1.15,12.49-4.67c3-1.71,6.7-3.94,11.13-6.69s9.79-6.14,16-10.08q21-13.71,33.3-18.19t17.53-4.3c1,.05,1.55.3,1.73.72v.21c.16.39-.09.76-.78,1.09q-3.81,2.52-13.56,8.1a191.13,191.13,0,0,0-21.6,14.16q-17.68,13.31-25.93,19t-14.93,9.83q-9.72,6.19-18,7.47l-1.66.1a12.12,12.12,0,0,1-11.37-5c-1.49-1.71-2.51-5.41-3.12-11.11a114.19,114.19,0,0,1-.4-18.19,85.56,85.56,0,0,1,.92-9.88,58.44,58.44,0,0,1,2.05-8.47c1.31-4,2.58-7.48,3.8-10.48s1.81-5,1.75-6.14a30.6,30.6,0,0,0-4.18,0,6.77,6.77,0,0,1-3.59-.42,7.83,7.83,0,0,1-3.9-6.48c0-.28,0-.57-.05-.82.1-3.21,2.81-4.85,8.09-4.86,1.26-.06,2.64-.15,4.17-.24l4.4-.24c1.12-2.16,2.27-4.31,3.41-6.47s2.43-4.94,3.94-7.94a190.27,190.27,0,0,1,13.73-23.78A270.93,270.93,0,0,1,1065.81,143c2.73-3.49,5.33-6.64,7.81-9.41a60.12,60.12,0,0,1,7-6.47,35,35,0,0,1,6.06-4.12,13.94,13.94,0,0,1,5.15-1.52h.42c4.28-.4,7,2.6,8.23,9S1099.75,144.14,1094.75,152.09Zm-13.61-11.57c-1.46,1.62-3.34,3.87-5.7,6.8s-4.76,6-7.23,9.19q-5.45,7.41-10.09,14c-3,4.49-4.42,7.07-4.38,7.78,0,.4.16.61.43.6,1-.06,3-1.56,6.25-4.54a130,130,0,0,0,12.85-13.69,158,158,0,0,0,11.65-16.11c2.55-4.2,3.79-7.05,3.7-8.6a.6.6,0,0,0-.24-.4v-.19a.18.18,0,0,0-.22-.21H1088a5,5,0,0,0-2.44,1.4A39.64,39.64,0,0,0,1081.14,140.52Z"/><path class="cls-9" d="M780.9,273.43c-.89-.79-1.42-2.64-1.58-5.58a41,41,0,0,1,.11-5.43,132.55,132.55,0,0,1,2.09-19,106.91,106.91,0,0,1,3.41-13.79c1.32-4,2.59-6,3.85-6.06,1.53-.09,2.43,1,2.7,3.39s-.08,8.38-.65,18.46c-.12,2.65-.4,6.65-.79,12q6.66-7.92,19.83-23.27,17.48-20.62,25.29-26.93,5.21-4.29,9.59-4.52a8.57,8.57,0,0,1,3.36.45c2.15.84,3.52,1.91,4.15,3.13s1,3.76,1.24,7.24a68.57,68.57,0,0,1-.33,9.22,88.25,88.25,0,0,1-1.51,10.34q-2.31,11-1.95,17.46c.37,4.45,1.58,7,3.55,7.55,5,.27,11.82-1.68,20.39-5.93s17.3-8.49,26.29-12.35a130.81,130.81,0,0,1,14.38-5.19,43.81,43.81,0,0,1,13.06-2q-2,2-15,9.18l-28.79,16.26c-10,5.43-18.28,9.05-24.72,10.79-6.62,1.62-11.76.8-15.41-2.5a16,16,0,0,1-5.23-11c-.53-4.55,0-11.85,1.73-21.83.6-3.94,1-7.38,1.31-10.35s.16-4.6-.3-5q-.87-.79-10.92,10.23-9.87,11-27.9,32.71-7.44,9.23-12.7,12.21a10.54,10.54,0,0,1-4.33,1.52A5.72,5.72,0,0,1,780.9,273.43Z"/><path class="cls-9" d="M965.87,225.07c-1.68,2.47-5.12,4.67-10.3,6.64a73.82,73.82,0,0,1-17.34,4.1,21.68,21.68,0,0,0-7.46,1.67,8.17,8.17,0,0,0-3.54,4c-1.74,3.56-2.42,6.54-2,8.87a9.21,9.21,0,0,0,4.31,6q9.45,4.31,24.37,2t40.74-16.28q12.61-6.78,22-10.86c6.26-2.87,9.52-4.28,9.8-4.31s.3.27.46.83a4.45,4.45,0,0,1,.3,1.42c0,.15,0,.3,0,.42q0,3.38-9,10.77a152.53,152.53,0,0,1-21.15,14.78q-6.7,3.93-13.62,7.44a129.91,129.91,0,0,1-13.27,5.55,81.14,81.14,0,0,1-21.94,4.58l-2.49.15c-7.53,0-13.39-.94-17.52-2.81a23.81,23.81,0,0,1-9.17-6.81,19.78,19.78,0,0,1-4.73-9.56c0-.44,0-.92-.08-1.47a20.49,20.49,0,0,1,.89-6.76,36.33,36.33,0,0,1,3.89-9,62.1,62.1,0,0,1,13.56-16,46.66,46.66,0,0,1,17.82-10,30.48,30.48,0,0,1,3.74-.86l2.08-.13c.44,0,.92,0,1.46-.08,4.75.18,8.06,1.75,9.88,4.71S968.84,220.86,965.87,225.07Zm-19.2-3.32a35.93,35.93,0,0,0-6.46,4.74c-.92.75-1.39,1.34-1.37,1.76,0,.25.32.47.89.56l.61,0c.83-.05,2.16-.19,4-.44a30.56,30.56,0,0,0,8.78-3.61,12.14,12.14,0,0,0,3.38-3.31,3.49,3.49,0,0,0,.55-1.5c0-.42-.4-.71-1.09-.79l-.63,0a25.07,25.07,0,0,0-2.92.39A17.22,17.22,0,0,0,946.67,221.75Z"/><path class="cls-9" d="M1100.29,147.91a54.58,54.58,0,0,1-4.44,6.53,89,89,0,0,1-5.69,7c-3.8,4.38-7.89,8.67-12.26,12.8a115.14,115.14,0,0,1-11.16,9.85c-5.11,3.75-9,6.81-11.64,9.23-2.5,2.2-3.76,3.87-3.7,5,2-.11,4.61-.26,7.94-.43a77,77,0,0,1,9.62-.34c4.86-.26,9.44-.29,13.79-.1s6.33,1,6,2.36c.06,1-1.63,2.06-5,3.22a116.23,116.23,0,0,1-14,3.5c-3.44.73-7.11,1.51-11,2.29-4,.63-7.86,1.41-11.57,2.31-1,2.44-2.53,6.07-4.64,10.94-.85,2.13-1.71,4.48-2.54,7s-1.3,5.44-1.84,8.27a96.77,96.77,0,0,0-2.11,14.54c-.31,4.65-.15,7.56.48,8.78a9.16,9.16,0,0,0,3.38,4.2q1.92,1.16,12.5-4.66c3-1.7,6.68-4,11.14-6.7s9.76-6.12,16-10.1q21-13.71,33.3-18.17c8.21-2.95,14-4.42,17.54-4.32,1,.07,1.56.35,1.72.76l0,.21c.16.39-.11.76-.79,1.07q-3.83,2.52-13.57,8.1a188.41,188.41,0,0,0-21.6,14.16c-11.79,8.89-20.43,15.2-25.93,19s-10.49,7.06-14.93,9.85q-9.7,6.16-18,7.47l-1.68.08a12.14,12.14,0,0,1-11.37-5c-1.49-1.75-2.53-5.43-3.12-11.11a115.69,115.69,0,0,1-.4-18.21,80.79,80.79,0,0,1,.92-9.88,63,63,0,0,1,2-8.47q2-6,3.8-10.48c1.24-3,1.81-5,1.76-6.16a31.19,31.19,0,0,0-4.19,0,7,7,0,0,1-3.59-.42,7.8,7.8,0,0,1-3.9-6.48c0-.28,0-.57,0-.84.1-3.19,2.81-4.81,8.1-4.86l4.16-.23,4.4-.25c1.12-2.14,2.25-4.3,3.41-6.45q1.68-3.45,3.93-8a191.07,191.07,0,0,1,13.74-23.75,266,266,0,0,1,16.16-22.25c2.71-3.49,5.33-6.64,7.83-9.43a59.49,59.49,0,0,1,7-6.47,32.67,32.67,0,0,1,6-4.1,13.52,13.52,0,0,1,5.15-1.52c.14,0,.27,0,.42,0,4.28-.38,7,2.6,8.23,8.94C1107.19,132.78,1105.29,140,1100.29,147.91Zm-13.61-11.57c-1.46,1.62-3.34,3.87-5.7,6.78s-4.75,6-7.23,9.21q-5.45,7.41-10.09,14c-3,4.48-4.42,7.06-4.4,7.75,0,.42.18.62.47.62,1-.06,3-1.56,6.23-4.54a130.73,130.73,0,0,0,12.83-13.69,152.4,152.4,0,0,0,11.67-16.12c2.55-4.19,3.79-7,3.7-8.59a.65.65,0,0,0-.22-.4l0-.21c0-.15-.08-.2-.22-.19h-.21a4.82,4.82,0,0,0-2.43,1.4A40.76,40.76,0,0,0,1086.68,136.34Z"/><path class="cls-9" d="M695.93,227.3c2.45,1.28,3.86,2.94,4.27,5,.23,2.08-.46,5.83-2.1,11.21a117.39,117.39,0,0,0-4,15.91q-.57,4.84,1.23,7c1.79,2.15,6.83,2.26,15.1.43s20.59-5.88,37-12.13q12.07-4.83,22.94-8.58c7.29-2.35,11.86-3.71,13.8-4.11,1.52-.22,3.88-.65,7-1.22l-3.76,3.53a49.22,49.22,0,0,1-7,5.64c-3.24,2-6.89,4.16-10.94,6.46a279.43,279.43,0,0,1-25.24,12.7,204,204,0,0,1-24.17,9.3q-11.11,3.34-16.53,3.85l-.6,0a23.51,23.51,0,0,1-9.93-1.55c-5.14-1.93-8.59-4.89-10.33-8.84-1.77-4.1-1.94-9.65-.51-16.7.57-2.43,1.14-4.59,1.72-6.6.74-1.85,1-3,.86-3.4s-1.8.44-4.88,2.6c-2.95,2-6.52,4.4-10.69,7.26Q647.88,269.95,634.93,274t-17.27-1.76a8.26,8.26,0,0,1-1.9-3.87v-.2a16.15,16.15,0,0,1,1.17-5.09c1.07-3.26,3.53-6.76,7.38-10.45a62.51,62.51,0,0,1,13.26-9.75,32,32,0,0,1,8.61-3.41,130.31,130.31,0,0,1,13.52-1.57c6.78-.52,11.42-1.14,13.9-1.83a41.91,41.91,0,0,0,10-4.75,43.65,43.65,0,0,1,6.52-3.48,9.45,9.45,0,0,1,3.5-1h.2a2.25,2.25,0,0,1,1.07.14A4.21,4.21,0,0,0,695.93,227.3Zm-39.35,18.51A91.91,91.91,0,0,0,643,250.34a36.49,36.49,0,0,0-11.48,7.55c-4,3.84-5.94,6.31-5.88,7.42a1.24,1.24,0,0,0,.87.58.92.92,0,0,0,.64.18q3.33-.39,14.27-6.45a205.62,205.62,0,0,0,18.24-10.83c2-1.37,3-2.34,3-2.9s-1-.77-2.55-.67a5.36,5.36,0,0,0-1.44.27A11.25,11.25,0,0,0,656.58,245.81Z"/></g></g></svg>