<?xml version="1.0" encoding="utf-8"?>
<!-- Generator: Adobe Illustrator 26.1.0, SVG Export Plug-In . SVG Version: 6.00 Build 0)  -->
<svg version="1.1" id="Layer_1" xmlns="http://www.w3.org/2000/svg" xmlns:xlink="http://www.w3.org/1999/xlink" x="0px" y="0px"
	 viewBox="0 0 247.33 57.37" style="enable-background:new 0 0 247.33 57.37;" xml:space="preserve">
<style type="text/css">
	.st0{fill:#00B2A9;}
	.st1{fill:#002B54;}
</style>
<g id="a">
</g>
<g id="b">
	<g id="c">
		<path class="st0" d="M36.04,6.26C32.54,2.41,27.38,0,20.9,0C9.56,0,0,9.62,0,21.05c0.04,11.98,10.97,23.9,18.23,32.28
			c0.05,0.06,2.71,2.96,2.72,2.97l0.39,0.44l0.4-0.43c0,0,2.68-2.93,2.72-2.97c6.85-7.9,16.92-20.86,16.95-32.3
			c0-5.68-1.86-10.94-5.37-14.79L36.04,6.26z M20.9,4.43c11.16,0.02,16.04,8.27,16.08,16.62c0,3.34-1.12,7.26-3.35,11.69l-4.44-5.49
			c1.37-1.79,2.2-4.02,2.2-6.45c0-5.87-4.75-10.62-10.62-10.62S10.15,14.93,10.15,20.8s4.76,10.62,10.62,10.62
			c1.79,0,3.48-0.45,4.96-1.23L31.24,37c-2.49,4.04-5.78,8.44-9.88,13.18l-0.7-0.8C13.74,41.46,4.39,30.62,4.43,21.05
			C4.45,12.05,11.99,4.45,20.9,4.43z M26.88,20.73c0,3.42-2.71,6.25-6.11,6.26c-3.41,0-6.26-2.86-6.27-6.26
			c0-3.41,2.78-6.18,6.19-6.19C24.1,14.54,26.87,17.32,26.88,20.73z"/>
		<g>
			<path class="st1" d="M76.37,34.61c-3.54,1.85-7.42,2.62-11.42,2.62c-8.5,0-14.69-5.58-14.69-14.31S56.45,8.61,64.95,8.61
				c4.31,0,8.12,0.96,10.85,3.5l-4.23,4.61c-1.62-1.69-3.58-2.58-6.62-2.58c-5.12,0-8.46,3.69-8.46,8.77s3.35,8.77,8.46,8.77
				c2.62,0,4.54-0.73,5.65-1.35v-4.42h-5.8v-5.54h11.57V34.6L76.37,34.61z"/>
			<path class="st1" d="M79.05,17.59h5.77v3h0.08c1.23-2.27,2.85-3.46,5.38-3.46c0.65,0,1.38,0.04,1.92,0.19v5.27
				c-0.81-0.23-1.62-0.38-2.46-0.38c-4.38,0-4.92,2.54-4.92,6.27v7.81h-5.77V17.59z"/>
			<path class="st1" d="M103.32,17.12c5.77,0,10.38,3.85,10.38,9.81s-4.61,9.81-10.38,9.81s-10.38-3.85-10.38-9.81
				S97.56,17.12,103.32,17.12z M103.32,31.66c2.88,0,4.62-1.92,4.62-4.73s-1.73-4.73-4.62-4.73s-4.62,1.92-4.62,4.73
				S100.43,31.66,103.32,31.66z"/>
			<path class="st1" d="M133.28,36.28h-5.54v-2.54h-0.08c-0.77,1.46-2.65,3-5.46,3c-5.85,0-6.92-3.85-6.92-8.85V17.58h5.77v9.15
				c0,2.15,0.04,4.92,3,4.92s3.46-2.35,3.46-4.77v-9.31h5.77v18.69V36.28z"/>
			<path class="st1" d="M135.45,17.59h5.54v2.54h0.08c0.77-1.46,2.65-3,5.46-3c5.85,0,6.92,3.85,6.92,8.85v10.31h-5.77v-9.15
				c0-2.15-0.04-4.92-3-4.92s-3.46,2.35-3.46,4.77v9.31h-5.77L135.45,17.59L135.45,17.59z"/>
			<path class="st1" d="M175.31,36.28H170v-2.46h-0.08c-0.88,1.35-3.12,2.92-5.73,2.92c-5.54,0-9.19-4-9.19-9.65
				c0-5.19,3.23-9.96,8.54-9.96c2.38,0,4.61,0.65,5.92,2.46h0.08V9.37h5.77V36.28z M165.39,22.2c-2.88,0-4.62,1.92-4.62,4.73
				s1.73,4.73,4.62,4.73s4.62-1.92,4.62-4.73S168.28,22.2,165.39,22.2z"/>
			<path class="st1" d="M188.65,23.09c-0.85-1.04-1.96-1.58-3.35-1.58c-0.96,0-2.12,0.42-2.12,1.54c0,2.77,9.73,0.42,9.73,7.54
				c0,4.77-4.62,6.15-8.62,6.15c-2.62,0-5.5-0.65-7.35-2.54l3.5-3.88c1.08,1.31,2.35,2.04,4.08,2.04c1.31,0,2.62-0.35,2.62-1.35
				c0-3-9.73-0.46-9.73-7.58c0-4.38,3.92-6.31,7.85-6.31c2.46,0,5.19,0.62,6.92,2.46l-3.54,3.5L188.65,23.09z"/>
			<path class="st1" d="M212.34,36.28h-5.54v-2.54h-0.08c-0.77,1.46-2.65,3-5.46,3c-5.85,0-6.92-3.85-6.92-8.85V17.58h5.77v9.15
				c0,2.15,0.04,4.92,3,4.92s3.46-2.35,3.46-4.77v-9.31h5.77v18.69L212.34,36.28z"/>
			<path class="st1" d="M214.56,17.59h5.77v3h0.08c1.23-2.27,2.85-3.46,5.38-3.46c0.65,0,1.38,0.04,1.92,0.19v5.27
				c-0.81-0.23-1.62-0.38-2.46-0.38c-4.38,0-4.92,2.54-4.92,6.27v7.81h-5.77V17.59z"/>
			<path class="st1" d="M246.44,33.05c-1.85,2.35-4.88,3.69-7.88,3.69c-5.77,0-10.38-3.85-10.38-9.81s4.62-9.81,10.38-9.81
				c5.38,0,8.77,3.85,8.77,9.81v1.81h-13.38c0.46,2.19,2.12,3.62,4.35,3.62c1.88,0,3.15-0.96,4.12-2.27l4.04,2.96L246.44,33.05z
				 M241.56,24.82c0.04-1.92-1.46-3.54-3.54-3.54c-2.54,0-3.92,1.73-4.08,3.54H241.56z"/>
		</g>
		<g>
			<path class="st0" d="M75.54,49.25h1.07v6.91h3.63v1.01h-4.71v-7.92H75.54z"/>
			<path class="st0" d="M81.08,53.21c0-2.35,1.71-4.16,4.13-4.16s4.13,1.81,4.13,4.16s-1.71,4.16-4.13,4.16S81.08,55.56,81.08,53.21
				z M88.19,53.21c0-1.73-1.17-3.15-2.99-3.15s-2.99,1.42-2.99,3.15s1.17,3.15,2.99,3.15S88.19,54.94,88.19,53.21z"/>
			<path class="st0" d="M96.61,50.96c-0.45-0.58-1.19-0.91-1.91-0.91c-1.78,0-2.95,1.42-2.95,3.22c0,1.67,1.11,3.09,2.95,3.09
				c0.91,0,1.6-0.4,2.07-1.06l0.91,0.68c-0.24,0.32-1.19,1.39-3,1.39c-2.52,0-4.07-2.1-4.07-4.09c0-2.46,1.69-4.23,4.13-4.23
				c1.04,0,2.14,0.39,2.77,1.23l-0.89,0.68H96.61z"/>
			<path class="st0" d="M101.9,49.25h0.97l3.39,7.92h-1.25l-0.79-1.96h-3.77l-0.78,1.96h-1.25l3.49-7.92H101.9z M103.82,54.27
				l-1.48-3.63h-0.02l-1.5,3.63H103.82z"/>
			<path class="st0" d="M108.37,50.26h-2.55v-1.01h6.17v1.01h-2.55v6.91h-1.07L108.37,50.26z"/>
			<path class="st0" d="M113.58,49.25h1.07v7.92h-1.07V49.25z"/>
			<path class="st0" d="M116.65,53.21c0-2.35,1.71-4.16,4.13-4.16s4.13,1.81,4.13,4.16s-1.71,4.16-4.13,4.16
				S116.65,55.56,116.65,53.21z M123.76,53.21c0-1.73-1.17-3.15-2.99-3.15s-2.99,1.42-2.99,3.15s1.17,3.15,2.99,3.15
				S123.76,54.94,123.76,53.21z"/>
			<path class="st0" d="M126.89,49.25h1.41l4.36,6.51h0.02v-6.51h1.07v7.92h-1.36l-4.41-6.51h-0.02v6.51h-1.07L126.89,49.25
				L126.89,49.25z"/>
			<path class="st0" d="M139.8,49.25h1.07v7.92h-1.07V49.25z"/>
			<path class="st0" d="M143.36,49.25h1.41l4.36,6.51h0.02v-6.51h1.07v7.92h-1.37l-4.41-6.51h-0.02v6.51h-1.07v-7.92H143.36z"/>
			<path class="st0" d="M154.37,50.26h-2.55v-1.01h6.17v1.01h-2.55v6.91h-1.07L154.37,50.26L154.37,50.26z"/>
			<path class="st0" d="M159.58,49.25h5.11v1.01h-4.04v2.36h3.76v1.01h-3.76v2.54h4.24v1.01h-5.31v-7.92L159.58,49.25z"/>
			<path class="st0" d="M166.86,49.25h1.07v6.91h3.63v1.01h-4.71v-7.92H166.86z"/>
			<path class="st0" d="M173.11,49.25h1.07v6.91h3.63v1.01h-4.71v-7.92H173.11z"/>
			<path class="st0" d="M179.37,49.25h1.07v7.92h-1.07V49.25z"/>
			<path class="st0" d="M189.67,52.74v3.9c-0.77,0.47-2.04,0.73-3,0.73c-2.69,0-4.24-1.91-4.24-4.16s1.71-4.16,4.13-4.16
				c1.46,0,2.34,0.39,2.95,1.03l-0.76,0.82c-0.65-0.62-1.4-0.84-2.19-0.84c-1.81,0-2.98,1.42-2.98,3.15s1.33,3.15,3.07,3.15
				c0.75,0,1.46-0.15,1.95-0.41v-2.2h-1.76v-1.01L189.67,52.74L189.67,52.74z"/>
			<path class="st0" d="M192.07,49.25h5.11v1.01h-4.04v2.36h3.76v1.01h-3.76v2.54h4.24v1.01h-5.31v-7.92L192.07,49.25z"/>
			<path class="st0" d="M199.35,49.25h1.41l4.36,6.51h0.02v-6.51h1.07v7.92h-1.36l-4.41-6.51h-0.02v6.51h-1.07V49.25z"/>
			<path class="st0" d="M214,50.96c-0.45-0.58-1.19-0.91-1.91-0.91c-1.78,0-2.95,1.42-2.95,3.22c0,1.67,1.11,3.09,2.95,3.09
				c0.91,0,1.6-0.4,2.07-1.06l0.91,0.68c-0.24,0.32-1.19,1.39-3,1.39c-2.52,0-4.07-2.1-4.07-4.09c0-2.46,1.69-4.23,4.13-4.23
				c1.04,0,2.14,0.39,2.78,1.23l-0.89,0.68H214z"/>
			<path class="st0" d="M216.8,49.25h5.11v1.01h-4.04v2.36h3.76v1.01h-3.76v2.54h4.24v1.01h-5.31v-7.92L216.8,49.25z"/>
		</g>
	</g>
</g>
</svg>
