<?xml version="1.0" encoding="utf-8"?>
<!-- Generator: Adobe Illustrator 24.1.2, SVG Export Plug-In . SVG Version: 6.00 Build 0)  -->
<svg version="1.1" id="Ebene_1" xmlns="http://www.w3.org/2000/svg" xmlns:xlink="http://www.w3.org/1999/xlink" x="0px" y="0px"
	 viewBox="0 0 561.26 198.43" style="enable-background:new 0 0 561.26 198.43;" xml:space="preserve">
<style type="text/css">
	.Grün_x0020_bogenförmig{fill:url(#SVGID_1_);stroke:#FFFFFF;stroke-width:0.25;stroke-miterlimit:1;}
	.st0{fill:#00733B;}
</style>
<linearGradient id="SVGID_1_" gradientUnits="userSpaceOnUse" x1="-17.01" y1="237.7355" x2="-16.3029" y2="237.0284">
	<stop  offset="0" style="stop-color:#259E2E"/>
	<stop  offset="0.9831" style="stop-color:#1C381D"/>
</linearGradient>
<g>
	<path class="st0" d="M357.99,7.21h24.35v106.31c0,18.49-2.09,33.18-6.28,44.06c-4.18,10.88-11.73,19.73-22.65,26.55
		c-10.92,6.82-25.25,10.23-42.99,10.23c-17.24,0-31.34-2.97-42.3-8.91c-10.96-5.94-18.79-14.54-23.47-25.79
		c-4.69-11.25-7.03-26.63-7.03-46.13V7.21h24.35V113.4c0,15.98,1.48,27.76,4.46,35.33c2.97,7.57,8.07,13.41,15.31,17.51
		c7.24,4.1,16.09,6.15,26.55,6.15c17.91,0,30.67-4.06,38.28-12.17c7.61-8.11,11.42-23.72,11.42-46.82V7.21z"/>
	<path class="st0" d="M477.01,191.21V28.93h-55.3V7.21h135.21v21.71h-55.56v162.29H477.01z"/>
	<path class="st0" d="M215.81,109.1c0,6.94-5.62,12.56-12.56,12.56c-6.94,0-12.56-5.62-12.56-12.56c0-6.94,5.62-12.56,12.56-12.56
		C210.18,96.54,215.81,102.16,215.81,109.1z"/>
	<path class="st0" d="M424.99,109.1c0,6.94-5.62,12.56-12.56,12.56s-12.56-5.62-12.56-12.56c0-6.94,5.62-12.56,12.56-12.56
		S424.99,102.16,424.99,109.1z"/>
	<path class="st0" d="M157.85,28.55c-6.11-7.7-14.54-13.7-25.29-18.01c-10.75-4.31-22.78-6.46-36.08-6.46
		c-18.32,0-34.52,3.77-48.57,11.3C33.84,22.9,23.07,34.43,15.58,49.95C8.09,65.47,4.35,82.19,4.35,100.09
		c0,18.07,3.77,34.43,11.3,49.07c7.53,14.64,18.68,25.84,33.45,33.57c14.77,7.74,31.19,11.61,49.26,11.61
		c13.39,0,26.44-2.4,39.16-7.22c12.72-4.81,25.06-11.99,37.03-21.53V97.33l-62.94,0.1v21.61h39.09v34.27
		c-5.19,4.6-12.8,8.93-22.84,12.99c-10.04,4.06-20.33,6.09-30.88,6.09c-12.13,0-23.6-2.68-34.39-8.03
		c-10.79-5.35-19.01-13.56-24.66-24.6c-5.65-11.04-8.47-24.77-8.47-41.17c0-13.3,2.34-25.65,7.03-37.03
		c2.76-6.61,6.63-12.68,11.61-18.2c4.98-5.52,11.53-9.98,19.64-13.37c8.12-3.39,17.74-5.08,28.87-5.08c9.29,0,17.74,1.61,25.35,4.83
		c7.61,3.22,13.47,7.51,17.57,12.86c2.6,3.4,4.93,7.6,6.99,12.61h24.31C167.69,44.42,163.37,35.52,157.85,28.55z"/>
</g>
</svg>
