<?xml version="1.0" encoding="UTF-8" standalone="no"?>
<!-- Created with Inkscape (http://www.inkscape.org/) -->

<svg
   xmlns:dc="http://purl.org/dc/elements/1.1/"
   xmlns:cc="http://creativecommons.org/ns#"
   xmlns:rdf="http://www.w3.org/1999/02/22-rdf-syntax-ns#"
   xmlns:svg="http://www.w3.org/2000/svg"
   xmlns="http://www.w3.org/2000/svg"
   xmlns:sodipodi="http://sodipodi.sourceforge.net/DTD/sodipodi-0.dtd"
   xmlns:inkscape="http://www.inkscape.org/namespaces/inkscape"
   width="210mm"
   height="55mm"
   viewBox="0 0 210 55.000002"
   version="1.1"
   id="svg4576"
   sodipodi:docname="logo.svg"
   inkscape:export-filename="D:\IDROSTUDI\VARIE\logo_800.png"
   inkscape:export-xdpi="97.003807"
   inkscape:export-ydpi="97.003807"
   inkscape:version="0.92.4 (5da689c313, 2019-01-14)">
  <defs
     id="defs4570" />
  <sodipodi:namedview
     id="base"
     pagecolor="#ffffff"
     bordercolor="#666666"
     borderopacity="1.0"
     inkscape:pageopacity="0.0"
     inkscape:pageshadow="2"
     inkscape:zoom="0.98994949"
     inkscape:cx="429.11347"
     inkscape:cy="62.7167"
     inkscape:document-units="mm"
     inkscape:current-layer="layer1"
     showgrid="false"
     fit-margin-top="5"
     fit-margin-left="5"
     fit-margin-right="5"
     fit-margin-bottom="5"
     inkscape:window-width="1920"
     inkscape:window-height="1017"
     inkscape:window-x="-8"
     inkscape:window-y="1072"
     inkscape:window-maximized="1"
     inkscape:pagecheckerboard="true" />
  <metadata
     id="metadata4573">
    <rdf:RDF>
      <cc:Work
         rdf:about="">
        <dc:format>image/svg+xml</dc:format>
        <dc:type
           rdf:resource="http://purl.org/dc/dcmitype/StillImage" />
        <dc:title></dc:title>
      </cc:Work>
    </rdf:RDF>
  </metadata>
  <g
     inkscape:label="Layer 1"
     inkscape:groupmode="layer"
     id="layer1"
     transform="translate(3.3501579,1.7971519)">
    <g
       id="g2258"
       transform="matrix(1.0897935,0,0,1.0897935,-467.93578,-158.05561)">
      <g
         id="g1013">
        <path
           id="path3925"
           d="m 467.509,158.43023 c 0,-0.80403 0.54877,-1.4549 1.35279,-1.4549 h 1.6591 c 0.80402,0 1.35279,0.65087 1.35279,1.4549 v 18.26276 c 0,0.80402 -0.54877,1.4549 -1.35279,1.4549 h -1.6591 c -0.80402,0 -1.35279,-0.65088 -1.35279,-1.4549 z"
           class="fil0"
           inkscape:connector-curvature="0"
           style="clip-rule:evenodd;fill:#6f7273;fill-rule:nonzero;stroke-width:0.01276224;image-rendering:optimizeQuality;shape-rendering:geometricPrecision;text-rendering:geometricPrecision" />
        <path
           id="path3927"
           d="m 467.56005,151.94701 c 0,-0.80402 0.54877,-1.4549 1.35279,-1.4549 h 1.557 c 0.80402,0 1.35279,0.65088 1.35279,1.4549 v 1.50594 c 0,0.80402 -0.54877,1.4549 -1.35279,1.4549 h -1.557 c -0.80402,0 -1.35279,-0.65088 -1.35279,-1.4549 z"
           class="fil0"
           inkscape:connector-curvature="0"
           style="clip-rule:evenodd;fill:#6f7273;fill-rule:nonzero;stroke-width:0.01276224;image-rendering:optimizeQuality;shape-rendering:geometricPrecision;text-rendering:geometricPrecision" />
        <path
           id="path3929"
           d="m 480.62858,166.29177 v 2.68007 c 0,3.80314 0.80402,5.36014 4.16049,5.36014 2.96084,0 4.40297,-1.60805 4.40297,-2.25892 V 161.6846 c -1.1486,-0.39563 -2.45035,-0.70193 -3.80315,-0.70193 -3.75209,0 -4.76031,1.69738 -4.76031,5.3091 z m 4.45402,12.0986 c -6.01101,0 -8.81871,-2.30997 -8.81871,-9.66102 v -1.97814 c 0,-7.21067 1.79948,-10.01836 9.16329,-10.01836 1.2507,0 2.6035,0.20419 3.7521,0.54877 v -5.33461 c 0,-0.80402 0.54878,-1.4549 1.3528,-1.4549 h 1.65909 c 0.80402,0 1.3528,0.65088 1.3528,1.4549 v 24.84808 c 0,0.75297 -0.49773,1.3528 -1.2507,1.3528 h -1.557 c -0.75297,0 -1.19965,-0.34458 -1.2507,-1.09756 -1.1486,0.75298 -2.60349,1.3528 -4.40297,1.3528 z"
           class="fil0"
           inkscape:connector-curvature="0"
           style="clip-rule:evenodd;fill:#6f7273;fill-rule:nonzero;stroke-width:0.01276224;image-rendering:optimizeQuality;shape-rendering:geometricPrecision;text-rendering:geometricPrecision" />
        <path
           id="path3931"
           d="m 497.87037,158.43023 c 0,-0.80403 0.54877,-1.4549 1.35279,-1.4549 h 1.65909 c 0.75298,0 1.19965,0.39563 1.3528,1.1486 1.40385,-0.59982 2.9736,-0.95717 4.78584,-1.16136 0.80402,0 1.40385,0.54877 1.40385,1.3528 v 1.50594 c 0,0.80402 -0.59983,1.3528 -1.40385,1.3528 -1.90157,0.25524 -3.77762,0.56154 -4.78584,1.16136 v 14.35752 c 0,0.80402 -0.54877,1.4549 -1.3528,1.4549 h -1.65909 c -0.80402,0 -1.35279,-0.65088 -1.35279,-1.4549 z"
           class="fil0"
           inkscape:connector-curvature="0"
           style="clip-rule:evenodd;fill:#6f7273;fill-rule:nonzero;stroke-width:0.01276224;image-rendering:optimizeQuality;shape-rendering:geometricPrecision;text-rendering:geometricPrecision" />
        <path
           id="path3933"
           d="m 515.15044,166.54701 v 2.78217 c 0,3.80315 1.1486,5.0028 4.50507,5.0028 3.45857,0 4.60717,-1.2507 4.60717,-5.0028 v -2.78217 c 0,-3.61171 -0.95717,-5.56434 -4.60717,-5.56434 -3.56067,0 -4.50507,1.95263 -4.50507,5.56434 z m -4.35193,2.42483 v -1.87605 c 0,-7.21067 1.60805,-10.36294 8.92081,-10.36294 7.41486,0 8.92081,3.15227 8.92081,10.36294 v 1.87605 c 0,7.31276 -2.96084,9.41853 -8.97186,9.41853 -5.90892,0 -8.86976,-2.10577 -8.86976,-9.41853 z"
           class="fil0"
           inkscape:connector-curvature="0"
           style="clip-rule:evenodd;fill:#6f7273;fill-rule:nonzero;stroke-width:0.01276224;image-rendering:optimizeQuality;shape-rendering:geometricPrecision;text-rendering:geometricPrecision" />
        <path
           id="path3935"
           d="m 557.85289,156.97533 h 2.93532 c 0.80402,0 1.45489,0.54878 1.45489,1.40385 v 1.40384 c 0,0.85507 -0.65087,1.40385 -1.45489,1.40385 h -2.93532 v 10.19703 c 0,2.00367 0,2.96084 1.19965,2.96084 0.75298,0 1.99091,-0.14039 3.24161,-0.39563 0.85507,0 1.30175,0.25524 1.4549,0.75297 l 0.34458,1.55699 c 0,0.80403 -0.25525,1.2507 -1.09755,1.50595 -1.14861,0.34458 -3.24161,0.63811 -3.99458,0.63811 -5.51329,0 -5.51329,-3.30542 -5.51329,-7.10857 v -10.09493 h -0.75297 c -0.80403,0 -1.4549,-0.54877 -1.4549,-1.40384 v -1.40385 c 0,-0.85507 0.65087,-1.40385 1.4549,-1.40385 h 0.75297 v -5.04108 c 0,-0.80402 0.54877,-1.4549 1.35279,-1.4549 h 1.6591 c 0.80402,0 1.35279,0.65088 1.35279,1.4549 v 5.04108 z"
           class="fil0"
           inkscape:connector-curvature="0"
           style="clip-rule:evenodd;fill:#6f7273;fill-rule:nonzero;stroke-width:0.01276224;image-rendering:optimizeQuality;shape-rendering:geometricPrecision;text-rendering:geometricPrecision" />
        <path
           id="path3937"
           d="m 532.49432,175.48058 c 0,-0.15315 0.0511,-0.42116 0.68916,-1.87605 0.26801,-0.6764 0.68916,-0.99546 1.36556,-0.99546 0.26801,0 0.42116,0 0.5743,0.0511 1.63357,0.6764 3.79039,1.2507 5.83235,1.2507 2.25891,0 3.94353,-0.5743 3.94353,-2.1951 0,-3.24161 -12.62186,0.0511 -12.62186,-8.71661 0,-5.38567 4.83689,-6.26626 8.15508,-6.26626 h 0.21695 c 1.93986,0.051 4.6327,0.25524 6.73847,0.82954 l 0.89335,0.25525 c 0.62535,0.15314 0.84231,0.5743 0.89336,1.0465 0,0.15315 0.0511,0.42116 -0.52325,1.9271 -0.15315,0.62535 -0.68916,1.19965 -1.26346,1.2507 -0.15315,0 -0.47221,0 -0.62535,-0.0511 -2.25892,-0.5743 -5.05385,-0.82955 -6.36836,-0.82955 -1.58252,0 -3.52238,0.37011 -3.52238,1.99091 0,4.39021 12.67291,0.1021 12.67291,8.56347 0,5.64091 -5.15595,6.4194 -8.52518,6.4194 -2.52692,0 -5.6792,-0.72744 -7.78497,-1.56975 -0.4722,-0.25525 -0.74021,-0.62535 -0.74021,-1.09755 z"
           class="fil0"
           inkscape:connector-curvature="0"
           style="clip-rule:evenodd;fill:#6f7273;fill-rule:nonzero;stroke-width:0.01276224;image-rendering:optimizeQuality;shape-rendering:geometricPrecision;text-rendering:geometricPrecision" />
        <path
           id="path3939"
           d="m 574.35447,178.39037 c -4.96451,0 -6.3556,-1.90157 -6.3556,-6.76399 v -13.19615 c 0,-0.80403 0.54878,-1.4549 1.3528,-1.4549 h 1.65909 c 0.80402,0 1.3528,0.65087 1.3528,1.4549 v 12.69842 c 0,2.15682 0.39563,3.20333 2.20787,3.20333 1.69738,0 4.50507,-0.49773 6.06206,-1.40385 v -14.4979 c 0,-0.80403 0.54878,-1.4549 1.3528,-1.4549 h 1.65909 c 0.80402,0 1.3528,0.65087 1.3528,1.4549 v 18.3521 c 0,0.75297 -0.49773,1.35279 -1.2507,1.35279 h -1.55699 c -0.75298,0 -1.14861,-0.34458 -1.2507,-1.09755 -1.557,0.65088 -4.16049,1.3528 -6.5598,1.3528 z"
           class="fil0"
           inkscape:connector-curvature="0"
           style="clip-rule:evenodd;fill:#6f7273;fill-rule:nonzero;stroke-width:0.01276224;image-rendering:optimizeQuality;shape-rendering:geometricPrecision;text-rendering:geometricPrecision" />
        <path
           id="path3941"
           d="m 593.22982,166.29177 v 2.68007 c 0,3.80314 0.80402,5.36014 4.16049,5.36014 2.96084,0 4.40298,-1.60805 4.40298,-2.25892 V 161.6846 c -1.14861,-0.39563 -2.45035,-0.70193 -3.80315,-0.70193 -3.7521,0 -4.76032,1.69738 -4.76032,5.3091 z m 4.45402,12.0986 c -6.01101,0 -8.8187,-2.30997 -8.8187,-9.66102 v -1.97814 c 0,-7.21067 1.79947,-10.01836 9.16329,-10.01836 1.25069,0 2.60349,0.20419 3.75209,0.54877 v -5.33461 c 0,-0.80402 0.54878,-1.4549 1.3528,-1.4549 h 1.65909 c 0.80402,0 1.3528,0.65088 1.3528,1.4549 v 24.84808 c 0,0.75297 -0.49773,1.3528 -1.2507,1.3528 h -1.55699 c -0.75298,0 -1.19965,-0.34458 -1.2507,-1.09756 -1.1486,0.75298 -2.6035,1.3528 -4.40298,1.3528 z"
           class="fil0"
           inkscape:connector-curvature="0"
           style="clip-rule:evenodd;fill:#6f7273;fill-rule:nonzero;stroke-width:0.01276224;image-rendering:optimizeQuality;shape-rendering:geometricPrecision;text-rendering:geometricPrecision" />
        <path
           id="path3943"
           d="m 610.06322,158.43023 c 0,-0.80403 0.54877,-1.4549 1.35279,-1.4549 h 1.64633 c 0.80402,0 1.3528,0.65087 1.3528,1.4549 v 18.26276 c 0,0.80402 -0.54878,1.4549 -1.3528,1.4549 h -1.64633 c -0.80402,0 -1.35279,-0.65088 -1.35279,-1.4549 z"
           class="fil0"
           inkscape:connector-curvature="0"
           style="clip-rule:evenodd;fill:#6f7273;fill-rule:nonzero;stroke-width:0.01276224;image-rendering:optimizeQuality;shape-rendering:geometricPrecision;text-rendering:geometricPrecision" />
        <path
           id="path3945"
           d="m 610.11427,151.94701 c 0,-0.80402 0.54877,-1.4549 1.35279,-1.4549 h 1.557 c 0.80402,0 1.35279,0.65088 1.35279,1.4549 v 1.50594 c 0,0.80402 -0.54877,1.4549 -1.35279,1.4549 h -1.557 c -0.80402,0 -1.35279,-0.65088 -1.35279,-1.4549 z"
           class="fil0"
           inkscape:connector-curvature="0"
           style="clip-rule:evenodd;fill:#6f7273;fill-rule:nonzero;stroke-width:0.01276224;image-rendering:optimizeQuality;shape-rendering:geometricPrecision;text-rendering:geometricPrecision" />
      </g>
      <path
         style="clip-rule:evenodd;fill:#0275a9;fill-rule:nonzero;stroke-width:0.01276224;image-rendering:optimizeQuality;shape-rendering:geometricPrecision;text-rendering:geometricPrecision"
         inkscape:connector-curvature="0"
         class="fil1"
         d="m 537.86723,185.8818 c 0,1.04651 -0.35735,1.557 -1.41661,1.557 -0.43392,0 -0.7785,-0.0766 -0.99546,-0.24249 -0.22972,0.12763 -0.59982,0.24249 -0.90612,0.24249 -1.05926,0 -1.42937,-0.51049 -1.42937,-1.557 v -2.47587 c 0,-0.16591 0.11486,-0.30629 0.29353,-0.30629 h 0.35735 c 0.16591,0 0.29353,0.14038 0.29353,0.30629 v 2.38654 c 0,0.45944 0.15315,0.77849 0.52325,0.77849 0.12762,0 0.30629,0 0.45944,-0.0766 -0.0255,-0.16591 -0.0383,-0.3701 -0.0383,-0.61259 v -2.20786 c 0,-0.16591 0.11486,-0.3063 0.29354,-0.3063 h 0.35734 c 0.16591,0 0.29353,0.14039 0.29353,0.3063 v 2.11853 c 0,0.45944 0.14038,0.77849 0.49773,0.77849 0.3701,0 0.49772,-0.31905 0.49772,-0.77849 v -2.38654 c 0,-0.16591 0.11486,-0.30629 0.29354,-0.30629 h 0.35734 c 0.16591,0 0.29353,0.14038 0.29353,0.30629 v 2.47587 z"
         id="path3947" />
      <path
         style="clip-rule:evenodd;fill:#0275a9;fill-rule:nonzero;stroke-width:0.01276224;image-rendering:optimizeQuality;shape-rendering:geometricPrecision;text-rendering:geometricPrecision"
         inkscape:connector-curvature="0"
         class="fil1"
         d="m 541.46618,185.62656 c -0.42116,-0.1021 -0.85507,-0.15315 -1.23794,-0.15315 -0.43392,0 -0.5743,0.22972 -0.5743,0.58707 0,0.38286 0.38287,0.51048 0.7785,0.51048 0.0893,0 0.67639,-0.0638 1.02098,-0.31905 v -0.62535 z m -1.05927,-2.59074 c 1.16137,0 1.99091,0.44668 1.99091,1.58252 v 2.47588 c 0,0.16591 -0.1021,0.29353 -0.26801,0.29353 h -0.34458 c -0.14038,0 -0.24248,-0.1021 -0.268,-0.22972 -0.44668,0.20419 -1.00822,0.29353 -1.11032,0.29353 -0.63811,0 -1.67185,-0.11486 -1.67185,-1.40385 0,-0.98269 0.51049,-1.45489 1.5187,-1.45489 0.51049,0 0.89336,0.0383 1.22518,0.12762 v -0.0638 c 0,-0.51049 -0.53601,-0.68916 -1.05927,-0.68916 -0.33181,0 -0.63811,0.0255 -1.05926,0.14038 -0.16591,0 -0.3063,-0.1021 -0.34458,-0.30629 l -0.0383,-0.24248 c 0,-0.14039 0.0766,-0.24249 0.22972,-0.3063 0.30629,-0.0893 0.81678,-0.19143 1.21241,-0.19143 z"
         id="path3949" />
      <path
         style="clip-rule:evenodd;fill:#0275a9;fill-rule:nonzero;stroke-width:0.01276224;image-rendering:optimizeQuality;shape-rendering:geometricPrecision;text-rendering:geometricPrecision"
         inkscape:connector-curvature="0"
         class="fil1"
         d="m 546.8646,184.86082 h 1.74843 v -0.15314 c 0,-0.51049 -0.22972,-0.76574 -0.86783,-0.76574 -0.66364,0 -0.84231,0.24249 -0.8806,0.91888 z m 0.99546,2.57798 c -1.58252,0 -1.9271,-0.6764 -1.9271,-2.22063 v -0.16591 c 0,-1.58252 0.58706,-2.01644 1.87605,-2.01644 1.40385,0 1.73567,0.71469 1.73567,1.825 v 0.57431 c 0,0.1659 -0.1021,0.29353 -0.26801,0.29353 h -2.3993 c 0.0766,0.54877 0.31905,0.8423 0.96993,0.8423 0.38286,0 0.77849,-0.0255 1.1486,-0.14038 0.0383,0 0.0383,-0.0128 0.0766,-0.0128 0.14039,0 0.24248,0.0766 0.3063,0.24248 l 0.0766,0.24248 v 0.0766 c 0,0.10209 -0.0511,0.19143 -0.15315,0.25524 -0.30629,0.0893 -0.86783,0.21696 -1.44213,0.21696 z"
         id="path3951" />
      <path
         style="clip-rule:evenodd;fill:#0275a9;fill-rule:nonzero;stroke-width:0.01276224;image-rendering:optimizeQuality;shape-rendering:geometricPrecision;text-rendering:geometricPrecision"
         inkscape:connector-curvature="0"
         class="fil1"
         d="m 556.30866,186.40506 c 0.14039,0 0.22972,0.0638 0.34458,0.43391 0.0128,0.0255 0.0255,0.0638 0.0255,0.11486 0,0.12762 -0.11486,0.22972 -0.2042,0.26801 -0.33182,0.0893 -0.91888,0.20419 -1.45489,0.20419 -1.58252,0 -1.91434,-0.67639 -1.91434,-2.22063 0,-1.50594 0.34458,-2.18234 1.91434,-2.18234 0.54877,0 1.13584,0.14039 1.46765,0.24248 0.0893,0.0383 0.2042,0.14039 0.2042,0.26801 0,0.0511 -0.0128,0.1021 -0.0255,0.11486 -0.11486,0.37011 -0.2042,0.43392 -0.34459,0.43392 -0.051,0 -0.10209,-0.0128 -0.12762,-0.0255 -0.39563,-0.11486 -0.82954,-0.12762 -1.19965,-0.12762 -0.77849,0 -0.95717,0.42115 -0.95717,1.18689 v 0.19143 c 0,0.7785 0.16591,1.23794 0.95717,1.23794 0.37011,0 0.79126,-0.0255 1.18689,-0.14038 0.0383,-0.0128 0.0766,-0.0255 0.12762,-0.0255 z"
         id="path3953" />
      <path
         style="clip-rule:evenodd;fill:#0275a9;fill-rule:nonzero;stroke-width:0.01276224;image-rendering:optimizeQuality;shape-rendering:geometricPrecision;text-rendering:geometricPrecision"
         inkscape:connector-curvature="0"
         class="fil1"
         d="m 559.95866,185.62656 c -0.42115,-0.1021 -0.85507,-0.15315 -1.23793,-0.15315 -0.43392,0 -0.5743,0.22972 -0.5743,0.58707 0,0.38286 0.38286,0.51048 0.77849,0.51048 0.0893,0 0.6764,-0.0638 1.02098,-0.31905 v -0.62535 z m -1.05926,-2.59074 c 1.16136,0 1.99091,0.44668 1.99091,1.58252 v 2.47588 c 0,0.16591 -0.1021,0.29353 -0.26801,0.29353 h -0.34458 c -0.14039,0 -0.24248,-0.1021 -0.26801,-0.22972 -0.44668,0.20419 -1.00821,0.29353 -1.11031,0.29353 -0.63811,0 -1.67186,-0.11486 -1.67186,-1.40385 0,-0.98269 0.51049,-1.45489 1.51871,-1.45489 0.51049,0 0.89336,0.0383 1.22518,0.12762 v -0.0638 c 0,-0.51049 -0.53602,-0.68916 -1.05927,-0.68916 -0.33182,0 -0.63811,0.0255 -1.05927,0.14038 -0.16591,0 -0.30629,-0.1021 -0.34458,-0.30629 l -0.0383,-0.24248 c 0,-0.14039 0.0766,-0.24249 0.22972,-0.3063 0.30629,-0.0893 0.81678,-0.19143 1.21241,-0.19143 z"
         id="path3955" />
      <path
         style="clip-rule:evenodd;fill:#0275a9;fill-rule:nonzero;stroke-width:0.01276224;image-rendering:optimizeQuality;shape-rendering:geometricPrecision;text-rendering:geometricPrecision"
         inkscape:connector-curvature="0"
         class="fil1"
         d="m 565.14013,184.86082 h 1.74843 v -0.15314 c 0,-0.51049 -0.22972,-0.76574 -0.86783,-0.76574 -0.66364,0 -0.84231,0.24249 -0.8806,0.91888 z m 0.99546,2.57798 c -1.58252,0 -1.9271,-0.6764 -1.9271,-2.22063 v -0.16591 c 0,-1.58252 0.58706,-2.01644 1.87605,-2.01644 1.40384,0 1.73566,0.71469 1.73566,1.825 v 0.57431 c 0,0.1659 -0.10209,0.29353 -0.268,0.29353 h -2.39931 c 0.0766,0.54877 0.31906,0.8423 0.96994,0.8423 0.38286,0 0.77849,-0.0255 1.1486,-0.14038 0.0383,0 0.0383,-0.0128 0.0766,-0.0128 0.14038,0 0.24248,0.0766 0.30629,0.24248 l 0.0766,0.24248 v 0.0766 c 0,0.10209 -0.0511,0.19143 -0.15315,0.25524 -0.30629,0.0893 -0.86783,0.21696 -1.44213,0.21696 z"
         id="path3957" />
      <path
         style="clip-rule:evenodd;fill:#0275a9;fill-rule:nonzero;stroke-width:0.01276224;image-rendering:optimizeQuality;shape-rendering:geometricPrecision;text-rendering:geometricPrecision"
         inkscape:connector-curvature="0"
         class="fil1"
         d="m 573.26968,184.86082 h 1.74843 v -0.15314 c 0,-0.51049 -0.22972,-0.76574 -0.86784,-0.76574 -0.66363,0 -0.8423,0.24249 -0.88059,0.91888 z m 0.99545,2.57798 c -1.58251,0 -1.92709,-0.6764 -1.92709,-2.22063 v -0.16591 c 0,-1.58252 0.58706,-2.01644 1.87605,-2.01644 1.40384,0 1.73566,0.71469 1.73566,1.825 v 0.57431 c 0,0.1659 -0.1021,0.29353 -0.26801,0.29353 h -2.3993 c 0.0766,0.54877 0.31906,0.8423 0.96993,0.8423 0.38287,0 0.7785,-0.0255 1.1486,-0.14038 0.0383,0 0.0383,-0.0128 0.0766,-0.0128 0.14038,0 0.24248,0.0766 0.30629,0.24248 l 0.0766,0.24248 v 0.0766 c 0,0.10209 -0.051,0.19143 -0.15314,0.25524 -0.3063,0.0893 -0.86784,0.21696 -1.44214,0.21696 z"
         id="path3959" />
      <path
         style="clip-rule:evenodd;fill:#0275a9;fill-rule:nonzero;stroke-width:0.01276224;image-rendering:optimizeQuality;shape-rendering:geometricPrecision;text-rendering:geometricPrecision"
         inkscape:connector-curvature="0"
         class="fil1"
         d="m 580.46758,187.08145 c 0,0.16591 -0.11486,0.3063 -0.29353,0.3063 h -0.35734 c -0.16591,0 -0.29353,-0.14039 -0.29353,-0.3063 v -2.45035 c 0,-0.45944 -0.0766,-0.67639 -0.47221,-0.67639 -0.3701,0 -0.86783,0.11486 -1.2507,0.30629 v 2.82045 c 0,0.16591 -0.11486,0.3063 -0.29353,0.3063 h -0.3701 c -0.16591,0 -0.29353,-0.14039 -0.29353,-0.3063 v -3.71381 c 0,-0.16591 0.10209,-0.268 0.24248,-0.268 h 0.38287 c 0.16591,0 0.21695,0.0893 0.24248,0.24248 0.33182,-0.11486 0.84231,-0.3063 1.3528,-0.3063 1.05926,0 1.36556,0.4084 1.36556,1.44214 v 2.60349 z"
         id="path3961" />
      <path
         style="clip-rule:evenodd;fill:#0275a9;fill-rule:nonzero;stroke-width:0.01276224;image-rendering:optimizeQuality;shape-rendering:geometricPrecision;text-rendering:geometricPrecision"
         inkscape:connector-curvature="0"
         class="fil1"
         d="m 584.01549,184.32481 c 0,-0.11486 -0.31906,-0.3701 -0.95717,-0.3701 -0.71469,0 -0.91888,0.33181 -0.91888,1.16136 v 0.29353 c 0,0.80402 0.24248,1.17413 1.0465,1.17413 0.30629,0 0.5743,-0.0638 0.82955,-0.16591 v -2.08025 z m 0.63811,-1.23794 c 0.17867,0 0.30629,0.15315 0.30629,0.31906 v 3.99458 c 0,1.4549 -0.39563,1.86329 -1.90157,1.86329 -0.37011,0 -0.80402,-0.0511 -1.31451,-0.14039 -0.16591,-0.0383 -0.24249,-0.12762 -0.24249,-0.28077 l 0.0383,-0.29353 c 0.0383,-0.20419 0.15315,-0.30629 0.35734,-0.30629 0.3063,0.0511 0.7785,0.14038 1.16137,0.14038 0.76573,0 0.96993,-0.17867 0.96993,-0.9444 v -0.15315 c -0.25525,0.11486 -0.56154,0.15315 -0.80402,0.15315 -1.59528,0 -1.99091,-0.59983 -1.99091,-2.1313 v -0.16591 c 0,-1.59528 0.5743,-2.10577 1.86328,-2.10577 0.37011,0 0.70193,0.1021 0.94441,0.24249 0.0383,-0.12763 0.12762,-0.19144 0.26801,-0.19144 h 0.35734 z"
         id="path3963" />
      <path
         style="clip-rule:evenodd;fill:#0275a9;fill-rule:nonzero;stroke-width:0.01276224;image-rendering:optimizeQuality;shape-rendering:geometricPrecision;text-rendering:geometricPrecision"
         inkscape:connector-curvature="0"
         class="fil1"
         d="m 591.62178,187.08145 c 0,0.16591 -0.11486,0.3063 -0.29353,0.3063 h -0.35734 c -0.16591,0 -0.29354,-0.14039 -0.29354,-0.3063 v -2.45035 c 0,-0.45944 -0.0766,-0.67639 -0.4722,-0.67639 -0.3701,0 -0.86783,0.11486 -1.2507,0.30629 v 2.82045 c 0,0.16591 -0.11486,0.3063 -0.29353,0.3063 h -0.3701 c -0.16591,0 -0.29354,-0.14039 -0.29354,-0.3063 v -3.71381 c 0,-0.16591 0.1021,-0.268 0.24249,-0.268 h 0.38286 c 0.16591,0 0.21696,0.0893 0.24249,0.24248 0.33181,-0.11486 0.8423,-0.3063 1.35279,-0.3063 1.05927,0 1.36556,0.4084 1.36556,1.44214 v 2.60349 z"
         id="path3965" />
      <path
         style="clip-rule:evenodd;fill:#0275a9;fill-rule:nonzero;stroke-width:0.01276224;image-rendering:optimizeQuality;shape-rendering:geometricPrecision;text-rendering:geometricPrecision"
         inkscape:connector-curvature="0"
         class="fil1"
         d="m 593.42126,184.86082 h 1.74842 v -0.15314 c 0,-0.51049 -0.22972,-0.76574 -0.86783,-0.76574 -0.66364,0 -0.84231,0.24249 -0.88059,0.91888 z m 0.99545,2.57798 c -1.58252,0 -1.9271,-0.6764 -1.9271,-2.22063 v -0.16591 c 0,-1.58252 0.58707,-2.01644 1.87605,-2.01644 1.40385,0 1.73567,0.71469 1.73567,1.825 v 0.57431 c 0,0.1659 -0.1021,0.29353 -0.26801,0.29353 h -2.3993 c 0.0766,0.54877 0.31905,0.8423 0.96993,0.8423 0.38287,0 0.7785,-0.0255 1.1486,-0.14038 0.0383,0 0.0383,-0.0128 0.0766,-0.0128 0.14039,0 0.24249,0.0766 0.3063,0.24248 l 0.0766,0.24248 v 0.0766 c 0,0.10209 -0.051,0.19143 -0.15315,0.25524 -0.30629,0.0893 -0.86783,0.21696 -1.44213,0.21696 z"
         id="path3967" />
      <path
         style="clip-rule:evenodd;fill:#0275a9;fill-rule:nonzero;stroke-width:0.01276224;image-rendering:optimizeQuality;shape-rendering:geometricPrecision;text-rendering:geometricPrecision"
         inkscape:connector-curvature="0"
         class="fil1"
         d="m 597.83699,184.86082 h 1.74843 v -0.15314 c 0,-0.51049 -0.22972,-0.76574 -0.86783,-0.76574 -0.66364,0 -0.84231,0.24249 -0.8806,0.91888 z m 0.99546,2.57798 c -1.58252,0 -1.9271,-0.6764 -1.9271,-2.22063 v -0.16591 c 0,-1.58252 0.58706,-2.01644 1.87605,-2.01644 1.40384,0 1.73566,0.71469 1.73566,1.825 v 0.57431 c 0,0.1659 -0.1021,0.29353 -0.26801,0.29353 h -2.3993 c 0.0766,0.54877 0.31906,0.8423 0.96993,0.8423 0.38287,0 0.7785,-0.0255 1.14861,-0.14038 0.0383,0 0.0383,-0.0128 0.0766,-0.0128 0.14038,0 0.22972,0.0766 0.30629,0.24248 l 0.0766,0.24248 v 0.0766 c 0,0.10209 -0.0511,0.19143 -0.15315,0.25524 -0.30629,0.0893 -0.86783,0.21696 -1.44213,0.21696 z"
         id="path3969" />
      <path
         style="clip-rule:evenodd;fill:#0275a9;fill-rule:nonzero;stroke-width:0.01276224;image-rendering:optimizeQuality;shape-rendering:geometricPrecision;text-rendering:geometricPrecision"
         inkscape:connector-curvature="0"
         class="fil1"
         d="m 609.66759,187.08145 c 0,0.16591 -0.11486,0.3063 -0.29353,0.3063 h -0.35735 c -0.16591,0 -0.29353,-0.14039 -0.29353,-0.3063 v -2.45035 c 0,-0.45944 -0.0766,-0.67639 -0.4722,-0.67639 -0.37011,0 -0.86783,0.11486 -1.2507,0.30629 v 2.82045 c 0,0.16591 -0.11486,0.3063 -0.29353,0.3063 h -0.37011 c -0.16591,0 -0.29353,-0.14039 -0.29353,-0.3063 v -3.71381 c 0,-0.16591 0.1021,-0.268 0.24248,-0.268 h 0.38287 c 0.16591,0 0.21696,0.0893 0.24248,0.24248 0.33182,-0.11486 0.84231,-0.3063 1.3528,-0.3063 1.05927,0 1.36556,0.4084 1.36556,1.44214 v 2.60349 z"
         id="path3971" />
      <path
         style="clip-rule:evenodd;fill:#0275a9;fill-rule:nonzero;stroke-width:0.01276224;image-rendering:optimizeQuality;shape-rendering:geometricPrecision;text-rendering:geometricPrecision"
         inkscape:connector-curvature="0"
         class="fil1"
         d="m 613.21549,184.32481 c 0,-0.11486 -0.31906,-0.3701 -0.95717,-0.3701 -0.71468,0 -0.91888,0.33181 -0.91888,1.16136 v 0.29353 c 0,0.80402 0.22972,1.17413 1.04651,1.17413 0.30629,0 0.5743,-0.0638 0.82954,-0.16591 v -2.08025 z m 0.63811,-1.23794 c 0.17867,0 0.29353,0.15315 0.29353,0.31906 v 3.99458 c 0,1.4549 -0.39563,1.86329 -1.90157,1.86329 -0.3701,0 -0.80402,-0.0511 -1.31451,-0.14039 -0.16591,-0.0383 -0.24248,-0.12762 -0.24248,-0.28077 l 0.0383,-0.29353 c 0.0383,-0.20419 0.15315,-0.30629 0.35735,-0.30629 0.30629,0.0511 0.77849,0.14038 1.16136,0.14038 0.76573,0 0.96993,-0.17867 0.96993,-0.9444 v -0.15315 c -0.25524,0.11486 -0.56154,0.15315 -0.80402,0.15315 -1.59528,0 -1.99091,-0.59983 -1.99091,-2.1313 v -0.16591 c 0,-1.59528 0.5743,-2.10577 1.86329,-2.10577 0.3701,0 0.70192,0.1021 0.9444,0.24249 0.0383,-0.12763 0.12763,-0.19144 0.26801,-0.19144 z"
         id="path3973" />
      <path
         style="clip-rule:evenodd;fill:#0275a9;fill-rule:nonzero;stroke-width:0.01276224;image-rendering:optimizeQuality;shape-rendering:geometricPrecision;text-rendering:geometricPrecision"
         inkscape:connector-curvature="0"
         class="fil1"
         d="m 586.04468,183.3804 c 0,-0.1659 0.11486,-0.29353 0.28077,-0.29353 h 0.34458 c 0.16591,0 0.28077,0.12763 0.28077,0.29353 v 3.73934 c 0,0.16591 -0.11486,0.29353 -0.28077,0.29353 h -0.34458 c -0.16591,0 -0.28077,-0.12762 -0.28077,-0.29353 z"
         id="path3975" />
      <path
         style="clip-rule:evenodd;fill:#0275a9;fill-rule:nonzero;stroke-width:0.01276224;image-rendering:optimizeQuality;shape-rendering:geometricPrecision;text-rendering:geometricPrecision"
         inkscape:connector-curvature="0"
         class="fil1"
         d="m 586.07021,182.05313 c 0,-0.16591 0.11486,-0.29353 0.28077,-0.29353 h 0.31905 c 0.16591,0 0.28077,0.12762 0.28077,0.29353 v 0.3063 c 0,0.1659 -0.11486,0.29353 -0.28077,0.29353 h -0.31905 c -0.16591,0 -0.28077,-0.12763 -0.28077,-0.29353 z"
         id="path3977" />
      <path
         style="clip-rule:evenodd;fill:#0275a9;fill-rule:nonzero;stroke-width:0.01276224;image-rendering:optimizeQuality;shape-rendering:geometricPrecision;text-rendering:geometricPrecision"
         inkscape:connector-curvature="0"
         class="fil1"
         d="m 604.32021,183.3804 c 0,-0.1659 0.11486,-0.29353 0.28077,-0.29353 h 0.34458 c 0.16591,0 0.28077,0.12763 0.28077,0.29353 v 3.73934 c 0,0.16591 -0.11486,0.29353 -0.28077,0.29353 h -0.34458 c -0.16591,0 -0.28077,-0.12762 -0.28077,-0.29353 z"
         id="path3979" />
      <path
         style="clip-rule:evenodd;fill:#0275a9;fill-rule:nonzero;stroke-width:0.01276224;image-rendering:optimizeQuality;shape-rendering:geometricPrecision;text-rendering:geometricPrecision"
         inkscape:connector-curvature="0"
         class="fil1"
         d="m 604.34573,182.05313 c 0,-0.16591 0.11486,-0.29353 0.28077,-0.29353 h 0.31906 c 0.16591,0 0.28077,0.12762 0.28077,0.29353 v 0.3063 c 0,0.1659 -0.11486,0.29353 -0.28077,0.29353 h -0.31906 c -0.16591,0 -0.28077,-0.12763 -0.28077,-0.29353 z"
         id="path3981" />
      <path
         style="clip-rule:evenodd;fill:#0275a9;fill-rule:nonzero;stroke-width:0.01276224;image-rendering:optimizeQuality;shape-rendering:geometricPrecision;text-rendering:geometricPrecision"
         inkscape:connector-curvature="0"
         class="fil1"
         d="m 544.33768,183.12516 h 0.58706 c 0.16591,0 0.29354,0.11486 0.29354,0.28077 v 0.28077 c 0,0.16591 -0.12763,0.28077 -0.29354,0.28077 h -0.58706 v 2.02919 c 0,0.39563 0,0.58707 0.24248,0.58707 0.15315,0 0.39563,-0.0255 0.65088,-0.0766 0.16591,0 0.25524,0.0511 0.29353,0.15315 l 0.0638,0.30629 c 0,0.16591 -0.0511,0.25525 -0.21696,0.29354 -0.22972,0.0638 -0.65087,0.12762 -0.79126,0.12762 -1.09755,0 -1.09755,-0.66364 -1.09755,-1.41661 v -2.01643 h -0.15315 c -0.1659,0 -0.29353,-0.11486 -0.29353,-0.28077 v -0.28077 c 0,-0.16591 0.12763,-0.28077 0.29353,-0.28077 h 0.15315 v -1.00822 c 0,-0.16591 0.11486,-0.29353 0.26801,-0.29353 h 0.33182 c 0.16591,0 0.268,0.12762 0.268,0.29353 v 1.00822 z"
         id="path3983" />
      <path
         style="clip-rule:evenodd;fill:#0275a9;fill-rule:nonzero;stroke-width:0.01276224;image-rendering:optimizeQuality;shape-rendering:geometricPrecision;text-rendering:geometricPrecision"
         inkscape:connector-curvature="0"
         class="fil1"
         d="m 561.92405,183.36764 c 0,-0.16591 0.11486,-0.29353 0.28077,-0.29353 h 0.33182 c 0.15314,0 0.24248,0.0766 0.28076,0.22972 0.28077,-0.12762 0.61259,-0.19143 0.96994,-0.24248 0.1659,0 0.28076,0.11486 0.28076,0.28077 v 0.30629 c 0,0.16591 -0.12762,0.28077 -0.28076,0.28077 -0.38287,0.0511 -0.76574,0.11486 -0.96994,0.24248 v 2.92256 c 0,0.16591 -0.11486,0.29353 -0.28076,0.29353 h -0.33182 c -0.16591,0 -0.28077,-0.12762 -0.28077,-0.29353 z"
         id="path3985" />
      <path
         style="clip-rule:evenodd;fill:#0275a9;fill-rule:nonzero;stroke-width:0.01276224;image-rendering:optimizeQuality;shape-rendering:geometricPrecision;text-rendering:geometricPrecision"
         inkscape:connector-curvature="0"
         class="fil1"
         d="m 601.43594,183.36764 c 0,-0.16591 0.11486,-0.29353 0.28077,-0.29353 h 0.33182 c 0.15315,0 0.24248,0.0766 0.28077,0.22972 0.28077,-0.12762 0.61259,-0.19143 0.96993,-0.24248 0.16591,0 0.28077,0.11486 0.28077,0.28077 v 0.30629 c 0,0.16591 -0.12762,0.28077 -0.28077,0.28077 -0.38287,0.0511 -0.76573,0.11486 -0.96993,0.24248 v 2.92256 c 0,0.16591 -0.11486,0.29353 -0.28077,0.29353 h -0.33182 c -0.16591,0 -0.28077,-0.12762 -0.28077,-0.29353 z"
         id="path3987" />
      <path
         style="clip-rule:evenodd;fill:#0275a9;fill-rule:nonzero;stroke-width:0.01276224;image-rendering:optimizeQuality;shape-rendering:geometricPrecision;text-rendering:geometricPrecision"
         inkscape:connector-curvature="0"
         class="fil1"
         d="m 550.45079,183.36764 c 0,-0.16591 0.11486,-0.29353 0.28077,-0.29353 h 0.33182 c 0.15315,0 0.24248,0.0766 0.28077,0.22972 0.28077,-0.12762 0.61259,-0.19143 0.96993,-0.24248 0.16591,0 0.28077,0.11486 0.28077,0.28077 v 0.30629 c 0,0.16591 -0.12762,0.28077 -0.28077,0.28077 -0.38287,0.0511 -0.76573,0.11486 -0.96993,0.24248 v 2.92256 c 0,0.16591 -0.11486,0.29353 -0.28077,0.29353 h -0.33182 c -0.16591,0 -0.28077,-0.12762 -0.28077,-0.29353 z"
         id="path3989" />
      <path
         style="clip-rule:evenodd;fill:#0275a9;fill-rule:nonzero;stroke-width:0.01276224;image-rendering:optimizeQuality;shape-rendering:geometricPrecision;text-rendering:geometricPrecision"
         inkscape:connector-curvature="0"
         class="fil1"
         d="m 442.54606,180.85348 h -11.65193 v -30.31032 h 11.65193 c 0,0 -6.84057,7.82325 0,15.28916 6.92989,7.56801 0,15.02116 0,15.02116 z"
         id="path3991" />
      <path
         style="clip-rule:evenodd;fill:#6ba434;fill-rule:nonzero;stroke-width:0.01276224;image-rendering:optimizeQuality;shape-rendering:geometricPrecision;text-rendering:geometricPrecision"
         inkscape:connector-curvature="0"
         class="fil2"
         d="m 457.15882,148.029 v 30.31032 h -9.06119 c 0,0 4.00734,-7.82325 -2.83322,-15.28916 -6.91713,-7.55525 -0.0255,-14.99564 0,-15.02116 z"
         id="path3993" />
    </g>
  </g>
</svg>
