<?xml version="1.0" encoding="UTF-8"?>
<svg version="1.1" viewBox="0 0 596.26 79.3" xmlns="http://www.w3.org/2000/svg">
<defs><style>.col-1{fill:#7d96b4;}</style></defs>
<rect class="col-1" y=".76" width="14.01" height="13.48"/>
<rect class="col-1" x=".42" y="22.33" width="13.28" height="55.42"/>
<path class="col-1" d="M56.41,21.22c-6.34,0-12.88,2.64-16.16,8.45l-1-7.08H28.21v54.9h13.2V55.11c0-4.65-.1-10.35,1.8-14.68,1.79-4,4.86-7,9.51-7,7,0,9.08,3.9,9.08,10.34V77.49H75V40.86C75,29.45,68.14,21.22,56.41,21.22Z"/>
<path class="col-1" d="M93.38,17.31v5.28h-9.3V33.47h9.3v44h13.2v-44h14.68V22.59H106.58V17.53c0-3.91,2.43-6.66,7.18-6.66a42,42,0,0,1,8.66.85V1.16A45.23,45.23,0,0,0,112.07,0C100.24,0,93.38,7.18,93.38,17.31Z"/>
<path class="col-1" d="M143,30.83l-1.16-8.24H130.66v54.9H144V49.83c0-8.87,4.85-15.52,14.15-15.52a22,22,0,0,1,4.54.53V22.17a27.13,27.13,0,0,0-4.12-.32C152.1,21.85,145.55,24.49,143,30.83Z"/>
<path class="col-1" d="m214.41 63.87v-20.38c0-3.69-0.21-7.59-1.59-11.08-3.16-8.23-11.19-11.19-20.59-11.19-12.26 0-22.08 5.49-22.81 17.84h12.77c0.32-5.07 3.91-7.81 10-7.81 7.5 0 9.29 3.48 9.29 8.65v3.39l-16.16 1.16c-10.45 0.74-18.59 6.75-18.59 17.2 0 9 6.76 17.21 19.86 17.21 7.82 0 14.16-3.8 16.69-8.23 0.42 4.11 3.59 7.7 9.29 7.7a13.48 13.48 0 0 0 6.55-1.47v-9.72a8 8 0 0 1-1.69 0.21c-2.18 0-3.02-0.95-3.02-3.48zm-12.89-8.23c0 8.12-5.81 12.56-14.05 12.56-4.11 0-7.81-2.64-7.81-6.86 0-4.43 3.91-6.87 7.92-7.18l13.94-1.06z"/>
<path class="col-1" d="m316.72 79.23c-16.15 0-27.21-11.92-27.21-28.94s11.06-29.07 27.21-29.07 27.2 11.93 27.2 29.07-11.05 28.94-27.2 28.94zm0-47.78c-9 0-13.9 7.72-13.9 18.45s4.92 18.3 13.9 18.3 13.9-7.72 13.9-18.3-4.92-18.45-13.9-18.45z"/>
<path class="col-1" d="m381.77 21.22c-6.34 0-12.89 2.64-16.16 8.45l-0.95-7.08h-11.1v54.9h13.21v-22.38c0-4.65-0.11-10.35 1.79-14.68 1.8-4 4.86-7 9.51-7 7 0 9.08 3.9 9.08 10.34v33.72h13.2v-36.63c0-11.41-6.86-19.64-18.58-19.64z" />
<path class="col-1" d="m443.66 45c-5.4-0.84-6.76-0.95-11.73-1.58-3-0.42-6.34-1.58-6.34-5.49a6.3 6.3 0 0 1 4.23-5.81 13.72 13.72 0 0 1 5.7-0.84 10.62 10.62 0 0 1 7.18 2.53 7.53 7.53 0 0 1 2.22 5.19h12.57a17.07 17.07 0 0 0-4.86-11.3c-4-4.33-10.67-6.44-17.21-6.44-6.87 0-12.68 2-16.69 5.49a15.6 15.6 0 0 0-5.6 12.35c0 7 5.07 13.09 12.57 14.68 4.86 1 10.35 1.37 15.21 2.11 3.38 0.52 5.49 2.64 5.49 5.8 0 6-6.76 7-11.2 7-3.8 0-6.23-0.74-8.34-2.43a8.83 8.83 0 0 1-3-6.44h-12.32a18.2 18.2 0 0 0 5.81 12.78c4.54 4.33 10.78 6.33 17.75 6.33 7.5 0 14.36-1.9 18.8-6.33a16.35 16.35 0 0 0 4.75-12c0-8.76-6.34-14.26-14.99-15.6z"/>
<path class="col-1" d="M503.64,51.62c0,4.44-.84,9.4-4,12.36a9.12,9.12,0,0,1-6.76,2.74c-7,0-9.51-4-9.51-10.45V22.59h-13.2V59.23c0,11.71,7.29,19.63,19,19.63,7,0,13.1-3.17,15.73-8.55l1,7.18h11V22.59h-13.2Z"/>
<path class="col-1" d="m546.31 61.13v-60h-13.31v62.21c0 10.45 6 14.78 15 14.78a21.85 21.85 0 0 0 5.81-0.74v-11.08c-0.74 0-1.06 0.1-2.22 0.1-4.54 0-5.28-2.11-5.28-5.27z"/>
<path class="col-1" d="M587.71,66.19c-4.23,0-6.13-1.79-6.13-6V33.47h13.84V22.59H581.58V5.38l-13.2,3.28V22.59h-10V33.47h10V61.34c0,10.55,5.49,16.89,16.58,16.89a44.79,44.79,0,0,0,11.3-1.48V65.66A64.55,64.55,0,0,1,587.71,66.19Z"/>
<path class="col-1" d="m254.1 64.78z"/>
<rect class="col-1" x="226.52" y="31.6" width="13.95" height="14.05"/>
<path class="col-1" d="m240.61 55h-14.09c1.16 13.27 13 24.42 27 24.35a27.22 27.22 0 0 0 27-24.35h-14.03c-3.15 14.08-22.85 13.32-25.88 0z"/>
<path class="col-1" d="m253.55 21.22v13.9a13 13 0 0 1 12.84 10.53h14.19a27 27 0 0 0-27.03-24.43z"/>
</svg>
