<?xml version="1.0" encoding="UTF-8"?><svg id="Ebene_1" xmlns="http://www.w3.org/2000/svg" xmlns:xlink="http://www.w3.org/1999/xlink" viewBox="0 0 333.39 305.13"><defs><style>.cls-1{clip-path:url(#clippath);}.cls-2{fill:none;}.cls-2,.cls-3,.cls-4,.cls-5{stroke-width:0px;}.cls-3{fill:url(#Unbenannter_Verlauf_40);}.cls-4{fill:#1d3f81;}.cls-5{fill:#ffdc04;}</style><linearGradient id="Unbenannter_Verlauf_40" x1="190.35" y1="51.55" x2="37.16" y2="252.73" gradientUnits="userSpaceOnUse"><stop offset="0" stop-color="#1d3f81"/><stop offset="1" stop-color="#94a8d7"/></linearGradient><clipPath id="clippath"><circle class="cls-2" cx="158.91" cy="92.84" r="92.84"/></clipPath></defs><circle class="cls-3" cx="158.91" cy="92.84" r="92.84"/><circle class="cls-5" cx="128.71" cy="56.83" r="25.79"/><g class="cls-1"><polygon class="cls-5" points="84.23 147.63 230.87 35.04 172.49 225.46 120.37 225.46 230.87 35.04 84.23 201.83 84.23 147.63"/></g><path class="cls-4" d="m6.82,247.4H0v-36.7h6.82v36.7Z"/><path class="cls-4" d="m20.82,220.97v4.25c1.94-2.78,4.77-4.67,8.18-4.67,4.72,0,8.13,2.67,8.13,7.97v18.88h-6.5v-16.93c0-3.15-1.57-4.35-3.77-4.35-3.15,0-6.03,3.77-6.03,10.75v10.54h-6.5v-26.42h6.5Z"/><path class="cls-4" d="m54.69,220.55c1.78,0,3.41.42,4.88,1.15l4.98-2.62,2.57,4.3-3.78,1.89c.68,1.21,1.05,2.62,1.05,4.19,0,5.56-4.35,8.81-9.7,8.81-1.36,0-2.67-.21-3.83-.58-.79.47-1.26,1.15-1.26,1.99,0,1.26.89,1.94,2.46,1.94h5.4c5.56,0,9.28,2.67,9.28,7.76,0,6.5-6.13,9.12-12.01,9.12-6.76,0-11.95-2.94-11.95-8.7,0-2.15.79-3.98,2.15-5.24-.84-1-1.36-2.41-1.36-4.09,0-2.52,1.31-4.4,3.25-5.56-1.15-1.42-1.83-3.25-1.83-5.45,0-5.5,4.35-8.91,9.7-8.91Zm-2.25,26.53c-1.1,0-2.1-.05-3.04-.21-.42.63-.58,1.42-.58,2.41,0,2.52,2.52,3.77,5.92,3.77,3.09,0,5.51-.89,5.51-3.25,0-2.2-1.78-2.73-4.25-2.73h-3.57Zm2.25-14.05c2.1,0,3.62-1.42,3.62-3.57s-1.52-3.67-3.62-3.67-3.62,1.47-3.62,3.67,1.52,3.57,3.62,3.57Z"/><path class="cls-4" d="m94.91,236.28h-18.19c.16,2.94,2.2,5.98,6.24,5.98,2.99,0,4.82-1.36,6.4-4.09l5.24,1.94c-2.04,4.67-5.61,7.71-12.01,7.71-9.07,0-12.69-7.39-12.69-13.63s3.62-13.63,12.69-13.63,12.32,7.29,12.32,13.05v2.67Zm-18.04-5.14h11.38c-.58-2.62-2.2-5.03-5.66-5.03s-5.24,2.52-5.71,5.03Z"/><path class="cls-4" d="m107.34,220.97v4.25c1.94-2.78,4.77-4.67,8.18-4.67,4.72,0,8.13,2.67,8.13,7.97v18.88h-6.5v-16.93c0-3.15-1.57-4.35-3.78-4.35-3.15,0-6.03,3.77-6.03,10.75v10.54h-6.5v-26.42h6.5Z"/><path class="cls-4" d="m133.03,209.18c2.41,0,4.19,1.83,4.19,4.19s-1.78,4.19-4.19,4.19-4.19-1.83-4.19-4.19,1.78-4.19,4.19-4.19Zm3.25,11.8v26.42h-6.5v-26.42h6.5Z"/><path class="cls-4" d="m167.58,236.28h-18.19c.16,2.94,2.2,5.98,6.24,5.98,2.99,0,4.82-1.36,6.4-4.09l5.24,1.94c-2.04,4.67-5.61,7.71-12.01,7.71-9.07,0-12.69-7.39-12.69-13.63s3.62-13.63,12.69-13.63,12.32,7.29,12.32,13.05v2.67Zm-18.04-5.14h11.38c-.58-2.62-2.2-5.03-5.66-5.03s-5.24,2.52-5.71,5.03Z"/><path class="cls-4" d="m189.92,247.4v-4.25c-1.94,2.78-4.77,4.67-8.18,4.67-4.72,0-8.13-2.67-8.13-7.97v-18.87h6.5v16.93c0,3.15,1.57,4.35,3.77,4.35,3.15,0,6.03-3.77,6.03-10.75v-10.54h6.5v26.42h-6.5Z"/><path class="cls-4" d="m203.45,247.4v-26.42h6.5v4.3c1.89-3.09,4.82-4.72,7.81-4.72,1.15,0,2.15.21,3.2.52l-1.21,6.03c-.79-.47-1.63-.73-2.73-.73-3.77,0-7.08,3.09-7.08,11.64v9.38h-6.5Z"/><path class="cls-4" d="m238.48,247.82c-3.25,0-5.66-1.78-6.4-3.15v2.73h-6.5v-37.12h6.5v13.11c1.15-1.47,3.72-2.83,6.4-2.83,7.97,0,12.06,5.5,12.06,13.63s-4.09,13.63-12.06,13.63Zm-.89-21.71c-3.41,0-6.08,2.83-6.08,8.07s2.67,8.07,6.08,8.07,6.13-2.83,6.13-8.07-2.73-8.07-6.13-8.07Z"/><path class="cls-4" d="m272.72,247.4v-4.25c-1.94,2.78-4.77,4.67-8.18,4.67-4.72,0-8.13-2.67-8.13-7.97v-18.87h6.5v16.93c0,3.15,1.57,4.35,3.77,4.35,3.15,0,6.03-3.77,6.03-10.75v-10.54h6.5v26.42h-6.5Zm-9.86-37.85c2.2,0,3.72,1.57,3.72,3.72s-1.52,3.72-3.72,3.72-3.72-1.57-3.72-3.72,1.52-3.72,3.72-3.72Zm10.85,0c2.2,0,3.72,1.57,3.72,3.72s-1.52,3.72-3.72,3.72-3.72-1.57-3.72-3.72,1.52-3.72,3.72-3.72Z"/><path class="cls-4" d="m286.25,247.4v-26.42h6.5v4.3c1.89-3.09,4.82-4.72,7.81-4.72,1.15,0,2.15.21,3.2.52l-1.21,6.03c-.79-.47-1.63-.73-2.73-.73-3.77,0-7.08,3.09-7.08,11.64v9.38h-6.5Z"/><path class="cls-4" d="m319.96,220.55c8.49,0,13.42,5.98,13.42,13.63s-4.93,13.63-13.42,13.63-13.42-5.98-13.42-13.63,4.93-13.63,13.42-13.63Zm0,21.71c4.19,0,6.61-3.72,6.61-8.07s-2.41-8.07-6.61-8.07-6.61,3.72-6.61,8.07,2.41,8.07,6.61,8.07Z"/><path class="cls-4" d="m36.76,275.87c-1.78-3.2-3.62-3.88-5.82-3.88-2.62,0-4.4,2.2-4.4,4.56,0,3.62,3.2,5.14,7.08,7.08,4.14,2.1,8.76,4.61,8.76,10.54,0,2.99-1.05,5.56-2.83,7.5-1.99,2.2-4.93,3.46-8.18,3.46-6.08,0-10.64-4.19-11.85-9.91l3.98-2.41c1.21,4.35,3.15,7.92,7.86,7.92,1.89,0,3.83-.73,4.98-2.1.89-1.1,1.42-2.67,1.42-4.35,0-3.57-3.36-5.45-6.92-7.13-4.77-2.25-8.91-4.56-8.91-10.22s4.19-9.33,9.02-9.33c5.19,0,7.76,2.41,9.54,5.87l-3.72,2.41Z"/><path class="cls-4" d="m46.14,278.29h4.56v-7.92l4.4-2.78v10.7h6.92v3.98h-6.92v14.52c0,2.83,1.31,4.35,3.51,4.35,1.15,0,2.04-.21,2.99-.84l1.05,3.83c-1.26.73-2.78,1-4.3,1-4.46,0-7.65-2.73-7.65-8.7v-14.16h-4.56v-3.98Z"/><path class="cls-4" d="m90.92,292.44h-19.4c.26,4.88,2.67,8.7,7.45,8.7,3.88,0,5.87-1.78,7.34-5.03l3.88,1.68c-2.46,5.14-5.77,7.34-11.22,7.34-8.02,0-11.95-6.55-11.95-13.63s3.93-13.63,11.95-13.63,11.95,5.98,11.95,12.53v2.04Zm-19.14-3.98h14.52c-.79-3.77-3.09-6.61-7.34-6.61s-6.4,2.78-7.18,6.61Z"/><path class="cls-4" d="m96.01,278.29h3.77v-1.73c0-6.08,3.2-8.97,8.55-8.97,1.47,0,2.94.37,3.77.84l-.89,3.88c-.94-.47-1.99-.73-2.94-.73-2.88,0-4.09,1.57-4.09,4.98v1.73h6.08v3.98h-6.08v22.44h-4.4v-22.44h-3.77v-3.98Z"/><path class="cls-4" d="m135.65,304.71h-3.46l-.73-3.72c-1.68,2.41-4.35,4.14-8.28,4.14-4.4,0-8.18-2.36-8.18-8.02s4.72-8.65,11.95-8.65h4.3v-1.15c0-4.09-2.57-5.45-5.77-5.45-2.73,0-4.93,1.52-5.5,4.14l-3.88-.89c.73-4.46,4.4-7.23,9.38-7.23,5.82,0,10.17,2.94,10.17,9.96v16.88Zm-11.8-3.57c3.41,0,7.39-2.1,7.39-8.07v-.63h-4.72c-4.51,0-7.03,1.68-7.03,4.67,0,2.52,1.57,4.04,4.35,4.04Z"/><path class="cls-4" d="m164.28,304.71h-4.4v-17.46c0-3.62-1.63-5.4-4.56-5.4-3.93,0-7.55,4.46-7.55,11.8v11.06h-4.4v-26.42h4.4v4.88c1.94-3.41,5.09-5.29,8.76-5.29,4.82,0,7.76,2.99,7.76,8.23v18.61Z"/><path class="cls-4" d="m202.19,275.87c-1.78-3.2-3.62-3.88-5.82-3.88-2.62,0-4.4,2.2-4.4,4.56,0,3.62,3.2,5.14,7.08,7.08,4.14,2.1,8.76,4.61,8.76,10.54,0,2.99-1.05,5.56-2.83,7.5-1.99,2.2-4.93,3.46-8.18,3.46-6.08,0-10.64-4.19-11.85-9.91l3.98-2.41c1.21,4.35,3.15,7.92,7.86,7.92,1.89,0,3.83-.73,4.98-2.1.89-1.1,1.42-2.67,1.42-4.35,0-3.57-3.36-5.45-6.92-7.13-4.77-2.25-8.91-4.56-8.91-10.22s4.19-9.33,9.02-9.33c5.19,0,7.76,2.41,9.54,5.87l-3.72,2.41Z"/><path class="cls-4" d="m237.01,292.44h-19.4c.26,4.88,2.67,8.7,7.45,8.7,3.88,0,5.87-1.78,7.34-5.03l3.88,1.68c-2.46,5.14-5.77,7.34-11.22,7.34-8.02,0-11.95-6.55-11.95-13.63s3.93-13.63,11.95-13.63,11.95,5.98,11.95,12.53v2.04Zm-19.14-3.98h14.52c-.79-3.77-3.09-6.61-7.34-6.61s-6.4,2.78-7.18,6.61Z"/><path class="cls-4" d="m265.48,304.71h-4.4v-17.46c0-3.62-1.62-5.4-4.56-5.4-3.93,0-7.55,4.46-7.55,11.8v11.06h-4.4v-26.42h4.4v4.88c1.94-3.41,5.09-5.29,8.76-5.29,4.82,0,7.76,2.99,7.76,8.23v18.61Z"/><path class="cls-4" d="m283.94,277.87c3.36,0,6.82,2.04,7.71,3.56v-13.84h4.4v37.12h-4.4v-3.25c-1.26,1.94-4.51,3.67-7.71,3.67-7.76,0-11.74-5.71-11.74-13.63s3.98-13.63,11.74-13.63Zm.42,23.28c4.82,0,7.66-3.99,7.66-9.65s-2.83-9.65-7.66-9.65-7.65,3.98-7.65,9.65,2.99,9.65,7.65,9.65Z"/><path class="cls-4" d="m309.11,267.59v37.12h-4.4v-37.12h4.4Z"/></svg>