<svg xmlns="http://www.w3.org/2000/svg" viewBox="0 0 637.1 113.57"><defs><style>.cls-1{fill:#006a38;}.cls-2{fill:#f4cc3c;}</style></defs><g id="Ebene_2" data-name="Ebene 2"><g id="Layer_1" data-name="Layer 1"><polygon class="cls-1" points="271.91 73.38 302.72 73.38 302.72 58.34 271.93 58.34 271.93 35.33 313.98 35.33 313.98 20.23 251.72 20.23 251.72 111.54 314.03 111.54 314.03 96.42 271.91 96.42 271.91 73.38"/><rect class="cls-1" x="20.23" y="20.23" width="20.25" height="91.24"/><rect class="cls-1" x="435.03" y="20.23" width="20.23" height="91.29"/><rect class="cls-2" width="20.23" height="20.23"/><path class="cls-1" d="M522.57,20.22H500.83L465.1,111.54h20.49l8.67-22.22h34.9l8.67,22.21h20.41ZM499.52,74.29,511.71,43.1,523.9,74.28Z"/><path class="cls-1" d="M191.38,33.28a149.28,149.28,0,0,1,17.28,0A8.2,8.2,0,0,1,215.39,38c.93,1.75.79,4.21.79,7.61h20.23s0-4.81,0-8.42A17.73,17.73,0,0,0,222,20a147.27,147.27,0,0,0-22.07-1.84,164.59,164.59,0,0,0-19.61,1.4c-9.82,1.29-17.57,9.68-17.57,19.53v53A20.22,20.22,0,0,0,180.2,112.2a121,121,0,0,0,20.85,1.33,107.41,107.41,0,0,0,21.65-2.08c8.47-2,13.69-9.74,13.69-16.26,0-8.3,0-29.66,0-31.23H200.13V76.67h16v13.9a8,8,0,0,1-7.54,7.56,138.47,138.47,0,0,1-17.8,0,9,9,0,0,1-7.86-9V42.22A8.85,8.85,0,0,1,191.38,33.28Z"/><path class="cls-1" d="M584.3,82.78v6.51a9.12,9.12,0,0,0,9.11,9.42c.46,0,3.84.26,7.22.26s6.67-.3,7.18-.3c5.84,0,9-5.24,9-9.28V84c0-10-4.24-9.69-17.25-11.84l-18.53-3c-6.2-1-16.21-5.12-16.95-18.57,0-.49,0-5.47,0-6,0-25.78,16.15-26.53,37.8-26.53,18.4,0,34,.62,34,25.28v3H615.68v-3c0-10.14-3.85-10.52-15.26-10.52-13.23,0-16.08,1.76-16.08,11.77,0,9.15,7.44,10.59,8.8,10.82,4.82.85,17.65,2.92,21.32,3.52,17.9,2.94,22.64,6,22.64,25.84,0,26.41-12,28.66-35.24,28.66-20,0-37.77.63-37.77-26.28V82.78Z"/><path class="cls-1" d="M129.62,19.17c-15.24-4.32-27.4,6.07-30.24,16.84C95.79,49.62,84.93,88.93,84.56,90.32a4.3,4.3,0,0,1-8.44-1.06c.16-18,0-69,0-69H55.9v69.2c0,10.57,9.25,24.83,26.26,23.89a24.28,24.28,0,0,0,21.9-17.78c3.75-13.39,14.59-53.67,14.59-53.67.89-3.08,2.56-3.6,4.56-3.54A4,4,0,0,1,127,42.5v69h20.23l0-68.68C147.21,36.15,143.74,23.18,129.62,19.17Z"/><path class="cls-1" d="M402,112.57c-15.24,4.32-27.4-6.07-30.24-16.84-3.59-13.6-14.45-52.91-14.82-54.31a4.3,4.3,0,0,0-8.44,1.07c.16,18,0,69,0,69h-20.2V42.31c0-10.58,9.25-24.83,26.26-23.9a24.27,24.27,0,0,1,21.9,17.79c3.75,13.39,14.59,53.66,14.59,53.66.89,3.08,2.56,3.61,4.56,3.55a4,4,0,0,0,3.79-4.17v-69h20.23l0,68.68C419.63,95.6,416.16,108.56,402,112.57Z"/></g></g></svg>