<?xml version="1.0" encoding="UTF-8" standalone="no"?>
<svg
   id="svg2858"
   version="1.1"
   viewBox="0 0 89.089996 89.089996"
   height="89.089996mm"
   width="89.089996mm"
   sodipodi:docname="logo_blue_svg.svg"
   inkscape:version="1.1.1 (3bf5ae0d25, 2021-09-20)"
   inkscape:export-filename="/home/oleksii/Документи/jd/logo_blue.png"
   inkscape:export-xdpi="600"
   inkscape:export-ydpi="600"
   xmlns:inkscape="http://www.inkscape.org/namespaces/inkscape"
   xmlns:sodipodi="http://sodipodi.sourceforge.net/DTD/sodipodi-0.dtd"
   xmlns="http://www.w3.org/2000/svg"
   xmlns:svg="http://www.w3.org/2000/svg"
   xmlns:rdf="http://www.w3.org/1999/02/22-rdf-syntax-ns#"
   xmlns:cc="http://creativecommons.org/ns#"
   xmlns:dc="http://purl.org/dc/elements/1.1/">
  <sodipodi:namedview
     id="namedview4339091"
     pagecolor="#ffffff"
     bordercolor="#666666"
     borderopacity="1.0"
     inkscape:pageshadow="2"
     inkscape:pageopacity="0.0"
     inkscape:pagecheckerboard="0"
     inkscape:document-units="mm"
     showgrid="false"
     inkscape:zoom="0.96191289"
     inkscape:cx="109.67729"
     inkscape:cy="205.32005"
     inkscape:window-width="1918"
     inkscape:window-height="1017"
     inkscape:window-x="1"
     inkscape:window-y="38"
     inkscape:window-maximized="1"
     inkscape:current-layer="g14797"
     inkscape:snap-bbox="true"
     inkscape:snap-page="true"
     inkscape:bbox-nodes="true" />
  <defs
     id="defs2852" />
  <metadata
     id="metadata2855">
    <rdf:RDF>
      <cc:Work
         rdf:about="">
        <dc:format>image/svg+xml</dc:format>
        <dc:type
           rdf:resource="http://purl.org/dc/dcmitype/StillImage" />
      </cc:Work>
    </rdf:RDF>
  </metadata>
  <g
     id="g3722"
     transform="matrix(2.5135464,0,0,2.5135464,-54.498909,-78.600077)"
     style="fill:#000000;fill-opacity:1">
    <g
       id="g4339205">
      <g
         id="g14797">
        <path
           id="path872"
           d="m 39.404213,31.55665 c -6.467309,0 -11.71644,5.248682 -11.71644,11.715992 0,6.46731 5.249131,11.71644 11.71644,11.71644 6.467309,0 11.715991,-5.24913 11.715991,-11.71644 0,-6.46731 -5.248682,-11.715992 -11.715991,-11.715992 z"
           style="color:#000000;font-style:normal;font-variant:normal;font-weight:normal;font-stretch:normal;font-size:medium;line-height:normal;font-family:sans-serif;font-variant-ligatures:normal;font-variant-position:normal;font-variant-caps:normal;font-variant-numeric:normal;font-variant-alternates:normal;font-feature-settings:normal;text-indent:0;text-align:start;text-decoration:none;text-decoration-line:none;text-decoration-style:solid;text-decoration-color:#000000;letter-spacing:normal;word-spacing:normal;text-transform:none;writing-mode:lr-tb;direction:ltr;text-orientation:mixed;dominant-baseline:auto;baseline-shift:baseline;text-anchor:start;white-space:normal;shape-padding:0;clip-rule:nonzero;display:inline;overflow:visible;visibility:visible;opacity:1;isolation:auto;mix-blend-mode:normal;color-interpolation:sRGB;color-interpolation-filters:linearRGB;solid-color:#000000;solid-opacity:1;vector-effect:none;fill:none;fill-opacity:1;fill-rule:nonzero;stroke:#fdfdfd;stroke-width:0.572122;stroke-linecap:butt;stroke-linejoin:miter;stroke-miterlimit:4;stroke-dasharray:none;stroke-dashoffset:0;stroke-opacity:1;color-rendering:auto;image-rendering:auto;shape-rendering:auto;text-rendering:auto;enable-background:accumulate" />
        <path
           style="color:#000000;font-style:normal;font-variant:normal;font-weight:normal;font-stretch:normal;font-size:medium;line-height:normal;font-family:sans-serif;font-variant-ligatures:normal;font-variant-position:normal;font-variant-caps:normal;font-variant-numeric:normal;font-variant-alternates:normal;font-feature-settings:normal;text-indent:0;text-align:start;text-decoration:none;text-decoration-line:none;text-decoration-style:solid;text-decoration-color:#000000;letter-spacing:normal;word-spacing:normal;text-transform:none;writing-mode:lr-tb;direction:ltr;text-orientation:mixed;dominant-baseline:auto;baseline-shift:baseline;text-anchor:start;white-space:normal;shape-padding:0;clip-rule:nonzero;display:inline;overflow:visible;visibility:visible;opacity:1;isolation:auto;mix-blend-mode:normal;color-interpolation:sRGB;color-interpolation-filters:linearRGB;solid-color:#000000;solid-opacity:1;vector-effect:none;fill:#00a7e8;fill-opacity:1;fill-rule:nonzero;stroke:#00a7e8;stroke-width:0.572122;stroke-linecap:butt;stroke-linejoin:miter;stroke-miterlimit:4;stroke-dasharray:none;stroke-dashoffset:0;stroke-opacity:1;color-rendering:auto;image-rendering:auto;shape-rendering:auto;text-rendering:auto;enable-background:accumulate"
           d="m 39.404213,31.55665 c -6.467309,0 -11.71644,5.248682 -11.71644,11.715992 0,6.46731 5.249131,11.71644 11.71644,11.71644 6.467309,0 11.715991,-5.24913 11.715991,-11.71644 0,-6.46731 -5.248682,-11.715992 -11.715991,-11.715992 z m 0,0.572122 c 6.158111,0 11.143868,4.985758 11.143868,11.14387 0,6.158112 -4.985757,11.144317 -11.143868,11.144317 -6.158112,0 -11.144318,-4.986205 -11.144318,-11.144317 0,-6.158112 4.986206,-11.14387 11.144318,-11.14387 z"
           id="circle843" />
        <g
           id="g853"
           style="font-style:normal;font-variant:normal;font-weight:normal;font-stretch:normal;font-size:28.8077px;line-height:1.25;font-family:monospace;-inkscape-font-specification:monospace;letter-spacing:0px;word-spacing:0px;fill:#00a7e8;fill-opacity:1;stroke:none;stroke-width:1;stroke-miterlimit:4;stroke-dasharray:none;stroke-opacity:0"
           aria-label="*.jd"
           transform="matrix(0.22884893,0,0,0.22884893,23.302084,21.162357)">
          <path
             id="path845"
             style="font-style:normal;font-variant:normal;font-weight:bold;font-stretch:normal;font-size:35.2778px;font-family:'Microsoft YaHei';-inkscape-font-specification:'Microsoft YaHei Bold';fill:#00a7e8;fill-opacity:1;stroke:none;stroke-width:1;stroke-miterlimit:4;stroke-dasharray:none;stroke-opacity:0"
             d="m 57.748916,110.2499 3.104444,-3.52777 3.104445,3.52777 2.257778,-1.62277 -2.398889,-4.02167 4.233334,-1.86972 -0.846667,-2.61056 -4.515556,1.02306 -0.423333,-4.656671 h -2.786945 l -0.458611,4.621391 -4.515556,-0.98778 -0.846667,2.61056 4.198056,1.86972 -2.328334,4.02167 z" />
          <path
             id="path847"
             style="font-style:normal;font-variant:normal;font-weight:bold;font-stretch:normal;font-size:35.2778px;font-family:'Microsoft YaHei';-inkscape-font-specification:'Microsoft YaHei Bold';fill:#00a7e8;fill-opacity:1;stroke:none;stroke-width:1;stroke-miterlimit:4;stroke-dasharray:none;stroke-opacity:0"
             d="m 75.494063,125.48991 c 1.869722,0 3.245556,-1.48167 3.245556,-3.38667 0,-1.94028 -1.375834,-3.38667 -3.245556,-3.38667 -1.834445,0 -3.210278,1.44639 -3.210278,3.38667 0,1.905 1.375833,3.38667 3.210278,3.38667 z" />
          <path
             id="path849"
             style="font-style:normal;font-variant:normal;font-weight:bold;font-stretch:normal;font-size:35.2778px;font-family:'Microsoft YaHei';-inkscape-font-specification:'Microsoft YaHei Bold';fill:#00a7e8;fill-opacity:1;stroke:none;stroke-width:1;stroke-miterlimit:4;stroke-dasharray:none;stroke-opacity:0"
             d="m 83.996442,133.07463 c 4.974168,0 6.596946,-3.35139 6.596946,-7.58472 v -20.24945 h -5.185834 v 20.39056 c 0,2.2225 -0.493889,3.35139 -2.151945,3.35139 -0.599722,0 -1.128889,-0.10584 -1.658056,-0.28223 l -0.917222,3.84528 c 0.776111,0.28223 1.799167,0.52917 3.316111,0.52917 z m 3.98639,-31.00917 c 1.799167,0 3.033889,-1.12889 3.033889,-2.857502 0,-1.693333 -1.234722,-2.822222 -3.033889,-2.822222 -1.763889,0 -2.998612,1.128889 -2.998612,2.822222 0,1.728612 1.234723,2.857502 2.998612,2.857502 z" />
          <path
             id="path851"
             style="font-style:normal;font-variant:normal;font-weight:bold;font-stretch:normal;font-size:35.2778px;font-family:'Microsoft YaHei';-inkscape-font-specification:'Microsoft YaHei Bold';fill:#00a7e8;fill-opacity:1;stroke:none;stroke-width:1;stroke-miterlimit:4;stroke-dasharray:none;stroke-opacity:0"
             d="m 103.11699,125.48991 c 2.04611,0 4.02167,-1.12889 5.46806,-2.54 h 0.14111 l 0.38806,2.04611 2.34719,-0.0473 c 0.67122,-1.05722 1.05947,-1.58615 1.85086,-2.93179 V 96.844297 h -5.15055 v 6.949723 l 0.17639,3.10445 c -1.41112,-1.30528 -2.78695,-2.15195 -5.00945,-2.15195 -4.268612,0 -8.290279,3.95111 -8.290279,10.37167 0,6.49111 3.175001,10.37167 8.078609,10.37167 z m 1.34056,-4.26862 c -2.61056,0 -4.09222,-2.04611 -4.09222,-6.13833 0,-3.95111 1.86972,-6.06778 4.09222,-6.06778 1.23472,0 2.50472,0.38806 3.70417,1.48167 v 8.67833 c -1.16417,1.48167 -2.32834,2.04611 -3.70417,2.04611 z" />
        </g>
        <g
           aria-label="julie's data"
           style="font-style:normal;font-variant:normal;font-weight:normal;font-stretch:normal;font-size:28.9278px;line-height:100%;font-family:Helvetica-5-Normal;-inkscape-font-specification:Helvetica-5-Normal;text-align:start;letter-spacing:0px;word-spacing:0px;writing-mode:lr-tb;text-anchor:start;fill:#00a7e8;fill-opacity:1;stroke:none;stroke-width:0.264583px;stroke-linecap:butt;stroke-linejoin:miter;stroke-opacity:1"
           id="text959"
           transform="matrix(0.22884893,0,0,0.22884893,67.218296,52.418279)">
          <path
             d="m -196.26017,62.470267 c 4.07882,0 5.40949,-2.748139 5.40949,-6.219472 V 39.64625 h -4.25238 v 16.720256 c 0,1.82245 -0.40499,2.748139 -1.76459,2.748139 -0.49178,0 -0.92569,-0.08678 -1.35961,-0.231422 l -0.75212,3.153128 c 0.63641,0.231422 1.47531,0.433916 2.71921,0.433916 z m 3.26884,-25.427517 c 1.47531,0 2.48779,-0.925689 2.48779,-2.34315 0,-1.388533 -1.01248,-2.314222 -2.48779,-2.314222 -1.44639,0 -2.45886,0.925689 -2.45886,2.314222 0,1.417461 1.01247,2.34315 2.45886,2.34315 z"
             style="font-style:normal;font-variant:normal;font-weight:bold;font-stretch:normal;font-family:'Noto Sans CJK SC';-inkscape-font-specification:'Noto Sans CJK SC Bold';fill:#00a7e8;fill-opacity:1;stroke-width:0.264583px"
             id="path838" />
          <path
             d="m -181.44916,56.250795 c 2.19852,0 3.76062,-1.070328 5.14915,-2.719211 h 0.11571 l 0.31821,2.314222 h 3.47133 V 39.64625 h -4.25238 v 10.9347 c -1.09926,1.446389 -1.96709,2.024945 -3.29777,2.024945 -1.5621,0 -2.25637,-0.896761 -2.25637,-3.38455 V 39.64625 h -4.25238 v 10.124723 c 0,4.049889 1.50424,6.479822 5.0045,6.479822 z"
             style="font-style:normal;font-variant:normal;font-weight:bold;font-stretch:normal;font-family:'Noto Sans CJK SC';-inkscape-font-specification:'Noto Sans CJK SC Bold';fill:#00a7e8;fill-opacity:1;stroke-width:0.264583px"
             id="path840" />
          <path
             d="m -163.86126,56.250795 c 1.01248,0 1.70674,-0.173567 2.19851,-0.376061 l -0.5207,-3.153128 c -0.28927,0.05786 -0.40498,0.05786 -0.57855,0.05786 -0.40499,0 -0.83891,-0.318206 -0.83891,-1.30175 V 32.761439 h -4.25238 v 18.542706 c 0,3.008489 1.0414,4.94665 3.99203,4.94665 z"
             style="font-style:normal;font-variant:normal;font-weight:bold;font-stretch:normal;font-family:'Noto Sans CJK SC';-inkscape-font-specification:'Noto Sans CJK SC Bold';fill:#00a7e8;fill-opacity:1;stroke-width:0.264583px"
             id="path842" />
          <path
             d="m -158.74097,55.845806 h 4.25238 V 39.64625 h -4.25238 z m 2.14066,-18.803056 c 1.44638,0 2.45886,-0.925689 2.45886,-2.34315 0,-1.388533 -1.01248,-2.314222 -2.45886,-2.314222 -1.47532,0 -2.48779,0.925689 -2.48779,2.314222 0,1.417461 1.01247,2.34315 2.48779,2.34315 z"
             style="font-style:normal;font-variant:normal;font-weight:bold;font-stretch:normal;font-family:'Noto Sans CJK SC';-inkscape-font-specification:'Noto Sans CJK SC Bold';fill:#00a7e8;fill-opacity:1;stroke-width:0.264583px"
             id="path844" />
          <path
             d="m -142.88896,56.250795 c 1.99601,0 4.04989,-0.694267 5.64091,-1.793522 l -1.44639,-2.6035 c -1.15711,0.723194 -2.31422,1.128183 -3.6449,1.128183 -2.401,0 -4.13667,-1.388533 -4.4838,-4.049889 h 9.98008 c 0.11571,-0.376061 0.2025,-1.157111 0.2025,-1.967089 0,-4.454878 -2.31423,-7.723717 -6.7691,-7.723717 -3.8474,0 -7.55015,3.268839 -7.55015,8.504767 0,5.351639 3.52919,8.504767 8.07085,8.504767 z m -3.99204,-10.15365 c 0.31821,-2.34315 1.82245,-3.558117 3.52919,-3.558117 2.0828,0 3.06635,1.388533 3.06635,3.558117 z"
             style="font-style:normal;font-variant:normal;font-weight:bold;font-stretch:normal;font-family:'Noto Sans CJK SC';-inkscape-font-specification:'Noto Sans CJK SC Bold';fill:#00a7e8;fill-opacity:1;stroke-width:0.264583px"
             id="path846" />
          <path
             d="m -131.92552,43.522573 h 2.37208 l 0.8389,-6.219473 0.14464,-4.020961 h -4.33916 l 0.14463,4.020961 z"
             style="font-style:normal;font-variant:normal;font-weight:bold;font-stretch:normal;font-family:'Noto Sans CJK SC';-inkscape-font-specification:'Noto Sans CJK SC Bold';fill:#00a7e8;fill-opacity:1;stroke-width:0.264583px"
             id="path848" />
          <path
             d="m -119.77552,56.250795 c 4.22346,0 6.4509,-2.285294 6.4509,-5.120217 0,-3.008489 -2.37208,-4.078816 -4.51273,-4.888794 -1.70674,-0.636411 -3.21099,-1.070328 -3.21099,-2.256367 0,-0.925689 0.69427,-1.5621 2.16959,-1.5621 1.18603,0 2.31422,0.549628 3.47133,1.388533 l 1.90923,-2.574572 c -1.33068,-1.012472 -3.15313,-1.996017 -5.49628,-1.996017 -3.70275,0 -6.0459,2.053873 -6.0459,4.94665 0,2.719212 2.28529,3.963106 4.33917,4.744156 1.70673,0.665339 3.38455,1.214967 3.38455,2.429933 0,1.012473 -0.7232,1.706739 -2.34315,1.706739 -1.50425,0 -2.89278,-0.636411 -4.33917,-1.764594 l -1.93816,2.661356 c 1.61995,1.330677 3.99203,2.285294 6.16161,2.285294 z"
             style="font-style:normal;font-variant:normal;font-weight:bold;font-stretch:normal;font-family:'Noto Sans CJK SC';-inkscape-font-specification:'Noto Sans CJK SC Bold';fill:#00a7e8;fill-opacity:1;stroke-width:0.264583px"
             id="path850" />
          <path
             d="m -97.819774,56.250795 c 1.677811,0 3.297767,-0.925689 4.483806,-2.0828 h 0.115711 l 0.318205,1.677811 h 3.442406 V 32.761439 h -4.223456 v 5.698772 l 0.144639,2.545645 c -1.157111,-1.070328 -2.285294,-1.764595 -4.107744,-1.764595 -3.500263,0 -6.798033,3.239912 -6.798033,8.504767 0,5.322711 2.6035,8.504767 6.624466,8.504767 z m 1.099256,-3.500261 c -2.140656,0 -3.355622,-1.677811 -3.355622,-5.033434 0,-3.239911 1.533172,-4.975577 3.355622,-4.975577 1.012472,0 2.053872,0.318205 3.037416,1.214966 v 7.116234 c -0.954616,1.214966 -1.909233,1.677811 -3.037416,1.677811 z"
             style="font-style:normal;font-variant:normal;font-weight:bold;font-stretch:normal;font-family:'Noto Sans CJK SC';-inkscape-font-specification:'Noto Sans CJK SC Bold';fill:#00a7e8;fill-opacity:1;stroke-width:0.264583px"
             id="path852" />
          <path
             d="m -80.896668,56.250795 c 1.851378,0 3.471333,-0.925689 4.888794,-2.140656 h 0.115712 l 0.289277,1.735667 h 3.471334 v -9.459383 c 0,-4.6863 -2.111728,-7.145162 -6.219473,-7.145162 -2.545644,0 -4.859866,0.954617 -6.7691,2.140656 l 1.533173,2.805994 c 1.504244,-0.867833 2.950633,-1.533172 4.454877,-1.533172 1.996017,0 2.690284,1.214967 2.777067,2.805995 -6.537678,0.694266 -9.343672,2.516716 -9.343672,5.98805 0,2.748139 1.909233,4.802011 4.802011,4.802011 z m 1.388533,-3.326694 c -1.243894,0 -2.140655,-0.549628 -2.140655,-1.822451 0,-1.446388 1.330677,-2.545644 5.293783,-3.037416 v 3.268839 c -1.0414,1.012472 -1.938161,1.591028 -3.153128,1.591028 z"
             style="font-style:normal;font-variant:normal;font-weight:bold;font-stretch:normal;font-family:'Noto Sans CJK SC';-inkscape-font-specification:'Noto Sans CJK SC Bold';fill:#00a7e8;fill-opacity:1;stroke-width:0.264583px"
             id="path854" />
          <path
             d="m -62.411693,56.250795 c 1.417461,0 2.545644,-0.318206 3.413478,-0.607483 l -0.694267,-3.095273 c -0.433917,0.173567 -1.070328,0.347134 -1.591028,0.347134 -1.446389,0 -2.198511,-0.867834 -2.198511,-2.719211 v -7.174089 h 3.992034 V 39.64625 h -3.992034 v -4.368094 h -3.529189 l -0.491772,4.368094 -2.516717,0.202495 v 3.153128 h 2.285295 v 7.174089 c 0,3.615972 1.475317,6.074833 5.322711,6.074833 z"
             style="font-style:normal;font-variant:normal;font-weight:bold;font-stretch:normal;font-family:'Noto Sans CJK SC';-inkscape-font-specification:'Noto Sans CJK SC Bold';fill:#00a7e8;fill-opacity:1;stroke-width:0.264583px"
             id="path856" />
          <path
             d="m -52.865159,56.250795 c 1.851378,0 3.471334,-0.925689 4.888795,-2.140656 h 0.115711 l 0.289278,1.735667 h 3.471333 v -9.459383 c 0,-4.6863 -2.111728,-7.145162 -6.219472,-7.145162 -2.545645,0 -4.859867,0.954617 -6.7691,2.140656 l 1.533172,2.805994 c 1.504244,-0.867833 2.950633,-1.533172 4.454878,-1.533172 1.996016,0 2.690283,1.214967 2.777066,2.805995 -6.537677,0.694266 -9.343672,2.516716 -9.343672,5.98805 0,2.748139 1.909233,4.802011 4.802011,4.802011 z m 1.388534,-3.326694 c -1.243895,0 -2.140656,-0.549628 -2.140656,-1.822451 0,-1.446388 1.330678,-2.545644 5.293783,-3.037416 v 3.268839 c -1.0414,1.012472 -1.938161,1.591028 -3.153127,1.591028 z"
             style="font-style:normal;font-variant:normal;font-weight:bold;font-stretch:normal;font-family:'Noto Sans CJK SC';-inkscape-font-specification:'Noto Sans CJK SC Bold';fill:#00a7e8;fill-opacity:1;stroke-width:0.264583px"
             id="path858" />
        </g>
      </g>
    </g>
  </g>
</svg>
