<?xml version="1.0" encoding="UTF-8"?>
<!-- Generator: Adobe Illustrator 25.4.1, SVG Export Plug-In . SVG Version: 6.00 Build 0)  -->
<svg version="1.1" id="Layer_1" xmlns="http://www.w3.org/2000/svg" xmlns:xlink="http://www.w3.org/1999/xlink" x="0px" y="0px" viewBox="0 0 255 85" enable-background="new 0 0 255 85" xml:space="preserve">
<rect x="-148.4" y="-199.1" display="none" fill="#FFFFFF" width="500" height="500"/>
<g>
	<rect fill="#D3AE21" width="85" height="85"/>
	<g>
		<polygon fill="#FFFFFF" points="48.4,53 43.1,53 43.1,77.3 59.3,77.3 59.3,72.7 48.4,72.7   "/>
		<path fill="#FFFFFF" d="M70.6,53l-4.1,11.5c-0.5,1.5-1,3-1.5,4.4c-0.5-1.6-1-3-1.5-4.4L59.4,53h-8.3v4.7h5.2l7,19.7h3.5l5-13.5    c0.2-0.5,0.3-1,0.5-1.4c0,0.9,0,1.8,0,2.6v12.3h5.3V53H70.6z"/>
		<polygon fill="#FFFFFF" points="40.7,53 34,53 23.9,65.3 34.7,77.3 41.6,77.3 30.6,65   "/>
	</g>
	<g>
		<g>
			<path fill="#363636" d="M101.5,57.2c0,1.4-0.3,2.4-1,3.2c-0.7,0.7-1.7,1.1-3,1.1h-0.6v4.7h-2.4V53.2h3.3     C100.3,53.2,101.5,54.5,101.5,57.2z M96.9,59.3h0.5c0.6,0,1-0.2,1.3-0.5c0.3-0.3,0.4-0.9,0.4-1.6c0-0.7-0.1-1.2-0.4-1.5     c-0.3-0.3-0.7-0.5-1.2-0.5h-0.6V59.3z"/>
			<path fill="#363636" d="M105.6,61.1v5h-2.4V53.2h3.1c1.3,0,2.3,0.3,2.9,0.9c0.6,0.6,0.9,1.6,0.9,2.9c0,1.6-0.5,2.8-1.7,3.4     l2.5,5.7h-2.6l-2-5H105.6z M105.6,59h0.6c0.6,0,1-0.2,1.2-0.5c0.2-0.3,0.4-0.8,0.4-1.4c0-0.7-0.1-1.1-0.4-1.4     c-0.3-0.3-0.7-0.4-1.2-0.4h-0.6V59z"/>
			<path fill="#363636" d="M121.1,59.6c0,2.1-0.4,3.8-1.2,4.9c-0.8,1.1-1.9,1.7-3.4,1.7c-1.5,0-2.6-0.6-3.4-1.7     c-0.8-1.1-1.2-2.8-1.2-5c0-2.1,0.4-3.8,1.2-4.9c0.8-1.1,2-1.7,3.5-1.7c1.5,0,2.6,0.6,3.4,1.7C120.7,55.8,121.1,57.5,121.1,59.6z      M114.3,59.6c0,1.5,0.2,2.6,0.6,3.4c0.4,0.8,0.9,1.2,1.6,1.2c1.4,0,2.2-1.5,2.2-4.5c0-3-0.7-4.5-2.2-4.5c-0.7,0-1.3,0.4-1.7,1.2     C114.4,57,114.3,58.1,114.3,59.6z"/>
			<path fill="#363636" d="M126.6,65.4c-0.4,0.6-1,0.8-1.9,0.8c-0.9,0-1.8-0.1-2.7-0.2v-2.5c0.7,0.1,1.4,0.1,2.2,0.1     c0.2,0,0.4-0.1,0.5-0.2c0.1-0.2,0.2-0.4,0.2-0.7v-7H123v-2.6h4.2v9.5C127.2,64,127,64.9,126.6,65.4z"/>
			<path fill="#363636" d="M135,66.1h-5.8V53.2h5.8v2.1h-3.4v3.1h3.2v2.1h-3.2V64h3.4V66.1z"/>
			<path fill="#363636" d="M144.9,66.1h-2.6l-2.1-5.5l-1,1v4.6h-2.4V53.2h2.4v6.4l0.8-1.9l2.2-4.5h2.6l-3,5.6L144.9,66.1z"/>
			<path fill="#363636" d="M150,66.1h-2.4V55.3h-2.5v-2.1h7.3v2.1H150V66.1z"/>
			<path fill="#363636" d="M159.7,66.1h-5.8V53.2h5.8v2.1h-3.4v3.1h3.2v2.1h-3.2V64h3.4V66.1z"/>
			<path fill="#363636" d="M170.6,66.1h-2.9l-4-9.4h-0.1c0.1,0.7,0.2,1.5,0.2,2.3v7.1h-2.2V53.2h3l4,9.3h0.1     c-0.1-0.6-0.2-1.4-0.2-2.2v-7h2.2V66.1z"/>
			<path fill="#363636" d="M176.9,66.1h-2.4V55.3H172v-2.1h7.3v2.1h-2.5V66.1z"/>
			<path fill="#363636" d="M191.4,66.1h-3l-1.3-6.8c-0.2-0.9-0.3-2-0.4-3.3l-0.1,0.7l-0.4,2.7l-1.2,6.7h-3l-2.3-12.9h2.4l1.2,7.3     c0.1,0.7,0.3,1.9,0.5,3.4c0.1-1.6,0.3-2.7,0.4-3.4l1.4-7.3h2.5l1.4,7.3c0.2,1.1,0.3,2.2,0.4,3.4c0.2-1.7,0.4-2.9,0.4-3.5l1.1-7.3     h2.4L191.4,66.1z"/>
			<path fill="#363636" d="M195.5,66.1V53.2h2.3v12.9H195.5z"/>
			<path fill="#363636" d="M204.7,55.1c-0.7,0-1.2,0.4-1.6,1.2c-0.4,0.8-0.6,1.9-0.6,3.4c0,3,0.8,4.5,2.3,4.5c0.7,0,1.4-0.2,2.1-0.7     v2.1c-0.6,0.4-1.4,0.6-2.4,0.6c-1.5,0-2.6-0.6-3.4-1.7c-0.8-1.2-1.2-2.8-1.2-4.9s0.4-3.7,1.2-4.9c0.8-1.2,1.9-1.8,3.4-1.8     c0.5,0,0.9,0.1,1.4,0.2c0.4,0.1,0.9,0.4,1.4,0.7l-0.8,2c-0.3-0.2-0.5-0.3-0.8-0.5C205.4,55.2,205.1,55.1,204.7,55.1z"/>
			<path fill="#363636" d="M216.9,66.1h-2.6l-2.1-5.5l-1,1v4.6h-2.4V53.2h2.4v6.4l0.8-1.9l2.2-4.5h2.6l-3,5.6L216.9,66.1z"/>
			<path fill="#363636" d="M218,66.1V53.2h2.4V64h3.3v2.1H218z"/>
			<path fill="#363636" d="M233.2,53.2v8.4c0,1.5-0.3,2.7-1,3.5c-0.7,0.8-1.7,1.2-3,1.2c-1.3,0-2.3-0.4-2.9-1.2c-0.7-0.8-1-2-1-3.6     v-8.3h2.4v8.5c0,1.6,0.5,2.5,1.6,2.5c0.5,0,0.9-0.2,1.2-0.6c0.3-0.4,0.4-1,0.4-1.8v-8.5H233.2z"/>
			<path fill="#363636" d="M244.5,66.1h-2.9l-4-9.4h-0.1c0.1,0.7,0.2,1.5,0.2,2.3v7.1h-2.2V53.2h3l4,9.3h0.1     c-0.1-0.6-0.2-1.4-0.2-2.2v-7h2.2V66.1z"/>
			<path fill="#363636" d="M250.7,58.9h3.9v6.6c-1.1,0.5-2.3,0.7-3.6,0.7c-1.5,0-2.7-0.6-3.5-1.7c-0.8-1.1-1.2-2.8-1.2-4.9     c0-2.1,0.5-3.7,1.4-4.9c0.9-1.2,2.2-1.8,3.9-1.8c1,0,2,0.3,2.9,0.8l-0.8,2c-0.7-0.4-1.4-0.6-2-0.6c-0.9,0-1.6,0.4-2.2,1.2     c-0.5,0.8-0.8,1.9-0.8,3.3c0,1.4,0.2,2.6,0.6,3.3c0.4,0.8,0.9,1.2,1.7,1.2c0.4,0,0.8,0,1.2-0.1v-3h-1.6V58.9z"/>
		</g>
	</g>
	<g>
		<g>
			<path fill="#363636" d="M97.3,73.9h2.3V77c-0.4,0.1-0.7,0.2-1.1,0.3c-0.3,0-0.7,0.1-1,0.1c-0.9,0-1.6-0.3-2-0.8     c-0.5-0.5-0.7-1.3-0.7-2.3c0-1,0.3-1.7,0.8-2.2s1.3-0.8,2.3-0.8c0.6,0,1.2,0.1,1.8,0.4l-0.4,1c-0.4-0.2-0.9-0.3-1.3-0.3     c-0.5,0-1,0.2-1.3,0.5c-0.3,0.4-0.5,0.9-0.5,1.5c0,0.6,0.1,1.1,0.4,1.5c0.3,0.3,0.6,0.5,1.1,0.5c0.3,0,0.5,0,0.8-0.1V75h-1.1     V73.9z"/>
			<path fill="#363636" d="M110.2,77.2l-1.4-4.6h0c0.1,0.9,0.1,1.6,0.1,1.9v2.8h-1.1v-5.9h1.7l1.4,4.5h0l1.5-4.5h1.7v5.9h-1.2v-2.8     c0-0.1,0-0.3,0-0.5c0-0.2,0-0.6,0.1-1.4h0l-1.5,4.6H110.2z"/>
			<path fill="#363636" d="M122.1,71.3h1.8c0.8,0,1.4,0.1,1.8,0.4c0.4,0.2,0.6,0.6,0.6,1.1c0,0.4-0.1,0.6-0.2,0.9     c-0.2,0.2-0.4,0.4-0.7,0.4v0c0.4,0.1,0.6,0.2,0.8,0.5c0.2,0.2,0.2,0.5,0.2,0.9c0,0.5-0.2,1-0.6,1.3c-0.4,0.3-0.9,0.5-1.6,0.5     h-2.2V71.3z M123.4,73.7h0.7c0.3,0,0.6-0.1,0.7-0.2c0.2-0.1,0.2-0.3,0.2-0.5c0-0.2-0.1-0.4-0.2-0.5s-0.4-0.1-0.8-0.1h-0.7V73.7z      M123.4,74.7v1.5h0.8c0.3,0,0.6-0.1,0.8-0.2c0.2-0.1,0.2-0.3,0.2-0.6c0-0.5-0.4-0.7-1.1-0.7H123.4z"/>
			<path fill="#363636" d="M139.2,77.2h-1.3v-2.6h-2.3v2.6h-1.3v-5.9h1.3v2.3h2.3v-2.3h1.3V77.2z"/>
			<path fill="#363636" d="M160.9,71.3v3.8c0,0.4-0.1,0.8-0.3,1.1c-0.2,0.3-0.5,0.6-0.8,0.8s-0.8,0.3-1.3,0.3     c-0.8,0-1.4-0.2-1.8-0.6c-0.4-0.4-0.6-0.9-0.6-1.6v-3.8h1.3V75c0,0.5,0.1,0.8,0.3,1c0.2,0.2,0.5,0.3,0.9,0.3     c0.4,0,0.7-0.1,0.9-0.3c0.2-0.2,0.3-0.6,0.3-1v-3.6H160.9z"/>
			<path fill="#363636" d="M174.2,77.2h-1.6l-2.6-4.5h0c0.1,0.8,0.1,1.4,0.1,1.7v2.8H169v-5.9h1.6l2.6,4.4h0c0-0.8-0.1-1.3-0.1-1.6     v-2.8h1.1V77.2z"/>
			<path fill="#363636" d="M187.3,74.2c0,1-0.3,1.7-0.8,2.2c-0.6,0.5-1.4,0.8-2.4,0.8h-1.7v-5.9h1.9c1,0,1.7,0.3,2.3,0.8     C187,72.6,187.3,73.3,187.3,74.2z M186,74.3c0-1.3-0.6-1.9-1.7-1.9h-0.7v3.9h0.5C185.4,76.2,186,75.6,186,74.3z"/>
			<path fill="#363636" d="M206.4,72.3c-0.5,0-0.8,0.2-1.1,0.5c-0.3,0.4-0.4,0.9-0.4,1.5c0,1.3,0.5,2,1.5,2c0.4,0,0.9-0.1,1.5-0.3     V77c-0.5,0.2-1,0.3-1.6,0.3c-0.9,0-1.5-0.3-2-0.8c-0.5-0.5-0.7-1.3-0.7-2.2c0-0.6,0.1-1.2,0.3-1.6c0.2-0.5,0.5-0.8,1-1.1     c0.4-0.2,0.9-0.4,1.5-0.4c0.6,0,1.2,0.1,1.7,0.4l-0.4,1c-0.2-0.1-0.4-0.2-0.7-0.3C206.9,72.3,206.7,72.3,206.4,72.3z"/>
			<path fill="#363636" d="M221.2,74.3c0,1-0.2,1.7-0.7,2.3c-0.5,0.5-1.2,0.8-2.1,0.8c-0.9,0-1.6-0.3-2.1-0.8     c-0.5-0.5-0.7-1.3-0.7-2.3c0-1,0.2-1.7,0.7-2.3c0.5-0.5,1.2-0.8,2.1-0.8c0.9,0,1.6,0.3,2.1,0.8C221,72.5,221.2,73.3,221.2,74.3z      M216.9,74.3c0,0.7,0.1,1.2,0.4,1.5c0.3,0.3,0.6,0.5,1.1,0.5c1,0,1.5-0.7,1.5-2c0-1.3-0.5-2-1.5-2c-0.5,0-0.9,0.2-1.1,0.5     C217,73.1,216.9,73.6,216.9,74.3z"/>
			<path fill="#363636" d="M242.6,77.2h-1.4l-1.6-2.5l-0.5,0.4v2.1h-1.3v-5.9h1.3V74l0.5-0.7l1.6-2h1.4l-2.1,2.6L242.6,77.2z"/>
			<path fill="#363636" d="M252.3,73.9h2.3V77c-0.4,0.1-0.7,0.2-1.1,0.3c-0.3,0-0.7,0.1-1,0.1c-0.9,0-1.6-0.3-2-0.8     c-0.5-0.5-0.7-1.3-0.7-2.3c0-1,0.3-1.7,0.8-2.2c0.5-0.5,1.3-0.8,2.3-0.8c0.6,0,1.2,0.1,1.8,0.4l-0.4,1c-0.4-0.2-0.9-0.3-1.3-0.3     c-0.5,0-1,0.2-1.3,0.5c-0.3,0.4-0.5,0.9-0.5,1.5c0,0.6,0.1,1.1,0.4,1.5c0.3,0.3,0.6,0.5,1.1,0.5c0.3,0,0.5,0,0.8-0.1V75h-1.1     V73.9z"/>
		</g>
	</g>
</g>
</svg>