<?xml version="1.0" encoding="UTF-8"?>
<svg width="1100" height="775" overflow="hidden" version="1.1" viewBox="0 0 825 581.25" xmlns="http://www.w3.org/2000/svg">
 <defs>
  <clipPath id="7c500f116e">
   <path d="m323 598.66h13v1.336h-13z"/>
  </clipPath>
  <clipPath id="f701794a62">
   <path d="m507 761h1.441v10h-1.441z"/>
  </clipPath>
  <clipPath id="619bac85f1">
   <path d="m507 748h1.441v10h-1.441z"/>
  </clipPath>
  <clipPath id="a59b239a28">
   <path d="m507 776h1.441v9h-1.441z"/>
  </clipPath>
  <clipPath id="c30267b6de">
   <path d="m317 899h4v2.664h-4z"/>
  </clipPath>
 </defs>
 <g transform="translate(-560.81 -314.77)"></g>
 <g transform="translate(-513.28 -288.37)">
  <g transform="translate(526.54,751.47)">
   <path d="m9.6875-96.672h11.062l36.5 79.797 36.516-79.797h11.062v96.672h-10.64v-74.688l-34.172 74.688h-5.5312l-34.156-74.688v74.688h-10.641z"/>
  </g>
  <g transform="translate(652.1,751.47)">
   <path d="m32.922 2.0781c-8.0235 0-14.359-2.0078-19.016-6.0156-4.6562-4.0078-6.9843-9.5195-6.9843-16.531 0-7.2812 2.2539-12.879 6.7656-16.797 4.5195-3.9258 11.066-5.8906 19.641-5.8906 9.5938 0 17.844 1.9843 24.75 5.9531v-4.9844c0-5.9883-1.7109-10.43-5.125-13.328-3.4062-2.9063-8.7969-4.3594-16.172-4.3594-7.8359 0-15.07 1.4766-21.703 4.4219v-9c2.7578-1.1953 6.2578-2.1602 10.5-2.8907 4.25-0.7382 8.3047-1.1093 12.172-1.1093 10.508 0 18.301 2.375 23.375 7.125 5.0703 4.7422 7.6094 11.309 7.6094 19.703v41.625h-9.9532v-8.5781c-5.8124 7.1055-14.434 10.656-25.859 10.656zm2.625-8.7187c4.9765 0 9.4726-0.98829 13.484-2.9688 4.0079-1.9765 7.0235-4.7695 9.0469-8.375v-10.641c-3.5937-2.125-7.1679-3.6719-10.719-4.6406-3.543-0.9688-7.5274-1.4532-11.953-1.4532-6.2734 0-10.812 1.1797-13.625 3.5313-2.8124 2.3555-4.2187 5.9297-4.2187 10.719 0 9.2188 5.9922 13.828 17.984 13.828z"/>
  </g>
  <g transform="translate(740.88,751.47)">
   <path d="m9.6875-66.375h10.359v11.469c6.5508-9.0313 16.234-13.547 29.047-13.547 6.5507 0 12.453 1.4765 17.703 4.4219 5.2578 2.9492 9.4101 7.1015 12.453 12.453 3.0391 5.3437 4.5625 11.523 4.5625 18.531 0 6.9063-1.5 13.039-4.5 18.391-3 5.3437-7.1523 9.4687-12.453 12.375-5.293 2.9062-11.215 4.3594-17.766 4.3594-5.9922 0-11.57-1.1328-16.734-3.3906-5.168-2.2578-9.1797-5.5547-12.031-9.8906v41.484h-10.641zm37.188 60.016c4.9766 0 9.4727-1.1016 13.484-3.3125 4.0078-2.2187 7.1445-5.332 9.4062-9.3437 2.2578-4.0078 3.3906-8.6875 3.3906-14.031 0-5.2578-1.1328-9.9414-3.3906-14.047-2.2617-4.1015-5.3984-7.2578-9.4062-9.4687-4.0117-2.207-8.5078-3.3125-13.484-3.3125-6.2617 0-11.766 1.6367-16.516 4.9062-4.75 3.2735-8.0938 7.7657-10.031 13.484v16.453c1.75 5.625 5.0469 10.148 9.8907 13.562 4.8437 3.4063 10.394 5.1094 16.656 5.1094z"/>
  </g>
  <g transform="translate(842.65,751.47)">
   <path d="m57.672 2.0781c-9.7735 0-18.508-2.0742-26.203-6.2187-7.6993-4.1563-13.715-10.035-18.047-17.641-4.336-7.6016-6.5-16.43-6.5-26.484 0-10.051 2.1641-18.879 6.5-26.484 4.332-7.6016 10.348-13.504 18.047-17.703 7.6953-4.1953 16.43-6.2969 26.203-6.2969 13.363 0 24.426 3.5078 33.188 10.516v10.516c-8.293-7.4687-19.078-11.203-32.359-11.203-7.8359 0-14.84 1.6641-21.016 4.9844-6.1797 3.3125-11.024 8.0391-14.531 14.172-3.5 6.125-5.25 13.293-5.25 21.5 0 8.2109 1.7696 15.383 5.3125 21.516 3.5508 6.125 8.4141 10.852 14.594 14.172 6.1758 3.3125 13.141 4.9687 20.891 4.9687 6.9141 0 13.094-0.92187 18.531-2.7656 5.4376-1.8438 10.461-4.8828 15.078-9.125v10.656c-8.211 7.2812-19.688 10.922-34.438 10.922z"/>
  </g>
  <g transform="translate(952.73,751.47)">
   <path d="m32.922 2.0781c-8.0235 0-14.359-2.0078-19.016-6.0156-4.6562-4.0078-6.9843-9.5195-6.9843-16.531 0-7.2812 2.2539-12.879 6.7656-16.797 4.5195-3.9258 11.066-5.8906 19.641-5.8906 9.5938 0 17.844 1.9843 24.75 5.9531v-4.9844c0-5.9883-1.7109-10.43-5.125-13.328-3.4062-2.9063-8.7969-4.3594-16.172-4.3594-7.8359 0-15.07 1.4766-21.703 4.4219v-9c2.7578-1.1953 6.2578-2.1602 10.5-2.8907 4.25-0.7382 8.3047-1.1093 12.172-1.1093 10.508 0 18.301 2.375 23.375 7.125 5.0703 4.7422 7.6094 11.309 7.6094 19.703v41.625h-9.9532v-8.5781c-5.8124 7.1055-14.434 10.656-25.859 10.656zm2.625-8.7187c4.9765 0 9.4726-0.98829 13.484-2.9688 4.0079-1.9765 7.0235-4.7695 9.0469-8.375v-10.641c-3.5937-2.125-7.1679-3.6719-10.719-4.6406-3.543-0.9688-7.5274-1.4532-11.953-1.4532-6.2734 0-10.812 1.1797-13.625 3.5313-2.8124 2.3555-4.2187 5.9297-4.2187 10.719 0 9.2188 5.9922 13.828 17.984 13.828z"/>
  </g>
  <g transform="translate(1041.5,751.47)">
   <path d="m41.625 2.0781c-6.543 0-12.445-1.4297-17.703-4.2812-5.25-2.8633-9.3985-6.9688-12.438-12.312-3.043-5.3516-4.5625-11.531-4.5625-18.531 0-6.914 1.4922-13.07 4.4843-18.469 3-5.3946 7.1485-9.5664 12.453-12.516 5.3008-2.9454 11.223-4.4219 17.766-4.4219 6.3633 0 12.008 1.1328 16.938 3.3906 4.9375 2.25 8.8789 5.543 11.828 9.875v-47.016h10.656v102.2h-10.375v-11.609c-3.5 4.6055-7.625 8.0391-12.375 10.297-4.75 2.2578-10.309 3.3906-16.672 3.3906zm2.2188-8.4375c6.3515 0 11.906-1.6328 16.656-4.9062 4.75-3.2813 8.0469-7.7735 9.8906-13.484v-16.594c-1.75-5.7187-5-10.234-9.75-13.547-4.75-3.3203-10.352-4.9844-16.797-4.9844-4.8868 0-9.336 1.1328-13.344 3.3906-4.0117 2.25-7.1719 5.4063-9.4844 9.4688-2.3047 4.0547-3.4531 8.7109-3.4531 13.969 0 5.25 1.1484 9.9063 3.4531 13.969 2.3125 4.0547 5.4727 7.1875 9.4844 9.4062 4.0078 2.2109 8.457 3.3125 13.344 3.3125z"/>
  </g>
  <g fill="#ff6100">
   <g transform="translate(1143.3,751.47)">
    <path d="m35.547 2.0781c-5.3555 0-10.543-0.41796-15.562-1.25-5.0235-0.83203-9.375-2.0781-13.063-3.7344v-9.8126c8.1953 3.6876 17.367 5.5313 27.516 5.5313 17.695 0 26.547-6.4102 26.547-19.234 0-6.3515-2.3555-10.957-7.0625-13.812-4.6992-2.8633-11.656-4.2968-20.875-4.2968h-10.641v-9.125h10.375c7.4688 0 13.531-1.586 18.188-4.7657 4.6562-3.1875 6.9843-7.7265 6.9843-13.625 0-11.625-7.2422-17.438-21.719-17.438-5.0742 0-9.6641 0.6055-13.766 1.8125-4.1055 1.1992-8.3672 3.1797-12.781 5.9375v-9.6875c7.9258-4.8828 17.144-7.3281 27.656-7.3281 10.226 0 18.016 2.375 23.359 7.125 5.3516 4.75 8.0313 11.277 8.0313 19.578 0 11.242-5.9961 18.844-17.984 22.812 6.7266 1.1992 11.914 3.7813 15.562 7.75 3.6445 3.961 5.4687 8.9805 5.4687 15.062 0 8.668-2.9062 15.586-8.7187 20.75-5.8125 5.168-14.984 7.75-27.516 7.75z"/>
   </g>
   <g transform="translate(1233,751.47)">
    <path d="m9.6875-96.672h29.859c10.332 0 19.301 1.9375 26.906 5.8125 7.6016 3.875 13.43 9.4063 17.484 16.594 4.0625 7.1875 6.0937 15.672 6.0937 25.453 0 16.137-4.6093 28.309-13.828 36.516-9.2187 8.1992-22.172 12.297-38.859 12.297h-27.656zm26.969 87.547c14.563 0 25.301-3.3438 32.219-10.031 6.9141-6.6876 10.375-16.57 10.375-29.656 0-12.176-3.3711-21.676-10.109-28.5-6.7304-6.8203-16.637-10.234-29.719-10.234h-18.953v78.422z"/>
   </g>
  </g>
  <g transform="translate(526.54,852.85)">
   <path d="m10.188 0.59375c-1.5312 0-3.043-0.13672-4.5312-0.40625-1.4922-0.25781-2.7148-0.61328-3.6719-1.0625v-2.9531c2.5 1.0937 5.1797 1.6406 8.0468 1.6406 2.3829 0 4.1407-0.38281 5.2657-1.1562 1.1328-0.76953 1.7031-1.9258 1.7031-3.4688 0-1.082-0.2344-1.9414-0.7031-2.5781-0.461-0.63278-1.125-1.1719-2-1.6094-0.875-0.4453-2.3907-1.1094-4.5469-1.9844-2.625-1.0625-4.5312-2.2226-5.7188-3.4844-1.1797-1.2578-1.7656-2.8593-1.7656-4.7968 0-1.4063 0.375-2.6485 1.125-3.7344 0.75782-1.0938 1.8281-1.9375 3.2031-2.5312 1.3828-0.5938 2.9844-0.8907 4.7968-0.8907 1.4571 0 2.7735 0.1172 3.9532 0.3438 1.1874 0.2187 2.3476 0.5781 3.4843 1.0781v2.8281c-2.2304-0.9765-4.5625-1.4687-7-1.4687-2.125 0-3.7344 0.3867-4.8281 1.1562-1.0859 0.7735-1.625 1.8438-1.625 3.2188 0 0.9375 0.22266 1.7422 0.67188 2.4062 0.45703 0.6563 1.1719 1.2656 2.1406 1.8282 0.96875 0.5546 2.3008 1.164 4 1.8281 1.9063 0.7422 3.3984 1.4375 4.4844 2.0937 1.0937 0.6485 1.9375 1.4688 2.5312 2.4688 0.6016 0.99216 0.9063 2.2656 0.9063 3.8281 0 2.3672-0.8399 4.1953-2.5156 5.4844-1.668 1.2812-4.1368 1.9219-7.4063 1.9219z"/>
  </g>
  <g transform="translate(575.9,852.85)">
   <path d="m13.703 0.59375c-3.6679 0-6.4375-0.92578-8.3125-2.7812-1.8672-1.8633-2.7969-4.4531-2.7969-7.7656v-17.875h3.0938v18.109c0 2.5234 0.70312 4.4062 2.1094 5.6562 1.4062 1.25 3.375 1.875 5.9062 1.875 2.5196 0 4.4844-0.625 5.8907-1.875 1.4062-1.25 2.1093-3.1328 2.1093-5.6562v-18.109h3.0938v17.875c0 3.3125-0.9375 5.9023-2.8125 7.7656-1.8672 1.8555-4.625 2.7812-8.2813 2.7812z"/>
  </g>
  <g transform="translate(630.56,852.85)">
   <path d="m2.7812-27.828h10.75c2.8946 0 5.0938 0.6797 6.5938 2.0312 1.5 1.3555 2.25 3.3594 2.25 6.0157 0 2.0117-0.5938 3.7187-1.7812 5.125-1.1797 1.4062-2.8126 2.2968-4.9063 2.6718l6.6094 11.984h-3.2344l-6.5156-11.828h-6.6563v11.828h-3.1094zm10.359 13.375c1.9063 0 3.3985-0.4453 4.4844-1.3438 1.0938-0.9062 1.6406-2.2343 1.6406-3.9843 0-1.9688-0.539-3.3633-1.6094-4.1876-1.0742-0.8203-2.5781-1.2343-4.5156-1.2343h-7.25v10.75z"/>
  </g>
  <g transform="translate(682.19,852.85)">
   <path d="m1.9844-27.828h3.2656l9.2812 23.531 9.3126-23.531h3.2656l-11.109 27.828h-2.9062z"/>
  </g>
  <g transform="translate(738.56,852.85)">
   <path d="m2.7812-27.828h17.922v2.625h-14.812v9.9531h11.109v2.625h-11.109v10h14.812v2.625h-17.922z"/>
  </g>
  <g transform="translate(788.52,852.85)">
   <path d="m12.109-10.547-10.125-17.281h3.3125l8.3593 14.453 8.4063-14.453h3.2656l-10.125 17.281v10.547h-3.0937z"/>
  </g>
  <g transform="translate(885.5,852.85)">
   <path d="m10.188 0.59375c-1.5312 0-3.043-0.13672-4.5312-0.40625-1.4922-0.25781-2.7148-0.61328-3.6719-1.0625v-2.9531c2.5 1.0937 5.1797 1.6406 8.0468 1.6406 2.3829 0 4.1407-0.38281 5.2657-1.1562 1.1328-0.76953 1.7031-1.9258 1.7031-3.4688 0-1.082-0.2344-1.9414-0.7031-2.5781-0.461-0.63278-1.125-1.1719-2-1.6094-0.875-0.4453-2.3907-1.1094-4.5469-1.9844-2.625-1.0625-4.5312-2.2226-5.7188-3.4844-1.1797-1.2578-1.7656-2.8593-1.7656-4.7968 0-1.4063 0.375-2.6485 1.125-3.7344 0.75782-1.0938 1.8281-1.9375 3.2031-2.5312 1.3828-0.5938 2.9844-0.8907 4.7968-0.8907 1.4571 0 2.7735 0.1172 3.9532 0.3438 1.1874 0.2187 2.3476 0.5781 3.4843 1.0781v2.8281c-2.2304-0.9765-4.5625-1.4687-7-1.4687-2.125 0-3.7344 0.3867-4.8281 1.1562-1.0859 0.7735-1.625 1.8438-1.625 3.2188 0 0.9375 0.22266 1.7422 0.67188 2.4062 0.45703 0.6563 1.1719 1.2656 2.1406 1.8282 0.96875 0.5546 2.3008 1.164 4 1.8281 1.9063 0.7422 3.3984 1.4375 4.4844 2.0937 1.0937 0.6485 1.9375 1.4688 2.5312 2.4688 0.6016 0.99216 0.9063 2.2656 0.9063 3.8281 0 2.3672-0.8399 4.1953-2.5156 5.4844-1.668 1.2812-4.1368 1.9219-7.4063 1.9219z"/>
  </g>
  <g transform="translate(934.86,852.85)">
   <path d="m16.562 0.59375c-2.7305 0-5.2031-0.60156-7.4219-1.8125-2.2187-1.207-3.9687-2.9102-5.25-5.1094-1.2734-2.207-1.9062-4.7266-1.9062-7.5625 0-2.8438 0.63281-5.3633 1.9062-7.5625 1.2813-2.2071 3.0195-3.9219 5.2188-5.1407 2.207-1.2187 4.6914-1.8281 7.4531-1.8281 2.7578 0 5.2383 0.6094 7.4375 1.8281 2.207 1.2188 3.9453 2.9336 5.2188 5.1407 1.2812 2.1992 1.9218 4.7187 1.9218 7.5625 0 2.8359-0.6406 5.3554-1.9218 7.5625-1.2735 2.1992-3.0157 3.9023-5.2344 5.1094-2.2188 1.2109-4.6953 1.8125-7.4219 1.8125zm0-2.7812c2.125 0 4.0625-0.47656 5.8125-1.4375 1.75-0.95703 3.1289-2.3164 4.1406-4.0781 1.0078-1.7578 1.5156-3.8203 1.5156-6.1875 0-2.3321-0.5-4.3789-1.5-6.1406-0.9921-1.7696-2.3554-3.1407-4.0937-4.1094-1.7422-0.9688-3.6719-1.4532-5.7969-1.4532-2.1484 0-4.1015 0.4805-5.8594 1.4376-1.75 0.9492-3.1367 2.3124-4.1562 4.0937-1.0234 1.7813-1.5312 3.8398-1.5312 6.1719 0 2.3672 0.50391 4.4297 1.5156 6.1875 1.0078 1.7617 2.3906 3.1211 4.1406 4.0781 1.75 0.96094 3.6875 1.4375 5.8125 1.4375z"/>
  </g>
  <g transform="translate(995.25,852.85)">
   <path d="m2.7812-27.828h3.1094v25.203h14.812v2.625h-17.922z"/>
  </g>
  <g transform="translate(1044.2,852.85)">
   <path d="m13.703 0.59375c-3.6679 0-6.4375-0.92578-8.3125-2.7812-1.8672-1.8633-2.7969-4.4531-2.7969-7.7656v-17.875h3.0938v18.109c0 2.5234 0.70312 4.4062 2.1094 5.6562 1.4062 1.25 3.375 1.875 5.9062 1.875 2.5196 0 4.4844-0.625 5.8907-1.875 1.4062-1.25 2.1093-3.1328 2.1093-5.6562v-18.109h3.0938v17.875c0 3.3125-0.9375 5.9023-2.8125 7.7656-1.8672 1.8555-4.625 2.7812-8.2813 2.7812z"/>
  </g>
  <g transform="translate(1098.9,852.85)">
   <path d="m10.109-25.203h-8.9219v-2.625h20.953v2.625h-8.9218v25.203h-3.1094z"/>
  </g>
  <g transform="translate(1149.5,852.85)">
   <path d="m2.8281-27.828h3.1094v27.828h-3.1094z"/>
  </g>
  <g transform="translate(1185.5,852.85)">
   <path d="m16.562 0.59375c-2.7305 0-5.2031-0.60156-7.4219-1.8125-2.2187-1.207-3.9687-2.9102-5.25-5.1094-1.2734-2.207-1.9062-4.7266-1.9062-7.5625 0-2.8438 0.63281-5.3633 1.9062-7.5625 1.2813-2.2071 3.0195-3.9219 5.2188-5.1407 2.207-1.2187 4.6914-1.8281 7.4531-1.8281 2.7578 0 5.2383 0.6094 7.4375 1.8281 2.207 1.2188 3.9453 2.9336 5.2188 5.1407 1.2812 2.1992 1.9218 4.7187 1.9218 7.5625 0 2.8359-0.6406 5.3554-1.9218 7.5625-1.2735 2.1992-3.0157 3.9023-5.2344 5.1094-2.2188 1.2109-4.6953 1.8125-7.4219 1.8125zm0-2.7812c2.125 0 4.0625-0.47656 5.8125-1.4375 1.75-0.95703 3.1289-2.3164 4.1406-4.0781 1.0078-1.7578 1.5156-3.8203 1.5156-6.1875 0-2.3321-0.5-4.3789-1.5-6.1406-0.9921-1.7696-2.3554-3.1407-4.0937-4.1094-1.7422-0.9688-3.6719-1.4532-5.7969-1.4532-2.1484 0-4.1015 0.4805-5.8594 1.4376-1.75 0.9492-3.1367 2.3124-4.1562 4.0937-1.0234 1.7813-1.5312 3.8398-1.5312 6.1719 0 2.3672 0.50391 4.4297 1.5156 6.1875 1.0078 1.7617 2.3906 3.1211 4.1406 4.0781 1.75 0.96094 3.6875 1.4375 5.8125 1.4375z"/>
  </g>
  <g transform="translate(1245.9,852.85)">
   <path d="m2.7812-27.828h2.9844l15.328 22.531v-22.531h3.1093v27.828h-2.9843l-15.328-22.578v22.578h-3.1094z"/>
  </g>
  <g transform="translate(1300.2,852.85)">
   <path d="m10.188 0.59375c-1.5312 0-3.043-0.13672-4.5312-0.40625-1.4922-0.25781-2.7148-0.61328-3.6719-1.0625v-2.9531c2.5 1.0937 5.1797 1.6406 8.0468 1.6406 2.3829 0 4.1407-0.38281 5.2657-1.1562 1.1328-0.76953 1.7031-1.9258 1.7031-3.4688 0-1.082-0.2344-1.9414-0.7031-2.5781-0.461-0.63278-1.125-1.1719-2-1.6094-0.875-0.4453-2.3907-1.1094-4.5469-1.9844-2.625-1.0625-4.5312-2.2226-5.7188-3.4844-1.1797-1.2578-1.7656-2.8593-1.7656-4.7968 0-1.4063 0.375-2.6485 1.125-3.7344 0.75782-1.0938 1.8281-1.9375 3.2031-2.5312 1.3828-0.5938 2.9844-0.8907 4.7968-0.8907 1.4571 0 2.7735 0.1172 3.9532 0.3438 1.1874 0.2187 2.3476 0.5781 3.4843 1.0781v2.8281c-2.2304-0.9765-4.5625-1.4687-7-1.4687-2.125 0-3.7344 0.3867-4.8281 1.1562-1.0859 0.7735-1.625 1.8438-1.625 3.2188 0 0.9375 0.22266 1.7422 0.67188 2.4062 0.45703 0.6563 1.1719 1.2656 2.1406 1.8282 0.96875 0.5546 2.3008 1.164 4 1.8281 1.9063 0.7422 3.3984 1.4375 4.4844 2.0937 1.0937 0.6485 1.9375 1.4688 2.5312 2.4688 0.6016 0.99216 0.9063 2.2656 0.9063 3.8281 0 2.3672-0.8399 4.1953-2.5156 5.4844-1.668 1.2812-4.1368 1.9219-7.4063 1.9219z"/>
  </g>
 </g>
 <g transform="translate(201.06 5.9589)">
  <g transform="translate(-117.84,-588.76)" fill="#1025a1">
   <path d="m403.89 647.25c-5.078-2.371-9.254-1.148-7.844 2.297 1.812 4.43 12.027 9.019 14.176 5.383 0.945-2.778-3.219-6.223-6.332-7.68"/>
   <path d="m387.54 647.43c-5.355-1.981-9.754-0.067-8.254 3.594 1.934 4.714 12.566 8.332 14.754 3.898 0.922-3.164-3.246-6.285-6.5-7.492"/>
   <path d="m414.17 660.94c-4.676-2.496-8.711-1.558-7.852 1.821 1.285 5.05 11.5 9.945 13.66 6.547 0.059-0.09 0.114-0.227 0.165-0.325 0.816-2.875-3.083-6.5-5.973-8.043"/>
   <path d="m393.99 634.96c-5.304-2.281-9.781-1.274-8.406 1.898 1.746 4.028 12.16 8.239 14.488 4.946 1.039-2.434-3.015-5.524-6.082-6.844"/>
   <path d="m398.3 661.09c-5.301-2.172-9.512-0.152-7.899 3.793 2.075 5.074 12.247 8.914 14.258 4.164 0.813-3.363-3.23-6.676-6.359-7.957"/>
   <path d="m419.94 649.7c-4.523-2.793-8.55-2.691-7.843 0.203 0.984 4.016 11.207 10.371 13.457 7.305 0.918-2.215-2.731-5.723-5.614-7.508"/>
   <path d="m429.28 663.26c-4.121-2.774-7.84-2.805-7.504-0.063 0.563 4.582 10.614 11.09 12.805 8.289 0.055-0.074 0.113-0.183 0.164-0.265 0.816-2.411-2.703-6.106-5.465-7.961"/>
   <path d="m376.86 635.03c-5.543-1.781-10.101-4e-3 -8.562 3.328 1.984 4.293 12.621 7.461 14.965 3.407 1.035-2.891-3.121-5.68-6.403-6.735"/>
   <path d="m410.44 637.3c-4.64-2.539-8.836-2.528-8.156 0.023 0.953 3.594 11.453 9.461 13.832 6.789 1.039-1.988-2.691-5.179-5.676-6.812"/>
   <path d="m370.44 649.95c-5.851-1.598-10.371 1.551-8.062 5.617 2.679 4.715 12.738 6.742 14.808 1.782 0.793-3.262-2.808-6.325-6.746-7.399"/>
   <path d="m424.04 675.33c-4.461-2.555-8.133-1.574-7.277 1.945 1.234 5.086 11.093 10.11 13.019 6.637 0.051-0.09 0.102-0.226 0.141-0.32 0.617-2.668-2.574-6.363-5.883-8.262"/>
   <path d="m408.83 675.55c-4.992-2.188-8.883-0.086-7.312 3.949 2.078 5.316 11.668 8.602 13.503 4.621 0.055-0.113 0.102-0.281 0.145-0.398 0.676-3.426-3.297-6.84-6.336-8.172"/>
   <path d="m381.73 663.67c-5.644-1.695-9.964 1.562-7.703 5.808 2.633 4.95 12.567 7.227 14.403 2.094 0.769-3.832-3.457-6.926-6.7-7.902"/>
   <path d="m383.84 624.13c-5.293-1.953-9.871-1.113-8.594 1.578 1.664 3.512 12.207 7.211 14.692 4.355 1.121-2.097-2.977-4.781-6.098-5.933"/>
   <path d="m438.33 677.53c-4.281-3.07-7.207-2.457-6.867 0.121 0.598 4.551 10.269 11.227 12.172 8.403 0.051-0.075 0.097-0.188 0.14-0.266 0.688-2.508-2.769-6.34-5.445-8.258"/>
   <path d="m359.08 637.46c-5.953-1.293-10.516 1.601-8.281 5.25 2.633 4.297 12.844 6.027 15.054 1.441 0.891-3.031-2.82-5.832-6.773-6.691"/>
   <path d="m434.64 654.22c-3.957-3-7.512-3.684-7.321-1.406 0.282 3.277 10.215 11.336 12.489 8.91 0.816-1.625-1.989-5.09-5.168-7.504"/>
   <path d="m366.17 624.19c-5.5-1.469-10.156 0.124-8.742 2.988 1.879 3.804 12.609 6.492 15.125 2.836 1.113-2.543-3.063-4.938-6.383-5.824"/>
   <path d="m443.31 667.82c-3.781-3.16-7.234-3.836-6.98-1.363 0.41 3.949 9.734 11.453 11.738 9.445 0.055-0.054 0.102-0.136 0.149-0.195 0.785-1.949-2.395-5.785-4.907-7.887"/>
   <path d="m425.77 641.77c-4.293-2.891-8.149-3.461-7.5-1.11 0.906 3.289 10.507 9.895 12.824 7.969 1.004-1.559-2.582-5.012-5.324-6.859"/>
   <path d="m400.95 626.48c-4.687-2.269-9.008-2.371-8.406-0.195 0.852 3.082 11.5 8.324 14.07 6.102 1.106-1.645-2.648-4.446-5.664-5.907"/>
   <path d="m393.14 678.31c-5.543-1.871-9.668 1.449-7.348 5.921 2.816 5.434 11.918 7.184 13.719 2.633 0.058-0.136 0.105-0.336 0.152-0.476 0.633-3.84-3.43-7.035-6.523-8.078"/>
   <path d="m353.01 654.91c-6.324-1.164-10.82 3.106-7.754 7.359 3.195 4.438 12.742 5.125 14.586-0.101 0.816-3.992-3.504-6.645-6.832-7.258"/>
   <path d="m451.63 682.12c-3.258-2.929-6.387-3.695-6.445-1.578-0.098 3.727 9.23 12.102 11.093 9.953 0.047-0.054 0.094-0.144 0.129-0.203 0.629-1.961-2.371-6.004-4.777-8.172"/>
   <path d="m347.72 626.6c-6-0.934-10.477 1.8-8.118 4.953 2.731 3.652 12.782 4.769 15.032 0.789 0.972-2.735-2.828-5.114-6.914-5.742"/>
   <path d="m433.64 690.12c-4.196-2.406-7.516-1.25-6.461 2.254 1.55 5.125 10.574 9.828 12.226 6.367 0.043-0.09 0.082-0.219 0.117-0.312 0.512-2.746-2.656-6.45-5.882-8.309"/>
   <path d="m364.77 668.73c-6.145-1.309-10.411 3.269-7.25 7.777 3.308 4.715 12.48 5.488 14.175-0.031 0.621-3.743-3.113-6.934-6.925-7.746"/>
   <path d="m341.25 642.37c-6.269-0.937-11.008 3.156-8.043 6.957 3.125 4.004 12.797 4.387 14.805-0.472 0.902-3.641-3.41-5.985-6.762-6.485"/>
   <path d="m417.01 631c-4.371-2.644-8.438-3.383-7.906-1.43 0.738 2.723 10.722 8.817 13.207 7.356 0.964-1.094-1.997-3.926-5.301-5.926"/>
   <path d="m447.41 692.43c-3.652-2.817-6.824-2.742-6.406 0.152 0.656 4.516 9.726 11.106 11.418 8.293 0.043-0.074 0.082-0.184 0.117-0.262 0.477-2.156-2.266-5.972-5.129-8.183"/>
   <path d="m419.46 690.58c-4.762-2.227-8.414-0.109-6.86 3.98 2.04 5.348 11.141 8.59 12.817 4.567 0.047-0.117 0.09-0.281 0.129-0.399 0.484-3.05-2.781-6.601-6.086-8.148"/>
   <path d="m448.57 660.99c-3.476-3.219-6.843-4.512-6.679-2.57 0.242 2.836 9.183 11.582 11.238 9.957 0.855-1.371-2.215-5.219-4.559-7.387"/>
   <path d="m373.41 614.86c-5.301-1.566-9.871-0.894-8.574 1.262 1.726 2.879 12.125 5.895 14.687 3.578 1.204-1.734-2.851-3.875-6.113-4.84"/>
   <path d="m456.39 674.58c-3.133-3.23-6.129-4.586-6.289-2.848-0.282 3.071 8.562 12.137 10.511 10.778 0.051-0.032 0.098-0.098 0.141-0.137 0.652-1.359-1.758-5.105-4.363-7.793"/>
   <path d="m355 614.91c-5.512-1.027-9.973 0.43-8.52 2.774 1.879 3.043 12.602 5.039 15.114 2.054 1.086-2.023-2.578-4.082-6.594-4.828"/>
   <path d="m404.34 693.45c-5.32-1.836-9.039 1.449-6.742 5.957 2.718 5.336 11.508 7.039 13.058 2.535 0.047-0.136 0.09-0.328 0.125-0.468 0.528-4.043-3.672-7.067-6.441-8.024"/>
   <path d="m376.74 683.51c-5.969-1.403-10.062 3.258-6.949 7.914 3.223 4.816 12.242 5.703 13.723 0.121 0.582-4.313-3.61-7.297-6.774-8.035"/>
   <path d="m391.19 617.22c-4.77-1.961-9.192-2.184-8.606-0.43 0.82 2.453 11.574 6.938 14.223 5.273 1.164-1.25-2.664-3.632-5.617-4.843"/>
   <path d="m440.6 648.63c-3.676-3.086-7.192-4.438-7.09-2.731 0.144 2.477 9.453 10.672 11.746 9.403 0.859-1.008-1.696-4.184-4.656-6.672"/>
   <path d="m459.68 696.85c-3.063-2.934-5.758-3.606-5.77-1.438-0.023 4.086 8.348 11.32 10.152 9.988 0.106-0.074 0.196-0.23 0.258-0.343 0.465-1.801-2.023-5.696-4.64-8.207"/>
   <path d="m329.6 631.52c-6.305-0.593-11.028 3.141-8.149 6.442 3.047 3.5 12.731 3.539 14.84-0.891 0.988-3.301-3.32-5.234-6.691-5.551"/>
   <path d="m463.88 688.92c-2.883-3.223-5.691-4.559-5.774-2.754-0.148 3.238 8.114 12.441 9.825 10.941 0.043-0.039 0.082-0.101 0.117-0.144 0.558-1.465-1.727-5.316-4.168-8.043"/>
   <path d="m336.77 617.48c-5.836-0.671-10.653 1.645-8.739 4.196 2.352 3.14 12.735 3.984 15.16 0.41 1.196-2.68-3.304-4.25-6.421-4.606"/>
   <path d="m407.8 621.71c-4.414-2.293-8.563-3.141-8.067-1.656 0.711 2.133 10.832 7.484 13.407 6.551 1.039-0.778-1.961-3.145-5.34-4.895"/>
   <path d="m443.44 705.25c-3.902-2.383-7.019-1.34-6.058 2.023 1.336 4.707 9.328 9.34 11.254 6.524 0.109-0.164 0.199-0.422 0.261-0.61 0.434-2.879-3-6.437-5.457-7.937"/>
   <path d="m334.99 662.2c-6.621-0.531-10.703 4.914-6.824 9.102 3.746 4.043 12.309 3.55 13.984-2.028 0.754-4.429-3.734-6.804-7.16-7.074"/>
   <path d="m432.27 637.65c-3.774-2.773-7.278-4.097-7.215-2.73 0.093 2.016 9.699 9.5 12.144 8.683 1.039-0.832-2.324-4.046-4.929-5.953"/>
   <path d="m347.54 676.19c-6.504-0.843-10.613 4.864-6.766 9.395 3.68 4.332 12.239 4.004 13.754-1.805 0.621-4.527-3.711-7.164-6.988-7.59"/>
   <path d="m429.93 705.75c-4.512-2.129-7.852-0.023-6.27 3.949 2.059 5.157 10.578 8.211 12 4.297 0.039-0.113 0.074-0.269 0.106-0.387 0.418-3.328-3.16-6.601-5.836-7.859"/>
   <path d="m388.73 698.86c-5.789-1.453-9.589 3.118-6.562 7.883 3.176 5.004 11.863 5.914 13.195 0.102 0.445-4.25-3.609-7.227-6.633-7.985"/>
   <path d="m322.96 649.59c-6.582-0.395-11.039 4.789-7.336 8.527 3.598 3.629 12.406 2.957 14.215-2.203 0.84-4.031-3.516-6.125-6.879-6.324"/>
   <path d="m456.24 707.43c-3.176-2.571-5.972-2.723-5.875-0.325 0.16 3.985 8.453 10.848 10.442 8.637 0.105-0.117 0.187-0.316 0.246-0.465 0.387-2.125-2.199-5.73-4.817-7.847h4e-3"/>
   <path d="m468.27 683.38c-2.66-3.363-5.406-5.246-5.546-3.797-0.2 2.086 7.386 12.785 9.269 11.445 0.641-1.101-1.75-5.148-3.723-7.648"/>
   <path d="m359.94 691.13c-6.355-0.938-10.207 4.937-6.332 9.676 3.676 4.496 12.012 4.207 13.364-1.786 0.484-4.656-3.821-7.418-7.032-7.89"/>
   <path d="m415.48 708.74c-4.934-1.668-8.36 1.715-6.106 6.035 2.676 5.137 10.965 6.661 12.317 2.266 0.039-0.129 0.07-0.309 0.101-0.437 0.332-3.426-3.019-6.75-6.312-7.864"/>
   <path d="m461.33 669.76c-2.844-3.239-5.738-5.098-5.953-3.821-0.113 0.653 0.676 2.856 4.344 6.95 0.043 0.047 4.312 4.754 5.582 4.129 0.675-0.868-1.508-4.454-3.973-7.258"/>
   <path d="m454.15 657.35c-3.246-3.289-6.457-5.149-6.363-3.688 0.137 2.086 8.434 10.844 10.469 10.27 0.848-0.723-1.836-4.289-4.106-6.582"/>
   <path d="m381.21 609.88c-4.797-1.598-9.238-1.953-8.637-0.699 0.864 1.808 11.489 5.425 14.231 4.367 1.219-0.844-2.535-2.652-5.594-3.668"/>
   <path d="m362.83 607.55c-5.273-1.18-9.758-0.707-8.57 0.91 1.57 2.133 12.097 4.477 14.699 2.777 1.117-1.176-2.309-2.832-6.129-3.687"/>
   <path d="m344.42 607.75c-5.457-0.754-10.199 0.418-8.895 2.203 1.746 2.379 12.371 3.746 15.008 1.317 1.203-1.68-2.847-3.071-6.113-3.52"/>
   <path d="m471.09 703.72c-2.465-2.977-4.867-4.336-5.152-2.906-0.516 2.617 6.945 12.043 8.875 11.203 0.089-0.043 0.171-0.153 0.23-0.235 0.426-1.422-1.742-5.39-3.953-8.062"/>
   <path d="m317.88 622.39c-6.363-0.188-10.988 3.156-8.113 5.859 3.054 2.875 12.504 2.481 14.703-1.445 0.988-2.711-2.656-4.297-6.59-4.414"/>
   <path d="m467.66 711.88c-3.09-3.176-5.324-3.43-5.258-1.535 0.137 3.922 7.782 10.937 9.321 9.679 0.093-0.074 0.168-0.222 0.214-0.328 0.364-1.742-1.937-5.414-4.277-7.816"/>
   <path d="m310.85 638.71c-6.27 0.039-10.668 4.375-7.715 7.605 3.183 3.489 12.594 2.754 14.594-2.175 0.929-3.739-3.555-5.449-6.879-5.43"/>
   <path d="m423.85 628.44c-4.071-2.625-7.914-4.054-7.485-2.777 0.571 1.68 10.012 7.856 12.383 7.633 0.961-0.395-1.758-2.828-4.898-4.856"/>
   <path d="m474.88 697.79c-2.605-3.668-4.687-5.019-4.996-3.984-0.656 2.218 6.816 12.816 8.418 11.941 0.035-0.019 0.07-0.062 0.101-0.09 0.493-1.109-1.445-4.949-3.523-7.867"/>
   <path d="m325.42 610.32c-5.82-0.281-10.676 1.867-8.66 3.836 2.41 2.348 12.504 2.52 14.941-0.41 1.164-2.098-2.972-3.266-6.281-3.426"/>
   <path d="m398.35 614.35c-4.454-1.93-8.61-2.887-8.082-1.864 0.738 1.442 10.906 5.926 13.453 5.59 1.148-0.418-2.18-2.246-4.102-3.152-0.379-0.18-0.887-0.406-1.269-0.574"/>
   <path d="m446.82 646.56c-3.359-3.024-6.754-4.977-6.73-3.871 0.027 1.492 8.683 9.679 10.887 9.543 0.875-0.395-1.477-3.25-4.157-5.672"/>
   <path d="m400.5 714.39c-5.387-1.239-8.793 3.429-5.777 7.925 3.261 4.864 11.066 5.059 12.281 0.309 0.039-0.152 0.07-0.359 0.097-0.512 0.336-4.445-3.867-7.093-6.601-7.722"/>
   <path d="m372.35 706.72c-6.086-0.766-9.543 5.203-5.684 9.824 3.34 4 11.57 4.426 12.762-1.863 0.375-4.832-3.914-7.567-7.078-7.961"/>
   <path d="m317.34 671.64c-6.418-0.114-10.391 5.859-6.641 9.988 3.664 4.035 12.254 2.918 13.809-3.082 0.644-4.66-3.805-6.844-7.168-6.906"/>
   <path d="m452.75 719.86c-3.727-2.324-6.035-1.066-5.531 1.571 0.824 4.316 8.769 9.183 10.492 6.429 0.09-0.148 0.164-0.375 0.211-0.547 0.277-2.437-2.469-5.765-5.172-7.453"/>
   <path d="m440.08 720.49c-4.477-2.097-7.031 0.399-5.664 3.793 1.891 4.711 9.293 7.586 11 4.278 0.105-0.204 0.18-0.5 0.23-0.719 0.301-3.129-3.074-6.184-5.566-7.352"/>
   <path d="m304.72 658.91c-6.543 0.207-10.574 6.043-6.637 9.61 3.785 3.429 12.051 2.043 13.695-3.477 0.75-4.406-3.679-6.238-7.058-6.133"/>
   <path d="m298.79 629.63c-6 0.379-10.394 4.34-7.707 6.949 2.965 2.875 12.406 1.699 14.48-2.695 0.989-3.293-3.367-4.473-6.773-4.254"/>
   <path d="m330.31 685.8c-6.489-0.383-10.414 5.965-6.461 10.449 3.707 4.211 12.121 3.184 13.488-2.976 0.535-4.84-3.789-7.286-7.027-7.473"/>
   <path d="m478.04 718.68c-2.269-2.985-4.371-4.309-4.586-2.899-0.391 2.602 6.859 12.207 8.168 10.82 0.031-0.035 0.059-0.097 0.082-0.136 0.324-1.352-1.633-5.114-3.664-7.785"/>
   <path d="m464.62 721.94c-2.887-2.398-5.371-2.527-5.211-0.269 0.305 4.281 8.102 9.875 9.555 8.058 0.086-0.105 0.148-0.285 0.191-0.418 0.313-2.195-2.523-5.695-4.535-7.371"/>
   <path d="m306.22 615.34c-5.668 0.219-10.32 2.973-8.442 4.992 2.309 2.481 12.473 1.781 14.844-1.754 1-2.222-2.469-3.39-6.402-3.238"/>
   <path d="m481.07 712.55c-2.066-3.176-4.113-4.953-4.375-3.801-0.461 2.039 6.399 12.707 7.649 11.887 0.031-0.02 0.058-0.063 0.082-0.09 0.379-1.105-1.465-5.102-3.356-7.996"/>
   <path d="m343.24 701c-6.234-0.43-9.937 6.012-6.097 10.598 3.73 4.457 11.968 3.543 13.183-2.856 0.406-4.976-3.898-7.527-7.086-7.742"/>
   <path d="m426.44 723.68c-4.707-1.481-7.769 1.847-5.457 5.933 2.723 4.817 10.305 6.055 11.426 1.864 0.035-0.125 0.063-0.297 0.086-0.426 0.262-3.645-3.457-6.551-6.055-7.371"/>
   <path d="m472.77 680.28c-2.43-3.375-4.926-5.582-5.133-4.539-0.278 1.41 6.722 12.035 8.5 11.668 0.617-0.594-1.278-4.23-3.367-7.129"/>
   <path d="m352.29 602.45c-4.93-0.761-9.34-0.582-8.742 0.363 0.883 1.383 11.816 3.192 14.652 2.024 1.332-0.879-3.348-1.906-3.883-2.02-0.558-0.117-1.41-0.273-2.027-0.367"/>
   <path d="m478.78 693.94c-2.25-3.543-4.531-5.746-4.691-4.527-0.277 2.098 6.531 12.578 7.832 12.059 0.512-0.719-1.246-4.547-3.141-7.532"/>
   <path d="m292.53 648c-6.39 0.445-10.519 5.746-6.898 8.859 3.465 2.985 11.969 1.317 13.719-3.734 0.82-3.922-3.496-5.359-6.821-5.125"/>
   <path d="m475.09 726.31c-2.352-2.507-4.453-3.281-4.582-1.691-0.278 3.285 7.129 10.535 8.433 9.43 0.079-0.067 0.133-0.199 0.176-0.293 0.254-1.59-1.918-5.199-4.027-7.446"/>
   <path d="m333.11 602.68c-5.363-0.309-9.847 0.675-8.57 1.878 1.652 1.551 12.254 2.137 14.785 0.418 1.114-1.132-2.355-2.074-6.215-2.296"/>
   <path d="m439.04 637.28c-3.43-2.699-6.953-4.715-6.981-3.996-0.039 0.981 8.864 8.266 11.231 8.668 0.914-0.078-1.426-2.336-3.223-3.836-0.304-0.254-0.718-0.59-1.027-0.836"/>
   <path d="m415.13 621.14c-3.18-1.75-7.012-3.481-7.649-3.211-0.316 0.824 10.11 6.543 12.532 6.878 0.066-3e-3 0.16-0.015 0.222-0.042 0.18-0.458-2.519-2.2-5.105-3.625"/>
   <path d="m466.49 667.88c-2.777-3.43-5.59-5.695-5.57-4.488 0.023 1.589 7.246 10.89 9.082 10.894 0.699-0.375-1.25-3.613-3.512-6.406"/>
   <path d="m370.99 604.68c-4.676-1.188-9.097-1.672-8.601-0.946 0.675 0.985 11.461 3.79 14.136 3.383 0.196-0.066 0.598-0.195-0.304-0.683-0.938-0.508-2.891-1.164-5.231-1.754"/>
   <path d="m385.2 722.54c-5.566-0.789-8.953 4.406-5.75 8.828 3.352 4.625 11.492 4.594 12.465-1.34 0.234-4.476-3.785-7.074-6.715-7.488"/>
   <path d="m484.39 708.37c-1.875-3.305-3.852-5.508-4.141-4.625-0.527 1.594 5.738 12.789 6.98 12.477 0.032-4e-3 0.059-0.035 0.086-0.051 0.426-0.813-1.199-4.766-2.925-7.801"/>
   <path d="m313.99 605.41c-5.336 0.145-9.965 1.813-8.687 3.125 1.738 1.789 12.23 1.453 14.824-0.992 1.117-1.524-2.328-2.235-6.137-2.133"/>
   <path d="m356.41 716.83c-6.176-0.523-9.594 5.945-5.539 10.484 3.793 4.25 11.543 3.266 12.547-2.945 0.25-4.492-3.426-7.234-7.008-7.539"/>
   <path d="m412.45 729.56c-4.816-1.132-8.121 2.797-5.797 6.887 2.731 4.805 10.848 5.313 11.899 0.746 0.031-0.14 0.054-0.328 0.078-0.472 0.183-3.852-3.578-6.551-6.18-7.161"/>
   <path d="m388.69 609.15c-2.864-1.003-7.43-2.41-8.149-2.234 0.145 0.75 11.309 4.496 13.473 4.727 0.07 0 0.172-4e-3 0.242-0.024-0.082-0.519-4.649-2.148-5.566-2.469"/>
   <path d="m459.84 656.94c-2.879-3.109-5.821-5.386-5.828-4.511-0.02 1.175 7.582 9.738 9.578 10.175 0.785-0.113-1.305-3.019-3.75-5.664"/>
   <path d="m287.3 622.69c-5.805 0.722-10.098 4.328-7.535 6.328 2.793 2.175 11.617 0.523 13.75-3.321 1.07-2.886-3.246-3.375-6.215-3.007"/>
   <path d="m487.04 727.6c-1.855-3.145-3.644-4.907-3.832-3.77-0.308 1.883 5.793 12.27 6.801 11.578 0.023-0.015 0.043-0.058 0.062-0.082 0.27-1.023-1.378-4.922-3.031-7.726"/>
   <path d="m280.6 638.94c-6.211 0.847-10.235 5.761-6.731 8.218 3.027 2.125 11.164 0.633 13.067-4.164 0.902-3.515-3.165-4.488-6.336-4.054"/>
   <path d="m484.56 733.24c-2-2.824-3.867-4.168-3.996-2.875-0.234 2.379 6.211 11.5 7.262 10.274 0.024-0.032 0.043-0.079 0.063-0.114 0.226-1.207-1.571-4.804-3.329-7.285"/>
   <path d="m462.09 734.15c-3.457-2.218-5.559-1.128-5.059 1.286 0.817 3.941 8.016 8.347 9.512 5.82 0.082-0.141 0.141-0.352 0.18-0.508 0.207-2.371-2.586-5.285-4.633-6.598"/>
   <path d="m450 734.73c-4.035-1.731-6.215 0.769-4.836 3.828 1.848 4.093 8.703 6.507 10.047 3.531 0.078-0.172 0.133-0.422 0.172-0.606 0.183-2.953-3.106-5.777-5.383-6.753"/>
   <path d="m430.93 629.96c-2.91-1.965-6.446-4.102-7.078-4.145-0.036 0.633 9.578 6.957 11.441 7.715 0.063 0.02 0.149 0.039 0.211 0.043 0.027-0.488-4.105-3.293-4.574-3.613"/>
   <path d="m472.84 736.03c-2.598-2.211-4.781-2.355-4.582-0.3 0.363 3.757 7.355 8.894 8.594 7.351 0.074-0.098 0.125-0.258 0.16-0.375 0.199-1.867-2.297-5.078-4.172-6.676"/>
   <path d="m286.6 670.38c-6.532 0.57-10.231 7.332-5.829 10.633 3.832 2.871 11.34 0.844 12.758-4.715 0.633-4.555-3.672-6.203-6.929-5.918"/>
   <path d="m299.71 683.27c-6.645 0.191-10.41 7.14-6.012 11.097 3.844 3.457 11.563 1.688 12.887-4.363 0.531-4.797-3.699-6.824-6.875-6.734"/>
   <path d="m294.68 610.59c-5.348 0.652-9.699 3.125-7.891 4.488 2.215 1.672 11.676 0.344 14.012-2.531 1.137-2.004-2.895-2.352-6.121-1.957"/>
   <path d="m489.66 723.32c-1.679-3.344-3.351-5.472-3.586-4.554-0.398 1.574 5.164 12.73 6.2 12.433 0.027-8e-3 0.05-0.035 0.066-0.051 0.312-0.808-1.16-4.8-2.68-7.828"/>
   <path d="m312.88 697.63c-6.527-0.024-10.176 7.324-5.742 11.562 3.898 3.727 11.547 2.039 12.746-4.297 0.414-4.996-3.848-7.257-7.004-7.265"/>
   <path d="m452.94 647.8c-2.519-2.387-5.597-4.875-6.16-4.785-0.312 0.644 8.043 8.515 9.934 9.359 0.051 0.012 0.129 0.02 0.18 4e-3 0.148-0.41-1.875-2.617-3.954-4.578"/>
   <path d="m400.03 613.31c-1.148-0.477-1.488-0.602-1.687-0.653 0.519 0.465 11.055 5.18 12.582 5.754 0.066 0.024 0.156 0.051 0.223 0.067-0.125-0.114-0.231-0.215-2.051-1.094l-9.067-4.074"/>
   <path d="m326.24 713.08c-6.207-0.062-9.597 6.664-5.582 11.07 3.817 4.196 11.656 2.766 12.688-3.722 0.277-5.016-3.989-7.317-7.106-7.348"/>
   <path d="m397.66 737.55c-5.258-0.68-8.304 4.246-5.176 8.363 3.188 4.195 10.997 3.988 11.766-1.484 0.082-3.715-3.359-6.461-6.59-6.879"/>
   <path d="m369.78 732.49c-5.863-0.543-9.14 5.707-5.238 9.988 3.672 4.02 11.246 3.059 12.051-2.804 0.117-4.09-3.375-6.867-6.813-7.184"/>
   <path d="m437.5 738.2c-4.059-1.238-6.883 1.434-5.207 4.922 2.055 4.289 9.211 5.879 10.633 2.359 0.086-0.214 0.148-0.523 0.187-0.753 0.133-3.243-3.269-5.809-5.613-6.528"/>
   <path d="m482.75 692.27c-1.984-3.414-4.039-5.832-4.227-4.968-0.246 1.129 5.539 11.883 7.032 12.004 0.531-0.36-1.043-4.012-2.805-7.036"/>
   <path d="m274.56 659.38c-6.254 0.828-10.039 6.844-6.141 9.758 3.492 2.605 10.914 0.461 12.461-4.778 0.723-4.105-3.262-5.383-6.32-4.98"/>
   <path d="m482.43 740.51c-2.325-2.645-4.016-3.094-4.079-1.84-0.14 2.812 6.395 9.562 7.477 8.695 0.07-0.054 0.117-0.172 0.148-0.254 0.18-1.468-1.941-4.777-3.546-6.601"/>
   <path d="m341.52 599.64c-3.118-0.25-8.055-0.43-8.746-0.024 0.285 0.813 12.109 1.547 14.433 1.133 0.074-0.02 0.168-0.055 0.238-0.09-3e-3 -0.035-0.011-0.078-0.015-0.113-0.824-0.481-5.067-0.84-5.91-0.906"/>
   <path d="m322.21 600.01c-4.871 0.051-9.402 0.754-8.816 1.367 0.839 0.883 11.851 0.809 14.562-0.371 0.195-0.117 0.594-0.367-0.328-0.617-0.949-0.266-2.977-0.407-5.418-0.379"/>
   <path d="m487.89 706.2c-1.813-3.633-3.563-5.832-3.86-5.301-0.574 1.036 5.266 12.657 6.313 12.559 0.445-0.492-0.934-4.223-2.453-7.258"/>
   <path d="m269.41 632.02c-5.418 1.102-9.484 5.286-7.016 7.219 2.657 2.086 10.864-0.16 12.762-4.273 0.93-2.996-2.879-3.528-5.746-2.946"/>
   <path d="m359.32 601.57-4.863-0.75c-1.539-0.211-2.152-0.281-2.41-0.265 0.828 0.418 11.941 2.242 13.957 2.41 0.074 4e-3 0.176 4e-3 0.254 4e-3 -0.16-0.098-0.278-0.164-2.578-0.613l-4.36-0.786"/>
   <path d="m477.56 680.09c-2.339-3.551-4.609-5.903-4.832-5.336-0.328 0.836 5.907 10.91 7.629 11.402 0.621-0.137-0.945-3.246-2.797-6.066"/>
   <path d="m492.5 742.2c-1.668-3.133-2.953-4.453-3.192-3.879-0.48 1.161 5.067 11.743 5.876 11.211 0.019-0.011 0.031-0.047 0.042-0.066 0.176-0.887-1.296-4.566-2.726-7.266"/>
   <path d="m339.97 728.78c-6-0.07-9.184 6.45-5.243 10.731 3.844 4.176 11.461 2.859 12.301-3.524 0.16-5.187-4.242-7.175-7.058-7.207"/>
   <path d="m494.52 738.4c-1.489-3.375-2.7-4.993-2.965-4.555-0.543 0.898 4.285 12.019 5.332 12.269 0.011-0.011 0.031-0.027 0.047-0.039 0.187-0.687-1.008-4.488-2.414-7.675"/>
   <path d="m276.26 618.03c-5.399 1.094-9.532 4.317-7.25 5.661 2.465 1.449 10.894-0.676 12.972-3.84 0.93-2.028-2.246-2.524-5.722-1.821"/>
   <path d="m302.7 602.9c-5.004 0.531-9.312 1.949-8.234 2.707 1.39 0.984 11.543-0.098 14.011-1.832 0.958-0.93-1.531-1.047-2.644-1.055-0.422 0-1.566 0.012-3.133 0.18"/>
   <path d="m424.12 743.94c-4.508-0.808-7.285 2.782-4.957 6.403 2.809 4.367 10.043 4.57 10.902 0.308 0.028-0.125 0.043-0.3 0.059-0.429 0.078-3.575-3.461-5.825-6.004-6.282"/>
   <path d="m492.47 720.69c-1.602-3.711-3.074-5.8-3.317-5.195-0.461 1.156 4.7 12.973 5.578 12.77 0.332-0.567-0.918-4.465-2.261-7.575"/>
   <path d="m445.48 640.47c-2.664-2.16-5.703-4.481-6.257-4.778 0.281 0.504 9.226 7.637 10.23 8.325 0.059 0.035 0.137 0.086 0.199 0.113-0.222-0.43-2.992-2.699-4.172-3.66"/>
   <path d="m490.78 747.39c-1.765-2.715-3.183-3.766-3.398-3.047-0.441 1.492 5.019 10.058 6.215 9.754 0.051-0.016 0.094-0.09 0.117-0.137 0.144-1.055-1.613-4.539-2.934-6.57"/>
   <path d="m471.86 669.21c-2.062-2.715-4.711-5.59-5.172-5.363-0.25 0.922 6.598 9.859 8.141 10.625 0.594 0.105-0.547-1.864-1.855-3.735-0.305-0.441-0.766-1.066-1.114-1.527"/>
   <path d="m417.04 621.46-0.227-0.125c3.442 1.871 7.68 4.379 9.457 5.48l-9.23-5.355"/>
   <path d="m372.36 604.24c3.473 0.852 7.907 2.09 10.489 2.875l-10.489-2.875"/>
   <path d="m262.94 650.28c-5.91 1.157-9.621 6.809-5.918 9.02 3.215 1.918 10.219-0.559 11.785-5.164 0.821-3.809-3.164-4.387-5.867-3.856"/>
   <path d="m284.04 608.16c-4.75 0.91-8.965 2.953-7.914 3.828 1.406 1.168 10.949-0.742 13.332-3.066 1.051-1.391-2.117-1.27-4.156-0.977-0.379 0.055-0.883 0.141-1.262 0.215"/>
   <path d="m382.86 747.39c-5.441-0.27-8.289 5.519-4.617 9.386 3.578 3.766 10.742 2.762 11.367-2.808 8e-3 -4.305-3.941-6.438-6.75-6.578"/>
   <path d="m496.62 735.62c-1.265-3.387-2.41-5.359-2.687-5.074-0.535 0.547 3.769 12.332 4.699 12.863 0.016-4e-3 0.035-0.012 0.047-0.015 0.234-0.59-0.934-4.766-2.059-7.774"/>
   <path d="m295.66 711.32c-6.367 0.235-9.703 7.774-5.18 11.696 3.899 3.378 11.008 1.371 11.989-4.844 0.269-4.621-3.309-6.977-6.809-6.852"/>
   <path d="m410.36 751.85c-4.863-0.516-7.625 3.972-4.691 7.621 3.055 3.801 10.305 3.433 10.891-1.633 0-3.68-3.625-5.715-6.2-5.988"/>
   <path d="m480.68 749.13c-2.27-1.953-4.196-2.133-3.961-0.367 0.418 3.168 6.547 7.711 7.566 6.453 0.063-0.078 0.102-0.211 0.129-0.309 0.106-1.555-2.141-4.402-3.734-5.777"/>
   <path d="m470.87 747.28c-2.738-1.687-4.941-1.062-4.359 1.235 0.965 3.82 7.344 6.921 8.465 4.949 0.07-0.121 0.117-0.305 0.144-0.446 0.117-2.054-2.465-4.64-4.25-5.738"/>
   <path d="m460.09 748.15c-3.227-1.418-5.719 0.075-4.68 2.801 1.528 4.008 8.047 5.844 9.188 3.379 0.074-0.16 0.121-0.387 0.148-0.555 0.078-2.171-2.355-4.613-4.656-5.625"/>
   <path d="m282 696.76c-6.316 0.582-9.66 7.808-5.332 11.539 3.727 3.219 11.012 1.031 12.129-5.043 0.414-4.953-3.727-6.781-6.797-6.496"/>
   <path d="m353.93 744.27c-5.684-0.086-8.711 6.257-4.91 10.285 3.714 3.937 11.164 2.613 11.828-3.414 0.015-4.668-4.035-6.829-6.918-6.871"/>
   <path d="m269.07 683.66c-6.023 0.852-9.312 7.731-5.25 10.984 3.469 2.782 10.485 0.372 11.719-5.312 0.516-4.617-3.473-6.094-6.469-5.672"/>
   <path d="m465.59 659.84c-2.109-2.379-4.84-5.137-5.34-5.262-0.027 0.692 7.313 8.785 8.59 9.715 0.047 0.027 0.113 0.059 0.164 0.07 0.031-0.617-3.277-4.363-3.414-4.523"/>
   <path d="m309.4 726.6c-6.355 0.3-9.269 7.699-4.59 11.64 3.918 3.301 10.836 1.367 11.626-4.679 0.16-5.043-4.02-7.106-7.036-6.961"/>
   <path d="m448.27 751.41c-3.661-0.984-6.176 1.348-4.649 4.297 1.961 3.777 8.473 5.035 9.684 1.867 0.07-0.191 0.117-0.465 0.148-0.668 0.047-2.82-3.004-4.914-5.183-5.496"/>
   <path d="m258.7 627.43c-4.637 1.39-8.926 5.074-6.488 6.418 2.473 1.367 9.984-1.235 11.867-4.731 0.98-2.566-2.555-2.531-5.379-1.687"/>
   <path d="m498.98 753.31c-1.019-2.692-2.046-4.676-2.437-4.723-0.692 0.703 4.328 11.742 4.43 11.805 7e-3 -0.012 0.023-0.02 0.031-0.028 0.109-0.566-0.914-4.129-2.024-7.054"/>
   <path d="m252.07 643.36c-5.125 1.418-8.769 6.18-6.093 7.957 2.644 1.762 9.851-1.003 11.503-5.203 0.743-2.836-2.23-3.636-5.41-2.754"/>
   <path d="m491.38 705.86c-1.66-3.687-3.305-6.125-3.484-5.531-0.301 0.996 4.628 11.777 5.55 12.145 0.446-0.176-0.718-3.637-2.066-6.614"/>
   <path d="m489.22 753.57c-1.957-2.34-3.434-2.875-3.446-1.793-0.027 2.297 5.606 8.34 6.477 7.715 0.051-0.039 0.082-0.121 0.105-0.184 0.083-1.132-1.769-4.105-3.136-5.738"/>
  </g>
  <g transform="translate(-117.84,-588.76)" clip-path="url(#7c500f116e)">
   <path d="m327.88 598.98-4.867 0.071c3.242-0.082 9.593-0.035 12.324 0.062l-7.457-0.133" fill="#1025a1"/>
  </g>
  <g transform="translate(-117.84,-588.76)" fill="#1025a1">
   <path d="m497.6 756.4c-1.394-2.961-2.445-4.277-2.621-3.804-0.355 0.976 4.008 9.777 4.911 10.453 0.023-8e-3 0.054-0.02 0.078-0.031 0.07-0.641-1.121-3.981-2.368-6.618"/>
   <path d="m257.28 672.53c-5.754 1.098-9.051 7.504-5.265 10.227 3.273 2.355 9.843-0.192 11.187-5.516 0.633-4.379-3.297-5.215-5.922-4.711"/>
   <path d="m495.34 719.61c-0.996-2.633-2.352-5.48-2.899-5.574-0.605 0.481 3.883 12.445 4.758 12.672 0.324-0.641-0.918-4.613-1.859-7.098"/>
   <path d="m310.88 599.78-0.383 0.039-1.965 0.196c-1.203 0.125-5.179 0.558-5.836 0.804 0.668 0.266 11.903-0.894 13.703-1.261 0.071-0.016 0.168-0.043 0.235-0.071-0.324-0.125-2.262-0.027-5.754 0.293"/>
   <path d="m500.44 751.04c-0.742-2.406-1.722-4.957-2.156-5.168-0.551 0.789 3.766 12.539 3.844 12.613 8e-3 -3e-3 0.019-7e-3 0.027-7e-3 0.121-0.453-0.691-4.137-1.715-7.438"/>
   <path d="m486.97 693.3c-1.399-2.637-3.262-5.516-3.832-5.57-0.539 0.496 4.957 10.859 6.125 11.55 0.019 0 0.046 4e-3 0.066 8e-3 0.328-0.34-0.973-3.375-2.359-5.988"/>
   <path d="m265.68 615.76c-4.782 1.406-8.492 4.023-6.848 4.82 1.914 0.934 10.16-1.64 12.219-4.25 1.019-1.746-2.289-1.398-4.762-0.742-0.184 0.051-0.43 0.117-0.609 0.172"/>
   <path d="m323.4 742.11c-5.886 0.317-8.546 7.02-4.378 11.035 3.769 3.633 10.988 1.79 11.617-4.281 0.027-5.207-4.426-6.906-7.239-6.754"/>
   <path d="m435.75 757.02c-4.074-0.582-6.539 2.68-4.398 5.809 2.5 3.66 9.304 3.598 9.972-0.09 0.02-0.109 0.031-0.254 0.043-0.363-0.023-3.109-3.367-5.035-5.617-5.356"/>
   <path d="m498.9 734.34c-0.757-2.406-1.824-5.184-2.382-5.602-0.028 0.016-0.071 0.039-0.102 0.055-0.203 1.105 3.5 12.773 4.086 12.871 0.219-0.715-0.809-4.785-1.602-7.324"/>
   <path d="m292.22 602.73c-3.031 0.555-7.555 1.618-8.164 2.18 0.015 0.035 0.035 0.078 0.051 0.109 1.406 0.348 10.863-1.492 13.136-2.558 0.074-0.043 0.176-0.106 0.235-0.168-0.012-0.031-0.032-0.078-0.043-0.109-0.836-0.219-4.203 0.363-5.215 0.546"/>
   <path d="m453.49 647.34c0.41 0.367 0.41 0.367 8.922 8.691 0.055 0.047 0.121 0.117 0.176 0.164-0.024-0.027-0.055-0.062-0.082-0.09l-9.016-8.765"/>
   <path d="m482.23 682.46c-1.66-2.672-3.843-5.641-4.269-5.605-0.258 0.593 5.461 9.73 6.727 10.742 0.023 0.011 0.054 0.027 0.078 0.039 0.023-0.02 0.05-0.051 0.074-0.071-0.051-0.71-1.387-3.144-2.61-5.105"/>
   <path d="m246.27 663.26c-5.336 1.34-8.735 7.195-5.43 9.351 2.945 1.926 9.316-0.785 10.711-5.586 0.625-3.464-2.254-4.527-5.281-3.765"/>
   <path d="m396.18 761.55c-4.922-0.047-7.461 4.914-4.317 8.418 3.235 3.605 10.364 2.617 10.832-2.633-0.09-3.953-3.863-5.762-6.515-5.785"/>
   <path d="m367.59 759.04c-5.383 0.168-7.926 6.11-4.188 9.777 3.625 3.555 10.66 2.106 11.141-3.519-0.098-4.465-4.121-6.348-6.953-6.258"/>
   <path d="m496.48 760.51c-1.489-2.488-2.641-3.555-2.789-2.992-0.286 1.113 4.664 9.289 5.296 8.75 0.016-0.012 0.02-0.039 0.028-0.055 0.054-0.723-1.344-3.711-2.535-5.703"/>
   <path d="m501.98 749.56c-0.722-2.852-1.507-5.164-1.875-5.504-0.019 0.019-0.05 0.043-0.074 0.058-0.101 0.989 2.922 12.766 3.301 12.86 0.106-0.711-0.652-4.637-1.352-7.414"/>
   <path d="m273.46 608.19c-4.125 1.168-7.801 2.793-7.285 3.227 0.754 0.625 10.027-1.902 12.422-3.652 0.176-0.164 0.539-0.504-0.34-0.516-0.871-0.012-2.664 0.34-4.797 0.941"/>
   <path d="m338.16 757.43c-5.687 0.101-8.465 6.562-4.508 10.476 3.688 3.649 10.883 1.934 11.391-4.011-0.078-4.125-3.562-6.528-6.883-6.465"/>
   <path d="m503.01 767.88c-0.774-2.457-1.567-4.445-1.926-4.84-0.02 4e-3 -0.047 8e-3 -0.07 8e-3 -0.11 0.808 3.336 10.781 3.609 11.047 0.012-0.36-0.766-3.504-1.613-6.215"/>
   <path d="m422.73 764.8c-4.832-0.254-6.648 4.168-4.015 7.074 2.89 3.187 9.523 2.527 9.949-1.945-0.082-2.977-3.145-4.981-5.934-5.129"/>
   <path d="m241.94 638.72c-4.91 1.832-8.265 6.097-5.613 7.133 2.531 0.992 8.942-2.012 10.551-5.567 0.851-2.672-2.375-2.519-4.938-1.566"/>
   <path d="m248.83 625.11c-4.625 1.754-8.246 5.012-6.348 5.715 1.887 0.699 9.172-2.062 11.122-5.105 0.925-1.957-2.098-1.531-4.227-0.805-0.164 0.055-0.383 0.137-0.547 0.195"/>
   <path d="m278.63 726.1c-6.035 0.547-8.903 7.668-4.578 11.375 3.429 2.934 10.414 1.575 11.25-4.937 0.172-5.141-4-6.676-6.672-6.438"/>
   <path d="m469.37 759.76c-2.859-1.055-4.894 0.222-3.887 2.437 1.481 3.27 7.2 4.625 8.09 2.571 0.055-0.129 0.09-0.317 0.11-0.454 0.011-2.019-2.567-3.914-4.313-4.554"/>
   <path d="m503.69 765.88c-0.488-1.949-1.328-4.887-1.644-5.012-0.149 0.715 3.023 12.082 3.074 12.106-0.012-0.641-0.707-4.196-1.43-7.094"/>
   <path d="m265.1 711.73c-5.79 0.668-8.747 7.727-4.723 11.27 3.453 3.047 10.078 0.719 11.016-5.242 0.261-4.414-3.047-6.399-6.293-6.028"/>
   <path d="m476.96 673.25c-1.879-2.562-4.09-5.293-4.551-5.617-8e-3 0.016-0.015 0.035-0.023 0.047 0.402 0.867 6.207 8.726 7.222 9.781 0.04 0.031 0.094 0.078 0.141 0.105 0.051-0.332-1.801-2.968-2.789-4.316"/>
   <path d="m479.25 759.03c-2.406-1.41-4.281-0.91-3.719 0.985 0.879 2.957 6.504 5.554 7.395 4.035 0.054-0.094 0.086-0.238 0.109-0.344 0.031-1.566-2.219-3.758-3.785-4.676"/>
   <path d="m252.59 698.42c-5.867 1.055-8.699 8.488-4.328 11.367 3.054 2.016 9.054 0.121 10.129-5.828 0.433-4.871-3.329-5.98-5.801-5.539"/>
   <path d="m235.75 656.27c-4.859 1.765-8.043 7.074-5.082 8.476 2.445 1.156 8.551-1.375 10.027-5.804 0.727-3.317-2.519-3.555-4.945-2.672"/>
   <path d="m487.96 760.78c-1.801-1.523-3.34-1.816-3.293-0.625 0.098 2.406 5.734 6.61 6.52 5.633 0.046-0.059 0.074-0.16 0.093-0.231 0.039-1.234-1.937-3.609-3.32-4.777"/>
   <path d="m502.2 769.67c-0.867-2.11-1.633-3.578-1.996-3.832-0.023 0.012-0.055 0.027-0.074 0.039-0.078 0.902 3.742 9.398 4.023 9.523 4e-3 -0.39-0.98-3.355-1.953-5.73"/>
   <path d="m292.78 741.17c-5.91 0.43-8.558 7.613-4.168 11.305 3.832 3.226 10.434 1.183 11.067-4.856 0.035-5.066-4.215-6.644-6.899-6.449"/>
   <path d="m495.41 765.18c-1.566-1.934-2.652-2.477-2.758-1.875-0.281 1.605 4.867 7.043 5.434 6.781 0.035-0.02 0.058-0.078 0.07-0.117 0.024-0.825-1.613-3.387-2.746-4.789"/>
   <path d="m241.07 687.06c-5.543 1.406-8.269 8.476-4.101 10.656 2.867 1.496 8.386-0.66 9.515-6.047 0.532-4.496-3.039-5.215-5.414-4.609"/>
   <path d="m458.54 762.95c-3.453-0.695-5.508 1.672-3.668 4.223 2.129 2.941 7.898 3.305 8.461 0.531 0.019-0.082 0.027-0.195 0.035-0.277-0.035-2.289-2.828-4.071-4.828-4.477"/>
   <path d="m504.58 764.93c-0.52-2.704-1.098-5.004-1.355-5.36-0.274 0.313 2.375 12.625 2.445 12.699 0.012-0.585-0.469-4.109-1.09-7.339"/>
   <path d="m255.75 615.81c-4.035 1.543-7.437 3.672-6.625 4.133 1.078 0.61 9.406-2.531 11.516-4.652 0.164-0.215 0.672-0.871-1.024-0.621-0.433 0.062-1.683 0.301-3.867 1.14"/>
   <path d="m498.25 720.2c-0.828-2.461-1.988-5.265-2.512-5.621-0.027 0.016-0.062 0.039-0.089 0.059-0.141 1.133 3.355 11.394 4.066 11.929 0.332-0.324-0.637-3.906-1.465-6.367"/>
   <path d="m501.11 734.01c-0.687-2.563-1.644-5.336-2.047-5.547-0.543 0.887 3.235 12.441 3.309 12.492 0.242-0.492-0.574-4.379-1.262-6.945"/>
   <path d="m381.73 773.08c-5.117 0.285-7.402 5.813-3.757 9.102 3.476 3.14 10.047 1.574 10.363-3.61-0.18-4.027-3.973-5.636-6.606-5.492"/>
   <path d="m307.49 756.5c-5.867 0.316-8.406 7.312-3.992 11.008 3.762 3.156 10.344 1.187 10.832-4.617-0.074-4.227-3.535-6.567-6.84-6.391"/>
   <path d="m352.52 772.09c-5.364 0.355-7.75 6.363-3.93 9.886 3.684 3.395 10.387 1.688 10.73-3.988-0.183-4.367-4.089-6.078-6.8-5.898"/>
   <path d="m494.92 707.65c-1.066-2.601-2.531-5.507-3.012-5.699-0.433 0.707 4.086 10.805 4.664 11.344 0.02 4e-3 0.039 0.012 0.055 0.015 0.242-0.546-1.047-4.05-1.707-5.66"/>
   <path d="m409.48 774.45c-4.586 0.176-6.82 4.606-3.847 7.641 3.07 3.148 9.636 2 9.953-2.758-0.172-3.524-3.672-4.977-6.106-4.883"/>
   <path d="m468.76 662.93c2.086 2.386 4.172 4.937 5.062 6.07l-5.062-6.07"/>
   <path d="m447.06 768.52c-3.606-0.317-5.735 2.64-3.739 5.187 2.364 3.004 8.336 2.598 8.879-0.601 0.016-0.098 0.02-0.223 0.032-0.317-0.086-2.363-2.75-4.058-5.172-4.269"/>
   <path d="m274.73 606.77c2.926-0.856 9.567-2.586 11.469-3.028l-11.469 3.028"/>
   <path d="m503.57 749c-0.554-2.746-1.23-5.164-1.562-5.621-0.024 4e-3 -0.051 0.012-0.074 0.016-0.145 0.785 2.25 12.382 2.613 12.664 0.137-0.559-0.422-4.321-0.977-7.059"/>
   <path d="m491.12 696.7c-1.176-2.359-2.805-5.195-3.355-5.644-0.024 3e-3 -0.051 0.015-0.071 0.023 0.039 0.856 4.407 9.512 5.309 10.523 0.02 0.016 0.043 0.036 0.062 0.051 0.02-0.015 0.043-0.035 0.063-0.051-0.031-0.574-0.855-2.589-2.008-4.902"/>
   <path d="m232.48 636.41c-4.093 1.93-7.32 5.465-5.66 6.207 1.821 0.813 8.465-2.637 10.098-5.711 0.73-1.871-1.477-1.769-3.93-0.726-0.152 0.066-0.355 0.16-0.508 0.23"/>
   <path d="m506.49 780.55c-0.551-2.953-0.992-4.727-1.133-5.047-0.011 0.203 8e-3 0.363 0.586 3.039 0.364 1.668 0.856 3.953 1.274 6.285-0.153-0.941-0.403-2.516-0.727-4.277"/>
   <path d="m230.48 677.59c-5.066 1.613-7.894 8.039-4.261 9.679 2.574 1.168 7.883-1.156 9.078-6.003 0.566-3.774-2.477-4.422-4.817-3.676"/>
   <path d="m501.59 772.22c-1.301-2.391-2.098-3.219-2.176-2.891-0.183 0.77 3.856 7.426 4.278 7.645 7e-3 -8e-3 0.011-0.016 0.015-0.02-8e-3 -0.367-1.078-2.82-2.117-4.734"/>
   <path d="m506.32 781.01c-0.679-2.676-1.195-4.235-1.343-4.485-0.035 0.102 0.07 0.528 0.746 2.856 0.613 2.125 1.023 3.555 1.5 5.445-0.18-0.797-0.512-2.273-0.903-3.816"/>
   <path d="m226.22 651.53c-4.149 1.899-7.692 6.621-4.848 7.496 2.176 0.668 7.777-2.132 9.238-5.957 0.797-2.953-2.269-2.511-4.39-1.539"/>
   <path d="m322.46 771.69c-5.449 0.348-7.938 6.719-4.035 10.332 3.386 3.141 10.426 1.993 10.793-4.207-0.184-4.511-4.063-6.296-6.758-6.125"/>
   <path d="m239.38 625.18c-3.973 1.906-7.246 4.566-6.035 4.906 1.367 0.387 8.347-2.793 10.351-5.387 0.172-0.285 0.699-1.148-1.152-0.722-0.805 0.187-1.957 0.625-3.164 1.203"/>
   <path d="m505.46 764.23c-0.383-2.676-0.824-4.926-1.051-5.348-0.226 0.559 1.762 12.652 1.805 12.719 0.039-0.547-0.293-4.141-0.754-7.371"/>
   <path d="m506.68 780.14c-0.391-3.008-0.754-4.961-0.871-5.333-0.016 0.176-0.024 0.235 0.386 2.848 0.313 2.02 0.707 4.539 1.028 7.168-0.094-0.867-0.281-2.676-0.543-4.683"/>
   <path d="m434.95 776.23c-4.355 0.043-5.871 3.942-3.422 6.297 2.735 2.633 8.586 1.711 8.875-2.242-0.136-2.664-2.914-4.078-5.453-4.055"/>
   <path d="m263.54 610.51c-2.82 1.039-6.231 2.394-6.82 2.781 0.386 0.18 9.812-3.402 11.422-4.191 0.058-0.032 0.136-0.079 0.195-0.118-0.281-0.101-3.125 0.914-4.797 1.528"/>
   <path d="m486.86 687.63c-1.539-2.567-3.39-5.367-3.769-5.778 0.062 0.434 5.414 9.137 5.793 9.653 0.035 0.043 0.082 0.097 0.121 0.137 0-0.426-1.922-3.649-2.145-4.012"/>
   <path d="m249.17 727.38c-5.379 0.828-7.727 8.313-3.484 11.125 2.984 1.977 8.546 0.238 9.261-5.48 0.153-4.266-2.859-6.09-5.777-5.645"/>
   <path d="m487.06 768.84c-2.085-1.117-3.382-0.649-3.105 0.5 0.555 2.289 5.57 4.457 6.328 3.261 0.043-0.066 0.067-0.171 0.082-0.25-0.019-1.152-1.929-2.781-3.305-3.511"/>
   <path d="m262.29 741.58c-5.348 0.68-7.719 7.449-3.785 10.813 3.398 2.902 9.5 0.761 10.074-4.864 0.043-4.66-3.652-6.285-6.289-5.949"/>
   <path d="m236.95 714.25c-5.031 1.117-7.387 8.281-3.551 10.801 2.766 1.816 8.114-0.242 8.926-5.649 0.274-4.433-2.976-5.679-5.375-5.152"/>
   <path d="m506.16 781.58c-0.715-2.078-1.324-3.519-1.5-3.711-0.031 0.133 0.176 0.723 0.965 2.738 0.559 1.418 1.082 2.758 1.59 4.223-0.199-0.633-0.61-1.953-1.055-3.25"/>
   <path d="m478.23 769.5c-2.613-0.793-4.015 0.477-3.203 2.039 1.352 2.606 6.582 3.328 7 1.555 0.016-0.047 0.02-0.117 0.028-0.172-0.043-1.484-2.25-2.938-3.825-3.422"/>
   <path d="m494.68 770.68c-1.645-1.368-2.715-1.461-2.649-0.692 0.153 1.688 4.778 5.051 5.426 4.465 0.035-0.027 0.051-0.09 0.063-0.129-0.016-0.734-1.54-2.558-2.84-3.644"/>
   <path d="m220.57 670.44c-4.421 1.895-7.086 7.223-4.257 8.516 2.433 1.113 7.515-1.91 8.675-5.996 0.602-3.301-2.218-3.461-4.418-2.52"/>
   <path d="m276.52 756.43c-5.586 0.55-7.84 7.578-3.493 10.902 3.625 2.777 9.707 0.664 10.153-4.84-0.075-4.141-3.516-6.367-6.66-6.062"/>
   <path d="m395.76 785.91c-4.703 0.449-6.692 5.473-3.27 8.266 3.531 2.882 9.285 0.64 9.465-3.696-0.246-3.539-3.769-4.8-6.195-4.57"/>
   <path d="m468.52 772.65c-3.047-0.453-4.5 1.543-3.321 3.309 1.789 2.676 7.11 2.414 7.531 0.223 0.012-0.063 0.02-0.153 0.024-0.219-0.082-1.766-2.512-3.059-4.234-3.313"/>
   <path d="m367.34 786.05c-5.113 0.41-7.313 6.117-3.57 9.25 3.437 2.879 9.773 1.027 9.976-4.024-0.258-3.937-3.902-5.429-6.406-5.226"/>
   <path d="m506.91 780.21c-0.25-3.09-0.515-5.149-0.613-5.57-0.024 0.164-0.027 0.203 0.25 2.886 0.262 2.5 0.488 4.77 0.672 7.301-0.043-0.726-0.153-2.656-0.309-4.617"/>
   <path d="m226.04 702.63c-4.766 1.344-7.219 8.195-3.699 10.328 2.535 1.531 7.543-0.551 8.476-5.816 0.375-4.149-2.566-5.137-4.777-4.512"/>
   <path d="m501.02 775.09c-1.243-1.602-2.075-2.18-2.133-1.793-0.137 0.891 4.012 5.555 4.398 5.515 4e-3 -7e-3 8e-3 -0.019 0.012-0.027-0.027-0.39-1.223-2.324-2.277-3.695"/>
   <path d="m246.52 618.07c-2.911 1.371-6.278 3.227-6.418 3.653 0.75 0.238 8.894-3.743 10.582-5.028 0.16-0.14 0.183-0.168 0.207-0.25-0.45-0.179-3.203 1.078-4.371 1.625"/>
   <path d="m503.36 735.11c-0.531-2.355-1.312-5.086-1.711-5.507-0.019 0.011-0.047 0.027-0.07 0.039-0.152 1.121 2.285 11.015 2.652 11.453 0.254-0.254-0.355-3.703-0.871-5.985"/>
   <path d="m505.15 749.31c-0.418-2.644-1.047-5.566-1.336-5.675-0.16 0.609 1.622 11.578 1.95 11.98 0.156-0.363-0.2-3.687-0.614-6.305"/>
   <path d="m337.38 786.27c-5.074 0.45-7.266 6.286-3.602 9.61 3.52 3.199 10.016 1.32 10.223-4.168-0.277-4.363-4.207-5.653-6.621-5.442"/>
   <path d="m458 778.14c-3.566-0.075-4.941 2.628-3.184 4.511 2.055 2.203 7.532 1.715 7.77-1.363-0.133-2.231-2.883-3.117-4.586-3.148"/>
   <path d="m291.49 771.6c-5.453 0.579-7.59 7.184-3.41 10.543 3.297 2.653 9.789 1.36 10.129-4.523-0.188-4.625-4.039-6.305-6.719-6.02"/>
   <path d="m422.62 785.8c-4.055 0.332-6.113 4.453-3.437 6.891 2.761 2.519 8.765 1.124 8.961-2.95-0.215-2.98-3.426-4.113-5.524-3.941"/>
   <path d="m217.41 649.11c-3.879 2.16-6.832 6.188-4.863 6.621 1.801 0.407 7.222-2.789 8.672-6.066 0.718-2.18-1.688-1.641-3.371-0.789-0.133 0.066-0.309 0.16-0.438 0.234"/>
   <path d="m223.63 636.47c-3.555 2.07-6.449 4.98-5.336 5.367 1.375 0.48 7.641-3.262 9.305-5.926 0.597-1.226-0.653-0.941-1.453-0.66-0.403 0.141-1.262 0.488-2.516 1.219"/>
   <path d="m501.09 722.4c-0.828-2.746-1.848-5.343-2.188-5.554-0.32 0.644 2.86 10.351 3.274 10.886 0.023 0 0.054 0 0.074 4e-3 0.129-0.492-0.488-3.101-1.16-5.336"/>
   <path d="m506.38 764.15c-0.258-2.629-0.594-4.914-0.797-5.429-0.246 0.371 1.156 12.179 1.195 12.261 0.071-0.476-0.113-3.871-0.398-6.832"/>
   <path d="m498.29 711.33c-0.957-2.48-2.102-4.953-2.504-5.402-0.019 4e-3 -0.043 8e-3 -0.062 0.012 0.015 0.738 3.269 9.121 3.914 10.074 0.015 0.019 0.039 0.039 0.05 0.058 0.02-8e-3 0.043-0.023 0.059-0.031 0.012-0.508-0.602-2.488-1.457-4.711"/>
   <path d="m211.58 665.58c-3.957 2.11-6.527 6.828-4.109 7.539 2.164 0.633 6.832-2.515 7.996-6.078 0.629-2.769-1.895-2.519-3.887-1.461"/>
   <path d="m506.02 782.19c-0.813-1.695-1.403-2.671-1.567-2.757-0.027 0.16 0.258 0.738 1.215 2.472 0.719 1.301 1.102 2.012 1.555 2.922-0.317-0.711-0.746-1.683-1.203-2.637"/>
   <path d="m215.9 692.93c-4.425 1.597-6.8 7.73-3.629 9.375 2.485 1.289 6.985-1.555 7.895-5.918 0.461-3.801-2.371-4.137-4.266-3.457"/>
   <path d="m230.44 627.57c-3.149 1.836-5.997 3.965-5.641 4.215 0.508 0.36 7.703-3.754 9.527-5.648 0.145-0.18 0.364-0.449-0.035-0.399-0.539 0.063-2.051 0.785-3.851 1.832"/>
   <path d="m507.1 779.98c-0.105-3.023-0.265-5.011-0.347-5.457-0.028 0.141-0.035 0.176 0.117 2.801 0.168 2.864 0.277 5.008 0.344 7.504-0.012-0.766-0.039-2.805-0.114-4.848"/>
   <path d="m446.84 785.82c-3.543 0.317-5.297 3.446-3.032 5.407 2.418 2.082 7.665 0.961 7.836-2.383-0.187-2.364-2.921-3.192-4.804-3.024"/>
   <path d="m381.97 798.78c-4.614 0.672-6.496 5.766-3.098 8.383 3.266 2.52 9.129 0.602 9.207-4.031-0.316-3.571-3.766-4.696-6.109-4.352"/>
   <path d="m306.93 786.75c-4.785 0.508-7.457 6.566-3.121 9.988 3.566 2.813 9.472 0.911 9.66-4.398-0.285-4.555-4.16-5.848-6.539-5.59"/>
   <path d="m493.64 699.54c-0.766-1.48-1.321-2.492-1.524-2.777-8e-3 0.238 4.055 8.578 4.399 9.176 0.031 0.043 0.07 0.105 0.101 0.144 8e-3 -0.137 8e-3 -0.164-0.258-0.82-0.863-1.93-1.769-3.84-2.718-5.723"/>
   <path d="m409.66 797.18c-4.367 0.597-5.769 5.086-3.207 7.273 2.816 2.399 8.777 0.59 8.879-3.594-0.289-3.035-3.488-3.98-5.672-3.679"/>
   <path d="m352.65 800.12c-5.172 0.613-6.449 6.516-3.086 9.137 3.368 2.617 9.414 0.574 9.5-4.285-0.343-3.832-3.957-5.145-6.414-4.852"/>
   <path d="m206.62 685.5c-4.121 1.945-6.316 7.461-3.359 8.434 2.222 0.73 6.265-2.18 7.199-6.039 0.449-2.946-1.641-3.43-3.84-2.395"/>
   <path d="m247.02 757.3c-4.793 0.746-6.507 7.597-2.582 10.324 3.145 2.191 8.028 0.035 8.414-4.883-0.062-3.91-3.074-5.867-5.832-5.441"/>
   <path d="m494.22 776.5c-1.719-0.805-2.723-0.516-2.473 0.285 0.508 1.629 4.875 3.027 5.191 2.149 8e-3 -0.024 0.012-0.059 0.02-0.083-0.055-0.722-1.625-1.832-2.738-2.351"/>
   <path d="m486.44 777.09c-2.184-0.469-3.25 0.535-2.555 1.656 1.105 1.789 5.519 2.07 5.84 0.781 7e-3 -0.035 0.011-0.086 0.015-0.125-0.074-1.058-1.965-2.023-3.3-2.312"/>
   <path d="m234.44 743.26c-4.699 0.75-6.664 7.613-2.925 10.191 2.668 1.844 7.546 0.277 8.074-4.98 0.058-4.176-2.977-5.563-5.149-5.211"/>
   <path d="m222.54 730.3c-4.594 1.129-6.316 8.133-2.496 10.129 2.488 1.297 6.777-0.629 7.371-5.45 0.152-4.093-2.762-5.199-4.875-4.679"/>
   <path d="m500.71 778.41c-1.316-1.07-2.121-1.258-2.043-0.765 0.16 1.019 4.094 3.546 4.328 3.281 8e-3 -0.012 8e-3 -0.024 0.012-0.035-0.047-0.356-1.332-1.7-2.297-2.481"/>
   <path d="m209.09 649.17c-3.313 2.293-5.871 5.516-4.496 5.656 1.379 0.137 6.492-3.383 7.922-6.148 0.519-1.289-0.563-1.016-1.254-0.742-0.422 0.171-1.141 0.519-2.172 1.234"/>
   <path d="m237.12 622.71-4.586 2.66c2.43-1.445 6.793-3.883 8.555-4.82l-3.969 2.16"/>
   <path d="m261.07 772c-4.902 0.547-6.804 6.781-3.039 9.953 3.258 2.746 8.801 0.84 9.09-4.379-0.16-4.293-3.637-5.844-6.051-5.574"/>
   <path d="m477.86 780.22c-2.648-0.141-3.82 1.504-2.726 2.793 1.531 1.797 6.152 1.363 6.34-0.598-0.106-1.371-2.219-2.121-3.614-2.195"/>
   <path d="m203.35 663.08c-3.418 2.242-5.856 6.188-4.082 6.602 1.722 0.402 6.328-3.075 7.472-6.129 0.602-2.176-1.465-1.559-2.64-0.926-0.231 0.125-0.532 0.305-0.75 0.453"/>
   <path d="m215.35 638.82c-2.903 2.039-5.532 4.528-4.942 4.668 0.742 0.18 6.703-3.828 8.391-6.066 0.125-0.203 0.394-0.625-0.203-0.473-0.582 0.152-1.825 0.867-3.246 1.871"/>
   <path d="m435.22 795.34c-3.61 0.594-5.278 4.152-2.828 6.043 2.492 1.926 7.789 0.289 7.89-3.184-0.223-2.242-2.801-3.23-5.062-2.859"/>
   <path d="m212.07 718.83c-4.32 1.418-6.054 7.98-2.543 9.621 2.489 1.164 6.215-1.226 6.856-5.57 0.246-3.852-2.371-4.688-4.313-4.051"/>
   <path d="m505.89 782.9c-0.875-1.195-1.422-1.75-1.563-1.757-0.09 0.156 0.957 1.375 1.582 2.105 0.422 0.488 0.895 1.043 1.313 1.582-0.657-0.973-0.93-1.379-1.332-1.93"/>
   <path d="m322.42 801.19c-4.848 0.484-6.801 6.203-3.168 9.269 3.375 2.848 9.437 0.918 9.519-4.148-0.339-3.938-3.921-5.368-6.351-5.121"/>
   <path d="m506.72 750.38c-0.301-2.496-0.715-4.735-0.949-5.094-0.016 0.012-0.036 0.023-0.051 0.035-0.141 0.942 1.164 10.442 1.328 10.754 0.16-0.25-0.047-3.32-0.328-5.695"/>
   <path d="m507.3 764.68c-0.125-2.348-0.344-4.532-0.508-5.078-0.016 0.011-0.035 0.023-0.051 0.035-0.082 1.054 0.637 11.078 0.649 11.109 0.086-0.355 0.054-3.422-0.09-6.066"/>
   <path d="m468.43 785.68c-2.813 0.195-4.375 2.359-2.746 3.789 1.789 1.57 6.441 0.75 6.586-1.692-0.145-1.711-2.434-2.195-3.84-2.097"/>
   <path d="m505.58 737.5c-0.387-2.004-1.101-4.953-1.398-5.055-0.16 0.528 1.562 9.406 1.957 10.11 0.019 0 0.043-4e-3 0.058-8e-3 0.098-0.481-0.183-2.793-0.617-5.047"/>
   <path d="m198.19 680.48c-3.468 2.086-5.629 6.985-3.253 7.383 1.949 0.324 5.699-2.707 6.613-5.976 0.457-2.418-1.348-2.614-3.36-1.407"/>
   <path d="m276.1 787.1c-5.122 0.531-6.883 6.628-2.817 9.734 3.094 2.359 8.82 1.102 9.004-4.297-0.262-4.402-3.934-5.668-6.187-5.437"/>
   <path d="m396.54 810.01c-4.168 0.804-5.847 5.39-2.758 7.547 2.715 1.894 8.418 0.312 8.411-4.059-0.36-3.086-3.52-3.898-5.653-3.488"/>
   <path d="m507.32 780.17c0.032-2.86-0.035-4.789-0.09-5.246-0.031 0.101-0.039 0.125-0.011 2.504 0.023 2.035 0.054 4.566 0 7.398 0.019-0.664 0.086-2.691 0.101-4.656"/>
   <path d="m202.42 708.93c-3.926 1.66-5.621 7.843-2.453 8.945 2.199 0.762 5.597-1.789 6.281-5.738 0.312-3.27-1.742-4.09-3.828-3.207"/>
   <path d="m367.93 812.82c-4.371 0.77-6.016 5.762-2.703 8.207 3.195 2.368 8.812 0.317 8.8-4.222-0.41-3.617-3.957-4.364-6.097-3.985"/>
   <path d="m222.17 632.05c-2.242 1.547-4.754 3.375-5.168 3.758 0.316-0.055 7.309-4.918 8.504-5.864 0.047-0.043 0.113-0.097 0.16-0.144-0.207-8e-3 -2.516 1.57-3.496 2.25"/>
   <path d="m503.22 724.13c-0.172-0.524-0.742-2.27-1.031-2.676h-0.051c-0.055 0.59 2.097 8.434 2.562 9.324 8e-3 0.012 0.024 0.035 0.039 0.051 0.012-8e-3 0.036-0.016 0.047-0.023 0.012-0.098 0.031-0.282-0.156-1.293-0.437-1.809-0.91-3.602-1.41-5.383"/>
   <path d="m291.78 802.11c-4.281 0.442-6.738 5.727-3.023 9.016 3.34 2.953 9.097 1.27 9.176-3.816-0.344-3.985-3.805-5.438-6.153-5.2"/>
   <path d="m338.14 815c-4.504 0.688-6.149 5.781-2.747 8.516 3.25 2.609 8.95 0.672 8.934-4.102-0.398-3.633-3.859-4.766-6.187-4.414"/>
   <path d="m423.23 806.66c-3.797 0.828-5.332 4.961-2.454 6.594 2.711 1.535 7.504-0.434 7.52-3.852-0.309-2.558-3.207-3.148-5.066-2.742"/>
   <path d="m458.09 793.34c-3.235 0.59-4.282 3.383-2.418 4.633 2.262 1.519 6.547-0.215 6.64-2.688-0.199-1.84-2.589-2.246-4.222-1.945"/>
   <path d="m195.9 662.92c-2.773 2.199-5.093 5.555-4.003 5.793 1.097 0.234 5.597-3.359 6.796-6.113 0.485-1.446-0.722-0.969-1.265-0.696-0.422 0.211-0.996 0.594-1.528 1.016"/>
   <path d="m201.49 651.48c-2.543 2.109-4.812 4.714-4.258 4.894 0.754 0.242 5.848-3.973 7.219-6.223 0.106-0.21 0.328-0.656-0.16-0.535-0.484 0.121-1.559 0.836-2.801 1.864"/>
   <path d="m193.91 701.14c-3.359 1.695-5.269 7.054-2.84 7.965 1.883 0.71 5.344-2.075 6.074-5.618 0.325-2.652-1.386-3.277-3.234-2.347"/>
   <path d="m190.57 677.9c-3.004 2.301-4.91 6.188-3.086 6.309 1.598 0.101 5.106-3.059 6.028-5.934 0.488-2.105-1.207-1.511-2.285-0.832-0.203 0.129-0.465 0.313-0.657 0.457"/>
   <path d="m500.62 781.81c-1.488-0.555-2.148-0.313-1.953 0.097 0.406 0.844 3.781 1.645 4.016 1.199 4e-3 -7e-3 7e-3 -0.027 0.011-0.039-0.054-0.316-1.246-0.945-2.074-1.257"/>
   <path d="m220.9 758.96c-4.074 0.652-5.609 6.547-2.343 9.019 2.324 1.758 6.476 0.45 6.824-4.359-0.031-3.933-2.695-4.941-4.481-4.66"/>
   <path d="m233.2 772.89c-4.281 0.543-5.664 6.644-2.082 9.199 2.75 1.961 6.817 0.141 7.055-4.332-0.137-3.988-3.125-5.102-4.973-4.867"/>
   <path d="m493.91 782.38c-1.703-0.152-2.562 0.578-1.98 1.254 0.863 1 4.504 0.988 4.636-0.02-0.082-0.648-1.621-1.144-2.656-1.234"/>
   <path d="m207.63 643.37c-1.957 1.621-4.262 3.703-4.422 4.059 0.406 0.019 6.297-4.942 7.441-6.176 0.118-0.137 0.137-0.16 0.157-0.223-0.325-4e-3 -2.516 1.789-3.176 2.34"/>
   <path d="m209.42 746.16c-3.898 1.051-5.098 7.27-1.734 8.996 2.082 1.071 5.597-0.531 6.004-4.847 0.054-3.672-2.461-4.633-4.27-4.149"/>
   <path d="m505.98 783.81c-0.965-0.746-1.446-0.972-1.575-0.929-0.047 0.101 0.293 0.363 0.582 0.566 0.723 0.496 1.508 0.895 2.235 1.379-0.418-0.336-0.824-0.683-1.242-1.016"/>
   <path d="m246.75 787.5c-4.234 0.383-5.773 6.145-2.387 8.938 2.895 2.386 7.504 0.707 7.653-3.903-0.219-3.777-3.211-5.219-5.266-5.035"/>
   <path d="m447.54 802.81c-3.125 0.769-4.582 3.808-2.473 5.16 2.192 1.402 6.75-0.379 6.782-3.274-0.246-1.972-2.668-2.293-4.309-1.886"/>
   <path d="m307.62 816.53c-4.641 0.555-6.141 6.008-2.395 8.703 3.258 2.348 8.415 0.551 8.391-4.046-0.398-3.661-3.746-4.93-5.996-4.657"/>
   <path d="m486.36 785.48c-2.089 0.171-2.992 1.441-2.117 2.23 1.227 1.102 5.016 0.309 5.129-1.074-0.105-0.906-1.816-1.254-3.012-1.156"/>
   <path d="m383.3 824c-3.711 0.863-5.692 5.258-2.367 7.352 3.007 1.89 7.964-0.168 7.859-4.164-0.414-2.985-3.461-3.661-5.492-3.188"/>
   <path d="m199.59 734.77c-3.547 1.062-5.043 7.031-2.133 8.511 1.91 0.977 5.234-0.785 5.715-4.793 0.137-3.312-2.055-4.176-3.582-3.718"/>
   <path d="m186.19 695.88c-2.973 1.972-4.68 6.472-2.61 6.879 1.602 0.312 4.641-2.5 5.36-5.539 0.367-2.297-1.145-2.407-2.75-1.34"/>
   <path d="m410.94 819.45c-4.093 0.969-5.043 5.203-2.34 6.668 2.7 1.465 7.375-0.683 7.317-4.141-0.32-2.242-2.781-3.046-4.977-2.527"/>
   <path d="m354.07 827.64c-4.484 0.835-5.359 5.785-2.343 7.839 3.046 2.071 8.261 0.032 8.148-4.129-0.406-2.886-3.332-4.171-5.805-3.71"/>
   <path d="m477.92 790.93c-2.434 0.504-3.336 2.277-2.113 3.101 1.625 1.094 5.32-0.301 5.414-2.047-0.153-1.23-2.106-1.297-3.301-1.054"/>
   <path d="m261.46 802.49c-4.281 0.27-5.914 5.84-2.527 8.637 2.734 2.262 7.882 1.273 7.941-3.641-0.305-3.664-3.351-5.125-5.414-4.996"/>
  </g>
  <g transform="translate(-117.84,-588.76)" clip-path="url(#f701794a62)">
   <path d="m508.2 765.66c-0.023-2.308-0.148-4.312-0.277-4.472-0.168 0.519 0.101 9.617 0.117 9.671 0.09-0.238 0.18-2.8 0.16-5.199" fill="#1025a1"/>
  </g>
  <g transform="translate(-117.84,-588.76)" clip-path="url(#619bac85f1)">
   <path d="m508.07 750.69c-0.023-0.211-0.246-2.079-0.441-2.52h-0.047c-0.125 0.562 0.531 8.523 0.75 9.059 0.047-0.067 0.125-0.184 0.082-1.715-0.086-1.617-0.203-3.223-0.344-4.824" fill="#1025a1"/>
  </g>
  <g transform="translate(-117.84,-588.76)" fill="#1025a1">
   <path d="m507.52 780.46c0.148-2.586 0.175-4.367 0.148-4.762-0.035 0.11-0.043 0.133-0.129 2.504-0.09 2.477-0.176 4.449-0.32 6.625 0.097-1.258 0.211-2.738 0.301-4.367"/>
   <path d="m190.43 724.96c-3.282 1.402-4.629 7.055-1.899 7.961 1.848 0.613 4.625-1.625 5.11-5.004 0.187-2.789-1.485-3.695-3.211-2.957"/>
   <path d="m188.93 665.24c-2.235 2.168-4.188 4.887-3.547 4.934 0.711 0.047 4.824-3.856 5.957-6.106 0.097-0.23 0.324-0.777-0.282-0.515-0.437 0.187-1.234 0.82-2.128 1.687"/>
   <path d="m183.73 677.73c-2.382 2.262-4.125 5.438-2.96 5.391 1.105-0.043 4.496-3.277 5.445-5.855 0.355-1.258-0.422-1.004-0.914-0.743-0.25 0.129-0.785 0.465-1.571 1.207"/>
   <path d="m436.25 814.16c-3.117 0.981-4.41 4.266-2.168 5.488 2.27 1.239 6.688-0.836 6.641-3.757-0.309-2.071-2.805-2.258-4.473-1.731"/>
   <path d="m324.1 830.27c-4.098 0.449-5.805 5.023-2.856 7.644 2.938 2.613 8.547 0.895 8.402-3.558-0.464-3.372-3.648-4.293-5.546-4.086"/>
   <path d="m276.97 817.49c-4.301 0.465-5.66 5.508-2.207 8.18 3.074 2.383 7.929 0.859 7.886-3.555-0.41-3.773-3.703-4.84-5.679-4.625"/>
   <path d="m194.53 655.95c-1.648 1.621-3.668 3.836-3.8 4.254 0.015 4e-3 0.035 0.016 0.05 0.023 0.715-0.351 5.063-4.609 6.235-6.21 0.093-0.149 0.113-0.18 0.133-0.254-0.016-8e-3 -0.04-0.02-0.055-0.028-0.481 0.2-1.949 1.617-2.563 2.215"/>
   <path d="m468.71 798.59c-2.5 0.801-3.629 3.062-1.914 3.84 1.754 0.801 5.426-0.821 5.465-2.836-0.196-1.414-2.196-1.438-3.551-1.004"/>
   <path d="m182.41 717.07c-2.887 1.692-4.133 6.633-1.797 7.141 1.559 0.34 4.039-2.047 4.547-5.051 0.246-2.547-1.23-2.976-2.75-2.09"/>
   <path d="m179.3 693.1c-2.375 2.004-4.016 5.757-2.582 5.906 1.269 0.133 4.16-2.809 4.882-5.43 0.372-1.894-1.007-1.398-1.785-0.871-0.16 0.109-0.363 0.27-0.515 0.395"/>
   <path d="m398.41 833.42c-3.559 0.992-4.855 4.863-2.133 6.371 2.586 1.434 7.106-0.711 6.961-4.051-0.379-2.273-2.769-2.89-4.828-2.32"/>
   <path d="m369.96 838.82c-3.723 0.957-4.918 5.156-1.961 6.906 2.781 1.649 7.438-0.406 7.258-4.023-0.469-2.809-3.379-3.379-5.297-2.883"/>
   <path d="m208.6 773.97c-3.273 0.476-4.39 5.601-1.679 7.718 2.129 1.672 5.363 0.082 5.551-3.621-0.09-2.867-2.079-4.359-3.872-4.097"/>
   <path d="m505.83 784.51c-1.125-0.235-1.394-0.125-1.344-0.039 0.051 0.093 0.399 0.176 0.696 0.215 0.675 0.089 1.359 0.078 2.039 0.144-0.469-0.094-0.926-0.223-1.391-0.32"/>
   <path d="m293 831.9c-3.875 0.535-5.102 5.117-2.02 7.535 2.958 2.324 7.801 0.789 7.68-3.371-0.41-3-3.262-4.497-5.66-4.164"/>
   <path d="m220.58 787.79c-3.519 0.332-4.66 5.527-1.715 7.828 2.125 1.66 5.762 0.613 5.883-3.437-0.18-3.282-2.547-4.543-4.168-4.391"/>
   <path d="m459.07 808.07c-2.754 1.012-3.59 3.532-1.968 4.293 1.796 0.84 5.625-1.113 5.613-3.343-0.235-1.489-2.274-1.45-3.645-0.95"/>
   <path d="m500.46 785.12c-1.395 0.086-1.891 0.555-1.602 0.824 0.59 0.559 3.434-0.058 3.532-0.531-0.063-0.273-1.274-0.336-1.93-0.293"/>
   <path d="m197.93 761.21c-3.223 0.648-4.293 6-1.524 7.633 1.746 1.031 4.641-0.164 4.91-3.864-0.015-3.031-2.027-4.042-3.386-3.769"/>
   <path d="m175.39 711.55c-2.227 1.695-3.52 5.738-1.946 6.09 1.297 0.293 3.703-2.172 4.235-4.856 0.258-2.035-0.989-2.226-2.289-1.234"/>
   <path d="m494.01 788.23c-1.75 0.411-2.281 1.34-1.688 1.707 0.864 0.536 3.844-0.554 3.938-1.445-0.09-0.516-1.399-0.461-2.25-0.262"/>
   <path d="m424.67 827c-2.953 1.129-4.098 4.356-1.938 5.484 2.059 1.079 6.547-0.777 6.411-3.878-0.368-2.118-2.887-2.211-4.473-1.606"/>
   <path d="m233.6 802.39c-3.622 0.211-4.414 5.117-1.985 7.429 2.414 2.297 6.422 0.977 6.477-3.027-0.235-2.867-2.516-4.516-4.492-4.402"/>
   <path d="m340.39 842.93c-3.91 0.711-5.117 4.996-1.989 7.054 2.864 1.883 7.461 0.035 7.262-3.789-0.484-3.011-3.418-3.601-5.273-3.265"/>
   <path d="m188.48 749.96c-2.859 0.77-4 5.965-1.585 7.219 1.554 0.804 4.183-0.535 4.503-3.961 0.055-2.805-1.671-3.594-2.918-3.258"/>
   <path d="m177.68 679.88c-1.742 1.996-3.305 4.59-2.785 4.625 0.574 0.043 3.843-3.609 4.73-5.699 0.074-0.223 0.254-0.739-0.223-0.516-0.359 0.172-1.004 0.766-1.722 1.59"/>
   <path d="m182.66 669.77c-1.34 1.57-2.968 3.718-3.058 4.14 0.019 8e-3 0.039 0.016 0.05 0.024 0.614-0.336 4.129-4.422 5.036-5.965 0.117-0.219 0.128-0.254 0.113-0.32-0.277-0.043-1.949 1.902-2.141 2.121"/>
   <path d="m173.3 692.72c-1.852 1.965-3.328 4.976-2.469 5.035 0.809 0.054 3.551-2.942 4.289-5.281 0.297-1.247-0.461-0.872-0.797-0.649-0.105 0.067-0.488 0.328-1.023 0.895"/>
   <path d="m247.83 817.35c-3.562 0.203-4.726 4.726-1.863 7.222 2.558 2.235 6.582 1.028 6.539-2.937-0.324-3.121-2.93-4.387-4.676-4.285"/>
   <path d="m486.66 793.71c-1.914 0.688-2.668 2.051-1.73 2.453 1.211 0.528 4.176-1.023 4.226-2.211-0.121-0.742-1.531-0.59-2.496-0.242"/>
  </g>
  <g transform="translate(-117.84,-588.76)" clip-path="url(#a59b239a28)">
   <path d="m507.8 779.98c0.199-1.968 0.242-2.914 0.242-3.14-0.031 0.058-0.043 0.078-0.207 1.918-0.156 1.758-0.355 3.941-0.613 6.07 0.113-0.89 0.23-1.785 0.336-2.68 0.086-0.722 0.168-1.449 0.242-2.168" fill="#1025a1"/>
  </g>
  <g transform="translate(-117.84,-588.76)" fill="#1025a1">
   <path d="m189.5 660.83-3.945 4.535c1.57-1.855 3.629-4.176 4.441-5.086 0.031-0.035 0.07-0.078 0.102-0.109l-0.598 0.66"/>
   <path d="m179.98 740.25c-2.562 1.078-3.593 5.566-1.511 6.578 1.316 0.641 3.632-0.789 4.004-4.008 0.113-2.398-1.204-3.113-2.493-2.57"/>
   <path d="m448.71 819.46c-2.516 1.137-3.52 3.781-1.703 4.496 1.859 0.731 5.554-1.383 5.469-3.625-0.286-1.543-2.368-1.5-3.766-0.871"/>
   <path d="m309.87 845.67c-3.676 0.508-4.855 4.543-1.969 6.746 3.051 2.328 7.313 0.391 7.125-3.242-0.425-2.68-2.976-3.809-5.156-3.504"/>
   <path d="m478.36 801.44c-1.847 0.891-2.718 2.512-1.582 2.938 1.278 0.48 4.403-1.254 4.407-2.778-0.188-1.058-1.981-0.566-2.825-0.16"/>
   <path d="m263.19 832.32c-3.547 0.203-4.692 4.469-1.825 6.813 2.383 1.949 6.668 1.269 6.532-2.797-0.399-3.102-3.098-4.113-4.707-4.016"/>
   <path d="m385.8 848.25c-3.25 0.992-4.32 4.562-1.762 5.879 2.477 1.277 6.543-0.727 6.324-3.828-0.406-2.113-2.652-2.633-4.562-2.051"/>
   <path d="m169.41 708.47c-1.89 1.793-3.097 5.164-1.847 5.152 0.929-0.012 3.05-2.316 3.586-4.66 0.328-2.078-1.282-0.879-1.352-0.824-0.121 0.09-0.277 0.226-0.387 0.332"/>
   <path d="m172.51 732.47c-2.114 1.343-3.035 5.355-1.348 5.875 1.117 0.347 3.137-1.321 3.516-4.024 0.148-2.093-1.008-2.593-2.168-1.851"/>
   <path d="m413.02 840.95c-2.899 1.164-3.856 4.313-1.598 5.258 2.262 0.953 5.992-1.109 5.801-3.84-0.387-1.984-2.692-2.023-4.203-1.418"/>
   <path d="m356.77 854.13c-3.105 0.848-4.48 4.543-1.492 6.148 2.61 1.399 6.559-0.394 6.317-3.625-0.477-2.519-3.11-2.992-4.825-2.523"/>
   <path d="m469.71 810.96c-2.106 1.102-2.719 3.004-1.516 3.367 1.395 0.422 4.453-1.554 4.418-3.211-0.203-1.047-1.82-0.722-2.902-0.156"/>
   <path d="m279.15 846.72c-3.433 0.351-4.082 4.16-1.789 6.136 2.508 2.168 6.848 1.036 6.664-2.543-0.402-2.515-2.796-3.804-4.875-3.593"/>
   <path d="m172.3 684.28c-1.121 1.559-2.434 3.668-2.371 3.906 0.414-0.148 3.211-4.074 3.886-5.453 0.086-0.199 0.094-0.234 0.083-0.3-0.25 0.031-1.11 1.171-1.598 1.847"/>
   <path d="m326.62 858.34c-3.133 0.683-4.055 4.25-1.539 5.961 2.547 1.734 6.68 0.226 6.422-3.102-0.5-2.598-3.152-3.238-4.883-2.859"/>
   <path d="m167.87 695.02c-1.301 1.786-2.402 3.989-2 3.993 0.453 7e-3 2.867-3.176 3.539-5.047 0.059-0.203 0.196-0.68-0.179-0.457-0.223 0.129-0.696 0.593-1.36 1.511"/>
   <path d="m438.16 832.25c-2.457 1.133-3.418 3.754-1.625 4.457 1.821 0.715 5.356-1.437 5.223-3.684-0.316-1.527-2.293-1.371-3.598-0.773"/>
   <path d="m197.58 788.3c-2.621 0.175-3.469 4.304-1.258 6.136 1.524 1.266 4.125 0.539 4.211-2.679-0.125-2.512-1.801-3.532-2.953-3.457"/>
   <path d="m208.81 802.08c-2.722 0.195-3.453 4.27-1.117 6.227 1.864 1.566 4.528 0.488 4.543-2.594-0.207-2.656-2.129-3.727-3.426-3.633"/>
   <path d="m505.88 785.28c-1.317 0.442-1.113 0.555-1.113 0.555 0.238 0.082 1.339-0.465 2.402-0.992-0.422 0.164-0.86 0.293-1.289 0.437"/>
   <path d="m174.47 679.91c0.031-0.039 3.691-5.105 4.051-5.621 0.027-0.039 0.058-0.086 0.085-0.129-0.039 0.035-0.058 0.051-0.445 0.574l-3.691 5.176"/>
   <path d="m187.35 775.61c-2.414 0.332-3.18 4.543-1.09 6.004 1.492 1.047 3.621-0.203 3.758-2.906-0.063-2.133-1.434-3.27-2.668-3.098"/>
   <path d="m166.28 726.74c-1.812 1.532-2.636 4.985-1.211 5.059 0.899 0.043 2.512-1.582 2.895-3.93 0.199-1.933-0.863-1.824-1.684-1.129"/>
   <path d="m221.35 816.64c-2.786 0.214-3.453 4.222-1.024 6.125 1.809 1.418 4.762 0.781 4.707-2.395-0.281-2.719-2.367-3.832-3.683-3.73"/>
   <path d="m500.54 788.48c-1.188 0.598-1.484 1.106-1.16 1.176 0.625 0.141 2.722-1.211 2.777-1.644-0.07-0.227-1.117 0.218-1.617 0.468"/>
   <path d="m164.18 707.99c-1.309 1.633-2.496 4.34-1.68 4.207 0.668-0.101 2.492-2.476 3.004-4.41 0.191-0.93-0.149-0.867-0.469-0.656-0.137 0.09-0.426 0.324-0.855 0.859"/>
   <path d="m178.33 764.48c-2.117 0.668-2.672 4.684-0.785 5.653 1.281 0.656 3.047-0.653 3.211-3.055-0.016-2.102-1.246-2.969-2.426-2.598"/>
   <path d="m296.18 860.57c-2.719 0.434-3.973 3.563-1.457 5.477 2.379 1.808 6.234 0.699 5.992-2.438-0.457-2.383-2.926-3.297-4.535-3.039"/>
   <path d="m494.3 794.04c-1.258 0.777-1.746 1.652-1.195 1.738 0.816 0.125 3.003-1.457 3.039-2.199-0.094-0.406-1.157 0.035-1.844 0.461"/>
   <path d="m460.33 822.4c-1.953 1.161-2.656 3.11-1.238 3.422 1.621 0.356 4.289-1.773 4.199-3.351-0.246-1.117-1.879-0.711-2.961-0.071"/>
   <path d="m235.09 831.6c-2.528 0.183-3.578 3.57-1.067 5.714 2.024 1.727 5.008 0.864 4.899-2.175-0.332-2.606-2.438-3.637-3.832-3.539"/>
   <path d="m373.21 863.56c-2.777 0.863-3.66 3.75-1.52 4.98 2.356 1.356 5.875-0.687 5.625-3.262-0.402-1.82-2.414-2.242-4.105-1.718"/>
   <path d="m401.17 855.76c-2.559 1.062-3.379 3.91-1.371 4.762 2.004 0.855 5.484-1.09 5.254-3.493-0.414-1.793-2.563-1.82-3.883-1.269"/>
   <path d="m170.65 754.82c-1.851 0.746-2.464 4.293-0.871 5.059 1.043 0.504 2.575-0.887 2.766-3.047 0.047-2.055-1.105-2.328-1.895-2.012"/>
   <path d="m161.04 723.46c-1.285 1.39-2.129 4.137-1.269 4.137 0.671 3e-3 2.128-1.774 2.496-3.676 0.203-1.528-0.715-0.906-0.821-0.828-0.093 0.066-0.257 0.207-0.406 0.367"/>
   <path d="m427.29 846.24c-2.551 1.223-2.996 3.676-1.277 4.18 1.777 0.516 4.785-1.465 4.613-3.52-0.305-1.332-1.91-1.343-3.336-0.66"/>
   <path d="m343.91 869.48c-2.777 0.578-3.789 3.504-1.711 4.969 1.973 1.399 6.028 0.301 5.723-2.773-0.406-1.879-2.367-2.535-4.012-2.196"/>
   <path d="m250.22 846.57c-2.688-0.015-3.606 3.149-1.488 5.133 2.089 1.953 5.179 1.024 5.16-1.558 0-0.094-8e-3 -0.215-0.016-0.301-0.32-2.113-2.125-3.262-3.656-3.274"/>
   <path d="m487.24 801.79c-1.371 0.938-1.859 2.016-1.242 2.172 0.91 0.23 3.242-1.649 3.242-2.613-0.121-0.547-1.265-0.059-2 0.441"/>
   <path d="m163.38 699.37c-0.766 1.293-1.66 3.027-1.621 3.238 0.308-0.136 2.281-3.562 2.719-4.629 0.058-0.168 0.066-0.195 0.054-0.246-0.191 0.067-0.73 0.922-1.152 1.637"/>
   <path d="m164.03 747.07c-1.484 0.836-2.129 3.965-0.906 4.407 0.852 0.304 2.188-1.086 2.387-2.93 0.062-1.485-0.703-1.918-1.481-1.477"/>
   <path d="m165.66 694.05c0.016-0.027 2.524-4.235 2.891-4.887 0.027-0.051 0.055-0.098 0.078-0.148-0.113 0.133-0.75 1.203-0.941 1.527l-2.028 3.508"/>
   <path d="m159.74 710.05c-0.926 1.5-1.722 3.41-1.371 3.297 0.356-0.118 1.895-2.606 2.34-4.063 0.035-0.152 0.129-0.519-0.094-0.379-0.133 0.078-0.429 0.422-0.875 1.145"/>
   <path d="m313.47 873.3c-2.532 0.519-3.184 3.25-1.106 4.641 2.094 1.394 5.418 0.285 5.149-2.329-0.461-2.07-2.641-2.601-4.043-2.312"/>
   <path d="m450.62 835.28c-1.738 1.098-2.371 2.969-1.109 3.278 1.402 0.347 4.062-1.578 3.926-3.211-0.27-1.106-1.809-0.707-2.817-0.067"/>
   <path d="m479.58 811.42c-1.293 0.961-1.898 2.277-1.098 2.39 0.93 0.126 3.196-1.707 3.149-2.785-0.16-0.648-1.317-0.148-2.051 0.395"/>
   <path d="m266.02 861.06c-2.496 0.027-3.382 2.558-1.535 4.375 2.133 2.093 5.149 0.91 5.067-1.348 0-0.07-0.012-0.164-0.02-0.234-0.387-2.071-2.312-2.801-3.512-2.793"/>
   <path d="m198.26 815.27c-1.844 0.094-2.211 2.903-0.567 4.356 1.313 1.156 3.098 0.547 3.059-1.637-0.168-1.75-1.422-2.773-2.492-2.719"/>
   <path d="m158.5 741.44c-1.16 1.004-1.668 3.598-0.707 3.602 0.574 4e-3 1.578-1.149 1.797-2.742 0.097-1.254-0.489-1.379-1.09-0.86"/>
   <path d="m187.59 801.51c-1.774 0.027-2.27 2.859-0.75 4.265 1.183 1.098 2.875 0.407 2.883-1.691-0.114-1.629-1.172-2.59-2.133-2.574"/>
   <path d="m178.05 788.83c-1.637 0.145-2.086 2.988-0.664 4.168 0.937 0.777 2.472 0.246 2.527-1.848-0.082-1.703-1.141-2.382-1.863-2.316v-4e-3"/>
   <path d="m156.65 722.88c-0.886 1.316-1.519 3.273-1.011 3.125 0.425-0.121 1.578-1.922 1.886-3.313 0.086-0.496 0-0.672-0.257-0.515-0.157 0.097-0.383 0.351-0.618 0.703"/>
   <path d="m389.44 871.07c-2.351 0.867-2.746 3.219-1.144 3.883 1.679 0.691 4.527-0.895 4.293-2.848-0.324-1.25-1.856-1.507-3.149-1.035"/>
   <path d="m416.24 861.13c-1.73 0.914-2.59 2.875-1.07 3.426 1.527 0.558 4.199-1.106 3.969-2.891-0.344-1.324-1.961-1.027-2.899-0.535"/>
   <path d="m210.38 829.82c-1.754 0.024-2.481 2.383-0.754 4.074 1.324 1.297 3.336 0.914 3.324-1.136 0-0.067-8e-3 -0.157-8e-3 -0.223-0.242-2-1.699-2.727-2.562-2.715"/>
   <path d="m360.77 879.05c-2.075 0.687-2.942 2.98-0.958 3.902 1.676 0.781 4.59-0.308 4.29-2.535-0.418-1.676-2.223-1.734-3.332-1.367"/>
   <path d="m506.01 785.96c-0.203 0.184-0.817 0.738-0.844 0.848 0.176 0.027 1.621-1.504 1.691-1.614-0.308 0.227-0.566 0.512-0.847 0.766"/>
   <path d="m169.86 777.75c-1.386 0.223-1.801 2.813-0.597 3.742 0.851 0.657 2.023-0.136 2.101-1.879-0.035-1.445-0.805-1.976-1.504-1.863"/>
   <path d="m158.68 707.73c0.496-1.07 1.015-2.129 1.515-3.199 0.016-0.035 0.032-0.07 0.047-0.105-0.011 0.023-0.031 0.058-0.047 0.086l-1.515 3.218"/>
   <path d="m471.29 822.93c-1.187 0.937-1.691 2.168-0.926 2.277 0.93 0.133 2.942-1.543 2.852-2.629-0.18-0.703-1.277-0.156-1.926 0.352"/>
   <path d="m223.68 844.81c-1.703-0.047-2.285 2.089-0.969 3.574 1.203 1.355 3.418 1.246 3.551-0.582 8e-3 -0.117 0-0.278-0.012-0.395-0.262-1.73-1.688-2.57-2.57-2.597"/>
   <path d="m500.88 791.69c-0.719 0.683-1 1.136-0.809 1.136 0.336-4e-3 1.836-1.535 1.864-1.902-0.051-0.129-0.676 0.402-1.055 0.766"/>
   <path d="m283.07 875.04c-2.101 0.121-2.894 2.191-1.367 3.574 1.731 1.559 4.594 0.836 4.508-1.14-4e-3 -0.067-0.016-0.161-0.023-0.231-0.36-1.726-2.063-2.262-3.118-2.203"/>
   <path d="m331.19 884.59c-2.054 0.418-2.671 2.594-1.015 3.578 1.465 0.875 4.32 0.09 4.054-1.945-0.375-1.473-2.003-1.844-3.039-1.633"/>
   <path d="m440.79 849.28c-1.672 0.992-2.027 2.516-1.004 2.801 1.176 0.328 3.414-1.316 3.25-2.711-0.265-0.969-1.535-0.512-2.246-0.09"/>
   <path d="m162.73 768.17c-1.062 0.394-1.386 2.801-0.441 3.266 0.664 0.324 1.574-0.481 1.656-1.844-4e-3 -1.168-0.621-1.637-1.215-1.422"/>
   <path d="m156.12 714.44c-0.414 0.883-0.933 2.114-0.976 2.379 4e-3 8e-3 7e-3 0.012 0.011 0.02 0.16-0.176 1.278-2.5 1.582-3.402 0.043-0.133 0.047-0.157 0.043-0.196-0.109 0.067-0.422 0.688-0.66 1.199"/>
   <path d="m154.07 738.09c-0.777 0.984-1.199 2.848-0.621 2.726 0.34-0.07 1.129-1.058 1.336-2.402 0.098-0.887-0.219-0.777-0.414-0.637-0.063 0.047-0.168 0.141-0.301 0.313"/>
   <path d="m153.17 724.8c-0.48 0.965-0.875 2.101-0.758 2.172 0.227-0.071 1.059-1.836 1.289-2.746 0.039-0.188 0.043-0.247 4e-3 -0.266-0.113 0.031-0.355 0.477-0.535 0.84"/>
   <path d="m495.03 799.51c-0.703 0.68-1.117 1.387-0.808 1.379 0.406-0.016 1.843-1.453 1.832-1.957-0.09-0.313-0.926 0.488-1.024 0.578"/>
   <path d="m238.27 859.92c-1.563-0.074-2.164 1.562-1.055 2.875 1.129 1.332 3.254 1.351 3.348-0.348 7e-3 -0.121-4e-3 -0.281-0.016-0.398-0.273-1.602-1.563-2.09-2.277-2.129"/>
   <path d="m156.9 760.52c-0.825 0.536-1.055 2.426-0.309 2.559 0.414 0.078 1.051-0.5 1.141-1.617 0.027-1.027-0.481-1.168-0.832-0.942"/>
   <path d="m462.62 835.88c-0.988 0.777-1.383 1.89-0.695 1.961 0.664 0.066 2.359-1.282 2.254-2.176-0.176-0.617-1.125-0.121-1.559 0.215"/>
   <path d="m300.6 887.98c-1.731 0.253-1.758 1.793-0.793 2.578 1.347 1.09 3.468 0.433 3.343-1.039-4e-3 -0.043-0.011-0.098-0.019-0.141-0.34-1.348-1.75-1.512-2.531-1.398"/>
   <path d="m405.17 876.65c-1.152 0.622-1.508 1.918-0.609 2.235 0.992 0.351 2.824-0.766 2.64-1.883-0.25-0.797-1.359-0.715-2.031-0.352"/>
   <path d="m377.63 886.75c-1.305 0.512-1.664 1.832-0.637 2.312 1.223 0.575 2.949-0.515 2.762-1.738-0.266-0.922-1.445-0.844-2.125-0.574"/>
   <path d="m488.4 809.35c-0.547 0.562-0.942 1.253-0.622 1.261 0.434 0.012 1.688-1.258 1.657-1.808-0.09-0.332-0.778 0.281-1.035 0.547"/>
   <path d="m253.65 874.52c-1.238 0.019-1.847 1.32-0.71 2.379 1.136 1.054 2.761 0.773 2.761-0.481 0-0.07-8e-3 -0.164-0.015-0.234-0.266-1.231-1.391-1.676-2.036-1.664"/>
   <path d="m214.4 858.41v-4e-3c8e-3 0.032 0.02 0.063 0.028 0.094 0 0-4e-3 0-4e-3 -4e-3 -0.016-0.012-0.031-0.023-0.043-0.035 4e-3 -0.016 0.012-0.035 0.019-0.051zm-1.828-1.523h4e-3c-0.016 0.019-0.031 0.035-0.043 0.055-0.023-0.02-0.047-0.036-0.07-0.055h0.109"/>
   <path d="m270.31 888.48c-0.89 0.043-1.371 0.883-0.64 1.61 0.855 0.848 2.262 0.656 2.246-0.305 0-0.047-0.012-0.113-0.02-0.164-0.222-0.875-1.089-1.164-1.586-1.141"/>
  </g>
  <g transform="translate(-117.84,-588.76)" clip-path="url(#c30267b6de)">
   <path d="m318.8 899.05c-0.988 0.191-1.442 1.179-0.516 1.742 0.918 0.559 2.344 0.125 2.164-0.895-0.242-0.816-1.117-0.957-1.648-0.847" fill="#1025a1"/>
  </g>
  <g transform="translate(-117.84,-588.76)" fill="#1025a1">
   <path d="m348.83 894.5c-0.953 0.289-1.402 1.301-0.504 1.758 0.895 0.457 2.281-0.11 2.11-1.094-0.235-0.773-1.09-0.824-1.606-0.664"/>
   <path d="m430.65 864.4c-0.722 0.461-1.129 1.344-0.539 1.524 0.676 0.207 1.957-0.692 1.828-1.461-0.191-0.602-0.996-0.246-1.289-0.063"/>
   <path d="m453.62 849.97c-0.648 0.519-1.012 1.324-0.496 1.386 0.59 0.075 1.723-0.894 1.621-1.539-0.144-0.433-0.754-0.144-1.125 0.153"/>
   <path d="m481.18 820.92c-0.457 0.469-0.782 1.102-0.481 1.102 0.395 3e-3 1.379-1.008 1.324-1.477-0.086-0.27-0.55 0.078-0.843 0.375"/>
   <path d="m506.11 786.59c-0.093 0.152-0.261 0.414-0.289 0.476 0.063-0.031 0.633-0.984 0.637-0.992-0.031 0.032-0.25 0.371-0.348 0.516"/>
   <path d="m150.56 729.03c-0.168 0.473-0.395 1.164-0.403 1.246 0.055-0.078 0.504-1.339 0.621-1.757 8e-3 -0.032 0.012-0.059 0.02-0.09-0.012 0.012-0.039 0.031-0.238 0.601"/>
   <path d="m150.64 737.34c-0.348 0.633-0.657 1.66-0.438 1.598 0.195-0.051 0.656-0.965 0.781-1.657 0.012-0.093 0.055-0.386-0.093-0.285-0.063 0.047-0.153 0.172-0.25 0.344"/>
   <path d="m152.24 754.96c-0.527 0.488-0.726 1.746-0.281 1.769 0.281 0.016 0.68-0.554 0.754-1.289 0.035-0.699-0.274-0.664-0.473-0.48"/>
   <path d="m169.99 800.88c-0.629 8e-3 -0.875 1.137-0.199 1.742 0.387 0.348 0.977 0.188 0.969-0.676-0.059-0.789-0.492-1.07-0.77-1.066"/>
   <path d="m178.87 813.62c-0.676-0.035-0.945 1.02-0.254 1.746 0.453 0.481 1.102 0.36 1.145-0.418 4e-3 -0.047 4e-3 -0.109 0-0.156-0.078-0.832-0.574-1.156-0.891-1.172"/>
   <path d="m189.04 827.38c-0.687-0.059-1.004 0.906-0.344 1.691 0.543 0.645 1.278 0.535 1.356-0.203 8e-3 -0.09 4e-3 -0.168 0-0.234-0.106-0.864-0.664-1.223-1.012-1.254"/>
   <path d="m162.55 789.84c-0.449 0.051-0.621 0.988-0.125 1.348 0.25 0.183 0.637 0.035 0.644-0.61-0.027-0.586-0.328-0.762-0.519-0.738"/>
   <path d="m200.5 841.86c-0.699-0.07-1.063 0.793-0.442 1.602 0.575 0.746 1.434 0.754 1.563 0.012 0.02-0.125 0.016-0.219 8e-3 -0.313-0.133-0.883-0.746-1.258-1.129-1.301"/>
   <path d="m213.2 856.66c-0.754-0.078-1.141 0.785-0.453 1.606 0.664 0.8 1.633 0.757 1.691-0.075 8e-3 -0.093 0-0.156-3e-3 -0.23-0.161-0.875-0.825-1.258-1.235-1.301"/>
  </g>
 </g>
</svg>
