<svg xmlns="http://www.w3.org/2000/svg" viewBox="0 0 170 36.156">
  <g transform="translate(-1.481 -1.49)">
    <path d="M25.236 33.935a15.312 15.312 0 0 1-4.466 1.015v-4.249a11.187 11.187 0 0 0 10.028-11.126A11.186 11.186 0 0 0 20.77 8.448V4.191a15.3 15.3 0 0 1 4.592 1.069l1.6-2.527 3.552 2.049-1.388 2.656a15.527 15.527 0 0 1 2.6 2.6l2.586-1.349 2.045 3.544-2.454 1.56a15.278 15.278 0 0 1 .963 3.607l2.824.117v4.117l-2.824.119a15.237 15.237 0 0 1-.982 3.647l2.324 1.473-2.053 3.55-2.455-1.285a15.52 15.52 0 0 1-2.706 2.669l1.259 2.4-3.542 2.051Zm85.875-10.159c-4.505 0-7.119-2.361-7.119-7.523s2.614-7.523 7.691-7.523h2.318c2.888 0 5.971 1.547 5.971 3.825a1.074 1.074 0 0 1-.285.8 1.066 1.066 0 0 1-.778.344h-1.228a1.529 1.529 0 0 1-1.4-.976c-.382-.722-1.361-1.064-2.635-1.064h-1.852c-3.06 0-3.888 1.126-3.888 4.59s.829 4.59 3.315 4.59h2.125c2.337 0 3.1-.979 3.125-2.466h-2.339a.988.988 0 0 1-.978-.978v-.807a.988.988 0 0 1 .978-.978h5.207a.989.989 0 0 1 .975.978v1.147c0 3.825-2.294 6.037-6.871 6.037ZM64.2 23.701a.982.982 0 0 1-.7-.293.98.98 0 0 1-.28-.7V12.573l-3.655 10.186a1.473 1.473 0 0 1-1.274.935h-1.49a1.471 1.471 0 0 1-1.274-.935l-3.653-10.2v10.135a.984.984 0 0 1-.281.7.979.979 0 0 1-.7.293h-1.872a.974.974 0 0 1-.7-.295.975.975 0 0 1-.28-.7V9.825a.977.977 0 0 1 .271-.7.983.983 0 0 1 .687-.3h4.228a1.415 1.415 0 0 1 1.255.979l3.059 8.86 3.06-8.86a1.414 1.414 0 0 1 1.252-.979h4.231a.981.981 0 0 1 .686.3.977.977 0 0 1 .271.7v12.882a.982.982 0 0 1-.28.7.978.978 0 0 1-.7.293Zm92.8-.007a.991.991 0 0 1-.981-.978V9.792a.97.97 0 0 1 .274-.692.963.963 0 0 1 .687-.287h8.561c3.1 0 5.42 1.788 5.42 4.719 0 2.3-1.762 3.358-3.911 3.779.87.319 1.509 1.063 2.36 2.4l1.89 3c.343.553.192.977-.361.977h-2.485a2.14 2.14 0 0 1-1.595-.977l-1.762-2.758a3.092 3.092 0 0 0-2.637-1.7l-2.526-.006v4.466a.975.975 0 0 1-.285.692.983.983 0 0 1-.692.286Zm2.935-8.375h4.42c1.19 0 2.7-.424 2.7-1.785s-1.508-1.785-2.7-1.785h-4.42Zm-22.783 8.092a.714.714 0 0 1-.1-.678l2.613-9.881c.87-3.292 3.866-4.038 6.883-4.038h5.591a.926.926 0 0 1 .891.958v12.961a.969.969 0 0 1-.976.957h-1.951a.959.959 0 0 1-.695-.282.959.959 0 0 1-.281-.695v-2.614h-7.375l-.7 2.614a1.336 1.336 0 0 1-1.234.977h-2.102a.714.714 0 0 1-.566-.279Zm6.269-9.582-.909 3.337h6.61v-5.418h-3.038a2.747 2.747 0 0 0-2.665 2.08Zm-74.519 9.582a.711.711 0 0 1-.1-.678l2.615-9.881c.872-3.292 3.867-4.038 6.884-4.038h5.588a.928.928 0 0 1 .892.958v12.961a.97.97 0 0 1-.978.957h-1.952a.963.963 0 0 1-.7-.282.961.961 0 0 1-.281-.695v-2.614h-7.375l-.7 2.614a1.336 1.336 0 0 1-1.234.977h-2.1a.708.708 0 0 1-.562-.279Zm6.27-9.582-.907 3.337h6.612v-5.418h-3.041a2.748 2.748 0 0 0-2.666 2.08Zm60.179 9.861h-11.926a.98.98 0 0 1-.7-.293.989.989 0 0 1-.28-.7V9.778a.972.972 0 0 1 .978-.958h11.967a.97.97 0 0 1 .69.288.968.968 0 0 1 .285.69v.978a.97.97 0 0 1-.286.692.978.978 0 0 1-.692.286h-9.03v3.018h7.777a.989.989 0 0 1 .978.977v.979a.989.989 0 0 1-.978.976h-7.777v3.061h9.013a.955.955 0 0 1 .677.28.956.956 0 0 1 .28.677v1a.983.983 0 0 1-.286.692.977.977 0 0 1-.687.285Zm-44.657 0h-1.947a.985.985 0 0 1-.976-.977V9.792a.956.956 0 0 1 .272-.69.962.962 0 0 1 .684-.289h7.925c3.95 0 6.269 1.788 6.269 5.782s-2.318 5.779-6.269 5.779h-4.981v2.338a.977.977 0 0 1-.286.692.974.974 0 0 1-.686.285Zm.978-6.247h3.779c2.041 0 3.55-.427 3.55-2.848s-1.509-2.848-3.55-2.848h-3.779Z" fill="#545456"/>
    <path d="M1.481 19.569A18.115 18.115 0 0 1 18.44 1.49v6.951A11.186 11.186 0 0 0 8.412 19.567 11.187 11.187 0 0 0 18.44 30.694v6.952A18.115 18.115 0 0 1 1.481 19.569Zm60.41 12.151c0-2.446 1.342-3.436 3.7-3.436s3.707.99 3.707 3.436-1.35 3.435-3.707 3.435-3.7-.99-3.7-3.434Zm3.7 2.2c1.413 0 1.97-.781 1.97-2.2s-.552-2.2-1.97-2.2-1.969.79-1.97 2.2.561 2.197 1.974 2.197Zm43.8 1.2c-1.668 0-2.563-.792-2.563-2.045a1.853 1.853 0 0 1 1.1-1.791 1.506 1.506 0 0 1-.412-1.075c0-1.009.83-1.876 2.44-1.876 1.52 0 2.508.527 2.508 1.6a.284.284 0 0 1-.081.2.285.285 0 0 1-.2.081h-.612a.621.621 0 0 1-.53-.343 1.191 1.191 0 0 0-1.063-.435c-.548 0-.859.255-.859.688 0 .47.344.837.789 1.225l1.6 1.385.451-.651a.278.278 0 0 1 .377-.073l.5.343a.274.274 0 0 1 .127.181.274.274 0 0 1-.048.214l-.557.783 1.178 1.057a.24.24 0 0 1 .082.277.241.241 0 0 1-.242.156h-1.047a1.316 1.316 0 0 1-.942-.479 3.416 3.416 0 0 1-1.9.575Zm-1.018-2.048c0 .515.263.933 1.133.933a1.643 1.643 0 0 0 .969-.27l-1.638-1.48a.862.862 0 0 0-.461.816Zm-58.156 2c-2 0-3.157-1.046-3.157-3.335s1.159-3.336 3.412-3.336h1.031c1.282 0 2.649.687 2.649 1.695a.473.473 0 0 1-.123.359.471.471 0 0 1-.346.156h-.551a.67.67 0 0 1-.617-.433 1.291 1.291 0 0 0-1.172-.472h-.825c-1.356 0-1.726.5-1.726 2.036s.37 2.036 1.473 2.036h.94c1.031 0 1.375-.434 1.386-1.094l-1.042-.014a.439.439 0 0 1-.434-.433v-.358a.439.439 0 0 1 .434-.434h2.31a.443.443 0 0 1 .436.434v.515c0 1.7-1.02 2.677-3.048 2.677Zm116.675 0c-1.186 0-2.458-.687-2.458-1.695a.471.471 0 0 1 .123-.361.476.476 0 0 1 .349-.154h.548a.655.655 0 0 1 .62.431 1 1 0 0 0 .982.472h1.609c.567 0 .813-.2.813-.527 0-1.094-4.981-.479-4.981-2.919-.007-1.13.653-1.921 2.915-1.921h1.168c1.187 0 2.461.687 2.461 1.7a.475.475 0 0 1-.124.359.476.476 0 0 1-.346.156h-.549a.655.655 0 0 1-.62-.433 1 1 0 0 0-.982-.473h-1.383c-.564 0-.81.2-.81.53 0 1.091 4.981.459 4.981 2.919 0 1.13-.66 1.919-2.92 1.919Zm-47.122 0c-1.189 0-2.463-.687-2.463-1.695a.483.483 0 0 1 .123-.361.479.479 0 0 1 .35-.154h.545a.648.648 0 0 1 .62.431 1.007 1.007 0 0 0 .984.472h1.609c.567 0 .813-.2.813-.527 0-1.094-4.98-.479-4.98-2.919 0-1.13.662-1.921 2.921-1.921h1.163c1.192 0 2.464.687 2.464 1.7a.475.475 0 0 1-.124.359.477.477 0 0 1-.347.156h-.545a.655.655 0 0 1-.624-.433 1 1 0 0 0-.981-.473h-1.389c-.564 0-.809.2-.809.53 0 1.091 4.981.459 4.981 2.919 0 1.13-.662 1.919-2.921 1.919Zm-21.13 0c-1.186 0-2.458-.687-2.458-1.695a.473.473 0 0 1 .123-.361.476.476 0 0 1 .347-.154h.548a.653.653 0 0 1 .62.431 1 1 0 0 0 .982.472h1.611c.564 0 .813-.2.813-.527 0-1.094-4.981-.479-4.981-2.919-.008-1.13.65-1.921 2.915-1.921h1.169c1.186 0 2.458.687 2.458 1.7a.475.475 0 0 1-.124.359.476.476 0 0 1-.347.156h-.544a.66.66 0 0 1-.624-.433 1 1 0 0 0-.979-.473h-1.385c-.566 0-.81.2-.81.53 0 1.091 4.981.459 4.981 2.919 0 1.13-.66 1.919-2.919 1.919Zm54.475 0c-2.25 0-3.411-1.046-3.411-3.336s1.159-3.335 3.408-3.335h1.031c1.282 0 2.649.687 2.649 2.025a.487.487 0 0 1-.124.359.481.481 0 0 1-.349.156h-.543c-.264 0-.482-.124-.662-.515a1.17 1.17 0 0 0-1.132-.726h-.821c-1.358 0-1.719.5-1.719 2.036s.367 2.035 1.719 2.035h.915a1.158 1.158 0 0 0 1.13-.725c.183-.388.4-.516.662-.516h.545a.482.482 0 0 1 .349.155.488.488 0 0 1 .124.361c0 1.339-1.374 2.026-2.649 2.026Zm5.1-.034a.429.429 0 0 1-.308-.13.438.438 0 0 1-.124-.312v-5.733a.428.428 0 0 1 .433-.424h5.308a.421.421 0 0 1 .31.125.429.429 0 0 1 .129.307v.436a.439.439 0 0 1-.126.308.435.435 0 0 1-.307.127h-4.008v1.338h3.453a.438.438 0 0 1 .433.433v.434a.436.436 0 0 1-.433.431h-3.453v1.359h4a.417.417 0 0 1 .3.125.418.418 0 0 1 .121.3v.441a.428.428 0 0 1-.126.307.433.433 0 0 1-.307.126Zm-15.942 0a.7.7 0 0 1-.66-.472l-2.649-5.739a.291.291 0 0 1 .3-.388h1.009a.647.647 0 0 1 .547.433l1.782 3.979 1.783-3.971a.644.644 0 0 1 .548-.433h1.011c.2 0 .394.188.3.386l-2.647 5.734a.7.7 0 0 1-.66.472Zm-16.8 0a.44.44 0 0 1-.308-.13.435.435 0 0 1-.126-.312v-5.733a.434.434 0 0 1 .434-.425h5.309a.435.435 0 0 1 .436.433v.436a.435.435 0 0 1-.436.436h-4v1.338h3.454a.435.435 0 0 1 .43.433v.434a.434.434 0 0 1-.43.431h-3.454v1.358h4a.429.429 0 0 1 .3.124.42.42 0 0 1 .124.3v.441a.437.437 0 0 1-.126.307.436.436 0 0 1-.307.126Zm-69.8 0a.44.44 0 0 1-.309-.13.433.433 0 0 1-.123-.312v-5.733a.432.432 0 0 1 .431-.425h5.308a.435.435 0 0 1 .436.433v.436a.435.435 0 0 1-.436.436h-4.005v1.338h3.449a.438.438 0 0 1 .436.433v.434a.439.439 0 0 1-.436.431h-3.449v1.358h4a.42.42 0 0 1 .3.126.418.418 0 0 1 .121.3v.441a.428.428 0 0 1-.126.307.439.439 0 0 1-.308.126Zm17.369-.126a.31.31 0 0 1-.043-.3l1.16-4.381c.386-1.461 1.719-1.792 3.056-1.792h2.477a.421.421 0 0 1 .287.13.411.411 0 0 1 .109.295v5.748a.431.431 0 0 1-.434.425h-.858a.428.428 0 0 1-.31-.126.429.429 0 0 1-.126-.307v-1.16h-3.279l-.31 1.16a.594.594 0 0 1-.545.433h-.934a.312.312 0 0 1-.249-.136Zm2.78-4.255-.4 1.485h2.92v-2.4h-1.355a1.2 1.2 0 0 0-1.163.904Zm71.2 3.954V28.87a.433.433 0 0 1 .126-.305.427.427 0 0 1 .307-.126h.859a.431.431 0 0 1 .311.123.435.435 0 0 1 .132.308v5.733a.443.443 0 0 1-.443.433h-.862a.431.431 0 0 1-.424-.436Zm-9.448.425a.946.946 0 0 1-.7-.433l-.785-1.225a1.369 1.369 0 0 0-1.166-.754h-1.127v1.979a.426.426 0 0 1-.124.306.432.432 0 0 1-.3.127h-.87a.442.442 0 0 1-.436-.433V28.87a.423.423 0 0 1 .121-.305.43.43 0 0 1 .3-.127h3.8a2.15 2.15 0 0 1 2.4 2.093c0 1.017-.783 1.488-1.735 1.678A2.306 2.306 0 0 1 138 33.273l.839 1.33c.15.246.082.433-.162.433Zm-3.78-3.712h1.961c.53 0 1.2-.19 1.2-.792s-.668-.791-1.2-.791h-1.961ZM82.716 35.03h-.867a.436.436 0 0 1-.433-.433V28.87a.422.422 0 0 1 .121-.3.425.425 0 0 1 .3-.129h3.5c1.755 0 2.782.792 2.782 2.563s-1.031 2.566-2.782 2.566h-2.2v1.03a.435.435 0 0 1-.126.307.43.43 0 0 1-.3.125Zm.433-2.765h1.678c.9 0 1.573-.189 1.573-1.264s-.669-1.261-1.573-1.261h-1.678Zm6.257 2.765a.438.438 0 0 1-.433-.433V28.87a.429.429 0 0 1 .121-.3.431.431 0 0 1 .3-.129h3.527c1.75 0 2.78.792 2.78 2.563s-1.03 2.566-2.78 2.566h-2.216v1.03a.433.433 0 0 1-.433.433Zm1.3-2.765h1.68c.9 0 1.573-.189 1.573-1.264s-.671-1.261-1.573-1.261h-1.68ZM18.432 8.453v.006Z" fill="#78be20"/>
    <path d="M26.235 19.568a6.63 6.63 0 1 1-6.63-6.63 6.63 6.63 0 0 1 6.63 6.63Z" fill="#009fdf" fill-rule="evenodd"/>
  </g>
</svg>