<?xml version="1.0" encoding="UTF-8"?>
<svg width="644px" height="162px" viewBox="0 0 644 162" version="1.1" xmlns="http://www.w3.org/2000/svg" xmlns:xlink="http://www.w3.org/1999/xlink">
    <title>mobia-logo</title>
    <g id="mobia-logo" stroke="none" stroke-width="1" fill="none" fill-rule="evenodd">
        <g id="Logo" transform="translate(26.000000, 7.000000)">
            <path d="M20.3137255,8.17592804 L65.5843137,116.398873 L110.854902,8.17592804 L131.168627,8.17592804 L131.168627,142 L118.4,142 L118.4,24.4675542 L69.0666667,142 L62.1019608,142 L12.7686275,24.4675542 L12.7686275,142 L0,142 L0,8.17592804 L20.3137255,8.17592804 Z M452.705882,8.17592804 L452.705882,142 L439.937255,142 L439.937255,8.17592804 L452.705882,8.17592804 Z M372.989246,8.17592804 C392.221751,8.17592804 410.337255,20.1989004 410.337255,40.7591803 C410.337255,57.7563906 399.418773,67.4343719 386.529147,72.1098809 L387.628841,72.260294 C405.467935,74.8174107 417.258452,82.3520716 416.721569,103.59831 C415.971228,133.291777 389.281236,141.829676 370.086232,141.997464 L369.506893,142 L328.501961,142 L328.501961,8.17592804 L372.989246,8.17592804 Z M533.960784,8.17592804 L592,142 L576.329412,142 L561.466729,105.925685 L493.686212,105.925685 L478.823529,142 L463.152941,142 L521.192157,8.17592804 L533.960784,8.17592804 Z M376.471599,77.997183 L341.270588,77.997183 L341.270588,129.199437 L373.389124,129.196054 C389.311075,129.196054 402.792157,119.615776 402.792157,103.59831 C402.792157,86.6972534 389.561897,78.1686243 376.856438,77.9997418 L376.471599,77.997183 Z M527.576471,23.6715919 L498.481412,94.2888091 L556.671529,94.2888091 L527.576471,23.6715919 Z M341.270588,19.8128039 L341.270588,66.3603072 L374.150031,66.3603072 C386.9717,66.3603072 396.204933,57.7156085 396.204933,43.0865555 C396.204933,28.4575025 385.210639,19.8161868 368.745987,19.8161868 L341.270588,19.8128039 Z M216.021507,0 C230.489369,0 243.617678,7.52015499 257.297365,18.0507945 C270.749188,28.406024 282.977722,41.6977582 288.910033,53.7830842 L283.407492,52.1473547 C270.391448,48.2558678 254.811088,43.1316404 241.354718,31.6178689 C217.784961,11.4507055 205.777862,8.23907939 194.915496,8.17686359 L194.415143,8.17568816 C200.235354,3.12931493 207.379661,0 216.021507,0 Z" id="Shape" fill="#0E1214"></path>
            <path d="M172.539224,66.2767803 C172.539224,90.713528 179.228998,127.09235 212.309522,127.09235 C225.498441,127.09235 240.485281,120.763966 254.273422,112.608089 C275.068777,100.307346 292.572049,82.7283023 292.572049,67.5168575 C292.572049,63.2868068 291.200552,58.5829377 288.794973,53.680868 L291.675862,54.5559818 C303.082637,58.0888578 311,61.5581013 311,69.833679 C311,84.0925262 285.688498,102.603255 258.713527,120.764099 L255.369938,123.008461 C235.297625,136.446504 215.436217,149 202.170148,149 C170.274111,149 153,94.6824578 153,64.4454043 C153,34.2083508 170.770968,8 194.343561,8 L194.172159,8 C178.658265,21.453927 172.539224,48.5131787 172.539224,66.2767803 Z" id="Path" fill="#F7C214"></path>
        </g>
    </g>
</svg>