<svg id="Layer_1" data-name="Layer 1" xmlns="http://www.w3.org/2000/svg" xmlns:xlink="http://www.w3.org/1999/xlink" viewBox="0 0 200 200"><defs><style>.cls-1{fill:url(#New_Gradient_Swatch_copy);}</style><linearGradient id="New_Gradient_Swatch_copy" x1="6.653" y1="100" x2="193.347" y2="100" gradientUnits="userSpaceOnUse"><stop offset="0" stop-color="#3ab88a"/><stop offset="1" stop-color="#3659a8"/></linearGradient></defs><path class="cls-1" d="M167.688,24.583H154.6l-19.04,51.131-6.089-11.506c13.869-4.893,16.4-25.722,5.653-34.467-10.077-10.341-73.253-3.581-86.8-5.409V69.525L20.778,24.332H6.653V92.879H20.778V47.773c0,.008,27.492,45.088,27.5,45.106h56.762V67.786h11.255l12.851,25.093h15.04c.192-.6,4.444-13.331,4.623-13.874H173.57l4.758,14.125h15.019ZM90.92,81.531H62.364V63.078H85.132V52.109H62.364V35.774H90.92ZM124.671,53.64c-3.573,4.043-14.592,2.39-19.634,2.7V35.774c5.053.328,16.428-1.361,19.8,2.776C128.482,41.93,128.6,50.342,124.671,53.64Zm27.948,13.924,8.522-25.658,8.615,25.658ZM90.626,131.915c-5.7-8.838-20.659-9.179-27.5-2.014-6.622,5.855-6.746,23.554.539,28.687,8.946,7.972,27.366,4.9,29.637-7.312H83.719c-3.945,7.512-16.6,4.317-16.078-4.808H93.8C93.944,141.455,93.615,136.14,90.626,131.915Zm-22.751,8.361c.227-9.77,16-10.327,16.177,0Zm39.339-2.6c-5.537,15.756,9.793,24.709,12.715,11.07h9.589c-2.33,21.343-35.333,17.7-33.04-4.2-2.648-21.731,30.95-28.1,33.139-5.779l-9.624-.007C119.744,131.7,109.164,130.844,107.214,137.674Zm57.387,3.014v21.1h-9.588V139.922c.113-3.59-1.382-7.394-5.816-7.191-12-.251-6.245,21.993-7.524,29.062h-9.39V113.4h9.39v17.127C149.616,118.736,167.616,126.656,164.6,140.688ZM49.685,126.206h5.836v6.688H49.685v18.978c-.431,4.118,2.551,3.2,5.836,3.226v7.014c-6.612.344-15.566,1.038-15.126-7.113v-22.1H35.388v-6.688h5.006V116.193h9.291Zm143.662,49.969H6.653V100.231H193.347ZM13.526,169.3H186.474V107.107H13.526Z"/></svg>