<?xml version="1.0" encoding="UTF-8" standalone="no"?>
<!-- Created with Inkscape (http://www.inkscape.org/) -->

<svg
   xmlns:dc="http://purl.org/dc/elements/1.1/"
   xmlns:cc="http://creativecommons.org/ns#"
   xmlns:rdf="http://www.w3.org/1999/02/22-rdf-syntax-ns#"
   xmlns:svg="http://www.w3.org/2000/svg"
   xmlns="http://www.w3.org/2000/svg"
   xmlns:sodipodi="http://sodipodi.sourceforge.net/DTD/sodipodi-0.dtd"
   xmlns:inkscape="http://www.inkscape.org/namespaces/inkscape"
   width="156.12938mm"
   height="60.189194mm"
   viewBox="0 0 156.12938 60.189194"
   version="1.1"
   id="svg8"
   inkscape:version="0.92.3 (2405546, 2018-03-11)"
   sodipodi:docname="osgeo-oceania-temp.svg"
   inkscape:export-filename="/home/john/data/working/org/osgeo-oceania/design/logos/oo_logo.png"
   inkscape:export-xdpi="300"
   inkscape:export-ydpi="300">
  <defs
     id="defs2">
    <rect
       height="180.10001"
       width="552.09998"
       id="SVGID_1_"
       x="0"
       y="0" />
  </defs>
  <sodipodi:namedview
     id="base"
     pagecolor="#ffffff"
     bordercolor="#666666"
     borderopacity="1.0"
     inkscape:pageopacity="0.0"
     inkscape:pageshadow="2"
     inkscape:zoom="1.979899"
     inkscape:cx="280.46664"
     inkscape:cy="100.96971"
     inkscape:document-units="mm"
     inkscape:current-layer="layer1"
     showgrid="false"
     inkscape:window-width="2005"
     inkscape:window-height="1097"
     inkscape:window-x="43"
     inkscape:window-y="27"
     inkscape:window-maximized="1"
     fit-margin-top="5"
     fit-margin-left="5"
     fit-margin-right="5"
     fit-margin-bottom="5" />
  <metadata
     id="metadata5">
    <rdf:RDF>
      <cc:Work
         rdf:about="">
        <dc:format>image/svg+xml</dc:format>
        <dc:type
           rdf:resource="http://purl.org/dc/dcmitype/StillImage" />
        <dc:title></dc:title>
      </cc:Work>
    </rdf:RDF>
  </metadata>
  <g
     inkscape:label="Layer 1"
     inkscape:groupmode="layer"
     id="layer1"
     transform="translate(-16.807337,-46.478002)">
    <flowRoot
       xml:space="preserve"
       id="flowRoot10"
       style="font-style:normal;font-weight:normal;font-size:40px;line-height:1.25;font-family:sans-serif;letter-spacing:0px;word-spacing:0px;fill:#000000;fill-opacity:1;stroke:none"
       transform="scale(0.26458333)"><flowRegion
         id="flowRegion12"><rect
           id="rect14"
           width="354.28571"
           height="208.57143"
           x="174.28572"
           y="382.51968" /></flowRegion><flowPara
         id="flowPara16"></flowPara></flowRoot>    <text
       xml:space="preserve"
       style="font-style:normal;font-variant:normal;font-weight:normal;font-stretch:normal;font-size:13.69234276px;line-height:1.25;font-family:'Miriam Libre';-inkscape-font-specification:'Miriam Libre, Normal';font-variant-ligatures:normal;font-variant-caps:normal;font-variant-numeric:normal;font-feature-settings:normal;text-align:start;letter-spacing:0px;word-spacing:0px;writing-mode:lr-tb;text-anchor:start;fill:#003a40;fill-opacity:1;stroke:none;stroke-width:0.34230855"
       x="75.566589"
       y="101.4892"
       id="text20"><tspan
         sodipodi:role="line"
         id="tspan18"
         x="75.566589"
         y="101.4892"
         style="font-style:normal;font-variant:normal;font-weight:normal;font-stretch:normal;font-size:13.69234276px;font-family:'Miriam Libre';-inkscape-font-specification:'Miriam Libre, Normal';font-variant-ligatures:normal;font-variant-caps:normal;font-variant-numeric:normal;font-feature-settings:normal;text-align:start;writing-mode:lr-tb;text-anchor:start;fill:#003a40;fill-opacity:1;stroke-width:0.34230855">Oceania</tspan></text>
    <g
       id="g97"
       transform="matrix(0.26458333,0,0,0.26458333,21.807337,51.478002)">
      <path
         id="path55"
         clip-path="url(#SVGID_2_)"
         d="m 218.7,131.7 c -5,-2.9 -9,-6.9 -11.9,-11.9 -2.9,-5 -4.4,-10.5 -4.4,-16.5 V 76.8 c 0,-6 1.5,-11.5 4.4,-16.5 2.9,-5 6.9,-9 11.9,-11.9 5,-2.9 10.5,-4.4 16.4,-4.4 5.9,0 11.4,1.5 16.4,4.4 5,2.9 9,6.9 11.9,11.9 2.9,5 4.4,10.5 4.4,16.5 v 26.5 c 0,6 -1.5,11.5 -4.4,16.5 -2.9,5 -6.9,9 -11.9,11.9 -5,2.9 -10.5,4.4 -16.4,4.4 -5.9,0 -11.4,-1.5 -16.4,-4.4 m 25.2,-12.6 c 2.7,-1.7 4.9,-3.9 6.5,-6.7 1.6,-2.8 2.4,-5.8 2.4,-9.1 V 76.8 c 0,-3.2 -0.8,-6.3 -2.4,-9.1 -1.6,-2.8 -3.8,-5.1 -6.5,-6.7 -2.7,-1.7 -5.6,-2.5 -8.8,-2.5 -3.1,0 -6.1,0.8 -8.8,2.5 -2.7,1.7 -4.9,3.9 -6.5,6.7 -1.6,2.8 -2.4,5.8 -2.4,9.1 v 26.5 c 0,3.2 0.8,6.3 2.4,9.1 1.6,2.8 3.8,5.1 6.5,6.7 2.7,1.7 5.6,2.5 8.8,2.5 3.1,-0.1 6.1,-0.9 8.8,-2.5"
         class="st0"
         inkscape:connector-curvature="0"
         style="fill:#4db05b" />
      <path
         id="path57"
         clip-path="url(#SVGID_2_)"
         d="m 291.8,133.8 c -4.3,-1.4 -8.3,-3.5 -12,-6 -0.4,-0.2 -0.7,-0.7 -0.9,-1.3 -0.2,-0.6 -0.1,-1.2 0.1,-1.7 l 4.3,-7.8 c 0.5,-1 1.3,-1.5 2.3,-1.5 0.7,0 1.3,0.2 1.9,0.5 6.2,3.9 11.9,5.8 17.3,5.8 4.4,0 7.8,-1.1 10.3,-3.2 2.5,-2.1 3.8,-4.9 3.8,-8.3 0,-2.2 -0.6,-4.1 -1.9,-5.7 -1.2,-1.5 -2.9,-2.8 -4.9,-3.9 -2.1,-1.1 -5.1,-2.4 -9,-4 l -3.6,-1.5 c -5.6,-2.4 -10.3,-5.5 -14.1,-9.2 -3.8,-3.7 -5.8,-9.2 -5.8,-16.4 0,-5.1 1.1,-9.5 3.4,-13.4 2.3,-3.9 5.4,-6.9 9.5,-9.1 4,-2.2 8.7,-3.2 14,-3.2 4.4,0 8.7,0.7 13,2.2 4.3,1.5 8.2,3.5 11.7,6 0.4,0.2 0.7,0.7 0.9,1.3 0.2,0.6 0.1,1.2 -0.1,1.7 l -4.1,7.8 c -0.5,1 -1.3,1.5 -2.4,1.5 -0.7,0 -1.3,-0.2 -1.9,-0.5 -3.2,-2.1 -6.3,-3.6 -9.2,-4.5 -2.9,-0.9 -5.5,-1.4 -7.8,-1.4 -3.7,0 -6.6,1 -8.8,3 -2.1,2 -3.2,4.6 -3.2,7.8 0,3.2 1.2,5.9 3.5,8 2.4,2.1 6.1,4.2 11.3,6.4 0.7,0.2 3.6,1.4 8.5,3.4 4.9,2 8.8,5 11.7,8.9 2.9,3.9 4.3,8.5 4.3,13.8 0,5.1 -1.2,9.7 -3.6,13.7 -2.4,4 -5.8,7.1 -10.2,9.4 -4.4,2.3 -9.4,3.4 -15.1,3.4 -4.5,0.2 -8.9,-0.6 -13.2,-2"
         class="st0"
         inkscape:connector-curvature="0"
         style="fill:#4db05b" />
      <path
         id="path59"
         clip-path="url(#SVGID_2_)"
         d="m 361.8,131.7 c -5,-2.9 -8.9,-6.9 -11.9,-11.9 -2.9,-5 -4.4,-10.5 -4.4,-16.5 V 76.8 c 0,-6 1.5,-11.5 4.4,-16.5 2.9,-5 6.9,-9 11.9,-11.9 5,-2.9 10.4,-4.4 16.4,-4.4 5.2,0 10,0.9 14.5,2.8 4.4,1.9 8.2,4.6 11.4,8.1 0.5,0.6 0.7,1.3 0.7,2.1 0,0.8 -0.3,1.7 -1,2.5 l -5.4,5.7 c -0.7,0.7 -1.3,1 -2,1 -0.8,0 -1.6,-0.4 -2.2,-1.1 -4.1,-4.4 -9.4,-6.6 -15.8,-6.6 -3.1,0 -6.1,0.8 -8.8,2.5 -2.7,1.7 -4.9,3.9 -6.5,6.7 -1.6,2.8 -2.4,5.8 -2.4,9.1 v 26.5 c 0,3.2 0.8,6.3 2.4,9.1 1.6,2.8 3.8,5.1 6.5,6.7 2.7,1.7 5.6,2.5 8.8,2.5 3.1,0 6.1,-0.8 8.8,-2.4 2.7,-1.6 4.9,-3.7 6.4,-6.5 1.6,-2.7 2.3,-5.7 2.3,-8.9 v -6.1 h -16.6 c -0.7,0 -1.4,-0.2 -1.9,-0.7 -0.5,-0.5 -0.7,-1.1 -0.7,-1.9 v -8.9 c 0,-0.7 0.2,-1.4 0.7,-1.9 0.5,-0.5 1.1,-0.7 1.9,-0.7 h 26.1 c 1.5,0 2.7,0.5 3.8,1.5 1,1 1.5,2.3 1.5,3.8 v 14.4 c 0,6 -1.5,11.5 -4.4,16.5 -2.9,5 -6.9,9 -11.9,11.9 -5,2.9 -10.4,4.4 -16.2,4.4 -6,0 -11.4,-1.5 -16.4,-4.4"
         class="st1"
         inkscape:connector-curvature="0"
         style="fill:#003a40" />
      <path
         id="path61"
         clip-path="url(#SVGID_2_)"
         d="m 438,130.5 c -4.5,-2.6 -8.1,-6.3 -10.7,-10.8 -2.6,-4.5 -4,-9.5 -4,-14.9 V 91.4 c 0,-5.4 1.3,-10.4 4,-14.9 2.6,-4.5 6.2,-8.2 10.7,-10.8 4.5,-2.6 9.4,-4 14.8,-4 5.4,0 10.3,1.3 14.8,4 4.5,2.6 8.1,6.3 10.7,10.8 2.6,4.6 4,9.5 4,14.9 v 8.3 c 0,1.5 -0.5,2.7 -1.5,3.8 -1,1 -2.3,1.5 -3.8,1.5 h -38.7 v 0.6 c 0,4.1 1.4,7.5 4.3,10.4 2.9,2.9 6.3,4.3 10.3,4.3 h 19.6 c 0.7,0 1.4,0.3 1.9,0.8 0.5,0.5 0.7,1.1 0.7,1.9 v 9 c 0,0.7 -0.2,1.4 -0.7,1.9 -0.5,0.5 -1.1,0.7 -1.9,0.7 h -19.6 c -5.5,-0.1 -10.5,-1.5 -14.9,-4.1 m 29.3,-38.9 v -1.1 c 0,-4.1 -1.4,-7.5 -4.3,-10.4 -2.8,-2.9 -6.3,-4.3 -10.3,-4.3 -4,0 -7.5,1.4 -10.3,4.3 -2.8,2.9 -4.3,6.3 -4.3,10.4 v 1.1 z"
         class="st1"
         inkscape:connector-curvature="0"
         style="fill:#003a40" />
      <path
         id="path63"
         clip-path="url(#SVGID_2_)"
         d="m 508,132.2 c -4.5,-2.6 -8.1,-6.1 -10.7,-10.6 -2.6,-4.5 -3.9,-9.3 -3.9,-14.5 V 90.7 c 0,-5.2 1.3,-10.1 3.9,-14.5 2.6,-4.5 6.2,-8 10.7,-10.6 4.5,-2.6 9.4,-3.9 14.8,-3.9 5.4,0 10.3,1.3 14.8,3.9 4.5,2.6 8.1,6.2 10.7,10.6 2.6,4.5 4,9.3 4,14.5 V 107 c 0,5.2 -1.3,10.1 -4,14.5 -2.6,4.5 -6.2,8 -10.7,10.6 -4.5,2.6 -9.4,3.9 -14.8,3.9 -5.4,0.1 -10.4,-1.2 -14.8,-3.8 m 25,-14.8 c 2.8,-2.9 4.3,-6.3 4.3,-10.4 V 90.7 c 0,-4.1 -1.4,-7.5 -4.3,-10.4 -2.8,-2.9 -6.3,-4.3 -10.3,-4.3 -4,0 -7.5,1.4 -10.3,4.3 -2.8,2.9 -4.3,6.3 -4.3,10.4 V 107 c 0,4.1 1.4,7.5 4.3,10.4 2.8,2.9 6.3,4.3 10.3,4.3 4.1,0 7.5,-1.5 10.3,-4.3"
         class="st1"
         inkscape:connector-curvature="0"
         style="fill:#003a40" />
      <path
         id="path65"
         clip-path="url(#SVGID_2_)"
         d="M 85.5,36.2 V 0 L 74.2,19.8 C 43.4,26.7 20.1,53.2 18.1,85.6 H 36.2 C 38.4,59.3 59.3,38.4 85.5,36.2"
         class="st0"
         inkscape:connector-curvature="0"
         style="fill:#4db05b" />
      <path
         id="path67"
         clip-path="url(#SVGID_2_)"
         d="M 36.2,94.6 H 0 l 19.8,11.3 C 26.7,136.7 53.2,160 85.6,162 V 143.9 C 59.3,141.7 38.4,120.8 36.2,94.6"
         class="st1"
         inkscape:connector-curvature="0"
         style="fill:#003a40" />
      <path
         id="path69"
         clip-path="url(#SVGID_2_)"
         d="m 143.9,85.5 h 36.3 L 160.4,74.2 C 153.5,43.4 127,20.1 94.6,18.1 v 18.1 c 26.2,2.2 47.1,23.1 49.3,49.3"
         class="st1"
         inkscape:connector-curvature="0"
         style="fill:#003a40" />
      <path
         id="path71"
         clip-path="url(#SVGID_2_)"
         d="m 94.6,143.9 v 36.3 l 11.3,-19.8 C 136.7,153.5 160,127 162,94.6 h -18.1 c -2.2,26.2 -23.1,47.1 -49.3,49.3"
         class="st0"
         inkscape:connector-curvature="0"
         style="fill:#4db05b" />
      <path
         id="path73"
         clip-path="url(#SVGID_2_)"
         d="M 95.6,84.5 62.2,62.2 84.5,95.6 117.9,117.9 Z M 90,93.9 c -2.2,0 -3.9,-1.8 -3.9,-3.9 0,-2.2 1.8,-3.9 3.9,-3.9 2.1,0 3.9,1.8 3.9,3.9 0,2.1 -1.7,3.9 -3.9,3.9"
         class="st1"
         inkscape:connector-curvature="0"
         style="fill:#003a40" />
      <polygon
         id="polygon75"
         clip-path="url(#SVGID_2_)"
         points="77,84.4 42.8,90.1 77,95.7 62.2,117.9 84.3,103.1 90,137.3 95.7,103.1 84.5,95.6 "
         class="st0"
         style="fill:#4db05b" />
      <polygon
         id="polygon77"
         clip-path="url(#SVGID_2_)"
         points="117.9,62.2 95.7,77 90,42.8 84.4,77 95.6,84.5 103.1,95.7 137.3,90 103.1,84.4 "
         class="st0"
         style="fill:#4db05b" />
    </g>
  </g>
  <style
     id="style47"
     type="text/css">.st0{clip-path:url(#SVGID_2_);fill:#4DB05B;}.st1{clip-path:url(#SVGID_2_);fill:#003A40;}</style>
</svg>
