
		<svg xmlns="http://www.w3.org/2000/svg" xmlns:xlink="http://www.w3.org/1999/xlink" version="1.1" width="3110.2378416421025" height="1157.497337242076">
			<rect fill="#fff" width="3110.2378416421025" height="1157.497337242076"/>
			<g transform="scale(5.511892082105123) translate(10, 10)">
				<defs xmlns="http://www.w3.org/2000/svg" id="SvgjsDefs1330" /><g xmlns="http://www.w3.org/2000/svg" id="SvgjsG1331" fill="#ffffff" transform="matrix(1 0 0 1 0 0)" featureKey="root" /><g xmlns="http://www.w3.org/2000/svg" id="SvgjsG1332" fill="#31834e" transform="matrix(1.5 0 0 1.5 20 20)" featureKey="container1"><path fill="" d="M 0 0 h 100 v 100 H 0 Z" /></g><g xmlns="http://www.w3.org/2000/svg" id="SvgjsG1333" fill="#ffffff" transform="matrix(0.777778 0 0 0.777778 56.1111 56.1111)" featureKey="symbol1"><g><path d="M 50 7 c 23.7 0 43 19.3 43 43 S 73.7 93 50 93 S 7 73.7 7 50 S 26.3 7 50 7 M 50 5 C 25.1 5 5 25.1 5 50 s 20.1 45 45 45 s 45 -20.1 45 -45 S 74.9 5 50 5 L 50 5 Z" /></g><g><polygon points="24.7,62.6 41.7,37.3 52.8,52 59.6,43 75.3,62.7" /></g></g><g xmlns="http://www.w3.org/2000/svg" id="SvgjsG1334" fill="#51363f" transform="matrix(3.04909 0 0 3.04909 186.383 33.5273)" featureKey="text1"><path d="M 6.322 10.441 c 3.0846 0 4.6437 2.4407 4.6437 4.4576 c 0 2.0847 -1.5593 4.4746 -4.6439 4.4746 l -3.7966 0 l 0 4.3898 c 0 0.15254 -0.067797 0.23712 -0.20339 0.23712 l -0.91525 0 c -0.15238 0 -0.22017 -0.08458 -0.22017 -0.23712 l 0 -13.102 c 0 -0.15254 0.067797 -0.22034 0.22017 -0.22034 l 4.9154 0 Z M 6.271 18.1019 c 2.1864 0 3.3559 -1.6102 3.3559 -3.2034 s -1.1695 -3.1695 -3.3559 -3.1695 l -3.7456 0 l 0 6.3729 l 3.7456 0 Z M 19.4405 23.678 c -0.16949 -1.6441 -0.18661 -3.2714 -0.11881 -4.9154 c 0.084746 -1.9661 -0.9661 -3.2542 -3.0339 -3.2542 c -1.339 0 -2.6947 0.40678 -3.5253 0.86441 c -0.13559 0.067797 -0.20339 0.20339 -0.13559 0.32203 l 0.28814 0.64407 c 0.050847 0.13559 0.15254 0.16949 0.32203 0.084746 c 1.1695 -0.55915 2.0678 -0.77949 3 -0.77949 c 1.2034 0 1.8983 0.61017 1.8475 1.9322 c -3.5763 0.61017 -5.8475 1.2034 -5.8475 3.2712 c 0 1.3729 1.0169 2.2373 2.7288 2.2373 c 1.4576 0 2.322 -0.45763 3.2373 -1.0339 c 0.050847 0.50847 0.15254 0.94915 0.37288 0.94915 l 0.71186 0 c 0.15254 0 0.18644 -0.13543 0.15254 -0.32203 Z M 15.1861 23.0507 c -0.88136 0 -1.6441 -0.33898 -1.6441 -1.2203 c 0 -1.339 2.2203 -1.678 4.5254 -2.1525 c -0.033898 0.77966 -0.033898 1.7119 0 2.4068 c -0.62712 0.42373 -1.7458 0.9661 -2.8814 0.9661 Z M 22.7117 10.441 l -0.84729 0 c -0.15254 0 -0.22034 0.067797 -0.22034 0.22034 l 0 12.864 c 0 0.28797 0.15254 0.47441 0.45763 0.47441 l 0.61 0 c 0.13559 0 0.22034 -0.08458 0.22034 -0.23712 l 0 -13.102 c 0 -0.15254 -0.084746 -0.22034 -0.22034 -0.22034 Z M 26.0847 11.949 c -0.42373 0 -0.74576 -0.32203 -0.74576 -0.72881 s 0.32203 -0.72881 0.74576 -0.72881 c 0.38983 0 0.72881 0.32203 0.72881 0.72881 s -0.33898 0.72881 -0.72881 0.72881 Z M 26.5084 15.6102 l -0.84746 -0.00016552 c -0.15254 0 -0.22034 0.067797 -0.22034 0.22034 l 0 7.7119 c 0 0.27119 0.15254 0.45763 0.42373 0.45763 l 0.66102 0 c 0.11864 0 0.20339 -0.08458 0.20339 -0.22017 l 0 -7.9492 c 0 -0.15254 -0.084746 -0.22034 -0.22034 -0.22034 Z M 45.1525 21.729 c 0.11864 0.08458 0.084746 0.22017 -0.067797 0.37271 c -1.2544 1.2542 -2.8814 2.0168 -4.8983 2.0168 c -3.8136 0 -6.9322 -3.0168 -6.9322 -6.8812 c 0 -3.8475 3.1186 -6.9153 6.9322 -6.9153 c 1.9322 0 3.661 0.74576 4.9322 2.0169 c 0.15254 0.15254 0.16949 0.27119 0.067797 0.35593 l -0.71186 0.59322 c -0.11864 0.10169 -0.22034 0.10169 -0.33898 -0.016949 c -0.71186 -0.74559 -2.1186 -1.6608 -3.8475 -1.6608 c -3.678 0 -5.7119 2.9831 -5.7119 5.6271 c 0 2.678 2.0339 5.5932 5.7119 5.5932 c 1.7288 0 3.0508 -0.88136 3.7966 -1.6271 c 0.13559 -0.13559 0.23729 -0.16949 0.35593 -0.067797 Z M 51.0676 24.1015 c 2.3559 0 4.322 -1.8812 4.322 -4.288 c 0 -2.4576 -1.9661 -4.339 -4.322 -4.339 c -2.3898 0 -4.3559 1.8814 -4.3559 4.339 c 0 2.4068 1.9661 4.288 4.3559 4.288 Z M 51.0676 22.8985 c -1.7797 0 -3.1017 -1.4576 -3.1017 -3.0847 c 0 -1.661 1.322 -3.1186 3.1017 -3.1186 c 1.7458 0 3.0678 1.4576 3.0678 3.1186 c 0 1.6271 -1.322 3.0847 -3.0678 3.0847 Z M 65.0337 23.729 c 0.016949 0.15238 -0.016784 0.27102 -0.15238 0.27102 l -0.72881 0 c -0.30508 0 -0.45763 -0.20322 -0.45763 -0.47441 l 0 -4.678 c 0 -1.2881 -0.81356 -2.1863 -2.3051 -2.1863 c -1.2544 0 -2.2205 0.62695 -3.0171 1.4236 l 0 5.6949 c 0 0.11864 -0.084746 0.22017 -0.20339 0.22017 l -0.89831 0 c -0.11864 0 -0.18644 -0.10153 -0.18644 -0.22017 l 0 -7.9661 c 0 -0.10169 0.084746 -0.20339 0.18644 -0.20339 l 0.64407 0 c 0.27119 0 0.44068 0.27119 0.45763 0.49153 l 0 0.69492 c 0.71186 -0.62712 1.7458 -1.3051 3.1356 -1.3051 c 1.7458 0 3.4576 1.0339 3.4576 3.1863 l 0 3.8136 c 0.016949 0.44085 0.033898 0.84746 0.067797 1.2375 Z M 66.678 22.8476 l 0.42356 -0.61034 c 0.084746 -0.13559 0.15254 -0.16949 0.28814 -0.10169 c 0.050847 0.050847 1.1017 0.76271 2.3898 0.76271 c 1.4237 0 1.8644 -0.61017 1.8644 -1.1693 c 0 -0.81356 -0.94915 -1.1186 -2.1017 -1.4237 c -1.6949 -0.44068 -2.8136 -1.1695 -2.8136 -2.4576 c 0 -1.2373 1.0678 -2.3559 3.0339 -2.3559 c 1.2203 0 2.1864 0.52542 2.7627 0.86441 c 0.13559 0.067797 0.18644 0.18644 0.11864 0.28814 l -0.44068 0.64407 c -0.067797 0.11864 -0.16949 0.15254 -0.28814 0.084746 c -0.66102 -0.33898 -1.322 -0.64407 -2.1525 -0.64407 c -1.4407 0 -1.6949 0.77966 -1.6949 1.1695 c 0 0.76271 0.98305 1.0678 1.9492 1.339 c 1.5086 0.40678 3.051 1.0508 3.051 2.4917 c 0 1.4236 -1.2881 2.3895 -3.2881 2.3895 c -1.3729 0 -2.6102 -0.6778 -3.0339 -1.0168 c -0.084746 -0.067797 -0.11864 -0.18644 -0.067797 -0.25424 Z M 82.4405 15.6102 c 0.11864 0 0.18644 0.10153 0.18644 0.23712 l 0 7.9492 c 0 0.11864 -0.084746 0.20322 -0.18644 0.20322 l -0.72881 0 c -0.18644 0 -0.35593 -0.27102 -0.35593 -0.47441 l 0 -0.71186 c -0.72881 0.62712 -1.7627 1.3049 -3.1525 1.3049 c -1.7627 0 -3.4576 -1.0507 -3.4576 -3.1861 l 0 -3.7966 c -0.016949 -0.45763 -0.033898 -0.86441 -0.067797 -1.2373 c -0.016949 -0.16949 0.016949 -0.28831 0.15254 -0.28831 l 0.72881 0 c 0.32203 0 0.45763 0.20339 0.45763 0.49153 l 0 4.661 c 0 1.2881 0.79661 2.2034 2.3051 2.2034 c 1.2542 0 2.2203 -0.69492 3.0339 -1.5083 l 0 -5.6102 c 0 -0.13559 0.067797 -0.23729 0.18644 -0.23729 l 0.89831 0 Z M 85.8981 10.441 l -0.84729 0 c -0.15254 0 -0.22034 0.067797 -0.22034 0.22034 l 0 12.864 c 0 0.28797 0.15254 0.47441 0.45763 0.47441 l 0.61 0 c 0.13559 0 0.22034 -0.08458 0.22034 -0.23712 l 0 -13.102 c 0 -0.15254 -0.084746 -0.22034 -0.22034 -0.22034 Z M 93.1693 23.5086 c 0.050847 0.10169 -0.050681 0.18678 -0.16933 0.25458 c -0.3222 0.16949 -0.89847 0.32171 -1.5425 0.32171 c -1.7627 0 -2.1864 -1.0169 -2.1864 -3.1186 l 0 -4.1186 l -1.0508 0 c -0.11864 0 -0.20339 -0.067797 -0.20339 -0.20339 l 0 -0.25424 c 0 -0.10169 0.016949 -0.16949 0.11864 -0.23729 c 1.0339 -0.49136 1.5085 -1 1.9322 -3.0169 c 0.033898 -0.10169 0.067797 -0.16949 0.15254 -0.16949 l 0.20339 0 c 0.11864 0 0.13559 0.067797 0.13559 0.18644 l 0 2.4576 l 2.1017 0 c 0.11864 0 0.22017 0.084746 0.22017 0.22034 l 0 0.81356 c 0 0.11864 -0.10153 0.20339 -0.22017 0.20339 l -1.7798 0 c -0.13559 0 -0.25424 -0.016949 -0.33898 -0.050847 l 0 4 c 0 1.322 0.084746 2.0847 1.1017 2.0847 c 0.50847 0 0.76271 -0.08458 1.0339 -0.16933 c 0.16966 -0.050847 0.30525 -0.017115 0.33915 0.11848 Z M 95.7966 11.949 c -0.42373 0 -0.74576 -0.32203 -0.74576 -0.72881 s 0.32203 -0.72881 0.74576 -0.72881 c 0.38983 0 0.72881 0.32203 0.72881 0.72881 s -0.33898 0.72881 -0.72881 0.72881 Z M 96.2203 15.6102 l -0.84746 -0.00016552 c -0.15254 0 -0.22034 0.067797 -0.22034 0.22034 l 0 7.7119 c 0 0.27119 0.15254 0.45763 0.42373 0.45763 l 0.66102 0 c 0.11864 0 0.20339 -0.08458 0.20339 -0.22017 l 0 -7.9492 c 0 -0.15254 -0.084746 -0.22034 -0.22034 -0.22034 Z M 106.678 23.729 c 0.016949 0.15238 -0.016784 0.27102 -0.15238 0.27102 l -0.72881 0 c -0.30508 0 -0.45763 -0.20322 -0.45763 -0.47441 l 0 -4.678 c 0 -1.2881 -0.81356 -2.1863 -2.3051 -2.1863 c -1.2544 0 -2.2205 0.62695 -3.0171 1.4236 l 0 5.6949 c 0 0.11864 -0.084746 0.22017 -0.20339 0.22017 l -0.89831 0 c -0.11864 0 -0.18644 -0.10153 -0.18644 -0.22017 l 0 -7.9661 c 0 -0.10169 0.084746 -0.20339 0.18644 -0.20339 l 0.64407 0 c 0.27119 0 0.44068 0.27119 0.45763 0.49153 l 0 0.69492 c 0.71186 -0.62712 1.7458 -1.3051 3.1356 -1.3051 c 1.7458 0 3.4576 1.0339 3.4576 3.1863 l 0 3.8136 c 0.016949 0.44085 0.033898 0.84746 0.067797 1.2375 Z M 114.339 24.4068 c 1.6441 0.22034 3.1354 0.6439 3.0337 2.4405 c -0.11864 2.051 -2.1864 3.1527 -4.8644 3.1527 c -2.3051 0 -4.0169 -0.9661 -3.9492 -2.8983 c 0.033898 -1.1015 0.74576 -1.8134 1.8305 -2.1015 c -1.1525 -0.15254 -2.2203 -0.74576 -2.2881 -1.7625 c -0.050847 -0.94915 0.77966 -1.6271 1.9661 -1.3727 c -0.52542 -0.35593 -1.1864 -1.3051 -1.2034 -2.4407 c -0.067797 -2.2203 1.6102 -3.8981 3.7627 -3.8981 c 1.3729 0 1.5595 0.25424 3.7798 0.16949 c 0.11881 0 0.22034 0.050847 0.20339 0.18644 l -0.033898 0.66102 c -0.30508 0.11881 -0.88136 0.11881 -1.3559 0.13559 c 1.1695 0.83051 1.2881 1.9492 1.3051 2.7797 c -0.016949 2.2034 -1.7119 3.6269 -3.7797 3.5592 c -0.9661 -0.016949 -1.6441 -0.35576 -2.0171 -0.54237 c -0.79661 -0.22034 -1.4236 0.050847 -1.3727 0.59305 c 0.050847 0.55932 0.79661 0.83051 1.9492 0.96578 c 1.2542 0.15254 2.2542 0.27119 3.0339 0.37288 Z M 112.712 16.7456 c -1.4576 0 -2.6102 1.0847 -2.5932 2.5932 c -0.016949 1.339 1.1695 2.4578 2.5763 2.4746 c 1.6102 0 2.5593 -1.0508 2.5763 -2.4746 c -0.016949 -1.5254 -1.1525 -2.5932 -2.5593 -2.5932 Z M 112.644 28.8134 c 1.7797 0 3.3049 -0.69525 3.3558 -1.9154 c 0.033898 -0.67797 -0.33915 -1.0678 -1.5593 -1.2712 c -0.71186 -0.13559 -1.6608 -0.25424 -2.8475 -0.38983 c -0.72881 -0.08458 -1.7288 0.55949 -1.7625 1.6614 c -0.050847 1.4066 1.322 1.9151 2.8136 1.9151 Z" /></g>
			</g>
		</svg>
	