<?xml version="1.0" encoding="UTF-8" standalone="no"?>
<!-- Generator: Adobe Illustrator 16.0.0, SVG Export Plug-In . SVG Version: 6.00 Build 0)  -->

<svg
   version="1.1"
   id="Layer_1"
   x="0px"
   y="0px"
   width="318.78427"
   height="179.18401"
   viewBox="0 0 298.86025 167.98501"
   enable-background="new 0 0 722.569 346.291"
   xml:space="preserve"
   xmlns="http://www.w3.org/2000/svg"
   xmlns:svg="http://www.w3.org/2000/svg"
   xmlns:rdf="http://www.w3.org/1999/02/22-rdf-syntax-ns#"
   xmlns:cc="http://creativecommons.org/ns#"
   xmlns:dc="http://purl.org/dc/elements/1.1/"><metadata
     id="metadata46"><rdf:RDF><cc:Work
         rdf:about=""><dc:format>image/svg+xml</dc:format><dc:type
           rdf:resource="http://purl.org/dc/dcmitype/StillImage" /></cc:Work></rdf:RDF></metadata><defs
     id="defs44"><linearGradient
       gradientTransform="translate(0,-4.8925781e-6)"
       id="SVGID_5_-7"
       gradientUnits="userSpaceOnUse"
       x1="188.7529"
       y1="250.2354"
       x2="186.5125"
       y2="102.9362"><stop
         offset="0"
         style="stop-color:#589632"
         id="stop36-9" /><stop
         offset="1"
         style="stop-color:#93B023"
         id="stop38-0" /></linearGradient><linearGradient
       id="linearGradient4250"
       gradientUnits="userSpaceOnUse"
       x1="234.4702"
       y1="250.03419"
       x2="232.211"
       y2="101.4977"><stop
         offset="0"
         style="stop-color:#589632"
         id="stop27-0" /><stop
         offset="1"
         style="stop-color:#93B023"
         id="stop29-2" /></linearGradient><linearGradient
       id="SVGID_1_-2"
       gradientUnits="userSpaceOnUse"
       x1="350.02249"
       y1="247.7832"
       x2="347.78201"
       y2="100.4837"><stop
         offset="0"
         style="stop-color:#589632"
         id="stop6-6" /><stop
         offset="1"
         style="stop-color:#93B023"
         id="stop8-9" /></linearGradient><linearGradient
       id="SVGID_2_-0"
       gradientUnits="userSpaceOnUse"
       x1="459.22171"
       y1="246.1226"
       x2="456.98129"
       y2="98.822403"><stop
         offset="0"
         style="stop-color:#589632"
         id="stop13-3" /><stop
         offset="1"
         style="stop-color:#93B023"
         id="stop15-5" /></linearGradient><linearGradient
       id="SVGID_3_-5"
       gradientUnits="userSpaceOnUse"
       x1="553.50677"
       y1="244.6875"
       x2="551.26642"
       y2="97.388199"><stop
         offset="0"
         style="stop-color:#589632"
         id="stop20-8" /><stop
         offset="1"
         style="stop-color:#93B023"
         id="stop22-7" /></linearGradient></defs><linearGradient
     id="SVGID_1_"
     gradientUnits="userSpaceOnUse"
     x1="350.02249"
     y1="247.7832"
     x2="347.78201"
     y2="100.4837"><stop
       offset="0"
       style="stop-color:#589632"
       id="stop6" /><stop
       offset="1"
       style="stop-color:#93B023"
       id="stop8" /></linearGradient><linearGradient
     id="SVGID_2_"
     gradientUnits="userSpaceOnUse"
     x1="459.22171"
     y1="246.1226"
     x2="456.98129"
     y2="98.822403"><stop
       offset="0"
       style="stop-color:#589632"
       id="stop13" /><stop
       offset="1"
       style="stop-color:#93B023"
       id="stop15" /></linearGradient><linearGradient
     id="SVGID_3_"
     gradientUnits="userSpaceOnUse"
     x1="553.50677"
     y1="244.6875"
     x2="551.26642"
     y2="97.388199"><stop
       offset="0"
       style="stop-color:#589632"
       id="stop20" /><stop
       offset="1"
       style="stop-color:#93B023"
       id="stop22" /></linearGradient><linearGradient
     id="SVGID_4_"
     gradientUnits="userSpaceOnUse"
     x1="234.4702"
     y1="250.03419"
     x2="232.211"
     y2="101.4977"><stop
       offset="0"
       style="stop-color:#589632"
       id="stop27" /><stop
       offset="1"
       style="stop-color:#93B023"
       id="stop29" /></linearGradient><linearGradient
     id="SVGID_5_"
     gradientUnits="userSpaceOnUse"
     x1="188.7529"
     y1="250.2354"
     x2="186.5125"
     y2="102.9362"><stop
       offset="0"
       style="stop-color:#589632"
       id="stop36" /><stop
       offset="1"
       style="stop-color:#93B023"
       id="stop38" /></linearGradient><g
     id="layer1"
     style="display:inline"
     transform="translate(-101.553,-89.389995)"><polygon
       transform="translate(0,-4.8925781e-6)"
       style="fill:#ee7913"
       points="195,202.37 195,180 216.513,180 198.306,162 176,162 176,183.433 "
       id="polygon3" /><polygon
       transform="translate(0,-4.8925781e-6)"
       style="fill:url(#SVGID_4_)"
       points="264,248 264,226.946 225.617,189 204,189 204,211.34 240.782,248 "
       id="polygon31" /><polygon
       transform="translate(0,-4.8925781e-6)"
       style="fill:#f0e64a"
       points="204,211.34 204,189 225.617,189 216.513,180 195,180 195,202.37 "
       id="polygon33" /><path
       style="fill:url(#SVGID_5_-7)"
       d="m 198.052,216.864 c -3.259,0.75 -6.648,1.157 -10.144,1.157 -25.005,0 -46.271,-20.562 -46.271,-47.222 0,-26.66 21.032,-46.769 46.271,-46.769 25.239,0 45.336,20.108 45.336,46.769 0,4.336 -0.54,8.508 -1.539,12.46 l 23.144,23.14 c 5.967,-10.455 9.305,-22.611 9.305,-35.778 0,-41.09 -32.791,-71.856005 -76.714,-71.856005 -43.722,0 -76.512,30.564005 -76.512,71.856005 0,41.494 32.791,72.666 76.512,72.666 11.287,0 21.835,-2.076 31.284,-5.854 z"
       id="path40" /><path
       d="m 176,162 88,86 V 226.94531 L 225.61719,189 l -9.10352,-9 -18.20703,-18 z"
       id="polygon4174"
       style="fill:#ffffff;fill-opacity:0.17254902" /></g><g
     id="layer5"
     style="display:inline"
     transform="translate(-101.553,-89.389995)"><path
   style="color:#000000;font-style:normal;font-variant:normal;font-weight:bold;font-stretch:normal;font-size:14.07272911px;line-height:0%;font-family:Trueno;-inkscape-font-specification:'Trueno, Bold';text-indent:0;text-align:start;text-decoration:none;text-decoration-line:none;text-decoration-style:solid;text-decoration-color:#000000;letter-spacing:0px;word-spacing:0px;text-transform:none;direction:ltr;block-progression:tb;writing-mode:lr-tb;baseline-shift:baseline;text-anchor:start;white-space:normal;clip-rule:nonzero;display:inline;overflow:visible;visibility:visible;opacity:1;isolation:auto;mix-blend-mode:normal;color-interpolation:sRGB;color-interpolation-filters:linearRGB;solid-color:#000000;solid-opacity:1;fill:#ffffff;fill-opacity:1;fill-rule:nonzero;stroke:none;stroke-width:6.56250048;stroke-linecap:butt;stroke-linejoin:round;stroke-miterlimit:4;stroke-dasharray:none;stroke-dashoffset:0;stroke-opacity:1;paint-order:stroke markers fill;color-rendering:auto;image-rendering:auto;shape-rendering:auto;text-rendering:auto;enable-background:accumulate"
   d="m 317.91974,170.53446 c -6.35631,0 -11.89041,1.59685 -15.99227,4.81159 -4.10186,3.21476 -6.5954,8.19227 -6.5954,13.82637 0,5.32508 2.13183,9.5342 5.1306,12.22848 2.99879,2.69429 6.62803,4.07881 9.99732,5.14275 3.3693,1.06394 6.56561,1.82594 8.53445,2.6771 0.98441,0.42557 1.61455,0.87135 1.84532,1.11712 0.23078,0.24577 0.18741,0.1353 0.18741,0.42491 0,0.47146 0.0878,0.26355 -0.24095,0.48674 -0.32875,0.22319 -1.32351,0.58051 -2.86648,0.58051 -3.83746,0 -11.12032,-2.82194 -15.45493,-6.77853 a 3.2129262,3.3516975 0 0 0 -4.98527,1.01538 l -3.48415,7.2154 a 3.2129262,3.3516975 0 0 0 -2.73262,-1.59788 l -23.24549,0 0,-3.51095 19.98317,0 a 3.2129262,3.3516975 0 0 0 3.2126,-3.35136 l 0,-10.14386 a 3.2129262,3.3516975 0 0 0 -3.2126,-3.35136 l -19.98317,0 0,-3.36733 22.48249,0 a 3.2129262,3.3516975 0 0 0 3.21261,-3.35136 l 0,-10.14185 a 3.2129262,3.3516975 0 0 0 -3.21261,-3.35136 l -38.05788,0 a 3.2129262,3.3516975 0 0 0 -3.21261,3.35136 l 0,50.71329 a 3.2129262,3.3516975 0 0 0 3.21261,3.35136 l 38.82088,0 a 3.2129262,3.3516975 0 0 0 3.21261,-3.35136 l 0,-4.41263 c 6.33347,5.04706 14.78067,8.19887 23.30476,8.19887 5.92492,0 11.42576,-1.42941 15.65189,-4.57222 4.22613,-3.14281 7.00654,-8.22241 7.00654,-14.28319 0,-5.39916 -2.10282,-9.67012 -5.08662,-12.4519 -2.98381,-2.78178 -6.62017,-4.25258 -9.99733,-5.37614 -3.37715,-1.12356 -6.58409,-1.92248 -8.57077,-2.78881 -0.99334,-0.43317 -1.63679,-0.88192 -1.87019,-1.1271 -0.19653,-0.20644 -0.15249,-0.17778 -0.14342,-0.29723 0.20434,-0.1237 0.93452,-0.39898 2.10732,-0.39898 2.8313,0 9.25292,1.99293 13.94231,4.83555 a 3.2129262,3.3516975 0 0 0 4.50913,-1.44429 l 4.65253,-10.07004 a 3.2129262,3.3516975 0 0 0 -1.13779,-4.26102 c -5.63316,-3.83602 -13.25239,-6.19603 -20.924,-6.19603 z m 26.07947,0.58051 a 3.2129262,3.3516975 0 0 0 -3.21261,3.35136 l 0,50.71329 a 3.2129262,3.3516975 0 0 0 3.21261,3.35136 l 12.36278,0 a 3.2129262,3.3516975 0 0 0 3.21261,-3.35136 l 0,-10.92185 5.60677,0 c 6.78392,0 12.55774,-1.90584 16.62904,-5.81102 4.07131,-3.90518 6.16706,-9.66168 6.16706,-16.30398 0,-6.38849 -2.15149,-11.93262 -6.24355,-15.61376 -4.09205,-3.68115 -9.81051,-5.41404 -16.55255,-5.41404 l -21.18216,0 z m -26.07947,6.12222 c 5.28782,0 10.72283,1.51847 14.94244,3.72639 l -1.89123,4.09145 c -4.80006,-2.44897 -9.91194,-4.08746 -14.09339,-4.08746 -1.99307,0 -3.88962,0.3255 -5.58382,1.43829 -1.6942,1.1128 -2.97548,3.35739 -2.97548,5.60755 0,1.94976 0.86473,3.84598 2.03656,5.07691 1.17183,1.23095 2.5351,1.97201 3.95073,2.58933 2.83128,1.23464 6.04987,1.97465 9.09665,2.9883 3.04678,1.01365 5.83403,2.27775 7.66818,3.98773 1.83415,1.70996 2.94298,3.68934 2.94298,7.45477 0,4.08188 -1.52405,6.75185 -4.31216,8.82526 -2.78811,2.07341 -7.01209,3.32742 -11.92106,3.32742 -6.42182,0 -13.0694,-2.37131 -18.08428,-5.88682 l 1.82047,-3.77228 c 5.16301,3.64848 11.23051,5.92872 16.40341,5.92872 2.34612,0 4.5109,-0.40372 6.36975,-1.66571 1.85885,-1.26198 3.16289,-3.67784 3.16289,-6.10426 0,-1.95628 -0.84682,-3.86609 -2.02126,-5.11682 -1.17446,-1.25072 -2.55296,-2.0014 -3.97751,-2.61725 -2.84912,-1.23171 -6.07643,-1.93594 -9.13107,-2.90052 -3.05463,-0.96459 -5.849,-2.16974 -7.66818,-3.8042 -1.81917,-1.63445 -2.89708,-3.49316 -2.89708,-7.15157 0,-3.71162 1.35982,-6.37614 4.02914,-8.46817 2.66932,-2.09203 6.82238,-3.46706 12.13332,-3.46706 z m -62.26525,0.5805 31.63268,0 0,3.43913 -22.4825,0 a 3.2129262,3.3516975 0 0 0 -3.2126,3.35136 l 0,10.07005 a 3.2129262,3.3516975 0 0 0 3.2126,3.35137 l 19.98317,0 0,3.44113 -19.98317,0 a 3.2129262,3.3516975 0 0 0 -3.2126,3.35136 l 0,10.21367 a 3.2129262,3.3516975 0 0 0 3.2126,3.35136 l 23.2455,0 0,3.44113 -32.39568,0 0,-44.01056 z m 91.55732,0 17.96956,0 c 5.68912,0 9.76283,1.45425 12.35514,3.78624 2.5923,2.332 4.01575,5.62552 4.01575,10.53884 0,5.23908 -1.47919,8.86426 -4.09225,11.37069 -2.61305,2.50643 -6.6314,4.04158 -12.27864,4.04158 l -8.81938,0 a 3.2129262,3.3516975 0 0 0 -3.2126,3.35136 l 0,10.92185 -5.93758,0 0,-44.01056 z m 9.15018,3.43913 a 3.2129262,3.3516975 0 0 0 -3.2126,3.35136 l 0,16.15636 a 3.2129262,3.3516975 0 0 0 3.2126,3.35136 l 8.19406,0 c 3.2439,0 6.24803,-0.86458 8.45795,-2.95039 2.20991,-2.08581 3.29674,-5.22798 3.29674,-8.58786 0,-3.33297 -1.11096,-6.4583 -3.3369,-8.49012 -2.22594,-2.03183 -5.20134,-2.83071 -8.41779,-2.83071 l -8.19406,0 z m 3.21261,6.70272 4.98145,0 c 2.20049,0 3.49699,0.54236 4.18786,1.17298 0.69087,0.63063 1.14162,1.48943 1.14162,3.44513 0,2.00122 -0.47488,2.95147 -1.18178,3.61867 -0.70689,0.66719 -1.97467,1.21686 -4.1477,1.21686 l -4.98145,0 0,-9.45364 z"
   id="text4170" /><text
   xml:space="preserve"
   style="font-style:normal;font-variant:normal;font-weight:bold;font-stretch:normal;line-height:0%;font-family:Trueno;-inkscape-font-specification:'Trueno, Bold';text-align:start;letter-spacing:0px;word-spacing:0px;writing-mode:lr-tb;text-anchor:start;display:inline;fill:#86aa26;fill-opacity:1;stroke:none;stroke-width:1.17273px;stroke-linecap:butt;stroke-linejoin:miter;stroke-opacity:1"
   x="273.93417"
   y="156.9343"
   id="text4170-2"
   transform="scale(0.97907952,1.0213675)"><tspan
     id="tspan4172-7"
     x="273.93417"
     y="156.9343"
     style="font-size:70.9318px;line-height:1.25;fill:#86aa26;fill-opacity:1;stroke-width:1.17273px">GIS</tspan></text>
<text
   xml:space="preserve"
   style="font-style:normal;font-variant:normal;font-weight:bold;font-stretch:normal;line-height:0%;font-family:Trueno;-inkscape-font-specification:'Trueno, Bold';text-align:start;letter-spacing:0px;word-spacing:0px;writing-mode:lr-tb;text-anchor:start;display:inline;fill:#73a22b;fill-opacity:1;stroke:none;stroke-width:8.79545;stroke-linecap:butt;stroke-linejoin:round;stroke-miterlimit:4;stroke-dasharray:none;stroke-opacity:1;paint-order:stroke markers fill"
   x="252.87111"
   y="220.46812"
   id="text4170-0"
   transform="scale(0.97907951,1.0213675)"><tspan
     id="tspan4172-2"
     x="252.87111"
     y="220.46812"
     style="font-size:70.9318px;line-height:1.25;fill:#73a22b;fill-opacity:1;stroke:none;stroke-width:8.79545;stroke-linejoin:round;stroke-miterlimit:4;stroke-dasharray:none;stroke-opacity:1;paint-order:stroke markers fill">ESP</tspan></text>
</g></svg>
