<?xml version="1.0" encoding="UTF-8" standalone="no"?>
<!-- Generator: Adobe Illustrator 16.0.0, SVG Export Plug-In . SVG Version: 6.00 Build 0)  -->
<svg xmlns:dc="http://purl.org/dc/elements/1.1/" xmlns:cc="http://creativecommons.org/ns#" xmlns:rdf="http://www.w3.org/1999/02/22-rdf-syntax-ns#" xmlns:svg="http://www.w3.org/2000/svg" xmlns="http://www.w3.org/2000/svg" xmlns:xlink="http://www.w3.org/1999/xlink" xmlns:sodipodi="http://sodipodi.sourceforge.net/DTD/sodipodi-0.dtd" xmlns:inkscape="http://www.inkscape.org/namespaces/inkscape" version="1.1" id="Layer_1" x="0px" y="0px" width="200" height="200" viewBox="0 0 200.00001 200.00001" enable-background="new 0 0 722.569 346.291" xml:space="preserve" inkscape:version="0.48.4 r9939" sodipodi:docname="qgis-logo-fr_final.svg" inkscape:export-filename="E:\Google Drive\QGIS_Graphics\Logo candidate 3.0 final files\qgis-logo_anita0.png" inkscape:export-xdpi="278" inkscape:export-ydpi="278"><metadata id="metadata46"><rdf:RDF><cc:Work rdf:about=""><dc:format>image/svg+xml</dc:format><dc:type rdf:resource="http://purl.org/dc/dcmitype/StillImage"/><dc:title/></cc:Work></rdf:RDF></metadata><defs id="defs44"><linearGradient gradientTransform="translate(-713.04886,215.88421)" id="SVGID_5_-3" gradientUnits="userSpaceOnUse" x1="188.7529" y1="250.2354" x2="186.5125" y2="102.9362"><stop offset="0" style="stop-color:#589632" id="stop36-6"/><stop offset="1" style="stop-color:#93B023" id="stop38-7"/></linearGradient><linearGradient gradientTransform="translate(-713.04886,215.88421)" id="SVGID_3_-5" gradientUnits="userSpaceOnUse" x1="553.50677" y1="244.6875" x2="551.26642" y2="97.388199"><stop offset="0" style="stop-color:#589632" id="stop20-3"/><stop offset="1" style="stop-color:#93B023" id="stop22-5"/></linearGradient><linearGradient gradientTransform="translate(-713.04886,215.88421)" id="SVGID_2_-6" gradientUnits="userSpaceOnUse" x1="459.22171" y1="246.1226" x2="456.98129" y2="98.822403"><stop offset="0" style="stop-color:#589632" id="stop13-2"/><stop offset="1" style="stop-color:#93B023" id="stop15-9"/></linearGradient><linearGradient gradientTransform="translate(-713.04886,215.88421)" id="SVGID_1_-1" gradientUnits="userSpaceOnUse" x1="350.02249" y1="247.7832" x2="347.78201" y2="100.4837"><stop offset="0" style="stop-color:#589632" id="stop6-2"/><stop offset="1" style="stop-color:#93B023" id="stop8-7"/></linearGradient><linearGradient gradientTransform="translate(-57.271379,222.25097)" id="SVGID_5_-3-3" gradientUnits="userSpaceOnUse" x1="188.7529" y1="250.2354" x2="186.5125" y2="102.9362"><stop offset="0" style="stop-color:#589632" id="stop36-6-6"/><stop offset="1" style="stop-color:#93B023" id="stop38-7-7"/></linearGradient><linearGradient gradientTransform="translate(-57.271379,222.25097)" id="SVGID_3_-5-5" gradientUnits="userSpaceOnUse" x1="553.50677" y1="244.6875" x2="551.26642" y2="97.388199"><stop offset="0" style="stop-color:#589632" id="stop20-3-3"/><stop offset="1" style="stop-color:#93B023" id="stop22-5-5"/></linearGradient><linearGradient gradientTransform="translate(-57.271379,222.25097)" id="SVGID_2_-6-6" gradientUnits="userSpaceOnUse" x1="459.22171" y1="246.1226" x2="456.98129" y2="98.822403"><stop offset="0" style="stop-color:#589632" id="stop13-2-2"/><stop offset="1" style="stop-color:#93B023" id="stop15-9-9"/></linearGradient><linearGradient gradientTransform="translate(-57.271379,222.25097)" id="SVGID_1_-1-1" gradientUnits="userSpaceOnUse" x1="350.02249" y1="247.7832" x2="347.78201" y2="100.4837"><stop offset="0" style="stop-color:#589632" id="stop6-2-2"/><stop offset="1" style="stop-color:#93B023" id="stop8-7-7"/></linearGradient><linearGradient gradientTransform="matrix(0.99589097,0,0,0.99589097,-618.66233,545.4266)" id="SVGID_5_-3-3-1" gradientUnits="userSpaceOnUse" x1="188.7529" y1="250.2354" x2="186.5125" y2="102.9362"><stop offset="0" style="stop-color:#589632" id="stop36-6-6-8"/><stop offset="1" style="stop-color:#93B023" id="stop38-7-7-7"/></linearGradient><linearGradient id="SVGID_5_-34" gradientUnits="userSpaceOnUse" x1="188.7529" y1="250.2354" x2="186.5125" y2="102.9362" gradientTransform="translate(-364.21893,542.18126)"><stop offset="0" style="stop-color:#589632" id="stop36-9"/><stop offset="1" style="stop-color:#93B023" id="stop38-4"/></linearGradient><linearGradient id="SVGID_4_-1" gradientUnits="userSpaceOnUse" x1="234.4702" y1="250.03419" x2="232.211" y2="101.4977"><stop offset="0" style="stop-color:#589632" id="stop27-9"/><stop offset="1" style="stop-color:#93B023" id="stop29-5"/></linearGradient><linearGradient id="SVGID_5_-6" gradientUnits="userSpaceOnUse" x1="188.7529" y1="250.2354" x2="186.5125" y2="102.9362" gradientTransform="translate(-608.54103,747.90852)"><stop offset="0" style="stop-color:#589632" id="stop36-2"/><stop offset="1" style="stop-color:#93B023" id="stop38-0"/></linearGradient><linearGradient id="SVGID_4_-2" gradientUnits="userSpaceOnUse" x1="234.4702" y1="250.03419" x2="232.211" y2="101.4977"><stop offset="0" style="stop-color:#589632" id="stop27-2"/><stop offset="1" style="stop-color:#93B023" id="stop29-9"/></linearGradient><linearGradient id="SVGID_5_-6-0" gradientUnits="userSpaceOnUse" x1="188.7529" y1="250.2354" x2="186.5125" y2="102.9362" gradientTransform="translate(-88.541009,552.90851)"><stop offset="0" style="stop-color:#589632" id="stop36-2-7"/><stop offset="1" style="stop-color:#93B023" id="stop38-0-6"/></linearGradient><clipPath clipPathUnits="userSpaceOnUse" id="clipPath4138"><path d="m -358.48902,571.06017 c -3.259,0.30583 -6.648,0.47179 -10.14399,0.47179 -25.00501,0 -46.27101,-8.38451 -46.27101,-19.25558 0,-10.87106 21.032,-19.07085 46.27101,-19.07085 25.23899,0 45.33599,8.19938 45.33599,19.07085 0,1.76808 -0.54,3.46929 -1.539,5.08078 l 23.14402,9.43572 c 5.967,-4.2632 9.305,-9.22001 9.305,-14.58908 0,-16.75515 -32.79102,-29.30051 -76.71402,-29.30051 -43.722,0 -76.512,12.46299 -76.512,29.30051 0,16.91988 32.791,29.6308 76.512,29.6308 11.287,0 21.835,-0.84652 31.284,-2.38707 l -20.672,-8.38736 z" id="path4140" style="fill:url(#linearGradient4142)" inkscape:connector-curvature="0"/></clipPath><linearGradient inkscape:collect="always" xlink:href="#SVGID_5_-6-0" id="linearGradient4142" gradientUnits="userSpaceOnUse" gradientTransform="matrix(1,0,0,0.40776698,-556.54104,482.63019)" x1="188.7529" y1="250.2354" x2="186.5125" y2="102.9362"/><linearGradient id="SVGID_5_-34-1" gradientUnits="userSpaceOnUse" x1="188.7529" y1="250.2354" x2="186.5125" y2="102.9362" gradientTransform="translate(-880.49037,535.82284)"><stop offset="0" style="stop-color:#589632" id="stop36-9-0"/><stop offset="1" style="stop-color:#93B023" id="stop38-4-2"/></linearGradient><linearGradient id="SVGID_4_-1-5" gradientUnits="userSpaceOnUse" x1="234.4702" y1="250.03419" x2="232.211" y2="101.4977"><stop offset="0" style="stop-color:#589632" id="stop27-9-1"/><stop offset="1" style="stop-color:#93B023" id="stop29-5-9"/></linearGradient><linearGradient id="SVGID_5_-9" gradientUnits="userSpaceOnUse" x1="188.7529" y1="250.2354" x2="186.5125" y2="102.9362" gradientTransform="translate(-83.932925,-69.666769)"><stop offset="0" style="stop-color:#589632" id="stop36-24"/><stop offset="1" style="stop-color:#93B023" id="stop38-45"/></linearGradient><linearGradient id="SVGID_4_-9" gradientUnits="userSpaceOnUse" x1="234.4702" y1="250.03419" x2="232.211" y2="101.4977"><stop offset="0" style="stop-color:#589632" id="stop27-1"/><stop offset="1" style="stop-color:#93B023" id="stop29-2"/></linearGradient></defs><sodipodi:namedview pagecolor="#ffffff" bordercolor="#666666" borderopacity="1" objecttolerance="10" gridtolerance="10" guidetolerance="10" inkscape:pageopacity="0" inkscape:pageshadow="2" inkscape:window-width="1920" inkscape:window-height="1180" id="namedview42" showgrid="false" inkscape:zoom="2.5914186" inkscape:cx="136.72867" inkscape:cy="91.223329" inkscape:window-x="1918" inkscape:window-y="-3" inkscape:window-maximized="1" inkscape:current-layer="Layer_1" showborder="true" inkscape:showpageshadow="false" showguides="true" inkscape:guide-bbox="true"/><linearGradient id="SVGID_1_" gradientUnits="userSpaceOnUse" x1="350.02249" y1="247.7832" x2="347.78201" y2="100.4837" gradientTransform="translate(-708.30337,-211.69516)"><stop offset="0" style="stop-color:#589632" id="stop6"/><stop offset="1" style="stop-color:#93B023" id="stop8"/></linearGradient><linearGradient id="SVGID_2_" gradientUnits="userSpaceOnUse" x1="459.22171" y1="246.1226" x2="456.98129" y2="98.822403" gradientTransform="translate(-708.30337,-211.69516)"><stop offset="0" style="stop-color:#589632" id="stop13"/><stop offset="1" style="stop-color:#93B023" id="stop15"/></linearGradient><linearGradient id="SVGID_3_" gradientUnits="userSpaceOnUse" x1="553.50677" y1="244.6875" x2="551.26642" y2="97.388199" gradientTransform="translate(-708.30337,-211.69516)"><stop offset="0" style="stop-color:#589632" id="stop20"/><stop offset="1" style="stop-color:#93B023" id="stop22"/></linearGradient><linearGradient id="SVGID_4_" gradientUnits="userSpaceOnUse" x1="234.4702" y1="250.03419" x2="232.211" y2="101.4977"><stop offset="0" style="stop-color:#589632" id="stop27"/><stop offset="1" style="stop-color:#93B023" id="stop29"/></linearGradient><linearGradient id="SVGID_5_" gradientUnits="userSpaceOnUse" x1="188.7529" y1="250.2354" x2="186.5125" y2="102.9362" gradientTransform="translate(-708.30337,-211.69516)"><stop offset="0" style="stop-color:#589632" id="stop36"/><stop offset="1" style="stop-color:#93B023" id="stop38"/></linearGradient><polygon points="195,202.37 195,180 216.513,180 198.306,162 176,162 176,183.433 " id="polygon3-8" transform="translate(-83.932895,-69.666759)" style="fill:#ee7913"/><polygon points="264,248 264,226.946 225.617,189 204,189 204,211.34 240.782,248 " id="polygon31-9" style="fill:url(#SVGID_4_-9)" transform="translate(-83.932895,-69.666759)"/><g transform="matrix(0.70710678,0.70710678,-0.70710678,0.70710678,-12.278914,-9.2774017)" style="font-size:27.95200348px;font-style:normal;font-weight:normal;line-height:125%;letter-spacing:0px;word-spacing:0px;fill:#c1de62;fill-opacity:1;stroke:none;font-family:Sans" id="text3146-9"><path d="m 201.19357,7.2519732 0,-20.0086122 13.71669,0 0,3.3848132 -9.67675,0 0,4.7360084 8.35285,0 0,3.3848129 -8.35285,0 0,8.5029777 -4.03994,0" style="font-variant:normal;font-weight:bold;font-stretch:normal;fill:#c1de62;font-family:Arial;-inkscape-font-specification:Arial Bold" id="path3142" inkscape:connector-curvature="0"/><path d="m 218.26777,7.2519732 0,-20.0086122 8.50298,0 c 2.13824,2e-5 3.68961,0.181999 4.65412,0.545938 0.97357,0.354878 1.75153,0.991805 2.33388,1.910781 0.58232,0.9190119 0.87348,1.9699406 0.8735,3.1527898 -2e-5,1.5013412 -0.44132,2.7433479 -1.3239,3.7260239 -0.88261,0.9735984 -2.20196,1.5877775 -3.95804,1.8425393 0.87348,0.50955 1.5923,1.06913549 2.15645,1.67875801 0.57322,0.60963683 1.34208,1.69241189 2.30658,3.24832849 l 2.44308,3.9034537 -4.83155,0 -2.92077,-4.3538522 c -1.03729,-1.5559161 -1.74701,-2.53405328 -2.12915,-2.93441438 -0.38217,-0.40944548 -0.78707,-0.68696346 -1.21472,-0.83255479 -0.42766,-0.15467403 -1.10553,-0.23201513 -2.03361,-0.23202343 l -0.81891,0 0,8.3528448 -4.03994,0 m 4.03994,-11.5465796 2.98901,0 c 1.93807,1.15e-5 3.14823,-0.081879 3.63048,-0.2456719 0.48224,-0.1637693 0.85984,-0.4458368 1.13282,-0.8462032 0.27296,-0.4003412 0.40944,-0.9007835 0.40946,-1.5013284 -2e-5,-0.6733081 -0.182,-1.2146957 -0.54594,-1.6241642 -0.35487,-0.418536 -0.85986,-0.6824055 -1.51498,-0.7916095 -0.32757,-0.045478 -1.31026,-0.068226 -2.94806,-0.068242 l -3.15279,0 0,5.0772194" style="font-variant:normal;font-weight:bold;font-stretch:normal;fill:#c1de62;font-family:Arial;-inkscape-font-specification:Arial Bold" id="path3144" inkscape:connector-curvature="0"/></g><polygon points="204,211.34 204,189 225.617,189 216.513,180 195,180 195,202.37 " id="polygon33-60" transform="translate(-83.932895,-69.666759)" style="fill:#f0e64a"/><path d="m 114.11909,147.19724 c -3.259,0.75 -6.648,1.157 -10.144,1.157 -25.005006,0 -46.271006,-20.56201 -46.271006,-47.22201 0,-26.660004 21.032,-46.769004 46.271006,-46.769004 25.239,0 45.336,20.108 45.336,46.769004 0,4.336 -0.54,8.508 -1.539,12.46 l 23.14401,23.14 c 5.967,-10.455 9.305,-22.611 9.305,-35.778 0,-41.090004 -32.79101,-71.856009 -76.71401,-71.856009 -43.722006,0 -76.512006,30.564005 -76.512006,71.856009 0,41.494 32.791,72.66601 76.512006,72.66601 11.287,0 21.835,-2.076 31.284,-5.854 l -20.672,-20.569 z" id="path40-64" style="fill:url(#SVGID_5_-9)" inkscape:connector-curvature="0"/><path d="m 105.18731,95.034452 88.00002,86.000008 0,-21.05469 -38.38282,-37.94532 -9.10352,-9 -18.20703,-17.999998 z" id="polygon4174-0" style="fill:#ffffff;fill-opacity:0.17254902" inkscape:connector-curvature="0" sodipodi:nodetypes="ccccccc"/></svg>