<?xml version="1.0" encoding="UTF-8"?>
<svg id="Layer_1" data-name="Layer 1" xmlns="http://www.w3.org/2000/svg" xmlns:xlink="http://www.w3.org/1999/xlink" viewBox="0 0 702.52 357.59">
  <defs>
    <style>
      .cls-1 {
        fill: url(#linear-gradient-3);
      }

      .cls-2 {
        fill: url(#linear-gradient-2);
      }

      .cls-3 {
        fill: url(#linear-gradient);
      }

      .cls-4 {
        fill: #00d1c6;
      }

      .cls-5 {
        fill: #0002e9;
      }
    </style>
    <linearGradient id="linear-gradient" x1="536.24" y1="197.64" x2="582.83" y2="170.39" gradientTransform="translate(0 360) scale(1 -1)" gradientUnits="userSpaceOnUse">
      <stop offset="0" stop-color="#005eff"/>
      <stop offset=".44" stop-color="#0037f5"/>
      <stop offset="1" stop-color="#0002e9"/>
    </linearGradient>
    <linearGradient id="linear-gradient-2" x1="536.95" y1="223.36" x2="574.75" y2="196.11" gradientTransform="translate(0 360) scale(1 -1)" gradientUnits="userSpaceOnUse">
      <stop offset="0" stop-color="#0098e3"/>
      <stop offset=".67" stop-color="#0072f5"/>
      <stop offset="1" stop-color="#005eff"/>
    </linearGradient>
    <linearGradient id="linear-gradient-3" x1="537.66" y1="244.71" x2="582.5" y2="215.7" gradientTransform="translate(0 360) scale(1 -1)" gradientUnits="userSpaceOnUse">
      <stop offset="0" stop-color="#00d1c6"/>
      <stop offset=".68" stop-color="#00abd9"/>
      <stop offset="1" stop-color="#0098e3"/>
    </linearGradient>
  </defs>
  <g>
    <g>
      <path class="cls-5" d="M164.73,241.51l7.47,7.67-8.17,7.37-7.77-7.97c-5.55,3.23-12.01,5.15-18.87,5.15-20.18,0-36.63-16.14-36.63-36.63s16.45-36.63,36.63-36.63,36.63,16.14,36.63,36.63c0,9.48-3.53,18.06-9.28,24.42h-.01ZM147.98,240.1l-12.92-13.22,8.17-7.37,13.52,13.82c3.53-4.34,5.65-9.89,5.65-16.25,0-14.53-11.1-25.33-25.03-25.33s-25.02,10.8-25.02,25.33,11.1,25.33,25.02,25.33c3.84,0,7.37-.81,10.6-2.32h0Z"/>
      <path class="cls-5" d="M229.14,201.95v50.46h-10.9v-6.46c-3.33,5.25-8.78,7.77-15.64,7.77-11.3,0-19.37-7.67-19.37-20.79v-30.98h10.9v29.87c0,7.67,4.44,11.71,11.3,11.71s12.82-4.24,12.82-14.53v-27.04h10.9,0Z"/>
      <path class="cls-5" d="M291.36,201.95v50.46h-10.9v-7.27c-3.83,5.35-9.79,8.58-17.66,8.58-13.73,0-25.13-11.6-25.13-26.54s11.4-26.54,25.13-26.54c7.87,0,13.82,3.23,17.66,8.48v-7.17h10.9ZM280.46,227.18c0-9.39-6.86-16.15-15.94-16.15s-15.94,6.76-15.94,16.15,6.86,16.14,15.94,16.14,15.94-6.76,15.94-16.14Z"/>
      <path class="cls-5" d="M329.26,201.04v11.8c-7.16-.5-15.54,2.83-15.54,14.13v25.43h-10.9v-50.46h10.9v8.47c3.03-6.86,9.18-9.38,15.54-9.38h0Z"/>
      <path class="cls-5" d="M346.22,212.45v24.22c0,6.46,4.24,6.36,12.52,5.96v9.79c-16.75,2.02-23.41-2.63-23.41-15.74v-45.61l10.9-3.23v14.13h12.52v10.5h-12.52v-.02Z"/>
      <path class="cls-5" d="M364.99,187.42c0-3.83,3.13-6.96,6.97-6.96s6.96,3.13,6.96,6.96-3.13,6.96-6.96,6.96-6.97-3.23-6.97-6.96ZM366.5,201.95h10.9v50.46h-10.9v-50.46h0Z"/>
      <path class="cls-5" d="M385.56,227.18c0-15.04,11.4-26.54,26.64-26.54,9.89,0,18.47,5.15,22.5,13.02l-9.39,5.45c-2.22-4.74-7.16-7.77-13.22-7.77-8.88,0-15.64,6.76-15.64,15.84s6.76,15.84,15.64,15.84c6.06,0,11-3.13,13.42-7.77l9.38,5.35c-4.24,7.97-12.81,13.12-22.7,13.12-15.24,0-26.64-11.6-26.64-26.54h.01Z"/>
      <path class="cls-5" d="M441.99,178.74h10.9v73.67h-10.9v-73.67Z"/>
      <path class="cls-5" d="M488.94,243.73c6.05,0,10.59-2.72,13.02-6.26l8.98,5.25c-4.64,6.86-12.21,11-22.1,11-16.65,0-27.44-11.4-27.44-26.54s10.79-26.54,26.64-26.54,25.33,12.11,25.33,26.64c0,1.52-.2,3.13-.4,4.54h-40.16c1.72,7.87,8.07,11.91,16.15,11.91h-.02ZM502.36,222.94c-1.51-8.68-7.87-12.41-14.43-12.41-8.17,0-13.72,4.84-15.24,12.41h29.67,0Z"/>
    </g>
    <g>
      <path class="cls-3" d="M557.56,201.95c-.65,0-1.3-.17-1.89-.51l-8.24-4.76c-1.81-1.04-2.43-3.35-1.38-5.16,1.04-1.81,3.35-2.43,5.16-1.38l6.36,3.67,32.87-18.98-12.66-7.31-38.53,22.25c-1.17.68-2.61.67-3.78,0l-20.21-11.67c-1.17-.68-1.89-1.92-1.89-3.27s.72-2.6,1.89-3.27l8.24-4.76c1.81-1.04,4.12-.42,5.16,1.38,1.04,1.81.42,4.12-1.38,5.16l-2.58,1.49,12.66,7.31,38.53-22.25c1.17-.68,2.61-.67,3.78,0l20.21,11.67c1.17.68,1.89,1.92,1.89,3.27s-.72,2.6-1.89,3.27l-40.42,23.34c-.58.34-1.24.51-1.89.51h0Z"/>
      <path class="cls-2" d="M537.35,166.94c-.65,0-1.3-.17-1.89-.51l-20.21-11.67c-1.17-.67-1.89-1.92-1.89-3.27s.72-2.6,1.89-3.27l8.24-4.76c1.81-1.04,4.12-.42,5.16,1.38,1.04,1.81.42,4.12-1.38,5.16l-2.58,1.49,12.66,7.31,38.53-22.25c1.17-.68,2.61-.67,3.78,0l20.21,11.67c1.17.68,1.89,1.92,1.89,3.27s-.72,2.6-1.89,3.27l-8.24,4.76c-1.81,1.04-4.12.42-5.16-1.38-1.04-1.81-.42-4.12,1.38-5.16l2.58-1.49-12.66-7.31-38.53,22.25c-.58.34-1.24.51-1.89.51Z"/>
      <path class="cls-1" d="M537.35,143.61c-.65,0-1.3-.17-1.89-.51l-20.21-11.67c-1.17-.67-1.89-1.92-1.89-3.27s.72-2.6,1.89-3.27l40.42-23.34c1.17-.68,2.61-.68,3.78,0l8.24,4.76c1.81,1.04,2.43,3.35,1.38,5.16-1.04,1.81-3.35,2.42-5.16,1.38l-6.36-3.67-32.87,18.98,12.66,7.31,38.53-22.25c1.17-.68,2.61-.67,3.78,0l20.21,11.67c1.17.68,1.89,1.92,1.89,3.27s-.72,2.6-1.89,3.27l-8.24,4.76c-1.81,1.04-4.12.42-5.16-1.38-1.04-1.81-.42-4.12,1.38-5.16l2.58-1.49-12.66-7.31-38.53,22.25c-.58.34-1.24.51-1.89.51h0Z"/>
    </g>
  </g>
  <g>
    <path class="cls-4" d="M583,101.04v1.96h2.57v7.8h2.05v-7.8h2.57v-1.96h-7.19Z"/>
    <path class="cls-4" d="M599.67,101.04l-2.78,4.55-2.78-4.55h-2.1v9.76h2.05v-6.12l2.77,4.55h.12l2.77-4.55v6.12h2.05v-9.76h-2.1Z"/>
  </g>
</svg>