<?xml version="1.0" encoding="UTF-8" standalone="no"?>
<!-- Created with Inkscape (http://www.inkscape.org/) -->

<svg
   version="1.1"
   id="svg824"
   xml:space="preserve"
   width="793.70135"
   height="362.64932"
   viewBox="0 0 793.70135 362.64932"
   sodipodi:docname="QWAST.svg"
   inkscape:export-filename="C:\Users\jkw\Pictures\qwast.png"
   inkscape:export-xdpi="96"
   inkscape:export-ydpi="96"
   inkscape:version="1.1.1 (3bf5ae0d25, 2021-09-20)"
   xmlns:inkscape="http://www.inkscape.org/namespaces/inkscape"
   xmlns:sodipodi="http://sodipodi.sourceforge.net/DTD/sodipodi-0.dtd"
   xmlns="http://www.w3.org/2000/svg"
   xmlns:svg="http://www.w3.org/2000/svg"><defs
     id="defs828"><clipPath
       clipPathUnits="userSpaceOnUse"
       id="clipPath838"><path
         d="M 0,271.987 H 595.276 V 0 H 0 Z"
         id="path836" /></clipPath></defs><sodipodi:namedview
     id="namedview826"
     pagecolor="#ffffff"
     bordercolor="#666666"
     borderopacity="1.0"
     inkscape:pageshadow="2"
     inkscape:pageopacity="0.0"
     inkscape:pagecheckerboard="0"
     showgrid="false"
     inkscape:zoom="1.6542746"
     inkscape:cx="396.85068"
     inkscape:cy="181.04612"
     inkscape:window-width="1920"
     inkscape:window-height="1051"
     inkscape:window-x="-9"
     inkscape:window-y="-9"
     inkscape:window-maximized="1"
     inkscape:current-layer="g832" /><g
     id="g830"
     inkscape:groupmode="layer"
     inkscape:label="QWAST"
     transform="matrix(1.3333333,0,0,-1.3333333,0,362.64933)"><g
       id="g832"><g
         id="g834"
         clip-path="url(#clipPath838)"><g
           id="g840"
           transform="translate(136.8672,119.0257)"><path
             d="m 0,0 c 4.803,0 9.064,1.131 12.785,3.399 3.72,2.267 6.648,5.393 8.779,9.386 2.131,3.993 3.196,8.56 3.196,13.701 0,5.142 -1.065,9.692 -3.196,13.648 -2.131,3.96 -5.059,7.086 -8.779,9.391 C 9.064,51.821 4.803,52.973 0,52.973 c -4.807,0 -9.068,-1.132 -12.789,-3.399 -3.721,-2.267 -6.648,-5.397 -8.779,-9.386 -2.131,-3.993 -3.196,-8.56 -3.196,-13.702 0,-5.075 1.065,-9.609 3.196,-13.598 2.131,-3.993 5.058,-7.14 8.779,-9.44 C -9.068,1.148 -4.807,0 0,0 m -0.409,-13.702 c -5.818,0 -11.178,1.016 -16.084,3.044 -4.906,2.032 -9.184,4.852 -12.839,8.474 -3.65,3.617 -6.479,7.866 -8.473,12.735 -1.995,4.873 -2.994,10.183 -2.994,15.935 0,5.683 1.032,10.96 3.097,15.833 2.061,4.868 4.955,9.134 8.676,12.785 3.721,3.654 8.052,6.495 12.991,8.527 4.939,2.028 10.283,3.043 16.035,3.043 5.885,0 11.298,-0.999 16.237,-2.993 4.939,-1.995 9.25,-4.807 12.938,-8.425 3.687,-3.617 6.549,-7.862 8.577,-12.735 2.031,-4.873 3.043,-10.216 3.043,-16.035 0,-5.752 -0.979,-10.98 -2.94,-15.679 C 35.889,6.103 33.184,2.011 29.736,-1.474 26.284,-4.959 22.361,-7.714 17.963,-9.746 L 28.342,-22.661 18.062,-30.55 3.754,-13.499 c -1.355,-0.136 -2.738,-0.203 -4.163,-0.203"
             style="fill:#283778;fill-opacity:1;fill-rule:nonzero;stroke:none"
             id="path842" /></g><g
           id="g844"
           transform="translate(204.7557,106.9471)"><path
             d="M 0,0 -23.137,77.13 H -6.9 L 7.916,18.368 24.764,76.114 H 38.668 L 55.512,19.078 70.23,77.13 H 86.265 L 63.123,0 H 48.307 L 31.462,56.731 14.92,0 Z"
             style="fill:#283778;fill-opacity:1;fill-rule:nonzero;stroke:none"
             id="path846" /></g><g
           id="g848"
           transform="translate(313.8522,139.2188)"><path
             d="M 0,0 H 22.733 L 11.368,31.665 Z m -26.994,-32.272 30.649,77.13 h 16.34 l 30.748,-77.13 H 34.407 l -7.309,20.297 h -31.36 l -7.305,-20.297 z"
             style="fill:#283778;fill-opacity:1;fill-rule:nonzero;stroke:none"
             id="path850" /></g><g
           id="g852"
           transform="translate(397.986,105.3242)"><path
             d="m 0,0 c -3.246,0 -6.512,0.268 -9.791,0.809 -3.283,0.545 -6.343,1.285 -9.184,2.234 -2.845,0.946 -5.211,2.065 -7.107,3.349 l 1.421,12.888 c 3.25,-1.961 7.053,-3.567 11.418,-4.819 4.365,-1.251 8.54,-1.879 12.533,-1.879 4.6,0 8.205,0.897 10.811,2.689 2.601,1.792 3.906,4.282 3.906,7.462 0,1.825 -0.442,3.398 -1.321,4.72 -0.88,1.317 -2.437,2.519 -4.667,3.601 -2.234,1.082 -5.38,2.234 -9.44,3.452 -5.616,1.689 -10.146,3.584 -13.598,5.682 -3.452,2.098 -5.938,4.584 -7.458,7.458 -1.523,2.874 -2.283,6.277 -2.283,10.2 0,4.6 1.131,8.593 3.398,11.975 2.267,3.382 5.464,5.988 9.589,7.813 4.129,1.829 8.998,2.742 14.614,2.742 4.13,0 8.271,-0.524 12.434,-1.573 4.162,-1.049 7.697,-2.453 10.604,-4.212 l -2.13,-12.484 c -2.841,1.759 -6.108,3.147 -9.796,4.163 -3.687,1.016 -7.222,1.523 -10.604,1.523 -4.125,0 -7.342,-0.813 -9.638,-2.436 -2.304,-1.623 -3.452,-3.927 -3.452,-6.9 0,-1.693 0.388,-3.168 1.168,-4.415 0.777,-1.255 2.164,-2.37 4.159,-3.353 1.994,-0.978 4.753,-2.044 8.271,-3.196 6.157,-1.895 11.096,-3.94 14.816,-6.136 3.721,-2.201 6.43,-4.741 8.119,-7.615 1.693,-2.874 2.54,-6.277 2.54,-10.2 0,-7.375 -2.606,-13.14 -7.817,-17.302 C 16.307,2.081 9.134,0 0,0"
             style="fill:#283778;fill-opacity:1;fill-rule:nonzero;stroke:none"
             id="path854" /></g><g
           id="g856"
           transform="translate(459.7917,106.9471)"><path
             d="M 0,0 V 64.444 H -24.864 V 77.13 H 40.394 V 64.444 H 15.527 L 15.527,0 Z"
             style="fill:#283778;fill-opacity:1;fill-rule:nonzero;stroke:none"
             id="path858" /></g><g
           id="g860"
           transform="translate(176.8892,81.2936)"><path
             d="m 0,0 -9.992,-7.846 -7.846,9.992 9.992,7.846 z"
             style="fill:#4876c4;fill-opacity:1;fill-rule:nonzero;stroke:none"
             id="path862" /></g><g
           id="g864"
           transform="translate(188.8282,66.0884)"><path
             d="m 0,0 -9.992,-7.846 -7.846,9.992 9.992,7.846 z"
             style="fill:#4bbd41;fill-opacity:1;fill-rule:nonzero;stroke:none"
             id="path866" /></g></g></g></g></svg>
