<svg xmlns="http://www.w3.org/2000/svg" width="257.781" height="68.004" viewBox="0 0 257.781 68.004" class="svg replaced-svg">
  <g id="Groupe_224" data-name="Groupe 224" transform="translate(-26.219 -6.309)">
    <g id="Groupe_1" data-name="Groupe 1" transform="translate(26.219 6.309)">
      <path id="Tracé_1" data-name="Tracé 1" d="M26.219,16.222H46.932c10.487,0,15.975,5.116,15.975,12.729,0,6.74-4.49,12.479-13.854,12.977L67.274,59.9H53.926L36.95,42.052h-.624V59.9H26.219ZM36.327,35.563h7.366c5.863,0,9.107-1.871,9.107-6.238,0-3.245-2.495-5.618-6.363-5.618H36.327Z" transform="translate(-26.219 -5.9)" fill="#000"></path>
      <path id="Tracé_2" data-name="Tracé 2" d="M136.006,16.221h18.532c4.559,0,7.925.561,10.17,2.312a9.579,9.579,0,0,1,3.495,7.859c0,4.927-1.994,7.614-5.988,9.3v.123c6.491.874,9.607,5.24,9.607,11.108,0,7.482-4.991,12.976-16.721,12.976H136.006Zm9.735,17.845h5.8c5,0,6.927-1.435,6.927-5.365s-1.93-5.368-6.927-5.368h-5.8Zm0,18.718h8.3c5.928,0,8.05-2.371,8.05-5.989s-2.122-5.992-8.05-5.992h-8.3Z" transform="translate(-21.687 -5.9)" fill="#000"></path>
      <path id="Tracé_3" data-name="Tracé 3" d="M183.112,16.221h37.563v8.113H193.219V33.57h25.957v7.856H193.219v9.986h27.457V59.9H183.112Z" transform="translate(-19.742 -5.9)" fill="#000"></path>
      <path id="Tracé_4" data-name="Tracé 4" d="M227.4,59.9l17.6-22.837L229.15,16.221h12.1L251.483,30.7l9.985-14.477h12.106L258.1,37.063,275.7,59.9H263.589L251.483,43.176,239.5,59.9Z" transform="translate(-17.914 -5.9)" fill="#000"></path>
      <path id="Tracé_5" data-name="Tracé 5" d="M98.618,74.313l-34-34,34-34,34,34Zm-18.89-34L98.618,59.2l18.888-18.89L98.618,21.421Z" transform="translate(-24.634 -6.309)" fill="#ffcd49"></path>
    </g>
  </g>
</svg>
