<?xml version="1.0" encoding="UTF-8"?>
<svg id="a" data-name="Ebene 1" xmlns="http://www.w3.org/2000/svg" viewBox="0 0 930.5928 806.6611">
  <defs>
    <style>
      .c {
        fill: #589600;
      }

      .d {
        fill: #589600;
      }

      .e {
        fill: #3b6000;
      }

      .f {
        fill: #3a6321;
      }

      .g {
        fill: #93b023;
      }

      .h {
        fill: #697c19;
      }

      .i {
        fill: #1b2d0f;
      }
    </style>
  </defs>
  <g>
    <path class="d" d="M257.1436,617.3886h18.4971v24.1738c-2.9971.9775-5.8193,1.6631-8.4668,2.0566-2.6465.3936-5.3525.5898-8.1162.5898-7.0381,0-12.4111-2.0674-16.1211-6.2031-3.7109-4.1348-5.5654-10.0723-5.5654-17.8115,0-7.5264,2.1533-13.3936,6.458-17.6035,4.3057-4.21,10.2744-6.3145,17.9072-6.3145,4.7842,0,9.3975.9561,13.8408,2.8701l-3.2842,7.9092c-3.4023-1.7012-6.9424-2.5518-10.6201-2.5518-4.2734,0-7.6973,1.4355-10.2695,4.3057s-3.8584,6.7295-3.8584,11.5762c0,5.0605,1.0361,8.9248,3.1094,11.5928,2.0723,2.6689,5.0869,4.0029,9.041,4.0029,2.0615,0,4.1562-.2129,6.2822-.6377v-9.7275h-8.834v-8.2275Z"/>
    <path class="d" d="M300.9883,644.209c-5.7412,0-10.2275-1.583-13.459-4.752-3.2314-3.167-4.8477-7.6533-4.8477-13.458,0-5.9746,1.4941-10.5928,4.4814-13.8564,2.9863-3.2637,7.1162-4.8955,12.3896-4.8955,5.0391,0,8.9619,1.4346,11.7676,4.3047,2.8066,2.8711,4.21,6.8359,4.21,11.8955v4.7207h-22.9941c.1064,2.7637.9248,4.9219,2.4561,6.4736,1.5312,1.5527,3.6777,2.3281,6.4424,2.3281,2.1465,0,4.1777-.2236,6.0908-.6699,1.9141-.4463,3.9121-1.1582,5.9961-2.1367v7.5264c-1.7012.8506-3.5195,1.4834-5.4541,1.8975-1.9346.415-4.2949.6221-7.0791.6221ZM299.6162,614.167c-2.0625,0-3.6787.6543-4.8477,1.9619s-1.8389,3.1621-2.0088,5.5645h13.6494c-.043-2.4023-.6699-4.2568-1.8818-5.5645s-2.8486-1.9619-4.9111-1.9619Z"/>
    <path class="d" d="M354.9463,625.6797c0,5.8047-1.5312,10.3447-4.5928,13.6182-3.0615,3.2744-7.3242,4.9111-12.7881,4.9111-3.4238,0-6.4424-.749-9.0576-2.248s-4.624-3.6514-6.0273-6.458-2.1055-6.0801-2.1055-9.8232c0-5.8252,1.5205-10.3535,4.5605-13.585,3.041-3.2314,7.3145-4.8477,12.8203-4.8477,3.4229,0,6.4424.7441,9.0576,2.2324s4.624,3.625,6.0273,6.4102,2.1055,6.0488,2.1055,9.79ZM330.2939,625.6797c0,3.5303.5791,6.1982,1.7383,8.0049,1.1582,1.8076,3.0449,2.7109,5.6602,2.7109,2.5938,0,4.46-.8975,5.5967-2.6943,1.1377-1.7969,1.707-4.4697,1.707-8.0215,0-3.5283-.5742-6.1758-1.7227-7.9404s-3.0293-2.6475-5.6445-2.6475c-2.5947,0-4.4648.877-5.6133,2.6318-1.1475,1.7539-1.7217,4.4062-1.7217,7.9561Z"/>
    <path class="d" d="M361.1055,598.7002c0-3.168,1.7637-4.752,5.2939-4.752,3.5283,0,5.2939,1.584,5.2939,4.752,0,1.5098-.4414,2.6836-1.3242,3.5234-.8818.8408-2.2061,1.2598-3.9697,1.2598-3.5303,0-5.2939-1.5947-5.2939-4.7832ZM371.2461,643.5713h-9.7266v-35.6543h9.7266v35.6543Z"/>
    <path class="d" d="M412.8027,643.5713h-9.7266v-20.8252c0-2.5723-.458-4.502-1.3721-5.7881s-2.3701-1.9297-4.3691-1.9297c-2.7217,0-4.6875.9092-5.8994,2.7266-1.2119,1.8184-1.8184,4.832-1.8184,9.041v16.7754h-9.7266v-35.6543h7.4307l1.3076,4.5596h.542c1.085-1.7217,2.5781-3.0234,4.4814-3.9062,1.9023-.8818,4.0654-1.3232,6.4893-1.3232,4.1465,0,7.292,1.1211,9.4404,3.3643,2.1465,2.2432,3.2207,5.4805,3.2207,9.7109v23.249Z"/>
    <path class="d" d="M440.9648,615.2197h-8.4189v28.3516h-9.7275v-28.3516h-5.3574v-4.6885l5.3574-2.6143v-2.6152c0-4.0605.999-7.0273,2.998-8.8984,1.998-1.8701,5.1982-2.8057,9.5996-2.8057,3.3584,0,6.3467.499,8.9609,1.498l-2.4873,7.1445c-1.9561-.6172-3.7627-.9248-5.4219-.9248-1.3818,0-2.3809.4092-2.9971,1.2275-.6172.8184-.9248,1.8652-.9248,3.1416v2.2324h8.4189v7.3027Z"/>
    <path class="d" d="M478.1318,625.6797c0,5.8047-1.5312,10.3447-4.5928,13.6182-3.0615,3.2744-7.3242,4.9111-12.7881,4.9111-3.4238,0-6.4424-.749-9.0576-2.248s-4.624-3.6514-6.0273-6.458-2.1055-6.0801-2.1055-9.8232c0-5.8252,1.5205-10.3535,4.5605-13.585,3.041-3.2314,7.3145-4.8477,12.8203-4.8477,3.4229,0,6.4424.7441,9.0576,2.2324s4.624,3.625,6.0273,6.4102,2.1055,6.0488,2.1055,9.79ZM453.4795,625.6797c0,3.5303.5791,6.1982,1.7383,8.0049,1.1582,1.8076,3.0449,2.7109,5.6602,2.7109,2.5938,0,4.46-.8975,5.5967-2.6943,1.1377-1.7969,1.707-4.4697,1.707-8.0215,0-3.5283-.5742-6.1758-1.7227-7.9404s-3.0293-2.6475-5.6445-2.6475c-2.5947,0-4.4648.877-5.6133,2.6318-1.1475,1.7539-1.7217,4.4062-1.7217,7.9561Z"/>
    <path class="d" d="M504.7363,607.247c1.3184,0,2.4131.0957,3.2852.2871l-.7334,9.1211c-.7871-.2129-1.7441-.3193-2.8711-.3193-3.1035,0-5.5225.7969-7.2549,2.3916-1.7334,1.5947-2.5996,3.8271-2.5996,6.6973v18.1465h-9.7266v-35.6543h7.3672l1.4346,5.9951h.4785c1.1055-1.998,2.5996-3.6084,4.4814-4.8311,1.8809-1.2227,3.9268-1.834,6.1387-1.834Z"/>
    <path class="d" d="M544.9619,643.5713h-9.7275v-20.8252c0-2.5723-.4307-4.502-1.291-5.7881-.8613-1.2861-2.2168-1.9297-4.0664-1.9297-2.4873,0-4.2949.9141-5.4219,2.7432-1.127,1.8281-1.6904,4.8369-1.6904,9.0244v16.7754h-9.7266v-35.6543h7.4307l1.3076,4.5596h.542c.957-1.6367,2.3389-2.918,4.1465-3.8428,1.8066-.9248,3.8799-1.3867,6.2188-1.3867,5.3359,0,8.9502,1.7432,10.8428,5.2295h.8613c.957-1.6582,2.3652-2.9443,4.2256-3.8584s3.959-1.3711,6.2988-1.3711c4.0391,0,7.0957,1.0361,9.1689,3.1094,2.0723,2.0732,3.1094,5.3945,3.1094,9.9658v23.249h-9.7588v-20.8252c0-2.5723-.4307-4.502-1.292-5.7881s-2.2168-1.9297-4.0664-1.9297c-2.3809,0-4.1621.8506-5.3418,2.5518s-1.7695,4.4004-1.7695,8.0996v17.8916Z"/>
    <path class="d" d="M598.2217,643.5713l-1.8818-4.8477h-.2549c-1.6377,2.0625-3.3223,3.4922-5.0557,4.29-1.7324.7969-3.9912,1.1953-6.7764,1.1953-3.4238,0-6.1182-.9775-8.085-2.9336s-2.9502-4.7412-2.9502-8.3555c0-3.7842,1.3242-6.5752,3.9707-8.3721,2.6475-1.7959,6.6387-2.79,11.9756-2.9814l6.1865-.1914v-1.5625c0-3.6143-1.8496-5.4219-5.5488-5.4219-2.8496,0-6.1982.8613-10.0459,2.583l-3.2207-6.5693c4.1025-2.1475,8.6533-3.2217,13.6494-3.2217,4.7842,0,8.4512,1.042,11.0029,3.126,2.5508,2.084,3.8262,5.252,3.8262,9.5039v23.7588h-6.792ZM595.3506,627.0517l-3.7627.127c-2.8281.0859-4.9326.5957-6.3145,1.5312-1.3828.9355-2.0732,2.3594-2.0732,4.2734,0,2.7422,1.5732,4.1143,4.7197,4.1143,2.2539,0,4.0557-.6484,5.4062-1.9453,1.3496-1.2969,2.0244-3.0195,2.0244-5.167v-2.9336Z"/>
    <path class="d" d="M628.4561,636.4599c1.7002,0,3.7412-.3721,6.123-1.1162v7.2393c-2.4238,1.084-5.4014,1.626-8.9297,1.626-3.8906,0-6.7246-.9834-8.499-2.9502-1.7754-1.9658-2.6631-4.916-2.6631-8.8496v-17.1895h-4.6562v-4.1143l5.3574-3.2529,2.8066-7.5264h6.2188v7.5908h9.9824v7.3027h-9.9824v17.1895c0,1.3828.3877,2.4033,1.1641,3.0615.7764.6592,1.8018.9893,3.0781.9893Z"/>
    <path class="d" d="M639.9023,598.7002c0-3.168,1.7637-4.752,5.2939-4.752,3.5283,0,5.2939,1.584,5.2939,4.752,0,1.5098-.4414,2.6836-1.3242,3.5234-.8818.8408-2.2061,1.2598-3.9697,1.2598-3.5303,0-5.2939-1.5947-5.2939-4.7832ZM650.043,643.5713h-9.7266v-35.6543h9.7266v35.6543Z"/>
    <path class="d" d="M668.0322,624.1816l4.2412-5.4219,9.9824-10.8428h10.9707l-14.1602,15.4668,15.0205,20.1875h-11.2256l-10.2686-14.4473-4.1787,3.3486v11.0986h-9.7266v-49.623h9.7266v22.1328l-.5098,8.1006h.1279Z"/>
  </g>
  <g>
    <path d="M217.8564,560.4433h-16.8857v-36.1523c0-4.4658-.7471-7.8154-2.2422-10.0488s-3.8477-3.3496-7.0586-3.3496c-4.3184,0-7.4561,1.5869-9.4121,4.7607-1.957,3.1748-2.9346,8.3975-2.9346,15.6689v29.1211h-16.8857v-61.8975h12.8994l2.2705,7.917h.9414c1.6602-2.8418,4.0596-5.0654,7.1973-6.6709,3.1367-1.6055,6.7354-2.4082,10.7959-2.4082,9.2637,0,15.5381,3.0264,18.8232,9.0791h1.4951c1.6611-2.8789,4.1055-5.1113,7.3359-6.6982,3.2295-1.5869,6.874-2.3809,10.9346-2.3809,7.0117,0,12.3184,1.7988,15.917,5.3975s5.3975,9.3662,5.3975,17.3018v40.3604h-16.9414v-36.1523c0-4.4658-.7471-7.8154-2.2422-10.0488-1.4941-2.2334-3.8477-3.3496-7.0586-3.3496-4.1338,0-7.2246,1.4766-9.2734,4.4287-2.0488,2.9531-3.0732,7.6406-3.0732,14.0625v31.0596Z"/>
    <path d="M313.083,560.4433l-3.2666-8.415h-.4434c-2.8418,3.5801-5.7666,6.0625-8.7744,7.4463-3.0088,1.3838-6.9307,2.0762-11.7656,2.0762-5.9424,0-10.6211-1.6973-14.0342-5.0938-3.415-3.3955-5.1211-8.2305-5.1211-14.5049,0-6.5693,2.2969-11.4141,6.8926-14.5332,4.5947-3.1191,11.5244-4.8447,20.7891-5.1768l10.7402-.332v-2.7129c0-6.2744-3.2109-9.4121-9.6328-9.4121-4.9463,0-10.7598,1.4951-17.4395,4.4844l-5.5918-11.4053c7.123-3.7275,15.0215-5.5918,23.6953-5.5918,8.3047,0,14.6719,1.8096,19.1006,5.4258,4.4297,3.6182,6.6436,9.1172,6.6436,16.499v41.2461h-11.792ZM308.0996,531.7646l-6.5322.2217c-4.9092.1475-8.5635,1.0332-10.9619,2.6572-2.4004,1.625-3.5996,4.0967-3.5996,7.4189,0,4.7617,2.7314,7.1416,8.1943,7.1416,3.9121,0,7.04-1.125,9.3838-3.377,2.3438-2.251,3.5156-5.2402,3.5156-8.9688v-5.0938Z"/>
    <path d="M376.2539,561.5507c-7.2715,0-12.9736-2.6387-17.1074-7.917h-.8857c.5898,5.168.8857,8.1562.8857,8.9688v25.0801h-16.8857v-89.1367h13.7305l2.3809,8.0283h.7744c3.9492-6.127,9.7998-9.1904,17.5508-9.1904,7.3076,0,13.0283,2.8232,17.1631,8.4707,4.1328,5.6465,6.2002,13.4902,6.2002,23.5293,0,6.6074-.9688,12.3467-2.9062,17.2188s-4.6973,8.5811-8.2773,11.1279-7.7881,3.8203-12.623,3.8203ZM371.2715,510.8925c-4.1719,0-7.2168,1.2832-9.1348,3.8477-1.9199,2.5654-2.916,6.8008-2.9902,12.7061v1.8271c0,6.6436.9873,11.4053,2.9619,14.2842s5.1025,4.3184,9.3848,4.3184c7.5654,0,11.3496-6.2373,11.3496-18.7129,0-6.0908-.9326-10.6582-2.7959-13.7031-1.8643-3.0449-4.7891-4.5674-8.7754-4.5674Z"/>
    <path d="M409.8047,534.2558v-8.415h27.1836v8.415h-27.1836Z"/>
    <path d="M490.5254,543.8896c0,5.6465-2.1035,10.0029-6.3115,13.0654-4.208,3.0645-10.1133,4.5957-17.7168,4.5957-8.0469,0-14.3213-1.2734-18.8232-3.8203v-8.5264c2.915,1.4766,6.043,2.6396,9.3838,3.4883,3.3398.8496,6.5605,1.2734,9.6611,1.2734,4.7979,0,8.4893-.7656,11.0723-2.2979,2.584-1.5312,3.876-3.8662,3.876-7.0029,0-2.3623-1.0244-4.3828-3.0723-6.0625-2.0488-1.6797-6.0449-3.6631-11.9863-5.9521-5.6475-2.1035-9.6611-3.9395-12.042-5.5088-2.3809-1.5684-4.1523-3.3496-5.3154-5.3428-1.1621-1.9932-1.7441-4.373-1.7441-7.1416,0-4.9453,2.0117-8.8486,6.0352-11.71,4.0225-2.8594,9.541-4.29,16.5537-4.29,6.5332,0,12.918,1.3281,19.1562,3.9863l-3.2666,7.4736c-6.0898-2.5098-11.6084-3.7646-16.5537-3.7646-4.3555,0-7.6406.6836-9.8545,2.0488-2.2148,1.3652-3.3223,3.248-3.3223,5.6465,0,1.625.415,3.0088,1.2461,4.1523.8301,1.1445,2.167,2.2344,4.0137,3.2666,1.8447,1.0342,5.3887,2.5283,10.6299,4.4844,7.1973,2.6211,12.0596,5.2598,14.5879,7.917,2.5283,2.6582,3.793,5.999,3.793,10.0215Z"/>
    <path d="M504.6982,483.3213c0-2.1045.5166-3.6445,1.5508-4.623,1.0322-.9775,2.3252-1.4668,3.875-1.4668,1.4756,0,2.749.498,3.8203,1.4941,1.0703.9971,1.6055,2.5293,1.6055,4.5957s-.5352,3.6084-1.6055,4.623c-1.0713,1.0156-2.3447,1.5225-3.8203,1.5225-1.5498,0-2.8428-.5068-3.875-1.5225-1.0342-1.0146-1.5508-2.5557-1.5508-4.623ZM514.6641,560.4433h-9.1904v-60.6787h9.1904v60.6787Z"/>
    <path d="M553.751,553.9658c1.624,0,3.1924-.1191,4.7061-.3604,1.5127-.2393,2.7129-.4883,3.5986-.7471v7.0312c-.9961.4805-2.4639.876-4.4014,1.1904-1.9375.3135-3.6816.4707-5.2314.4707-11.7373,0-17.6064-6.1816-17.6064-18.5469v-36.0977h-8.6924v-4.4287l8.6924-3.8203,3.876-12.9551h5.3145v14.0625h17.6064v7.1416h-17.6064v35.71c0,3.6543.8672,6.459,2.6025,8.415,1.7344,1.957,4.1152,2.9346,7.1416,2.9346Z"/>
    <path d="M599.8145,561.5507c-8.9688,0-16.0469-2.7314-21.2324-8.1943-5.1855-5.4619-7.7783-13.0469-7.7783-22.7539,0-9.7812,2.4082-17.5508,7.2246-23.3086s11.2852-8.6367,19.4053-8.6367c7.6035,0,13.6191,2.501,18.0488,7.502,4.4287,5.001,6.6436,11.5986,6.6436,19.792v5.8135h-41.7998c.1846,7.124,1.9834,12.5312,5.3975,16.2217,3.4141,3.6914,8.2217,5.5361,14.4229,5.5361,6.5332,0,12.9912-1.3643,19.377-4.0967v8.1943c-3.248,1.4023-6.3203,2.4082-9.2178,3.0166-2.8975.6094-6.3945.9141-10.4912.9141ZM597.3232,506.3525c-4.8721,0-8.7578,1.5879-11.6543,4.7617-2.8984,3.1748-4.6055,7.5664-5.1211,13.1768h31.7236c0-5.7949-1.293-10.2334-3.876-13.3154-2.584-3.0811-6.2754-4.623-11.0723-4.623Z"/>
    <path d="M630.7959,554.5752c0-2.4727.5625-4.3467,1.6885-5.6201s2.7412-1.9102,4.8447-1.9102c2.1406,0,3.8105.6367,5.0107,1.9102,1.1992,1.2734,1.7988,3.1475,1.7988,5.6201,0,2.3994-.6084,4.2441-1.8271,5.5361-1.2178,1.291-2.8789,1.9375-4.9824,1.9375-1.8818,0-3.4424-.5811-4.6777-1.7441-1.2373-1.1621-1.8555-3.0723-1.8555-5.7295Z"/>
    <path d="M697.9307,552.3047h-.498c-4.2451,6.165-10.5938,9.2461-19.0459,9.2461-7.9355,0-14.1094-2.7129-18.5195-8.1387s-6.6152-13.1396-6.6152-23.1426,2.2139-17.7715,6.6436-23.3076c4.4287-5.5371,10.5928-8.3047,18.4912-8.3047,8.2305,0,14.542,2.9893,18.9346,8.9688h.7197l-.3877-4.374-.2207-4.2627v-24.6924h9.1904v86.1465h-7.4746l-1.2178-8.1387ZM679.5498,553.8554c6.2744,0,10.8232-1.707,13.6475-5.1221,2.8232-3.4131,4.2354-8.9219,4.2354-16.5254v-1.9385c0-8.5996-1.4316-14.7354-4.291-18.4082-2.8604-3.6719-7.4287-5.5088-13.7031-5.5088-5.3887,0-9.5137,2.0947-12.373,6.2842-2.8613,4.1895-4.291,10.1035-4.291,17.7441,0,7.751,1.4199,13.6016,4.2627,17.5498,2.8418,3.9502,7.0127,5.9248,12.5127,5.9248Z"/>
    <path d="M745.8486,561.5507c-8.9688,0-16.0469-2.7314-21.2324-8.1943-5.1855-5.4619-7.7783-13.0469-7.7783-22.7539,0-9.7812,2.4082-17.5508,7.2246-23.3086s11.2852-8.6367,19.4053-8.6367c7.6035,0,13.6191,2.501,18.0488,7.502,4.4287,5.001,6.6436,11.5986,6.6436,19.792v5.8135h-41.7998c.1846,7.124,1.9834,12.5312,5.3975,16.2217,3.4141,3.6914,8.2217,5.5361,14.4229,5.5361,6.5332,0,12.9912-1.3643,19.377-4.0967v8.1943c-3.248,1.4023-6.3203,2.4082-9.2178,3.0166-2.8975.6094-6.3945.9141-10.4912.9141ZM743.3574,506.3525c-4.8721,0-8.7578,1.5879-11.6543,4.7617-2.8984,3.1748-4.6055,7.5664-5.1211,13.1768h31.7236c0-5.7949-1.293-10.2334-3.876-13.3154-2.584-3.0811-6.2754-4.623-11.0723-4.623Z"/>
  </g>
  <path class="i" d="M602.5626,438.419c-.2146.4018-.4302.806-.6429,1.2035.2562-.399.4614-.8003.6429-1.2035Z"/>
  <path class="e" d="M358.1519,276.1264c-5.395-.604-10.6382-1.2515-15.7041-1.9429-27.6733-3.7773-50.2329-8.8184-65.4409-14.6704-18.0762,5.8203-28.9189,12.563-30.0723,19.7886l-.0713.5928c-.8735,10.1484,17.478,19.502,48.6406,26.8008,13.4658-3.0776,29.0718-5.6846,46.1543-7.8115,5.2461-.6533,10.6201-1.2646,16.123-1.8281,14.4189-1.4751,29.6421-2.644,45.3242-3.498.1045-4.5947.248-9.1494.4302-13.6597-.2598-.0151-.5259-.0269-.7852-.0415-15.7539-.9106-30.6904-2.1719-44.5986-3.73Z"/>
  <path class="h" d="M306.3975,216.2221c14.1802-3.1445,30.8877-5.8599,49.5244-8.0283,4.7446-.5522,9.6104-1.0688,14.5938-1.5483,12.7393-1.2261,26.2061-2.2144,40.2666-2.9224,5.4297-.2739,10.9287-.5137,16.5215-.7036,13.0137-.4414,26.4365-.6519,40.1499-.6055,11.7715.0391,23.2827.272,34.4819.6699,5.5518.1973,11.0093.4434,16.394.7227-2.4009-14.7959-5.2812-28.5171-8.5649-40.9131-4.5586-.2222-9.1738-.416-13.8623-.5728-9.3833-.313-19.0044-.4976-28.8291-.5303-11.6035-.0386-22.9722.1304-34.0215.4819-4.7202.1504-9.3701.3398-13.9648.5571-11.9321.5635-23.4062,1.3511-34.3149,2.3315-4.2871.3853-8.4824.8013-12.5835,1.2461-49.252,5.3389-84.5767,14.8491-92.4688,26.0649-.8008,1.3462-1.6143,2.7163-2.4351,4.1069.0044-.0068.0088-.0142.0132-.021-.6616,7.2334,10.104,13.9941,29.0996,19.6641Z"/>
  <path class="i" d="M275.2891,353.6865c-7.6846,2.8867-13.6084,5.9746-17.4697,9.2158-3.417,2.8682-4.9429,7.3906-4.0664,11.6992,3.0234,8.832,21.0776,16.8994,49.3711,23.272,12.1953-3.5742,27.5708-6.7139,45.3672-9.27,4.7407-.6807,9.6538-1.3203,14.7231-1.916-.9985-5.6548-1.8823-11.4229-2.6558-17.2852-5.1523-.5293-10.1875-1.0942-15.0791-1.6982-28.7954-3.5542-52.8809-8.3662-70.1904-14.0176Z"/>
  <path class="f" d="M426.3765,411.4641c-5.7239-.1961-11.377-.4298-16.9276-.7121-14.4134-.7327-28.1904-1.7561-41.1977-3.0227-5.0938-.4958-10.0629-1.0303-14.9051-1.6012-56.4189-6.6506-95.0496-18.2264-99.5958-31.5318,6.1204,20.3065,13.8605,34.803,20.6903,47.593,7.3151,11.5879,43.2604,21.5308,94.1203,27.1363,4.2448.4678,8.5912.9061,13.0369,1.3115,11.3094,1.0324,23.2277,1.8629,35.6493,2.4576,4.7703.2284,9.6231.4176,14.5308.5762-2.0955-12.8746-3.9139-27.0232-5.4015-42.2069Z"/>
  <path class="c" d="M680.7129,279.1821c.1206.7002.1494,1.4048.0845,2.1138-1.2686,13.8589-38.0869,26.0073-93.5747,33.3389-5.1763.6841-10.5161,1.3247-16.0034,1.9224-14.0415,1.5288-29.0605,2.7651-44.8188,3.6704-6.1328.3521-12.3833.6509-18.729.8994-15.3608.603-31.2925.8999-47.627.8457-13.0581-.0439-25.8262-.3066-38.21-.77-6.4048-.2393-12.7017-.5352-18.8877-.8794-15.981-.8892-31.1675-2.126-45.377-3.6523-5.522-.5928-10.897-1.2285-16.104-1.9082-58.2056-7.5986-95.9238-20.4512-94.6001-34.9121-.5615,3.8125-1.02,7.6572-1.3755,11.5327-.5225,6.0552-.6758,14.1655-.9209,20.2383.0615,6.6255.7051,15.4443,1.0962,22.0576,1.6538,14.2378,40.9243,26.7559,99.814,34.0249,5.1211.6323,10.3892,1.2246,15.7959,1.7754,13.8501,1.4092,28.5752,2.5498,44.022,3.3682,5.9658.3164,12.0332.585,18.1958.8052,11.8613.4229,24.062.665,36.5293.7065,15.7295.0527,31.0713-.2295,45.9106-.7837,6.1152-.2285,12.127-.5103,18.0518-.835,15.2222-.8325,29.8149-1.9541,43.4951-3.3662,5.3726-.5542,10.6138-1.1494,15.7051-1.7856,58.3252-7.2847,97.3799-19.7627,98.8242-34.0576l.1626-1.7002c.5225-6.0552.6758-14.165.9209-20.2383.0361-9.749-1.3418-22.7168-2.3799-32.4106Z"/>
  <path class="g" d="M342.4477,274.1834c5.0659.6914,10.3091,1.3389,15.7041,1.9429,13.9082,1.5581,28.8447,2.8193,44.5986,3.73,6.1079.353,12.3403.6519,18.6753.8984,12.3003.4771,24.9976.75,37.9995.793,16.1602.0542,31.9077-.252,47.0645-.8687,6.2778-.2554,12.4575-.5625,18.5146-.9243,15.5322-.9268,30.2964-2.1904,44.0376-3.7515,5.3579-.6079,10.5649-1.2603,15.5996-1.9561-1.6602-17.0225-4.4258-33.3716-8.1631-48.8071-4.603.6782-9.3726,1.3169-14.3022,1.9116-12.6904,1.5308-26.4146,2.7749-40.9126,3.6895-5.668.3579-11.4595.6616-17.3516.9146-14.1714.6094-28.9346.9141-44.1069.8633-12.3169-.041-24.3223-.3154-35.9277-.7905-5.9487-.2432-11.7881-.542-17.5068-.8911-14.7124-.8979-28.606-2.1392-41.4546-3.6675-4.9688-.5908-9.771-1.2271-14.4092-1.9019-45.376-6.6035-74.2808-17.0879-73.209-28.8101-8.918,13.9023-16.2549,28.8843-21.7642,44.7031-1.2383,13.5352,33.2681,25.6006,86.9141,32.9224Z"/>
</svg>