<?xml version="1.0" encoding="UTF-8" standalone="no"?>
<!-- Created with Inkscape (http://www.inkscape.org/) -->

<svg
   version="1.1"
   id="svg2"
   width="1122.52"
   height="793.70667"
   viewBox="0 0 1122.52 793.70667"
   xmlns="http://www.w3.org/2000/svg"
   xmlns:svg="http://www.w3.org/2000/svg">
  <defs
     id="defs6">
    <clipPath
       clipPathUnits="userSpaceOnUse"
       id="clipPath18">
      <path
         d="M 0,595.28 H 841.89 V 0 H 0 Z"
         id="path16" />
    </clipPath>
  </defs>
  <g
     id="g10"
     transform="matrix(1.3333333,0,0,-1.3333333,0,793.70667)">
    <g
       id="g12">
      <g
         id="g14"
         clip-path="url(#clipPath18)">
        <g
           id="g20"
           transform="translate(522.1357,404.1025)">
          <path
             d="m 0,0 c 0,-76.721 -57.894,-86.211 -129.348,-86.211 -71.424,0 -129.329,21.848 -129.329,86.211 0,64.136 57.905,86.212 129.329,86.212 C -57.894,86.212 0,69.074 0,0"
             style="fill:#1d6434;fill-opacity:1;fill-rule:nonzero;stroke:none"
             id="path22" />
        </g>
        <g
           id="g24"
           transform="translate(43.1875,441.8535)">
          <path
             d="m 0,0 h 45.313 c -2.006,-36.212 -3.518,-77.341 -4.519,-123.377 -1.006,-46.048 -1.506,-49.976 -1.506,-111.362 v -52.11 h 642.098 c 13.927,0 27.545,0.735 40.851,2.207 13.301,1.468 26.415,3.584 39.347,6.343 l -8.096,-24.884 H 0 c 2.007,30.508 3.545,17.757 4.612,50.937 1.065,33.179 1.599,65.898 1.599,102.291 0,29.956 -0.534,13.524 -1.599,46.152 C 3.545,-71.177 2.007,-36.58 0,0"
             style="fill:#1d6434;fill-opacity:1;fill-rule:nonzero;stroke:none"
             id="path26" />
        </g>
        <g
           id="g28"
           transform="translate(180.7178,344.875)">
          <path
             d="m 0,0 c 3.323,0 6.075,-1.102 8.25,-3.311 2.18,-2.206 3.267,-4.941 3.267,-8.208 0,-3.386 -1.076,-6.151 -3.219,-8.3 C 6.15,-21.962 3.384,-23.036 0,-23.036 c -3.326,0 -6.077,1.074 -8.251,3.217 -2.18,2.149 -3.268,4.914 -3.268,8.3 0,3.385 1.075,6.153 3.22,8.299 C -6.153,-1.074 -3.388,0 0,0 m -34.463,0 c 3.264,0 5.999,-1.102 8.206,-3.311 2.207,-2.206 3.312,-4.941 3.312,-8.208 0,-3.386 -1.09,-6.151 -3.264,-8.3 -2.18,-2.143 -4.93,-3.217 -8.254,-3.217 -3.387,0 -6.153,1.074 -8.299,3.217 -2.144,2.149 -3.218,4.914 -3.218,8.3 0,3.325 1.074,6.077 3.218,8.255 2.146,2.173 4.912,3.264 8.299,3.264 m 17.234,-59.039 c -10.403,0 -18.202,-3.869 -23.4,-11.608 -5.202,-7.74 -7.8,-19.347 -7.8,-34.826 0,-15.417 2.598,-27.01 7.8,-34.779 5.198,-7.77 12.997,-11.656 23.4,-11.656 10.394,0 18.257,3.917 23.577,11.747 5.319,7.829 7.979,19.392 7.979,34.688 0,15.356 -2.644,26.937 -7.934,34.735 -5.29,7.798 -13.165,11.699 -23.622,11.699 m 0,21.766 c 18.257,0 32.704,-6.095 43.347,-18.275 10.639,-12.181 15.96,-28.824 15.96,-49.925 0,-21.163 -5.304,-37.815 -15.912,-49.971 -10.614,-12.152 -25.079,-18.227 -43.395,-18.227 -18.262,0 -32.667,6.075 -43.217,18.227 -10.55,12.156 -15.826,28.808 -15.826,49.971 0,21.164 5.276,37.819 15.826,49.972 10.55,12.152 24.955,18.228 43.217,18.228"
             style="fill:#1d6434;fill-opacity:1;fill-rule:nonzero;stroke:none"
             id="path30" />
        </g>
        <g
           id="g32"
           transform="translate(236.3638,304.7905)">
          <path
             d="m 0,0 h 31.923 c -0.725,-9.492 -1.316,-19.363 -1.77,-29.612 -0.45,-10.244 -0.799,-20.814 -1.042,-31.693 7.92,9.49 15.012,19.374 21.268,29.655 6.258,10.278 11.625,20.826 16.096,31.65 h 35.824 C 93.834,-10.762 86.003,-21.039 78.812,-30.834 71.616,-40.63 64.421,-50.728 57.226,-61.128 c 2.9,-1.936 5.85,-4.516 8.844,-7.752 2.991,-3.234 6.604,-7.845 10.836,-13.829 2.236,-3.145 5.5,-7.953 9.794,-14.42 10.217,-15.539 18.651,-26.753 25.302,-33.645 H 73.188 c -7.197,15.781 -14.48,29.034 -21.857,39.769 -7.379,10.729 -14.752,18.814 -22.129,24.258 0.061,-12.032 0.318,-23.306 0.773,-33.829 0.45,-10.52 1.103,-20.588 1.948,-30.198 H 0 c 0.965,11.305 1.71,22.428 2.223,33.37 0.514,10.947 0.77,21.737 0.77,32.379 0,9.855 -0.256,20.149 -0.77,30.878 C 1.71,-23.413 0.965,-12.032 0,0"
             style="fill:#1d6434;fill-opacity:1;fill-rule:nonzero;stroke:none"
             id="path34" />
        </g>
        <g
           id="g36"
           transform="translate(402.8467,344.1279)">
          <path
             d="m 0,0 c 1.128,-0.096 2.306,-0.165 3.532,-0.213 1.22,-0.046 13.441,-0.068 15.99,-0.068 14.887,0 26.08,2.99 33.577,8.976 7.494,5.989 14.338,13.943 14.338,29.755 0,13.161 -6.609,22.116 -13.631,27.633 -7.021,5.509 -17.51,8.271 -31.459,8.271 -2.266,0 -16.176,-0.193 -21.078,-0.566 L 0.564,70.686 C 0.28,56.168 0.088,43.701 0,33.29 -0.101,22.873 -0.101,9.706 0,0 m -37.829,-169.377 c 1.696,16.026 2.99,32.594 3.888,49.7 0.448,8.554 0.783,17.234 1.006,26.034 0.226,8.804 0.334,84.87 0.334,93.917 0,16.401 -0.445,33.062 -1.34,49.983 -0.898,16.916 -2.192,30.949 -3.888,48.292 h 30.195 c 18.566,0 42.541,-0.355 51.257,-1.058 8.724,-0.71 16.222,-1.649 22.273,-3.607 C 76.67,90.395 85.443,83.729 92.562,73.876 99.679,64.03 103.233,55.083 103.233,40.854 103.233,18.888 95.481,4.106 79.979,-7.628 64.472,-19.367 45.202,-25.231 15.983,-25.231 H -0.426 c 0.188,-14.326 0.587,-96.943 1.198,-109.432 0.614,-12.489 1.486,-24.059 2.618,-34.714 z"
             style="fill:#f68712;fill-opacity:1;fill-rule:nonzero;stroke:none"
             id="path38" />
        </g>
        <g
           id="g40"
           transform="translate(434.874,304.7905)">
          <path
             d="M 0,0 H 32.831 C 31.864,-11.914 31.142,-25.439 30.657,-40.583 30.169,-55.728 29.93,-73.399 29.93,-93.592 v -17.141 h 11.064 c 6.712,0 13.271,0.242 19.683,0.727 6.406,0.482 12.722,1.177 18.953,2.086 l -3.9,-22.854 H 0 c 0.967,10.035 1.711,20.512 2.226,31.425 0.513,10.91 0.766,22.352 0.766,34.324 0,9.855 -0.253,20.149 -0.766,30.878 C 1.711,-23.413 0.967,-12.032 0,0"
             style="fill:#f68712;fill-opacity:1;fill-rule:nonzero;stroke:none"
             id="path42" />
        </g>
        <g
           id="g44"
           transform="translate(583.0635,282.6641)">
          <path
             d="m 0,0 c -2.9,-7.925 -5.79,-16.281 -8.659,-25.079 -2.872,-8.794 -5.878,-18.333 -9.026,-28.611 h 33.463 c -2.535,9.431 -5.122,18.607 -7.753,27.524 C 5.397,-17.249 2.722,-8.527 0,0 m -17.14,22.67 c 2.237,-0.12 4.67,-0.215 7.3,-0.272 2.634,-0.061 6.578,-0.09 11.838,-0.09 4.41,0 7.709,0.029 9.882,0.09 2.18,0.057 4.231,0.152 6.167,0.272 5.319,-20.437 11.653,-41.505 19,-63.21 7.344,-21.706 15.855,-44.41 25.531,-68.107 H 29.929 c -1.21,5.804 -2.583,11.622 -4.125,17.455 -1.545,5.837 -3.281,11.838 -5.216,18.004 h -43.259 c -1.756,-5.503 -3.37,-11.218 -4.852,-17.14 -1.485,-5.928 -2.829,-12.034 -4.034,-18.319 h -30.111 c 11.851,29.203 21.449,54.625 28.794,76.269 7.347,21.643 12.589,39.995 15.734,55.048"
             style="fill:#f68712;fill-opacity:1;fill-rule:nonzero;stroke:none"
             id="path46" />
        </g>
        <g
           id="g48"
           transform="translate(654.9639,304.7905)">
          <path
             d="m 0,0 h 31.196 c 9.736,-17.351 19.289,-33.871 28.658,-49.564 9.371,-15.688 18.682,-30.785 27.936,-45.298 -0.184,22.61 -0.547,41.568 -1.089,56.864 C 86.154,-22.705 85.4,-10.038 84.433,0 h 28.841 c -1.03,-10.4 -1.816,-22.25 -2.358,-35.551 -0.544,-13.299 -0.815,-27.902 -0.815,-43.803 0,-7.859 0.118,-16.052 0.36,-24.578 0.242,-8.528 0.606,-17.474 1.089,-26.842 H 81.349 c -10.276,18.439 -20.104,35.428 -29.474,50.965 -9.374,15.54 -18.44,29.867 -27.205,42.989 v -11.337 c 0,-19.049 0.237,-35.218 0.723,-48.516 0.482,-13.306 1.239,-24.667 2.269,-34.101 H -1.539 c 1.146,11.121 1.991,22.61 2.536,34.462 0.544,11.849 0.816,24.001 0.816,36.457 0,8.4 -0.152,17.489 -0.453,27.253 C 1.058,-22.837 0.605,-11.97 0,0"
             style="fill:#f68712;fill-opacity:1;fill-rule:nonzero;stroke:none"
             id="path50" />
        </g>
      </g>
    </g>
  </g>
</svg>
