<svg xmlns="http://www.w3.org/2000/svg" width="353.961" height="101.414" viewBox="0 0 353.961 101.414">
  <g id="Group_955" data-name="Group 955" transform="translate(277.247 -141.759)">
    <path id="Path_1066" data-name="Path 1066" d="M-261.515,175.431h18.675V209.1h-5.52l-2.116-4.969c-3.4,4.049-6.163,5.889-11.5,5.889-9.016,0-15.271-6.44-15.271-17.02V158.779c0-9.384,5.52-17.02,16.744-17.02,11.407,0,17.111,8.281,17.111,18.216v4.232h-10.856c0-9.935-2.023-12.512-6.531-12.512-2.76,0-5.06,1.655-5.06,7.268v34.131c0,4.232,1.381,6.992,5.337,6.992,4.6,0,6.255-2.575,6.255-9.2v-6.44h-7.266Z" transform="translate(0 0)" fill="#f0b41c"/>
    <path id="Path_1067" data-name="Path 1067" d="M-251.183,158.779c0-9.384,5.521-17.02,17.481-17.02s17.479,7.636,17.479,17.02V193c0,9.384-5.52,17.02-17.479,17.02s-17.481-7.636-17.481-17.02Zm11.409,33.948c0,4.967,1.472,7.36,6.072,7.36s6.072-2.392,6.072-7.36V159.055c0-4.967-1.472-7.36-6.072-7.36s-6.072,2.392-6.072,7.36Z" transform="translate(16.525 0)" fill="#f0b41c"/>
    <path id="Path_1068" data-name="Path 1068" d="M-224.873,208.746V142.322h11.409v56.487h17.94v9.936Z" transform="translate(33.205 0.357)" fill="#f0b41c"/>
    <path id="Path_1069" data-name="Path 1069" d="M-202.97,142.322h16.928c11.776,0,18.031,6.441,18.031,20.056V188.69c0,13.616-6.255,20.056-18.031,20.056H-202.97Zm11.409,57.04h3.956c6.072,0,8.188-2.3,8.188-9.293V161c0-6.992-2.116-9.293-8.188-9.293h-3.956Z" transform="translate(47.092 0.357)" fill="#f0b41c"/>
    <path id="Path_1070" data-name="Path 1070" d="M-153.3,159.055c-.461-5.7-3.5-7.36-6.072-7.36-3.681,0-5.7,2.392-5.7,6.533,0,11.315,23.183,16.742,23.183,34.775,0,10.948-7.36,17.02-18.031,17.02-10.58,0-16.652-8.464-17.111-18.4l10.855-1.564c.461,6.716,3.127,10.028,6.809,10.028,3.956,0,6.623-2.116,6.623-6.072,0-13.155-23.183-16.652-23.183-35.695,0-10.58,6.44-16.561,17.664-16.561,9.293,0,14.812,6.716,15.824,16.1Z" transform="translate(63.533 0)" fill="#c9902b"/>
    <path id="Path_1071" data-name="Path 1071" d="M-150.115,208.746V142.322h16.374c14.077,0,20.608,5.428,20.608,19.6s-6.531,19.595-20.608,19.595h-4.967v27.232Zm11.407-36.616h4.417c7.451,0,9.752-2.3,9.752-10.211s-2.3-10.213-9.752-10.213h-4.417Z" transform="translate(80.602 0.357)" fill="#c9902b"/>
    <path id="Path_1072" data-name="Path 1072" d="M-70.08,152.258H-81.119v-9.936h33.487v9.936H-58.671v56.487H-70.08Z" transform="translate(124.346 0.357)" fill="#c9902b"/>
    <g id="Group_956" data-name="Group 956" transform="translate(-26.006 142.679)">
      <path id="Path_1073" data-name="Path 1073" d="M-111.195,175.533a21.409,21.409,0,0,1,21.409-21.409,21.409,21.409,0,0,1,21.41,21.409h11.311a33.211,33.211,0,0,0-33.211-33.211,33.213,33.213,0,0,0-33.213,33.211,33.213,33.213,0,0,0,33.213,33.213V196.919A21.4,21.4,0,0,1-111.195,175.533Z" transform="translate(123.489 -142.322)" fill="#c9902b"/>
      <g id="Group_955-2" data-name="Group 955" transform="translate(15.193 14.841)">
        <path id="Path_1074" data-name="Path 1074" d="M-102.072,159.611l4.252-4.25a1.78,1.78,0,0,1,1.268-.524,1.786,1.786,0,0,1,1.27.524l2.276,2.276a1.837,1.837,0,0,1,0,2.538l-4.25,4.252Z" transform="translate(121.874 -149.229)" fill="#c9902b"/>
        <path id="Path_1075" data-name="Path 1075" d="M-109.735,182.174a1.832,1.832,0,0,1-1.348-.541l-2.567-2.567a1.831,1.831,0,0,1-.541-1.3,1.85,1.85,0,0,1,.6-1.363l19.628-18.325,3.884,3.884-18.33,19.608A1.834,1.834,0,0,1-109.735,182.174Z" transform="translate(114.191 -147.175)" fill="#c9902b"/>
        <path id="Path_1076" data-name="Path 1076" d="M-94.1,158.587l-2.407,2.405c-5.286-4.714-14.28-9.4-14.358-9.435C-105.249,150.36-96.822,156.526-94.1,158.587Z" transform="translate(116.3 -151.404)" fill="#c9902b"/>
        <path id="Path_1077" data-name="Path 1077" d="M-96.232,159.238c1.828,2.413,7.224,9.647,7.224,14.825a9.256,9.256,0,0,1-.2,1.94c-.031-.077-4.722-9.072-9.435-14.36Z" transform="translate(124.051 -146.438)" fill="#c9902b"/>
        <path id="Path_1078" data-name="Path 1078" d="M-102.863,159.051l3.751-3.75,6.372,6.4-3.763,3.737Z" transform="translate(121.373 -148.934)" fill="#c9902b"/>
      </g>
      <rect id="Rectangle_356" data-name="Rectangle 356" width="11.3" height="11.3" transform="translate(55.146 47.802) rotate(-90)" fill="#f0b41c"/>
      <rect id="Rectangle_357" data-name="Rectangle 357" width="11.3" height="11.3" transform="translate(43.847 59.101) rotate(-90)" fill="#f0b41c"/>
      <rect id="Rectangle_358" data-name="Rectangle 358" width="6.658" height="6.658" transform="translate(37.189 65.759) rotate(-90)" fill="#f0b41c"/>
      <rect id="Rectangle_359" data-name="Rectangle 359" width="6.658" height="6.658" transform="translate(55.146 65.759) rotate(-90)" fill="#f0b41c"/>
      <rect id="Rectangle_360" data-name="Rectangle 360" width="5.095" height="5.095" transform="translate(61.804 59.101) rotate(-90)" fill="#f0b41c"/>
      <rect id="Rectangle_361" data-name="Rectangle 361" width="4.164" height="4.164" transform="translate(61.919 69.923) rotate(-90)" fill="#f0b41c"/>
      <rect id="Rectangle_362" data-name="Rectangle 362" width="4.164" height="4.164" transform="translate(43.847 69.923) rotate(-90)" fill="#f0b41c"/>
    </g>
    <g id="Group_957" data-name="Group 957" transform="translate(-274.538 229.913)">
      <path id="Path_1079" data-name="Path 1079" d="M-275.589,195.9h6.083c4,0,7.193,1.685,7.193,6.239,0,4.309-2.918,6.4-7.09,6.4h-6.186Zm4.971,10.513c4.206,0,5.838-1.286,5.838-4.24,0-3.093-1.7-4.154-5.838-4.154h-2.5v8.394Z" transform="translate(275.589 -195.587)" fill="#fff"/>
      <path id="Path_1080" data-name="Path 1080" d="M-260.51,195.9h2.467v12.634h-2.467Z" transform="translate(285.149 -195.587)" fill="#fff"/>
      <path id="Path_1081" data-name="Path 1081" d="M-241.367,199.863c-.4-1.129-1.425-2.1-4.43-2.1-1.668,0-3.355.417-3.355,1.582,0,.538.312,1.113,2.833,1.425l2.989.453c2.832.433,4.5,1.528,4.5,3.649,0,2.989-2.85,4.1-6.221,4.1-5.422,0-6.742-2.676-7.039-3.632l2.381-.747c.453.922,1.392,2.26,4.729,2.26,2.015,0,3.683-.662,3.683-1.757,0-.817-.938-1.355-2.745-1.58l-3.025-.418c-2.918-.4-4.552-1.668-4.552-3.6,0-3.789,4.918-3.789,5.891-3.789,5.44,0,6.378,2.52,6.691,3.389Z" transform="translate(290.488 -195.709)" fill="#fff"/>
      <path id="Path_1082" data-name="Path 1082" d="M-223.524,204.155c-.243,1.407-1.252,4.814-7.056,4.814-4,0-7.142-2.224-7.142-6.83,0-3.685,2.312-6.43,7.333-6.43,5.647,0,6.482,3.667,6.673,4.345h-2.467c-.139-.435-1.113-2.224-4.067-2.224-3.492,0-4.953,1.964-4.953,4.588,0,2.9,2.1,4.431,4.814,4.431,2.886,0,4.154-1.722,4.4-2.694Z" transform="translate(299.597 -195.709)" fill="#fff"/>
      <path id="Path_1083" data-name="Path 1083" d="M-215.15,195.709c5.562,0,7.525,3.268,7.525,6.726,0,2.624-1.546,6.534-7.525,6.534s-7.525-3.91-7.525-6.534C-222.675,198.977-220.711,195.709-215.15,195.709Zm5.057,6.587c0-3.041-2.172-4.466-5.057-4.466s-5.057,1.425-5.057,4.466c0,3.58,2.694,4.554,5.057,4.554S-210.093,205.876-210.093,202.3Z" transform="translate(309.137 -195.709)" fill="#fff"/>
      <path id="Path_1084" data-name="Path 1084" d="M-207.532,195.9h2.641l4.745,10.079,4.83-10.079h2.642l-6.186,12.634h-2.572Z" transform="translate(318.737 -195.587)" fill="#fff"/>
      <path id="Path_1085" data-name="Path 1085" d="M-191.816,195.9h11.332v2.119h-8.863v2.936h7.629v2.121h-7.629v3.337h9.07v2.121h-11.539Z" transform="translate(328.701 -195.587)" fill="#fff"/>
      <path id="Path_1086" data-name="Path 1086" d="M-178.012,195.9h7.595c2.989,0,5.142.678,5.142,3.771a3.577,3.577,0,0,1-3.528,3.719l3.876,5.144h-3.041l-3.667-4.971h-3.91v4.971h-2.467Zm7.229,5.613c2.016,0,3.041-.3,3.041-1.791,0-1.477-1.025-1.771-3.041-1.771h-4.761v3.562Z" transform="translate(337.453 -195.587)" fill="#fff"/>
      <path id="Path_1087" data-name="Path 1087" d="M-162.934,195.9h2.467v12.634h-2.467Z" transform="translate(347.013 -195.587)" fill="#fff"/>
      <path id="Path_1088" data-name="Path 1088" d="M-153.969,195.9h11.33v2.119H-151.5v2.936h7.629v2.121H-151.5v3.337h9.072v2.121h-11.539Z" transform="translate(352.696 -195.587)" fill="#fff"/>
      <path id="Path_1089" data-name="Path 1089" d="M-129.987,199.863c-.4-1.129-1.425-2.1-4.431-2.1-1.668,0-3.355.417-3.355,1.582,0,.538.314,1.113,2.833,1.425l2.989.453c2.833.433,4.5,1.528,4.5,3.649,0,2.989-2.851,4.1-6.222,4.1-5.422,0-6.742-2.676-7.038-3.632l2.381-.747c.453.922,1.391,2.26,4.727,2.26,2.016,0,3.683-.662,3.683-1.757,0-.817-.938-1.355-2.745-1.58l-3.023-.418c-2.92-.4-4.554-1.668-4.554-3.6,0-3.789,4.918-3.789,5.891-3.789,5.44,0,6.379,2.52,6.691,3.389Z" transform="translate(361.103 -195.709)" fill="#fff"/>
      <path id="Path_1090" data-name="Path 1090" d="M-102.776,204.155c-.243,1.407-1.252,4.814-7.056,4.814-4,0-7.142-2.224-7.142-6.83,0-3.685,2.31-6.43,7.332-6.43,5.649,0,6.484,3.667,6.673,4.345h-2.466c-.141-.435-1.113-2.224-4.067-2.224-3.494,0-4.953,1.964-4.953,4.588,0,2.9,2.1,4.431,4.812,4.431,2.886,0,4.154-1.722,4.4-2.694Z" transform="translate(376.151 -195.709)" fill="#fff"/>
      <path id="Path_1091" data-name="Path 1091" d="M-96.1,195.709c5.562,0,7.525,3.268,7.525,6.726,0,2.624-1.546,6.534-7.525,6.534s-7.525-3.91-7.525-6.534C-103.629,198.977-101.665,195.709-96.1,195.709Zm5.057,6.587c0-3.041-2.173-4.466-5.057-4.466s-5.057,1.425-5.057,4.466c0,3.58,2.694,4.554,5.057,4.554S-91.047,205.876-91.047,202.3Z" transform="translate(384.612 -195.709)" fill="#fff"/>
      <path id="Path_1092" data-name="Path 1092" d="M-89.262,195.9h7.595c2.989,0,5.142.678,5.142,3.771a3.577,3.577,0,0,1-3.528,3.719l3.876,5.144h-3.041l-3.667-4.971h-3.91v4.971h-2.467Zm7.229,5.613c2.016,0,3.041-.3,3.041-1.791,0-1.477-1.025-1.771-3.041-1.771h-4.761v3.562Z" transform="translate(393.721 -195.587)" fill="#fff"/>
      <path id="Path_1093" data-name="Path 1093" d="M-75.981,195.9h7.039c2.137,0,5.647,0,5.647,3.874s-3.51,3.86-5.647,3.86h-4.57v4.9h-2.469Zm7.579,5.613c1.407,0,2.641-.123,2.641-1.757,0-1.614-1.234-1.737-2.641-1.737h-5.11v3.493Z" transform="translate(402.141 -195.587)" fill="#fff"/>
      <path id="Path_1094" data-name="Path 1094" d="M-69.271,202.122h2.312v2.469h-2.312Z" transform="translate(406.395 -191.643)" fill="#fff"/>
    </g>
  </g>
</svg>
