<?xml version="1.0" encoding="UTF-8"?>
<!-- Generator: Adobe Illustrator 24.2.1, SVG Export Plug-In . SVG Version: 6.00 Build 0) -->
<svg xmlns="http://www.w3.org/2000/svg" xmlns:xlink="http://www.w3.org/1999/xlink" version="1.1" id="Ebene_1" x="0px" y="0px" viewBox="0 0 172.6 28.9" style="enable-background:new 0 0 172.6 28.9;" xml:space="preserve"> <g> <path d="M17,6c-3,0-4.5,1.7-5.1,2.8C11.2,6.9,9.7,6,7.5,6C5.8,6,4.2,6.7,3.3,8L2.7,6.4l0-0.1H0.3V23h2.7v-7.8 c0-4.6,1.4-6.8,4.2-6.8C9.1,8.4,10,9.6,10,12V23h2.7v-7.8c0-4.8,1.2-6.8,3.9-6.8c1.9,0,2.8,1.2,2.8,3.8V23h2.7V12 C22.1,8.1,20.3,6,17,6z"/> <path d="M38.9,19.4v-8.2c0-3.4-2.2-5.2-6.3-5.2c-4,0-6,2.4-6.5,3.1l0,0.1l1.9,1.6l0.1-0.1c1.1-1.5,2.6-2.3,4.6-2.3 c2.4,0,3.7,0.8,3.7,2.3c0,1.7-1.4,2.5-4.5,2.5c-3.1,0-6.4,1.3-6.4,5c0,3.1,2.2,5.1,5.7,5.1c2.8,0,4.4-1.2,5.2-2.2 c0.1,0.8,0.3,1.4,0.6,1.9l0,0h2.7l-0.1-0.1C39.1,22,38.9,20.9,38.9,19.4z M36.3,14.4v1.9c0,3-1.8,4.7-5,4.7c-2,0-3.3-1.1-3.3-2.7 c0-1.8,1.3-2.8,3.7-2.8C34.3,15.5,35.6,15.2,36.3,14.4z"/> <path d="M51.4,6c-2.6,0-4.3,1.1-5.1,2.3l-0.6-1.9h-2.4v22.3h2.7v-7.8c1.1,1.6,3.1,2.5,5.5,2.5c4.7,0,7.9-3.5,7.9-8.6 C59.3,9.5,56.1,6,51.4,6z M51.2,8.4c3.3,0,5.4,2.5,5.4,6.2c0,3.8-2.1,6.2-5.4,6.2c-3.3,0-5.4-2.5-5.4-6.2 C45.8,10.8,47.9,8.4,51.2,8.4z"/> <path d="M80.7,6c-2,0-3.8,0.9-4.6,2.2l-0.7-1.8h-2.4V23h2.7v-8.1c0-4,1.8-6.4,4.9-6.4c0.7,0,1.2,0.1,1.8,0.3l0.1,0V6.3l-0.1,0 C82,6.1,81.4,6,80.7,6z"/> <path d="M110.3,6c-2.6,0-4.6,1.3-5.5,2.4l-0.7-2.1h-2.4V23h2.7v-8c0-4.2,2-6.6,5.6-6.6c2.3,0,3.5,1.3,3.5,3.7V23h2.7V12 C116,7.9,114.2,6,110.3,6z"/> <path d="M151.7,6c-2.4,0-4.4,0.9-5.9,2.7c-1.4,1.6-2.2,3.8-2.2,6.1c0,6.3,4.4,8.6,8.1,8.6c4,0,6-2.2,6.9-3.6l0-0.1l-2-1.4l0,0.1 c-0.9,1.3-2.1,2.6-4.8,2.6c-3.1,0-5.3-2.2-5.5-5.5h13.2v-1.2c0-2.2-0.6-4.2-1.8-5.6C156.4,6.9,154.3,6,151.7,6z M146.5,13 c0.6-3.4,3.2-4.6,5.3-4.6c3,0,4.8,1.5,5.1,4.6H146.5z"/> <path d="M172.3,6.3c-0.5-0.2-1.1-0.3-1.8-0.3c-2,0-3.8,0.9-4.6,2.2l-0.7-1.8h-2.4V23h2.7v-8.1c0-4,1.8-6.4,4.9-6.4 c0.7,0,1.2,0.1,1.8,0.3l0.1,0L172.3,6.3L172.3,6.3z"/> <path d="M65.2,0.9h-2.7v17.5c0,3.3,1.4,4.9,4.3,4.9c1.1,0,1.7-0.1,2.3-0.3l0.1,0v-2.4l-0.1,0c-0.5,0.1-1.1,0.3-2,0.3 c-1.3,0-2-0.8-2-2.4V8.7h4.1V6.3h-4.1V0.9z"/> <path d="M97.3,19.4v-8.2c0-3.4-2.2-5.2-6.3-5.2c-4,0-6,2.4-6.5,3.1l0,0.1l1.9,1.6l0.1-0.1c1.1-1.5,2.6-2.3,4.6-2.3 c2.4,0,3.7,0.8,3.7,2.3c0,1.7-1.4,2.5-4.5,2.5c-3.1,0-6.4,1.3-6.4,5c0,3.1,2.2,5.1,5.7,5.1c2.8,0,4.4-1.2,5.2-2.2 c0.1,0.8,0.3,1.4,0.6,1.9l0,0h2.7l-0.1-0.1C97.5,22,97.3,20.9,97.3,19.4z M94.6,14.4v1.9c0,3-1.8,4.7-5,4.7c-2,0-3.3-1.1-3.3-2.7 c0-1.8,1.3-2.8,3.7-2.8C92.6,15.5,93.9,15.2,94.6,14.4z"/> <path d="M126.7,13.3L126.7,13.3c-3-0.5-4.4-1.1-4.4-2.7c0-1.4,1.4-2.2,3.5-2.2c1.3,0,2.8,0.4,4.3,0.3V6.3c-0.7,0-1.1-0.1-2.8-0.2 C126.5,6,125.9,6,125.2,6c-2.7,0.2-5.5,1.8-5.5,4.6c0,2.8,1.8,4.4,5.5,5c3.4,0.5,4.4,1.1,4.4,2.6c0,1.6-1.5,2.6-3.9,2.6 c-2.2,0-3.5-0.8-4.5-2.6l0-0.1l-2.4,1.2l0,0.1c1.1,2.3,3.8,3.8,6.8,3.8c4,0,6.6-2,6.6-5.2C132.3,14.7,129.6,13.9,126.7,13.3z"/> <path d="M143.5,6.7c0.1-0.1,0.2-0.3,0.4-0.4h-4.7V5c0-1.6,0.5-2.3,1.9-2.3c0.4,0,0.8,0.1,1.3,0.3l0.1,0V0.6l-0.1,0 c-0.5-0.2-0.9-0.3-1.8-0.3c-1.9,0-4,1.2-4,4.4v1.6h-2.9v2.4h2.9V23h2.7V8.7h3C142.5,8,143,7.3,143.5,6.7z"/> </g> </svg>