<?xml version="1.0" encoding="UTF-8" standalone="no"?>
<svg
   xmlns:dc="http://purl.org/dc/elements/1.1/"
   xmlns:cc="http://creativecommons.org/ns#"
   xmlns:rdf="http://www.w3.org/1999/02/22-rdf-syntax-ns#"
   xmlns:svg="http://www.w3.org/2000/svg"
   xmlns="http://www.w3.org/2000/svg"
   viewBox="0 0 634.45331 585.44"
   height="585.44"
   width="634.45331"
   xml:space="preserve"
   id="svg2"
   version="1.1"><metadata
     id="metadata8"><rdf:RDF><cc:Work
         rdf:about=""><dc:format>image/svg+xml</dc:format><dc:type
           rdf:resource="http://purl.org/dc/dcmitype/StillImage" /></cc:Work></rdf:RDF></metadata><defs
     id="defs6" /><g
     transform="matrix(1.3333333,0,0,-1.3333333,0,585.44)"
     id="g10"><g
       transform="scale(0.1)"
       id="g12"><path
         id="path14"
         style="fill:#d3d2d2;fill-opacity:1;fill-rule:nonzero;stroke:none"
         d="M 13.4609,0.429688 321.082,1.85938 V 2539.59 L 13.4609,2403.93 V 0.429688" /><path
         id="path16"
         style="fill:#d3d2d2;fill-opacity:1;fill-rule:nonzero;stroke:none"
         d="M 637.852,3461.91 322.508,3274.05 323.887,0 H 639.23 l -1.378,3461.91" /><path
         id="path18"
         style="fill:#d3d2d2;fill-opacity:1;fill-rule:nonzero;stroke:none"
         d="M 1311.67,2707.97 V 3.30078 h -164.8 V 2610.53 l 164.8,97.44" /><path
         id="path20"
         style="fill:#d3d2d2;fill-opacity:1;fill-rule:nonzero;stroke:none"
         d="m 1737.19,3855.72 1126.5,535.08 V 8.14844 H 1737 l 0.19,3847.57156" /><path
         id="path22"
         style="fill:#d3d2d2;fill-opacity:1;fill-rule:nonzero;stroke:none"
         d="m 3495.5,3117.92 431.34,211.79 V 2.55859 H 3488.29 L 3495.5,3117.92" /><path
         id="path24"
         style="fill:#bdbcbc;fill-opacity:1;fill-rule:nonzero;stroke:none"
         d="M 637.852,3461.91 1155.98,3095.67 V 2.55859 H 637.852 V 3461.91" /><path
         id="path26"
         style="fill:#bdbcbc;fill-opacity:1;fill-rule:nonzero;stroke:none"
         d="M 1311.67,2707.97 1736.69,2387.49 1735.14,2.55859 1311.42,2.71094 1311.67,2707.97" /><path
         id="path28"
         style="fill:#bdbcbc;fill-opacity:1;fill-rule:nonzero;stroke:none"
         d="M 2861.84,4385.22 3499.47,3890.16 3494.71,2.55859 H 2861.84 V 4385.22" /><path
         id="path30"
         style="fill:#bdbcbc;fill-opacity:1;fill-rule:nonzero;stroke:none"
         d="m 3926.84,3329.71 510.09,-430.78 v -299.48 l 308.39,-193.42 V 2.55859 H 3926.84 V 3329.71" /><path
         id="path32"
         style="fill:#c51b96;fill-opacity:1;fill-rule:nonzero;stroke:none"
         d="m 13.375,532.332 1019.815,448.34 321.05,1038.898 606.12,-125.97 929.22,1216.16 410.92,-499.4 251.93,-64.65 758.02,-838.25 434.58,90.68 v 271.94 l -353.28,-72.67 -694.41,787.58 -246.71,63.93 -567.77,691.1 L 1849.91,2190.49 1172.17,2331.66 813.98,1176.84 13.375,823.852 v -291.52" /><path
         id="path34"
         style="fill:none;stroke:#ffffff;stroke-width:26.75289917;stroke-linecap:butt;stroke-linejoin:miter;stroke-miterlimit:4;stroke-dasharray:none;stroke-opacity:1"
         d="m 13.375,532.332 1019.815,448.34 321.05,1038.898 606.12,-125.97 929.22,1216.16 410.92,-499.4 251.93,-64.65 758.02,-838.25 434.58,90.68 v 271.94 l -353.28,-72.67 -694.41,787.58 -246.71,63.93 -567.77,691.1 L 1849.91,2190.49 1172.17,2331.66 813.98,1176.84 13.375,823.852 Z" /><path
         id="path36"
         style="fill:#c51b96;fill-opacity:1;fill-rule:nonzero;stroke:none"
         d="m 4724.55,2052.17 20.51,4.48 v -244.74 l -20.25,-4.38 -0.26,244.64" /><path
         id="path38"
         style="fill:#f359b4;fill-opacity:1;fill-rule:nonzero;stroke:none"
         d="M 60.5898,830.16 26.957,814.988 60.5898,830.16" /><path
         id="path40"
         style="fill:#c51b96;fill-opacity:1;fill-rule:nonzero;stroke:none"
         d="M 46.3438,561.219 13.375,546.699 v 262.449 l 32.1172,14.161 0.8516,-262.09" /><path
         id="path42"
         style="fill:#231f20;fill-opacity:1;fill-rule:nonzero;stroke:none"
         d="M 929.969,1430.57 H 702.473 v -319.12 h 227.496 c 110.301,0 174.641,77.56 174.641,159.57 0,81.98 -64.34,159.55 -174.641,159.55 z M 948.344,763.531 H 702.473 V 200.641 H 300.324 V 1778.5 h 648.02 c 363.076,0 558.406,-248.2 558.406,-507.48 0,-259.3 -195.33,-507.489 -558.406,-507.489" /><path
         id="path44"
         style="fill:none;stroke:#ffffff;stroke-width:72.21320343;stroke-linecap:butt;stroke-linejoin:miter;stroke-miterlimit:7;stroke-dasharray:none;stroke-opacity:1"
         d="M 929.969,1430.57 H 702.473 v -319.12 h 227.496 c 110.301,0 174.641,77.56 174.641,159.57 0,81.98 -64.34,159.55 -174.641,159.55 z M 948.344,763.531 H 702.473 V 200.641 H 300.324 V 1778.5 h 648.02 c 363.076,0 558.406,-248.2 558.406,-507.48 0,-259.3 -195.33,-507.489 -558.406,-507.489 z" /><path
         id="path46"
         style="fill:#231f20;fill-opacity:1;fill-rule:nonzero;stroke:none"
         d="M 2667.2,200.641 V 956.328 L 2439.88,566.289 h -252.1 L 1960.44,956.328 V 200.641 H 1566.56 V 1778.5 h 387.14 l 360.12,-695.86 360.12,695.86 h 387.14 V 200.641 H 2667.2" /><path
         id="path48"
         style="fill:none;stroke:#ffffff;stroke-width:71.46859741;stroke-linecap:butt;stroke-linejoin:miter;stroke-miterlimit:7;stroke-dasharray:none;stroke-opacity:1"
         d="M 2667.2,200.641 V 956.328 L 2439.88,566.289 h -252.1 L 1960.44,956.328 V 200.641 H 1566.56 V 1778.5 h 387.14 l 360.12,-695.86 360.12,695.86 h 387.14 V 200.641 Z" /><path
         id="path50"
         style="fill:#231f20;fill-opacity:1;fill-rule:nonzero;stroke:none"
         d="M 3871.34,1180.15 3724.26,759.09 h 284.96 z m 319.4,-979.509 -75.84,234.898 H 3611.68 L 3531.24,200.641 H 3110.7 L 3705.87,1778.5 H 4016.1 L 4611.27,200.641 h -420.53" /><path
         id="path52"
         style="fill:none;stroke:#ffffff;stroke-width:72.21320343;stroke-linecap:butt;stroke-linejoin:miter;stroke-miterlimit:7;stroke-dasharray:none;stroke-opacity:1"
         d="M 3871.34,1180.15 3724.26,759.09 h 284.96 z m 319.4,-979.509 -75.84,234.898 H 3611.68 L 3531.24,200.641 H 3110.7 L 3705.87,1778.5 H 4016.1 L 4611.27,200.641 Z" /></g></g></svg>